<svg width="41" height="25" viewBox="0 0 41 25" fill="none" xmlns="http://www.w3.org/2000/svg">
<path opacity="0.5" d="M24.895 4.84729L24.895 -1.15003e-06L25.9869 -1.07179e-06C34.9401 -4.30283e-07 40.9453 5.02682 40.9453 13.6442C40.9453 21.0947 36.4687 24.2364 31.1186 24.2364C26.0961 24.2364 22.6021 21.4537 22.6021 17.5041C22.6021 13.5545 26.3144 10.4127 32.8656 10.4127C32.8656 6.73234 30.6819 5.02682 24.895 4.84729ZM18.3439 13.6442C18.3439 21.0947 13.8673 24.2364 8.5172 24.2364C3.49467 24.2364 0.000730134 21.4537 0.000730555 17.5041C0.000730976 13.5545 3.71304 10.4127 10.2642 10.4127C10.2642 6.73234 8.08046 5.02681 2.29363 4.84729L2.29363 -2.76946e-06L3.38549 -2.69122e-06C12.3387 -2.04971e-06 18.3439 5.02681 18.3439 13.6442Z" fill="#A57AAB"/>
</svg>
