<svg width="28" height="28" viewBox="0 0 28 28" fill="none" xmlns="http://www.w3.org/2000/svg">
<path d="M27.2465 13.7385V14.0585C27.2465 15.0575 27.2474 16.0568 27.2482 17.0562C27.25 19.0554 27.2518 21.0551 27.2465 23.0544L27.2465 23.0547C27.2429 23.961 27.0156 24.743 26.5746 25.3921C26.1341 26.0402 25.4911 26.5402 24.6804 26.9009L24.6767 26.9026L24.6766 26.9025C24.1655 27.1201 23.6156 27.2322 23.06 27.2322M27.2465 13.7385L23.0598 26.9822M27.2465 13.7385L27.2375 13.7407M27.2465 13.7385L27.2375 13.7407M23.06 27.2322C23.0599 27.2322 23.0598 27.2322 23.0597 27.2322L23.0598 26.9822M23.06 27.2322C23.0602 27.2322 23.0604 27.2321 23.0606 27.2321L23.0598 26.9822M23.06 27.2322C17.0088 27.2524 10.9568 27.2554 4.90408 27.2412M23.0598 26.9822C17.0086 27.0024 10.9567 27.0054 4.90404 26.9912M4.90408 27.2412C4.90438 27.2412 4.90469 27.2412 4.90499 27.2412L4.90404 26.9912M4.90408 27.2412C4.90387 27.2412 4.90366 27.2412 4.90345 27.2412L4.90404 26.9912M4.90408 27.2412C3.81215 27.2451 2.7631 26.8166 1.98693 26.0495C1.21052 25.2821 0.770523 24.2386 0.763537 23.1476L0.763532 23.1468C0.745489 17.0361 0.745489 10.9255 0.763533 4.81485C0.763944 2.59167 2.62041 0.813867 4.87049 0.75659L4.90404 26.9912M27.2375 13.7407C27.2377 12.856 27.2387 11.9711 27.2397 11.0862C27.242 9.10351 27.2442 7.12035 27.2375 5.13718C27.2488 4.70941 27.2049 4.28196 27.1068 3.8654L27.1069 3.86536L27.1047 3.8572C26.5847 1.94224 24.9493 0.756505 22.8951 0.756505H22.8633H22.8314H22.7995H22.7677H22.7358H22.704H22.6721H22.6402H22.6084H22.5765H22.5446H22.5128H22.4809H22.4491H22.4172H22.3853H22.3535H22.3216H22.2898H22.2579H22.226H22.1942H22.1623H22.1304H22.0986H22.0667H22.0349H22.003H21.9711H21.9393H21.9074H21.8756H21.8437H21.8118H21.78H21.7481H21.7162H21.6844H21.6525H21.6207H21.5888H21.5569H21.5251H21.4932H21.4614H21.4295H21.3976H21.3658H21.3339H21.3021H21.2702H21.2383H21.2065H21.1746H21.1427H21.1109H21.079H21.0472H21.0153H20.9834H20.9516H20.9197H20.8879H20.856H20.8241H20.7923H20.7604H20.7286H20.6967H20.6648H20.633H20.6011H20.5693H20.5374H20.5055H20.4737H20.4418H20.4099H20.3781H20.3462H20.3144H20.2825H20.2506H20.2188H20.1869H20.1551H20.1232H20.0913H20.0595H20.0276H19.9958H19.9639H19.932H19.9002H19.8683H19.8365H19.8046H19.7727H19.7409H19.709H19.6772H19.6453H19.6134H19.5816H19.5497H19.5178H19.486H19.4541H19.4223H19.3904H19.3585H19.3267H19.2948H19.263H19.2311H19.1992H19.1674H19.1355H19.1037H19.0718H19.0399H19.0081H18.9762H18.9444H18.9125H18.8806H18.8488H18.8169H18.7851H18.7532H18.7213H18.6895H18.6576H18.6258H18.5939H18.562H18.5302H18.4983H18.4665H18.4346H18.4027H18.3709H18.339H18.3072H18.2753H18.2434H18.2116H18.1797H18.1479H18.116H18.0841H18.0523H18.0204H17.9885H17.9567H17.9248H17.893H17.8611H17.8292H17.7974H17.7655H17.7337H17.7018H17.6699H17.6381H17.6062H17.5744H17.5425H17.5106H17.4788H17.4469H17.4151H17.3832H17.3513H17.3195H17.2876H17.2558H17.2239H17.192H17.1602H17.1283H17.0965H17.0646H17.0327H17.0009H16.969H16.9372H16.9053H16.8734H16.8416H16.8097H16.7779H16.746H16.7141H16.6823H16.6504H16.6186H16.5867H16.5548H16.523H16.4911H16.4593H16.4274H16.3955H16.3637H16.3318H16.3H16.2681H16.2363H16.2044H16.1725H16.1407H16.1088H16.077H16.0451H16.0132H15.9814H15.9495H15.9177H15.8858H15.8539H15.8221H15.7902H15.7584H15.7265H15.6946H15.6628H15.6309H15.5991H15.5672H15.5353H15.5035H15.4716H15.4398H15.4079H15.376H15.3442H15.3123H15.2805H15.2486H15.2167H15.1849H15.153H15.1212H15.0893H15.0574H15.0256H14.9937H14.9619H14.93H14.8981H14.8663H14.8344H14.8026H14.7707H14.7389H14.707H14.6751H14.6433H14.6114H14.5796H14.5477H14.5158H14.484H14.4521H14.4203H14.3884H14.3565H14.3247H14.2928H14.261H14.2291H14.1972H14.1654H14.1335H14.1017H14.0698H14.0379H14.0061H13.9742H13.9424H13.9105H13.8787H13.8468H13.8149H13.7831H13.7512H13.7194H13.6875H13.6556H13.6238H13.5919H13.5601H13.5282H13.4963H13.4645H13.4326H13.4008H13.3689H13.3371H13.3052H13.2733H13.2415H13.2096H13.1778H13.1459H13.114H13.0822H13.0503H13.0185H12.9866H12.9547H12.9229H12.891H12.8592H12.8273H12.7955H12.7636H12.7317H12.6999H12.668H12.6362H12.6043H12.5724H12.5406H12.5087H12.4769H12.445H12.4131H12.3813H12.3494H12.3176H12.2857H12.2539H12.222H12.1901H12.1583H12.1264H12.0946H12.0627H12.0308H11.999H11.9671H11.9353H11.9034H11.8715H11.8397H11.8078H11.776H11.7441H11.7123H11.6804H11.6485H11.6167H11.5848H11.553H11.5211H11.4892H11.4574H11.4255H11.3937H11.3618H11.33H11.2981H11.2662H11.2344H11.2025H11.1707H11.1388H11.1069H11.0751H11.0432H11.0114H10.9795H10.9477H10.9158H10.8839H10.8521H10.8202H10.7884H10.7565H10.7246H10.6928H10.6609H10.6291H10.5972H10.5654H10.5335H10.5016H10.4698H10.4379H10.4061H10.3742H10.3423H10.3105H10.2786H10.2468H10.2149H10.1831H10.1512H10.1193H10.0875H10.0556H10.0238H9.99191H9.96005H9.92819H9.89634H9.86448H9.83262H9.80076H9.7689H9.73705H9.70519H9.67333H9.64147H9.60961H9.57776H9.5459H9.51404H9.48218H9.45033H9.41847H9.38661H9.35475H9.32289H9.29104H9.25918H9.22732H9.19546H9.1636H9.13175H9.09989H9.06803H9.03617H9.00432H8.97246H8.9406H8.90874H8.87688H8.84503H8.81317H8.78131H8.74945H8.7176H8.68574H8.65388H8.62202H8.59017H8.55831H8.52645H8.49459H8.46273H8.43088H8.39902H8.36716H8.3353H8.30345H8.27159H8.23973H8.20787H8.17602H8.14416H8.1123H8.08044H8.04859H8.01673H7.98487H7.95301H7.92116H7.8893H7.85744H7.82558H7.79373H7.76187H7.73001H7.69815H7.6663H7.63444H7.60258H7.57073H7.53887H7.50701H7.47515H7.4433H7.41144H7.37958H7.34772H7.31587H7.28401H7.25215H7.22029H7.18844H7.15658H7.12472H7.09287H7.06101H7.02915H6.99729H6.96544H6.93358H6.90172H6.86987H6.83801H6.80615H6.77429H6.74244H6.71058H6.67872H6.64687H6.61501H6.58315C6.39838 0.756505 6.2107 0.754906 6.02174 0.753295C5.63885 0.750032 5.25067 0.746724 4.87062 0.756586L27.2375 13.7407ZM5.71983 7.6374C5.80592 8.8407 5.93167 10.0432 6.1005 11.238C6.26794 12.4554 7.17835 13.3116 8.37482 13.5127L8.37481 13.5128L8.37916 13.5134C8.72788 13.5658 9.08029 13.5897 9.43289 13.5849H9.44809H9.465H9.48191H9.49882H9.51573H9.53265H9.54956H9.56647H9.58338H9.60029H9.6172H9.63411H9.65102H9.66793H9.68484H9.70175H9.71866H9.73558H9.75249H9.7694H9.78631H9.80322H9.82013H9.83704H9.85395H9.87086H9.88777H9.90468H9.92159H9.93851H9.95542H9.97233H9.98924H10.0061H10.0231H10.04H10.0569H10.0738H10.0907H10.1076H10.1245H10.1414H10.1583H10.1753H10.1922H10.2091H10.226H10.2429H10.2598H10.2767H10.2936H10.3105H10.3275H10.3444H10.3613H10.3782H10.3951H10.412H10.4289H10.4458H10.4627H10.4797H10.4966H10.5135H10.5304H10.5473H10.5642H10.5811H10.598H10.6149H10.6319H10.6488H10.6657H10.6826H10.6995H10.7164H10.7333H10.7502H10.7671H10.784H10.801H10.8179H10.8348H10.8517H10.8686H10.8855H10.9024H10.9193H10.9362H10.9532H10.9701H10.987H11.0039H11.0208H11.0377H11.0546H11.0715H11.0884H11.1054H11.1223H11.1392H11.1561H11.173H11.1899H11.2068H11.2237H11.2406H11.2576H11.2745H11.2914H11.3083H11.3252H11.3421H11.359H11.3759H11.3928H11.4098H11.4267H11.4436H11.4605H11.4774H11.4943H11.5112H11.5281H11.545H11.5619H11.5789H11.5958H11.6127H11.6296H11.6465H11.6634H11.6803H11.6972H11.7141H11.7311H11.748H11.7649H11.7818H11.7987H11.8156H11.8325H11.8494H11.8663H11.8833H11.9002H11.9171H11.934H11.9509H11.9678H11.9847H12.0016H12.0185H12.0355H12.0524H12.0693H12.0862H12.1031H12.12H12.1369H12.1538H12.1707H12.1877H12.2046H12.2215H12.2384H12.2553H12.2722H12.2891H12.306H12.3229H12.3398H12.3568H12.3737H12.3906H12.4075H12.4244H12.4413H12.4582H12.4751H12.492H12.509H12.5259H12.5428H12.5597H12.5766H12.5935H12.6104H12.6273H12.6442H12.6612H12.6781H12.695H12.7119H12.7288H12.7457H12.7626H12.7795H12.7964H12.8134H12.8303H12.8472H12.8641H12.881H12.8979H12.9148H12.9317H12.9486H12.9656H12.9825H12.9994H13.0163H13.0332H13.0501H13.067H13.0839H13.1008H13.1177H13.1347H13.1516H13.1685H13.1854H13.2023H13.2192H13.2361H13.253H13.2699H13.2869H13.3038H13.3207H13.3376H13.3545H13.3714H13.3883H13.4052H13.4221H13.4391H13.456H13.4729H13.4898H13.5067H13.5236H13.5405H13.5574H13.5743H13.5913H13.6082H13.6251H13.642H13.6589H13.6758H13.6927H13.7096H13.7265H13.7435H13.7604H13.7773H13.7942H13.8111H13.828H13.8449H13.8618H13.8787H13.8956H13.9126H13.9295H13.9464H13.9633H13.9802H13.9971H14.014H14.0309H14.0478H14.0648H14.0817H14.0986H14.1155H14.1324H14.1493H14.1662H14.1831H14.2H14.217H14.2339H14.2508H14.2677H14.2846H14.3015H14.3184H14.3353H14.3522H14.3692H14.3861H14.403H14.4199H14.4368H14.4537H14.4706H14.4875H14.5044H14.5214H14.5383H14.5552H14.5721H14.589H14.6059H14.6228H14.6397H14.6566H14.6735H14.6905H14.7074H14.7243H14.7412H14.7581H14.775H14.7919H14.8088H14.8257H14.8427H14.8596H14.8765H14.8934H14.9103H14.9272H14.9441H14.961H14.9779H14.9949H15.0118H15.0287H15.0456H15.0625H15.0794H15.0963H15.1132H15.1301H15.1471H15.164H15.1809H15.1978H15.2147H15.2316H15.2485H15.2654H15.2823H15.2993H15.3162H15.3331H15.35H15.3669H15.3838H15.4007H15.4176H15.4345H15.4514H15.4684H15.4853H15.5022H15.5191H15.536H15.5529H15.5698H15.5867H15.6036H15.6206H15.6375H15.6544H15.6713H15.6882H15.7051H15.722H15.7389H15.7558H15.7728H15.7897H15.8066H15.8235H15.8404H15.8573H15.8742H15.8911H15.908H15.925H15.9419H15.9588H15.9757H15.9926H16.0095H16.0264H16.0433H16.0602H16.0772H16.0941H16.111H16.1279H16.1448H16.1617H16.1786H16.1955H16.2124H16.2293H16.2463H16.2632H16.2801H16.297H16.3139H16.3308H16.3477H16.3646H16.3815H16.3985H16.4154H16.4323H16.4492H16.4661H16.483H16.4999H16.5168H16.5337H16.5507H16.5676H16.5845H16.6014H16.6183H16.6352H16.6521H16.669H16.6859H16.7029H16.7198H16.7367H16.7536H16.7705H16.7874H16.8043H16.8212H16.8381H16.8551H16.872H16.8889H16.9058H16.9227H16.9396H16.9565H16.9734H16.9903H17.0072H17.0242H17.0411H17.058H17.0749H17.0918H17.1087H17.1256H17.1425H17.1594H17.1764H17.1933H17.2102H17.2271H17.244H17.2609H17.2778H17.2947H17.3116H17.3286H17.3455H17.3624H17.3793H17.3962H17.4131H17.43H17.4469H17.4638H17.4808H17.4977H17.5146H17.5315H17.5484H17.5653H17.5822H17.5991H17.616H17.6329H17.6499H17.6668H17.6837H17.7006H17.7175H17.7344H17.7513H17.7682H17.7851H17.8021H17.819H17.8359H17.8528H17.8697H17.8866H17.9035H17.9204H17.9373H17.9543H17.9712H17.9881H18.005H18.0219H18.0388H18.0557H18.0726H18.0895C18.1942 13.5849 18.3035 13.5867 18.4151 13.5885C18.648 13.5923 18.8912 13.5962 19.1248 13.5846L19.1253 13.5845C19.8873 13.545 20.5421 13.3014 21.0342 12.8614C21.5271 12.4208 21.8376 11.8002 21.9402 11.0422L21.9402 11.0421C22.0511 10.2206 22.1264 9.39111 22.2012 8.56816C22.2311 8.23949 22.2608 7.91185 22.2927 7.58618C22.3723 6.97799 22.2169 6.36234 21.8581 5.86444L21.8581 5.86443L8.31366 5.11658L8.3124 4.86658C8.31229 4.86658 8.31218 4.86658 8.31207 4.86658C7.47977 4.87083 6.79222 5.12102 6.32888 5.61318C5.86487 6.10604 5.65986 6.80528 5.71983 7.6374ZM5.71983 7.6374L5.9692 7.61956L5.71984 7.63754C5.71984 7.63749 5.71984 7.63744 5.71983 7.6374ZM19.1255 11.7034L19.1257 11.7034C19.4449 11.696 19.6549 11.6086 19.7973 11.4717C19.9428 11.3319 20.0489 11.1105 20.0988 10.7759C20.1619 10.3516 20.2024 9.92676 20.2436 9.49443C20.2583 9.34024 20.2731 9.18509 20.289 9.02868L20.2891 9.02799C20.2979 8.9442 20.3067 8.86063 20.3156 8.77724C20.3569 8.38641 20.3979 7.9994 20.4283 7.6113L20.4284 7.61088C20.4614 7.19854 20.4052 7.00999 20.3188 6.912C20.2333 6.81502 20.0579 6.73855 19.6576 6.72222L19.1255 11.7034ZM19.1255 11.7034C18.1096 11.7278 17.095 11.7229 16.041 11.7178C15.6741 11.7161 15.3024 11.7143 14.9243 11.7137L19.1255 11.7034ZM19.1866 6.72222H19.1856H19.1866ZM19.1866 6.72222H19.1875M19.1866 6.72222H19.1875M19.1875 6.72222H19.1884M19.1875 6.72222H19.1884M19.1884 6.72222H19.1894M19.1884 6.72222H19.1894M19.1894 6.72222H19.1903M19.1894 6.72222H19.1903M19.1903 6.72222H19.1912M19.1903 6.72222H19.1912M19.1912 6.72222H19.1922M19.1912 6.72222H19.1922M19.1922 6.72222H19.1931M19.1922 6.72222H19.1931M19.1931 6.72222H19.194M19.1931 6.72222H19.194M19.194 6.72222H19.195M19.194 6.72222H19.195M19.195 6.72222H19.1959M19.195 6.72222H19.1959M19.1959 6.72222H19.1968M19.1959 6.72222H19.1968M19.1968 6.72222H19.1978M19.1968 6.72222H19.1978M19.1978 6.72222H19.1987M19.1978 6.72222H19.1987M19.1987 6.72222H19.1996M19.1987 6.72222H19.1996M19.1996 6.72222H19.2006M19.1996 6.72222H19.2006M19.2006 6.72222H19.2015M19.2006 6.72222H19.2015M19.2015 6.72222H19.2024M19.2015 6.72222H19.2024M19.2024 6.72222H19.2034M19.2024 6.72222H19.2034M19.2034 6.72222H19.2043M19.2034 6.72222H19.2043M19.2043 6.72222H19.2052M19.2043 6.72222H19.2052M19.2052 6.72222H19.2061M19.2052 6.72222H19.2061M19.2061 6.72222H19.2071M19.2061 6.72222H19.2071M19.2071 6.72222H19.208M19.2071 6.72222H19.208M19.208 6.72222H19.2089M19.208 6.72222H19.2089M19.2089 6.72222H19.2099M19.2089 6.72222H19.2099M19.2099 6.72222H19.2108M19.2099 6.72222H19.2108M19.2108 6.72222H19.2117M19.2108 6.72222H19.2117M19.2117 6.72222H19.2127M19.2117 6.72222H19.2127M19.2127 6.72222H19.2136M19.2127 6.72222H19.2136M19.2136 6.72222H19.2145M19.2136 6.72222H19.2145M19.2145 6.72222H19.2155M19.2145 6.72222H19.2155M19.2155 6.72222H19.2164M19.2155 6.72222H19.2164M19.2164 6.72222H19.2173M19.2164 6.72222H19.2173M19.2173 6.72222H19.2183M19.2173 6.72222H19.2183M19.2183 6.72222H19.2192M19.2183 6.72222H19.2192M19.2192 6.72222H19.2201M19.2192 6.72222H19.2201M19.2201 6.72222H19.2211M19.2201 6.72222H19.2211M19.2211 6.72222H19.222M19.2211 6.72222H19.222M19.222 6.72222H19.2229M19.222 6.72222H19.2229M19.2229 6.72222H19.2238M19.2229 6.72222H19.2238M19.2238 6.72222H19.2248M19.2238 6.72222H19.2248M19.2248 6.72222H19.2257M19.2248 6.72222H19.2257M19.2257 6.72222H19.2266M19.2257 6.72222H19.2266M19.2266 6.72222H19.2276M19.2266 6.72222H19.2276M19.2276 6.72222H19.2285M19.2276 6.72222H19.2285M19.2285 6.72222H19.2294M19.2285 6.72222H19.2294M19.2294 6.72222H19.2304M19.2294 6.72222H19.2304M19.2304 6.72222H19.2313M19.2304 6.72222H19.2313M19.2313 6.72222H19.2322M19.2313 6.72222H19.2322M19.2322 6.72222H19.2332M19.2322 6.72222H19.2332M19.2332 6.72222H19.2341M19.2332 6.72222H19.2341M19.2341 6.72222H19.235M19.2341 6.72222H19.235M19.235 6.72222H19.236M19.235 6.72222H19.236M19.236 6.72222H19.2369M19.236 6.72222H19.2369M19.2369 6.72222H19.2378M19.2369 6.72222H19.2378M19.2378 6.72222H19.2388M19.2378 6.72222H19.2388M19.2388 6.72222H19.2397M19.2388 6.72222H19.2397M19.2397 6.72222H19.2406M19.2397 6.72222H19.2406M19.2406 6.72222H19.2415M19.2406 6.72222H19.2415M19.2415 6.72222H19.2425M19.2415 6.72222H19.2425M19.2425 6.72222H19.2434M19.2425 6.72222H19.2434M19.2434 6.72222H19.2443M19.2434 6.72222H19.2443M19.2443 6.72222H19.2453M19.2443 6.72222H19.2453M19.2453 6.72222H19.2462M19.2453 6.72222H19.2462M19.2462 6.72222H19.2471M19.2462 6.72222H19.2471M19.2471 6.72222H19.2481M19.2471 6.72222H19.2481M19.2481 6.72222H19.249M19.2481 6.72222H19.249M19.249 6.72222H19.2499M19.249 6.72222H19.2499M19.2499 6.72222H19.2509M19.2499 6.72222H19.2509M19.2509 6.72222H19.2518M19.2509 6.72222H19.2518M19.2518 6.72222H19.2527M19.2518 6.72222H19.2527M19.2527 6.72222H19.2537M19.2527 6.72222H19.2537M19.2537 6.72222H19.2546M19.2537 6.72222H19.2546M19.2546 6.72222H19.2555M19.2546 6.72222H19.2555M19.2555 6.72222H19.2565M19.2555 6.72222H19.2565M19.2565 6.72222H19.2574M19.2565 6.72222H19.2574M19.2574 6.72222H19.2583M19.2574 6.72222H19.2583M19.2583 6.72222H19.2592M19.2583 6.72222H19.2592M19.2592 6.72222H19.2602M19.2592 6.72222H19.2602M19.2602 6.72222H19.2611M19.2602 6.72222H19.2611M19.2611 6.72222H19.262M19.2611 6.72222H19.262M19.262 6.72222H19.263M19.262 6.72222H19.263M19.263 6.72222H19.2639M19.263 6.72222H19.2639M19.2639 6.72222H19.2648M19.2639 6.72222H19.2648M19.2648 6.72222H19.2658M19.2648 6.72222H19.2658M19.2658 6.72222H19.2667M19.2658 6.72222H19.2667M19.2667 6.72222H19.2676M19.2667 6.72222H19.2676M19.2676 6.72222H19.2686M19.2676 6.72222H19.2686M19.2686 6.72222H19.2695M19.2686 6.72222H19.2695M19.2695 6.72222H19.2704M19.2695 6.72222H19.2704M19.2704 6.72222H19.2714M19.2704 6.72222H19.2714M19.2714 6.72222H19.2723M19.2714 6.72222H19.2723M19.2723 6.72222H19.2732M19.2723 6.72222H19.2732M19.2732 6.72222H19.2742M19.2732 6.72222H19.2742M19.2742 6.72222H19.2751M19.2742 6.72222H19.2751M19.2751 6.72222H19.276M19.2751 6.72222H19.276M19.276 6.72222H19.277M19.276 6.72222H19.277M19.277 6.72222H19.2779M19.277 6.72222H19.2779M19.2779 6.72222H19.2788M19.2779 6.72222H19.2788M19.2788 6.72222H19.2797M19.2788 6.72222H19.2797M19.2797 6.72222H19.2807M19.2797 6.72222H19.2807M19.2807 6.72222H19.2816M19.2807 6.72222H19.2816M19.2816 6.72222H19.2825M19.2816 6.72222H19.2825M19.2825 6.72222H19.2835M19.2825 6.72222H19.2835M19.2835 6.72222H19.2844M19.2835 6.72222H19.2844M19.2844 6.72222H19.2853M19.2844 6.72222H19.2853M19.2853 6.72222H19.2863M19.2853 6.72222H19.2863M19.2863 6.72222H19.2872M19.2863 6.72222H19.2872M19.2872 6.72222H19.2881M19.2872 6.72222H19.2881M19.2881 6.72222H19.2891M19.2881 6.72222H19.2891M19.2891 6.72222H19.29M19.2891 6.72222H19.29M19.29 6.72222H19.2909M19.29 6.72222H19.2909M19.2909 6.72222H19.2919M19.2909 6.72222H19.2919M19.2919 6.72222H19.2928M19.2919 6.72222H19.2928M19.2928 6.72222H19.2937M19.2928 6.72222H19.2937M19.2937 6.72222H19.2947M19.2937 6.72222H19.2947M19.2947 6.72222H19.2956M19.2947 6.72222H19.2956M19.2956 6.72222H19.2965M19.2956 6.72222H19.2965M19.2965 6.72222H19.2974M19.2965 6.72222H19.2974M19.2974 6.72222H19.2984M19.2974 6.72222H19.2984M19.2984 6.72222H19.2993M19.2984 6.72222H19.2993M19.2993 6.72222H19.3002M19.2993 6.72222H19.3002M19.3002 6.72222H19.3012M19.3002 6.72222H19.3012M19.3012 6.72222H19.3021M19.3012 6.72222H19.3021M19.3021 6.72222H19.303M19.3021 6.72222H19.303M19.303 6.72222H19.304M19.303 6.72222H19.304M19.304 6.72222H19.3049M19.304 6.72222H19.3049M19.3049 6.72222H19.3058M19.3049 6.72222H19.3058M19.3058 6.72222H19.3068M19.3058 6.72222H19.3068M19.3068 6.72222H19.3077M19.3068 6.72222H19.3077M19.3077 6.72222H19.3086M19.3077 6.72222H19.3086M19.3086 6.72222H19.3096M19.3086 6.72222H19.3096M19.3096 6.72222H19.3105M19.3096 6.72222H19.3105M19.3105 6.72222H19.3114M19.3105 6.72222H19.3114M19.3114 6.72222H19.3124M19.3114 6.72222H19.3124M19.3124 6.72222H19.3133M19.3124 6.72222H19.3133M19.3133 6.72222H19.3142M19.3133 6.72222H19.3142M19.3142 6.72222H19.3151M19.3142 6.72222H19.3151M19.3151 6.72222H19.3161M19.3151 6.72222H19.3161M19.3161 6.72222H19.317M19.3161 6.72222H19.317M19.317 6.72222H19.3179M19.317 6.72222H19.3179M19.3179 6.72222H19.3189M19.3179 6.72222H19.3189M19.3189 6.72222H19.3198M19.3189 6.72222H19.3198M19.3198 6.72222H19.3207M19.3198 6.72222H19.3207M19.3207 6.72222H19.3217M19.3207 6.72222H19.3217M19.3217 6.72222H19.3226M19.3217 6.72222H19.3226M19.3226 6.72222H19.3235M19.3226 6.72222H19.3235M19.3235 6.72222H19.3245M19.3235 6.72222H19.3245M19.3245 6.72222H19.3254M19.3245 6.72222H19.3254M19.3254 6.72222H19.3263H19.3254ZM2.59869 14L2.59869 13.9997C2.59569 11.1371 2.59757 8.27532 2.60434 5.41425C2.60447 5.36983 2.60444 5.32597 2.60441 5.28266C2.60417 4.95568 2.60396 4.66072 2.67737 4.39894L2.67759 4.39814C2.92326 3.51075 3.48559 2.92828 4.38131 2.70442C4.71553 2.62834 5.05775 2.59282 5.4005 2.59861L5.4005 2.59865L5.40492 2.59864C11.1379 2.59414 16.8717 2.59414 22.6062 2.59865L22.6087 2.59863C22.9095 2.59588 23.2098 2.62259 23.5053 2.67837C24.6369 2.91105 25.3691 3.79365 25.3888 4.94427C25.397 5.50185 25.3943 6.05788 25.3915 6.61693C25.3901 6.8979 25.3888 7.17962 25.3888 7.46269C25.3888 8.89575 25.3859 10.3294 25.3831 11.7635C25.3758 15.4413 25.3685 19.1215 25.4091 22.7998C25.4256 24.2997 24.2902 25.4185 22.8052 25.4103H22.8051C18.6246 25.3878 14.4431 25.3922 10.2624 25.3966C8.57237 25.3984 6.88243 25.4002 5.19274 25.4002C4.63753 25.4002 4.15696 25.2944 3.76428 25.0729C3.37485 24.8533 3.05687 24.5115 2.83582 24.0116C2.66241 23.6147 2.60998 23.1307 2.60999 22.6551L2.60997 22.6533C2.59376 20.471 2.59563 18.2884 2.59749 16.1049C2.59809 15.4033 2.59869 14.7017 2.59869 14ZM7.57247 7.60996L7.57246 7.60984L7.32355 7.63307L7.57247 7.60996ZM13.7832 9.01906L13.7831 9.01909L13.8359 9.26344L13.7832 9.01906Z" fill="#A57AAB" stroke="#A57AAB" stroke-width="0.5"/>
</svg>
