<svg width="175" height="276" viewBox="0 0 175 276" fill="none" xmlns="http://www.w3.org/2000/svg">
<path d="M-7.04714 262.593C-1.9231 262.67 3.77057 261.615 10.318 259.416C16.9876 257.15 23.1583 253.627 28.4967 249.037C32.4754 245.642 35.9585 241.707 38.8449 237.345C43.1303 230.841 45.5653 224.474 46.2917 217.897C46.9346 211.524 46.3074 205.084 44.4464 198.949C42.5115 192.349 39.4647 186.124 35.4372 180.544C31.653 175.367 26.9018 170.971 21.4469 167.599C9.46062 160.067 -4.67627 156.639 -17.332 158.179C-18.75 158.356 -20.1562 158.614 -21.5437 158.954C-22.9323 159.235 -24.1594 160.037 -24.973 161.195C-25.4275 161.762 -25.7505 162.422 -25.919 163.129C-26.0875 163.836 -26.0972 164.572 -25.9474 165.284C-25.3733 171.517 -24.5372 177.832 -23.7248 183.766C-22.7905 190.608 -21.6998 198.09 -20.2967 207.291C-19.1742 214.607 -17.9622 222.311 -16.5746 230.812C-15.595 236.955 -14.5674 243.194 -13.539 249.372C-13.3887 250.287 -13.2477 251.204 -13.1067 252.12C-12.814 254.05 -12.5035 256.04 -12.1128 257.968L-12.0982 258.052C-11.6411 260.523 -9.36574 262.563 -7.04714 262.593ZM-2.4564 249.2C-3.41837 243.415 -4.39279 237.505 -5.34251 231.616C-6.68571 223.304 -7.89016 215.722 -9.01095 208.433C-10.4457 199.249 -11.5472 191.669 -12.5247 184.657C-13.1933 179.835 -13.9434 174.379 -14.5599 168.891L-13.6292 168.835L-13.4803 168.826L-13.1342 168.833L-12.6875 168.807C-12.5529 168.793 -12.4176 168.787 -12.2823 168.787C-9.36485 168.751 -6.44942 168.977 -3.57121 169.462C-3.20797 169.52 -2.8238 169.614 -2.47975 169.663L-2.19155 169.716L-2.16685 169.738L-2.06709 169.765C-1.86874 169.8 -1.56134 169.861 -1.42378 169.894C-1.00238 169.986 -0.58479 170.092 -0.167179 170.198C1.25781 170.579 2.71246 170.988 4.12462 171.464C5.53678 171.94 7.03905 172.513 8.44941 173.111C9.08335 173.39 9.68327 173.649 10.2942 173.935C10.3634 173.996 10.478 174.036 10.5795 174.09C10.83 174.246 11.0981 174.371 11.378 174.463L11.6484 174.606C14.2766 175.966 16.787 177.544 19.1533 179.322C19.6782 179.725 20.1646 180.112 20.6472 180.513C20.8252 180.67 21.0081 180.832 21.186 180.99C21.3879 181.212 21.6133 181.411 21.8582 181.585C22.7717 182.455 23.6453 183.36 24.4506 184.293C25.3713 185.354 26.2737 186.495 27.1219 187.668C27.4591 188.134 27.7777 188.601 28.0969 189.077L28.1809 189.151L28.2893 189.317C28.5073 189.668 28.7253 190.02 28.9297 190.376C30.3855 192.843 31.6393 195.423 32.6787 198.092C32.9294 198.745 33.1665 199.403 33.398 200.048C33.4439 200.185 33.5418 200.632 33.563 200.748C33.5898 200.878 33.6419 201.002 33.7164 201.112L33.8094 201.405C34.2082 202.787 34.5424 204.182 34.8103 205.563C35.0783 206.943 35.2926 208.364 35.4346 209.747C35.4709 210.105 35.4978 210.463 35.5296 210.825L35.5485 211.053C35.5481 211.272 35.557 211.491 35.5659 211.71L35.5888 212.979C35.5812 214.388 35.4955 215.795 35.3321 217.193C35.2559 217.847 35.1562 218.497 35.051 219.134L35.0085 219.351L34.9823 219.381L34.917 219.684L34.7923 220.233C34.4685 221.524 34.0638 222.793 33.5804 224.032C33.3702 224.558 33.1333 225.105 32.7956 225.835L32.6591 226.119C32.4257 226.572 32.1829 227.025 31.9396 227.469C30.3593 230.347 28.5146 233.072 26.4292 235.607L25.9447 236.155L25.8356 236.278C25.604 236.469 25.4037 236.695 25.242 236.948C24.8317 237.412 24.3738 237.86 23.9295 238.302C22.9263 239.296 21.865 240.256 20.7673 241.157C19.6696 242.059 18.6487 242.844 17.5554 243.591L17.0004 243.979L16.7092 244.179C16.1605 244.52 15.5976 244.857 15.0341 245.185C12.9816 246.364 10.8481 247.396 8.64952 248.275C7.64712 248.68 6.61509 249.06 5.58566 249.406L5.08564 249.553C4.59696 249.706 4.11497 249.843 3.63969 249.961C1.96281 250.412 0.267057 250.784 -1.42575 251.053L-2.11538 251.155L-2.4564 249.2Z" fill="#E6F2DE"/>
<path d="M34.6601 82.8781C40.2484 92.2073 43.0259 102.914 38.0138 113.424C36.6426 116.304 38.9125 119.917 41.6612 120.903C44.9199 122.078 47.7788 120.13 49.1337 117.288C55.8627 103.17 51.659 87.9663 43.7458 75.3345C46.9278 72.0533 49.6486 68.3546 51.8338 64.3395C61.6288 46.1421 59.4116 23.8869 46.8056 7.5485C42.1748 1.54742 33.268 9.19674 37.8841 15.1847C45.4378 24.965 48.3382 38.4632 44.9548 50.3703C43.3051 56.0051 40.4429 61.2082 36.5684 65.6156C30.5544 58.6445 23.1349 51.7617 14.0342 49.3604C5.89861 47.1997 -3.27622 48.6862 -9.61581 54.4879C-12.6525 57.2416 -14.7197 60.9013 -15.5119 64.9262C-16.3041 68.9512 -15.7793 73.1278 -14.015 76.8389C-10.1818 85.1317 -1.67629 90.0129 7.22449 90.7033C16.8444 91.4253 26.4803 88.2957 34.6601 82.8781ZM-2.95643 64.5636C-0.0093164 60.3699 6.10348 59.2938 10.7965 60.6163C17.2945 62.4321 22.4197 67.398 26.824 72.3044C27.1293 72.6447 27.4265 73.0042 27.728 73.3588C24.8917 75.1728 21.8298 76.6088 18.6198 77.6304C13.0341 79.3922 6.14889 80.03 0.958252 76.7768C-2.98206 74.306 -5.96387 68.8354 -2.95643 64.5636V64.5636Z" fill="#E6F2DE"/>
<path d="M66.1024 202.476C63.0434 203.278 61.7029 207.357 62.7583 210.09C64.0269 213.328 67.2966 214.265 70.3625 213.425C91.0733 207.914 104.583 186.43 100.277 165.367C98.2185 155.367 92.599 146.446 84.4634 140.264C76.3278 134.081 66.23 131.058 56.0483 131.756C48.5284 132.252 49.7403 143.951 57.2674 143.497C72.0729 142.562 86.095 152.867 88.7755 167.647C91.7084 183.713 81.6923 198.339 66.1024 202.476Z" fill="#E6F2DE"/>
<path d="M110.304 92.2551C115.564 98.0559 121.963 105.25 122.26 113.585C122.504 120.472 117.158 124.809 110.776 121.853C102.965 118.201 99.3365 108.903 93.3728 103.135C87.5353 97.4784 79.6634 93.5626 71.3509 95.5267C64.0445 97.2446 66.0545 108.713 73.3501 106.968C80.2279 105.343 85.3744 111.271 89.1418 116.145C93.9889 122.411 98.4592 128.869 105.832 132.369C120.304 139.241 134.7 127.918 133.761 112.353C132.739 95.2876 117.68 84.5295 108.071 72.1247C103.917 66.7777 99.9809 60.0495 100.761 52.9836C101.333 47.7185 104.826 41.541 110.702 41.2332C117.343 40.8845 122.995 47.1028 126.957 51.5803C132.776 58.1478 138.546 64.7324 147.067 67.7281C154.116 70.2064 158.001 59.1728 150.929 56.6914C143.66 54.1398 139.16 47.481 134.129 42.0486C129.595 37.1607 124.146 32.513 117.623 30.5866C103.083 26.2871 90.6208 37.9307 89.1528 52.1442C87.4522 68.6265 100.268 81.1853 110.304 92.2551Z" fill="#E6F2DE"/>
<path d="M61.2692 163.796C58.4884 161.257 54.1762 161.454 51.6377 164.234C49.0991 167.015 49.2954 171.327 52.0762 173.866C54.857 176.404 59.1693 176.208 61.7078 173.427C64.2464 170.647 64.05 166.334 61.2692 163.796Z" fill="#E6F2DE"/>
<path d="M20.843 139.603C21.0383 135.843 18.1483 132.636 14.3881 132.441C10.628 132.246 7.4214 135.135 7.22613 138.896C7.03086 142.656 9.92081 145.862 13.681 146.058C17.4412 146.253 20.6477 143.363 20.843 139.603Z" fill="#E6F2DE"/>
</svg>
