<svg width="428" height="115" viewBox="0 0 428 115" fill="none" xmlns="http://www.w3.org/2000/svg">
<mask id="mask0_926_25" style="mask-type:alpha" maskUnits="userSpaceOnUse" x="0" y="0" width="428" height="115">
<rect width="428" height="115" fill="#D9D9D9"/>
</mask>
<g mask="url(#mask0_926_25)">
<path d="M835.902 -1.50691C838.712 60.765 780.885 117.248 709.368 137.191C637.851 157.135 559.065 147.407 486.774 129.47C414.483 111.533 344.999 85.6087 271.134 72.778C187.455 58.228 99.11 61.1196 17.7984 82.9851C-48.9081 100.925 -109.656 130.997 -171.077 159.016C-232.498 187.036 -296.338 213.556 -365.498 223.332C-434.657 233.109 -510.673 224.09 -564.742 187.179C-618.811 150.268 -643.397 81.9806 -609.406 31.3048C-587.764 -0.962817 -546.661 -21.8483 -503.701 -31.9661C-460.742 -42.0839 -415.471 -42.7255 -370.803 -43.2968C-0.679236 -48.0295 369.737 -52.7594 739.497 -38.334C777.98 -36.8313 826.114 -35.0065 835.902 -4.23607C836.112 -3.57544 835.869 -2.18919 835.902 -1.50691Z" fill="#C6DF5F"/>
</g>
</svg>
