<svg width="227" height="494" viewBox="0 0 227 494" fill="none" xmlns="http://www.w3.org/2000/svg">
<path d="M152.145 480.41C157.269 480.487 162.962 479.432 169.51 477.234C176.179 474.967 182.35 471.444 187.689 466.854C191.667 463.459 195.15 459.524 198.037 455.163C202.322 448.658 204.757 442.292 205.484 435.715C206.126 429.342 205.499 422.901 203.638 416.766C201.703 410.166 198.657 403.942 194.629 398.362C190.845 393.185 186.094 388.788 180.639 385.416C168.653 377.885 154.516 374.456 141.86 375.997C140.442 376.173 139.036 376.432 137.648 376.771C136.26 377.052 135.032 377.854 134.219 379.012C133.764 379.579 133.441 380.24 133.273 380.946C133.104 381.653 133.095 382.389 133.244 383.101C133.819 389.334 134.655 395.65 135.467 401.584C136.401 408.426 137.492 415.908 138.895 425.108C140.018 432.425 141.23 440.128 142.617 448.629C143.597 454.772 144.624 461.011 145.653 467.189C145.803 468.105 145.944 469.021 146.085 469.937C146.378 471.867 146.688 473.857 147.079 475.786L147.094 475.869C147.551 478.34 149.826 480.381 152.145 480.41ZM156.735 467.017C155.774 461.232 154.799 455.322 153.849 449.434C152.506 441.122 151.302 433.539 150.181 426.251C148.746 417.066 147.645 409.487 146.667 402.474C145.999 397.653 145.249 392.196 144.632 386.708L145.563 386.652L145.712 386.643L146.058 386.651L146.504 386.624C146.639 386.611 146.774 386.604 146.91 386.605C149.827 386.568 152.742 386.794 155.621 387.28C155.984 387.337 156.368 387.431 156.712 387.481L157 387.533L157.025 387.555L157.125 387.582C157.323 387.617 157.631 387.678 157.768 387.712C158.19 387.803 158.607 387.909 159.025 388.015C160.45 388.397 161.904 388.805 163.317 389.281C164.729 389.757 166.231 390.331 167.641 390.928C168.275 391.208 168.875 391.466 169.486 391.752C169.555 391.813 169.67 391.853 169.771 391.908C170.022 392.063 170.29 392.188 170.57 392.28L170.84 392.423C173.469 393.784 175.979 395.362 178.345 397.14C178.87 397.543 179.356 397.929 179.839 398.33C180.017 398.488 180.2 398.649 180.378 398.807C180.58 399.029 180.805 399.228 181.05 399.402C181.964 400.272 182.837 401.177 183.643 402.11C184.563 403.171 185.466 404.313 186.314 405.486C186.651 405.951 186.97 406.418 187.289 406.894L187.373 406.968L187.481 407.135C187.699 407.486 187.917 407.837 188.122 408.194C189.577 410.661 190.831 413.241 191.871 415.909C192.121 416.562 192.358 417.22 192.59 417.865C192.636 418.002 192.734 418.45 192.755 418.565C192.782 418.695 192.834 418.819 192.908 418.929L193.001 419.223C193.4 420.605 193.734 422 194.002 423.38C194.27 424.761 194.485 426.182 194.627 427.565C194.663 427.922 194.69 428.28 194.722 428.643L194.74 428.87C194.74 429.09 194.749 429.309 194.758 429.528L194.781 430.797C194.773 432.205 194.687 433.612 194.524 435.011C194.448 435.664 194.348 436.315 194.243 436.951L194.2 437.169L194.174 437.198L194.109 437.501L193.984 438.05C193.66 439.341 193.256 440.61 192.772 441.85C192.562 442.376 192.325 442.922 191.988 443.652L191.851 443.936C191.618 444.389 191.375 444.843 191.132 445.287C189.551 448.165 187.706 450.889 185.621 453.425L185.137 453.972L185.027 454.095C184.796 454.286 184.596 454.513 184.434 454.766C184.024 455.229 183.566 455.677 183.121 456.119C182.118 457.113 181.057 458.073 179.959 458.975C178.861 459.876 177.841 460.661 176.747 461.408L176.192 461.796L175.901 461.996C175.352 462.337 174.789 462.674 174.226 463.002C172.173 464.181 170.04 465.214 167.841 466.092C166.839 466.498 165.807 466.877 164.778 467.223L164.278 467.37C163.789 467.524 163.307 467.66 162.832 467.779C161.155 468.229 159.459 468.601 157.766 468.871L157.077 468.972L156.735 467.017Z" fill="#E6F2DE"/>
<path d="M188.529 289.696C187.742 287.209 187.236 284.653 187.021 282.076C186.905 280.649 185.662 279.065 184.556 278.315C183.316 277.479 181.817 277.142 180.375 277.374C179.642 277.495 178.948 277.763 178.333 278.161C177.718 278.559 177.195 279.079 176.794 279.691L176.209 280.871L176.17 280.965C175.882 281.847 175.823 282.797 175.999 283.726C176.747 291.708 179.874 299.381 184.977 305.755C190.079 312.128 196.923 316.911 204.626 319.485C208.766 320.895 213.085 321.621 217.407 321.634C218.86 321.722 220.275 321.28 221.383 320.389C222.492 319.436 223.159 318.071 223.242 316.591C223.281 315.862 223.174 315.126 222.927 314.427C222.681 313.728 222.3 313.079 221.806 312.517C221.242 311.925 219.734 310.531 217.893 310.532C215.56 310.531 213.222 310.292 210.918 309.818C208.395 309.198 205.936 308.307 203.587 307.159C198.935 304.804 194.964 301.26 192.098 296.906C190.644 294.633 189.447 292.214 188.529 289.696Z" fill="#E6F2DE"/>
<path d="M85.6278 82.8781C91.2161 92.2073 93.9936 102.914 88.9816 113.424C87.6104 116.304 89.8803 119.917 92.6289 120.903C95.8877 122.078 98.7466 120.13 100.102 117.288C106.83 103.17 102.627 87.9663 94.7136 75.3345C97.8956 72.0533 100.616 68.3546 102.802 64.3395C112.597 46.1421 110.379 23.8869 97.7734 7.5485C93.1425 1.54742 84.2357 9.19674 88.8518 15.1847C96.4056 24.965 99.306 38.4632 95.9226 50.3703C94.2729 56.0051 91.4107 61.2082 87.5362 65.6156C81.5222 58.6445 74.1026 51.7617 65.002 49.3604C56.8664 47.1997 47.6916 48.6862 41.352 54.4879C38.3153 57.2416 36.2481 60.9013 35.4559 64.9262C34.6637 68.9512 35.1885 73.1278 36.9528 76.8389C40.7859 85.1317 49.2915 90.0129 58.1923 90.7033C67.8122 91.4253 77.448 88.2957 85.6278 82.8781ZM48.0113 64.5636C50.9585 60.3699 57.0713 59.2938 61.7642 60.6163C68.2623 62.4321 73.3875 67.398 77.7918 72.3044C78.0971 72.6447 78.3942 73.0042 78.6958 73.3588C75.8595 75.1728 72.7976 76.6088 69.5876 77.6304C64.0019 79.3922 57.1167 80.03 51.926 76.7768C47.9857 74.306 45.0039 68.8354 48.0113 64.5636Z" fill="#E6F2DE"/>
<path d="M143.657 263.238C140.598 264.04 139.258 268.119 140.313 270.852C141.582 274.09 144.851 275.027 147.917 274.187C168.628 268.676 182.138 247.192 177.831 226.129C175.773 216.129 170.154 207.208 162.018 201.026C153.883 194.843 143.785 191.82 133.603 192.518C126.083 193.014 127.295 204.713 134.822 204.259C149.628 203.324 163.65 213.629 166.33 228.41C169.263 244.475 159.247 259.101 143.657 263.238Z" fill="#E6F2DE"/>
<path d="M162.304 123.255C167.564 129.056 173.963 136.25 174.26 144.585C174.504 151.472 169.158 155.809 162.776 152.853C154.965 149.201 151.336 139.903 145.373 134.135C139.535 128.478 131.663 124.563 123.351 126.527C116.044 128.245 118.055 139.713 125.35 137.968C132.228 136.343 137.374 142.271 141.142 147.145C145.989 153.411 150.459 159.869 157.832 163.369C172.304 170.241 186.7 158.918 185.761 143.353C184.739 126.288 169.68 115.529 160.071 103.125C155.917 97.7777 151.981 91.0495 152.761 83.9836C153.333 78.7185 156.826 72.541 162.702 72.2332C169.343 71.8845 174.995 78.1028 178.957 82.5803C184.776 89.1478 190.546 95.7324 199.067 98.7281C206.116 101.206 210.001 90.1728 202.929 87.6914C195.66 85.1398 191.16 78.481 186.129 73.0486C181.595 68.1607 176.146 63.513 169.623 61.5866C155.083 57.2871 142.621 68.9307 141.153 83.1442C139.452 99.6265 152.268 112.185 162.304 123.255Z" fill="#E6F2DE"/>
<path d="M74.2537 359.112L91.8457 334.495L99.7483 357.71C101.292 362.249 107.498 361.678 109.912 358.487C110.342 357.921 110.73 357.335 111.15 356.761C117.065 348.726 122.216 340.157 126.539 331.167C131.283 337.772 136.564 343.974 142.329 349.709C144.831 352.177 149.585 352.722 151.63 349.178L169.285 318.562C173.034 312.065 163.37 305.439 159.571 312.014L145.647 336.25C140.112 330.212 135.133 323.688 130.77 316.755C128.09 312.463 121.977 312.267 119.932 317.344C116.376 326.089 111.992 334.474 106.841 342.387C104.227 334.705 101.613 327.022 98.9995 319.34C97.4843 314.888 91.2128 315.296 88.8316 318.569L84.1016 325.187L64.5438 352.568C60.1676 358.737 69.8492 365.273 74.2537 359.112Z" fill="#E6F2DE"/>
<path d="M113.269 194.796C110.488 192.257 106.176 192.454 103.638 195.234C101.099 198.015 101.295 202.327 104.076 204.866C106.857 207.404 111.169 207.208 113.708 204.427C116.246 201.647 116.05 197.334 113.269 194.796Z" fill="#E6F2DE"/>
<path d="M14.9436 115.931C12.4939 113.072 8.19008 112.739 5.33068 115.189C2.47128 117.639 2.13914 121.943 4.58884 124.802C7.03853 127.661 11.3424 127.994 14.2018 125.544C17.0612 123.094 17.3933 118.79 14.9436 115.931Z" fill="#E6F2DE"/>
</svg>
