<svg width="168" height="229" viewBox="0 0 168 229" fill="none" xmlns="http://www.w3.org/2000/svg">
<path d="M162.589 136.45C165.04 132.818 164.082 127.887 160.45 125.437C156.818 122.987 151.887 123.944 149.437 127.576C146.986 131.208 147.944 136.139 151.576 138.589C155.208 141.04 160.139 140.082 162.589 136.45Z" fill="#FED000"/>
<path d="M46.5342 53.3323C45.7539 58.3971 46.0161 64.1817 47.2939 70.9692C48.6221 77.887 51.264 84.4833 55.0767 90.4019C57.8923 94.8094 61.3115 98.8003 65.2349 102.259C71.0889 107.398 77.06 110.684 83.4748 112.308C89.6991 113.82 96.1645 114.084 102.497 113.084C109.301 112.075 115.884 109.912 121.965 106.69C127.613 103.653 132.621 99.5514 136.711 94.6117C145.818 83.7743 151.157 70.2427 151.37 57.4953C151.391 56.0666 151.328 54.6381 151.182 53.2171C151.095 51.8031 150.469 50.4774 149.433 49.5124C148.935 48.9843 148.325 48.5736 147.648 48.3095C146.971 48.0455 146.243 47.9348 145.518 47.9853C139.265 47.6973 132.894 47.6575 126.905 47.6466C119.999 47.6316 112.439 47.6838 103.133 47.809C95.7312 47.9153 87.9342 48.0571 79.3233 48.2632C73.1034 48.3891 66.7827 48.5495 60.522 48.7191C59.5944 48.7421 58.6674 48.7558 57.7404 48.7696C55.7885 48.7943 53.7751 48.8283 51.8109 48.9503L51.7265 48.9532C49.2159 49.0664 46.8822 51.0397 46.5342 53.3323ZM59.169 59.7201C65.0313 59.5623 71.0194 59.4095 76.9825 59.278C85.4003 59.09 93.0764 58.9391 100.45 58.8307C109.744 58.6718 117.403 58.6225 124.483 58.618C129.351 58.6184 134.859 58.6254 140.38 58.769L140.307 59.6985L140.295 59.8472L140.241 60.189L140.206 60.6352C140.2 60.7704 140.188 60.9053 140.169 61.0392C139.804 63.934 139.18 66.7907 138.303 69.5748C138.196 69.9267 138.05 70.2943 137.954 70.6283L137.862 70.9065L137.837 70.928L137.797 71.0231C137.735 71.2148 137.632 71.5109 137.58 71.6425C137.431 72.0473 137.269 72.4464 137.107 72.8455C136.533 74.2045 135.929 75.5893 135.263 76.9226C134.598 78.2559 133.823 79.6651 133.037 80.98C132.673 81.5694 132.335 82.1282 131.968 82.6941C131.898 82.7542 131.842 82.8622 131.774 82.9552C131.586 83.182 131.425 83.4304 131.295 83.6949L131.117 83.9432C129.408 86.3594 127.5 88.6291 125.413 90.7286C124.942 91.1931 124.492 91.6217 124.029 92.0447C123.849 92.1993 123.663 92.3582 123.483 92.5128C123.235 92.6824 123.007 92.8782 122.801 93.0969C121.814 93.8821 120.797 94.6231 119.762 95.2925C118.585 96.0587 117.33 96.7955 116.052 97.4745C115.544 97.7446 115.038 97.996 114.523 98.2467L114.438 98.3197L114.258 98.4042C113.88 98.5719 113.502 98.7396 113.121 98.8929C110.477 99.9959 107.749 100.883 104.963 101.546C104.282 101.705 103.598 101.849 102.927 101.99C102.785 102.016 102.328 102.052 102.211 102.057C102.078 102.065 101.949 102.1 101.829 102.159L101.526 102.211C100.102 102.416 98.6743 102.555 97.2702 102.631C95.8661 102.706 94.4292 102.723 93.0396 102.674C92.6805 102.661 92.3222 102.638 91.9589 102.62L91.7308 102.607C91.5134 102.577 91.2953 102.555 91.0772 102.534L89.8172 102.382C88.4231 102.181 87.0414 101.903 85.6785 101.549C85.0415 101.384 84.411 101.196 83.7947 101.004L83.5852 100.932L83.5595 100.902L83.2686 100.795L82.7418 100.596C81.5077 100.098 80.3065 99.5231 79.1452 98.8739C78.6528 98.5934 78.1439 98.2836 77.4672 97.8488L77.205 97.6746C76.7884 97.3812 76.3726 97.0784 75.966 96.7763C73.3326 94.8155 70.8877 92.6138 68.6628 90.1997L68.1873 89.6446L68.0802 89.5196C67.9225 89.264 67.7259 89.0345 67.4975 88.8395C67.0948 88.3694 66.7143 87.8543 66.3373 87.3535C65.4907 86.2232 64.6856 85.0399 63.9434 83.8288C63.2013 82.6176 62.5642 81.4985 61.9744 80.3129L61.6662 79.7098L61.5086 79.3939C61.2462 78.8036 60.9896 78.1997 60.7423 77.5965C59.8566 75.4014 59.127 73.1462 58.559 70.8478C58.2951 69.7992 58.0613 68.7248 57.8597 67.6575L57.7831 67.1421C57.698 66.6369 57.6294 66.1408 57.5771 65.6537C57.3614 63.9308 57.2258 62.2 57.1917 60.4863L57.1856 59.7892L59.169 59.7201Z" fill="#C6DF5F"/>
<path d="M37.9415 168.47C29.5136 172.052 20.2618 173.129 12.0764 167.732C9.83295 166.256 6.55661 167.731 5.41566 169.909C4.05847 172.491 5.35302 175.101 7.56642 176.56C18.5627 183.806 31.7303 182.06 43.1818 176.921C45.5503 179.955 48.3204 182.653 51.4164 184.94C65.4605 195.215 84.2795 195.942 99.3656 187.318C104.907 184.15 99.5576 175.836 94.029 178.993C84.9974 184.162 73.4034 185.019 63.8637 180.819C59.3548 178.791 55.3463 175.801 52.1187 172.06C58.629 167.851 65.2284 162.459 68.2844 155.146C71.0281 148.61 70.8501 140.786 66.7447 134.827C64.7995 131.975 61.9863 129.828 58.7209 128.701C55.4555 127.575 51.9112 127.529 48.6117 128.571C41.2513 130.808 36.1958 137.338 34.5899 144.682C32.8743 152.622 34.3695 161.021 37.9415 168.47ZM57.5703 139.215C60.727 142.159 60.9172 147.382 59.271 151.143C57.0045 156.353 52.2695 160.053 47.6675 163.158C47.3483 163.373 47.0141 163.58 46.6834 163.79C45.4987 161.215 44.6553 158.495 44.1748 155.699C43.3517 150.836 43.6166 145.02 46.9307 141.067C49.4475 138.066 54.3554 136.213 57.5703 139.215Z" fill="#FD8199"/>
</svg>
