<svg width="31" height="23" viewBox="0 0 31 23" fill="none" xmlns="http://www.w3.org/2000/svg">
<path d="M30 12C29.3028 11.0671 28.3972 10.31 27.3554 9.78916C26.3137 9.2683 25.1647 8.99806 24 9.00001C24.7592 9.00078 25.5029 8.78547 26.1443 8.37925C26.7856 7.97303 27.2982 7.39267 27.622 6.70598C27.9458 6.01929 28.0674 5.25464 27.9728 4.50136C27.8782 3.74809 27.5711 3.0373 27.0875 2.45206C26.6039 1.86681 25.9637 1.43127 25.2418 1.19634C24.5199 0.961404 23.746 0.936773 23.0106 1.12532C22.2752 1.31388 21.6086 1.70782 21.0888 2.26113C20.5689 2.81444 20.2173 3.50427 20.075 4.25M1 12C1.69725 11.0671 2.60285 10.31 3.64457 9.78916C4.6863 9.2683 5.83532 8.99806 7 9.00001C6.2408 9.00078 5.4971 8.78547 4.85572 8.37925C4.21434 7.97303 3.70181 7.39267 3.37801 6.70598C3.05422 6.01929 2.93253 5.25464 3.02718 4.50136C3.12182 3.74809 3.42887 3.0373 3.91247 2.45206C4.39607 1.86681 5.03624 1.43127 5.75817 1.19634C6.4801 0.961404 7.25399 0.936773 7.9894 1.12532C8.72481 1.31388 9.39138 1.70782 9.91121 2.26113C10.431 2.81444 10.7827 3.50427 10.925 4.25M8.30005 21.5002C8.95858 20.1516 9.98265 19.015 11.2556 18.22C12.5286 17.4249 13.9992 17.0034 15.5 17.0034C17.0009 17.0034 18.4715 17.4249 19.7445 18.22C21.0174 19.015 22.0415 20.1516 22.7001 21.5002M20.5 12C20.5 14.7614 18.2614 17 15.5 17C12.7386 17 10.5 14.7614 10.5 12C10.5 9.23858 12.7386 7 15.5 7C18.2614 7 20.5 9.23858 20.5 12Z" stroke="white" stroke-width="2" stroke-linecap="round" stroke-linejoin="round"/>
</svg>
