<svg width="30" height="26" viewBox="0 0 30 26" fill="none" xmlns="http://www.w3.org/2000/svg">
<path d="M6.59747 14.5008C7.06394 14.5376 7.53331 14.5032 7.98941 14.3988L7.98942 14.3988L7.99128 14.3983C9.92526 13.94 11.6114 12.9868 13.1371 11.7703C14.5306 10.6601 15.6792 9.33512 16.2838 7.60452L16.7756 8.1515L16.9875 8.38719L17.1673 8.12622L17.9344 7.01322L18.0376 6.86337L17.9268 6.71905C17.742 6.47859 17.5609 6.24778 17.3838 6.02198C17.0249 5.5645 16.6821 5.12761 16.3579 4.67277L16.3578 4.67267C15.8513 3.96278 15.1589 3.63003 14.3559 3.50313L14.3559 3.50312L14.3533 3.50274C13.3255 3.35129 12.2768 3.43192 11.2843 3.73868C7.74971 4.7815 4.84184 6.77646 2.54209 9.63788L2.54203 9.63796C1.72425 10.6563 1.10255 11.8123 0.869254 13.132C0.665005 14.2837 0.63962 15.4944 1.48288 16.5598C3.21286 18.7493 4.94011 20.9415 6.66461 23.1364L6.86119 22.982L6.66461 23.1364C7.76917 24.5422 9.23079 25.2313 11.0055 25.2495C12.4354 25.2643 13.8015 24.9562 15.1239 24.5029L15.124 24.5029C19.5617 22.9793 23.0621 20.218 25.7571 16.4222C27.2442 14.3436 28.3921 12.0429 29.1582 9.60566C29.2426 9.33762 29.2755 9.07782 29.2285 8.81849C29.1813 8.55823 29.0575 8.32027 28.8635 8.08964C27.5072 6.4721 26.168 4.84148 24.8276 3.20952C24.3555 2.63462 23.8831 2.05955 23.4099 1.48483C23.2841 1.31635 23.1455 1.15784 22.9952 1.01072L22.9901 1.00573L22.9847 1.00104C22.7512 0.797183 22.467 0.709508 22.1905 0.767442C21.9151 0.825149 21.6885 1.01864 21.55 1.29511L21.546 1.30312L21.5426 1.3114C21.4883 1.44244 21.4436 1.57721 21.4088 1.71467C20.3092 5.10241 18.5555 8.10211 16.0766 10.6606C13.4843 13.3353 10.3882 15.1428 6.738 15.9386C5.79658 16.1434 4.8698 16.2297 3.95208 15.997L3.95194 15.997C3.44904 15.8698 3.1192 15.6684 2.91131 15.3977C2.70307 15.1266 2.59218 14.7535 2.59213 14.2334C2.59512 13.1206 3.0151 12.1364 3.65829 11.2332L3.6583 11.2332C5.70347 8.36119 8.47662 6.48736 11.8439 5.47518L11.844 5.47521L11.8477 5.47401C12.5949 5.23643 13.3886 5.18373 14.1607 5.32045C14.4987 5.38477 14.6381 5.46997 14.702 5.55894C14.7656 5.64739 14.8017 5.80505 14.7522 6.14429L14.7519 6.14668C14.6553 6.85729 14.3961 7.53616 13.9944 8.13064C12.4001 10.4297 10.1628 11.8383 7.49908 12.6468C7.38918 12.68 7.26536 12.6917 7.11859 12.6955C7.07225 12.6967 7.01973 12.6971 6.96427 12.6974C6.93851 12.6976 6.91211 12.6977 6.88541 12.698C6.8979 12.6763 6.91023 12.6547 6.92244 12.6334C7.03603 12.4348 7.13988 12.2532 7.27521 12.0822L7.27547 12.0818C7.95789 11.2164 8.81255 10.5399 9.77707 9.9817C9.94804 9.89884 10.1105 9.79945 10.2621 9.68492L10.2633 9.684C10.4284 9.55772 10.541 9.375 10.5796 9.17079C10.6177 8.96934 10.581 8.76105 10.4766 8.58481C10.3779 8.39814 10.2372 8.2583 10.0585 8.17872C9.87979 8.09917 9.68488 8.08949 9.49368 8.12449L9.48613 8.12588L9.47867 8.12772C9.32797 8.165 9.18366 8.22445 9.05047 8.30411C7.81826 8.94585 6.73396 9.83774 5.86717 10.9226C5.54507 11.3234 5.29147 11.7745 5.11664 12.2578L5.11662 12.2578L5.11558 12.2608C4.91739 12.8312 4.95636 13.3735 5.23462 13.7915C5.51239 14.2088 5.99772 14.456 6.59747 14.5008ZM6.59747 14.5008C6.59724 14.5008 6.59701 14.5008 6.59679 14.5008L6.61646 14.2516L6.59783 14.5009C6.59771 14.5009 6.59759 14.5009 6.59747 14.5008ZM16.1543 4.81787C15.6957 4.17513 15.0705 3.86917 14.3168 3.75007C13.3254 3.60399 12.3138 3.68188 11.3566 3.978L16.1543 4.81787ZM16.1543 4.81787C16.4818 5.27731 16.8306 5.72191 17.1917 6.1822M16.1543 4.81787L17.1917 6.1822M19.0981 16.8728C19.2472 17.0585 19.3961 17.2442 19.545 17.4299C19.937 17.9189 20.3288 18.4075 20.7237 18.8935L24.01 16.151C23.7466 16.0319 23.6073 15.8418 23.4693 15.6536C23.4123 15.5758 23.3555 15.4982 23.2902 15.4262C23.1844 15.3094 23.0872 15.185 22.9902 15.0607C22.8824 14.9228 22.7748 14.7851 22.6558 14.6582L22.8393 14.4884C22.8391 14.4882 22.8389 14.488 22.8387 14.4878C22.6732 14.3092 22.4755 14.1864 22.2533 14.1541C22.0275 14.1212 21.8095 14.1865 21.618 14.3233C21.4174 14.4666 21.2882 14.6728 21.2532 14.9082C21.2184 15.1422 21.2791 15.3858 21.4218 15.6062L21.4221 15.6066C21.5448 15.7952 21.6931 15.9748 21.8301 16.1408C21.8775 16.1982 21.9236 16.2539 21.9667 16.3079C22.1509 16.5406 22.3363 16.7728 22.5338 17.0203C22.6008 17.1043 22.6692 17.19 22.7394 17.2781L21.1057 18.9316C21.0311 18.8605 20.9733 18.8045 20.9182 18.7364L20.9177 18.7358C20.5233 18.2505 20.1322 17.7627 19.7403 17.2739C19.5929 17.0899 19.4453 16.9058 19.2973 16.7216M19.0981 16.8728L19.3014 16.7274C19.3 16.7254 19.2987 16.7235 19.2973 16.7216M19.0981 16.8728C19.0206 16.7645 18.9358 16.6616 18.8442 16.5648L19.0981 16.8728ZM19.2973 16.7216C19.2143 16.6061 19.1236 16.4963 19.0257 16.393L19.0258 16.3928L19.0194 16.3865C18.8574 16.2274 18.6434 16.1321 18.4168 16.1179C18.1902 16.1038 17.966 16.1719 17.7855 16.3096L17.7855 16.3096L17.7832 16.3114C17.6913 16.3833 17.6147 16.4727 17.5577 16.5743C17.5006 16.676 17.4644 16.788 17.451 16.9038C17.4376 17.0197 17.4474 17.137 17.4798 17.249L17.72 17.1796M19.2973 16.7216L17.72 17.1796M15.4455 20.994C15.5816 21.1859 15.7361 21.376 15.8841 21.5582C15.9622 21.6543 16.0385 21.7482 16.1094 21.839C16.1675 21.9138 16.2226 21.9894 16.2903 22.0833L14.2356 22.8878L12.9938 21.3548C12.9938 21.3548 12.9938 21.3547 12.9938 21.3547C12.8711 21.2025 12.7482 21.0487 12.625 20.8944C12.3466 20.5459 12.066 20.1946 11.7797 19.8522L11.779 19.8514C11.6009 19.6403 11.3792 19.4985 11.1378 19.4554C10.8924 19.4117 10.6477 19.4742 10.4447 19.6348C10.2441 19.7935 10.1231 20.0139 10.1101 20.2649C10.0973 20.5115 10.1899 20.7603 10.3621 20.9858L10.3623 20.986C10.7035 21.4314 11.0569 21.8713 11.4082 22.3087C11.5992 22.5464 11.7896 22.7834 11.9771 23.0201L11.9771 23.0202C12.051 23.1134 12.1231 23.2076 12.1964 23.3047C10.4142 23.735 8.84609 23.0584 8.02566 21.9322C7.3785 21.0439 6.68858 20.1822 6.00283 19.3257C5.69031 18.9354 5.37866 18.5461 5.07231 18.1559C5.02731 18.0983 4.98494 18.0407 4.94269 17.9817C5.07338 17.9697 5.20409 17.9584 5.33463 17.9471C5.9303 17.8957 6.5224 17.8446 7.09238 17.7299C10.4081 17.0644 13.3063 15.5346 15.8642 13.3737L15.8643 13.3737C18.9225 10.7882 21.0976 7.56908 22.5862 3.88156C22.6222 3.79847 22.6566 3.7153 22.6899 3.63447L22.6943 3.62388C22.7051 3.59759 22.7158 3.57156 22.7265 3.54574L27.4005 9.21642C27.2002 9.70022 27.0051 10.1728 26.8062 10.6546C26.6241 11.0957 26.4388 11.5447 26.2433 12.0171C26.2143 11.982 26.1857 11.9474 26.1576 11.9134C25.9396 11.6496 25.7471 11.4167 25.5557 11.1825C25.4347 11.0345 25.3135 10.8836 25.1916 10.7318C24.9655 10.4503 24.737 10.1657 24.5029 9.89048C24.3112 9.66406 24.0801 9.50925 23.8292 9.4614C23.5717 9.41228 23.3191 9.48146 23.1132 9.65606C22.91 9.82818 22.7849 10.0507 22.7896 10.3169C22.7941 10.5699 22.9154 10.8185 23.1033 11.0563L23.1034 11.0564C23.6074 11.6937 24.1161 12.3277 24.641 12.9819C24.8518 13.2447 25.0653 13.5108 25.2822 13.7817C24.9988 14.2082 24.7159 14.6348 24.4303 15.0654C24.2662 15.3126 24.1014 15.5612 23.935 15.8119L15.6494 20.8494M15.4455 20.994L15.6494 20.8494M15.4455 20.994C15.4455 20.9941 15.4455 20.9941 15.4455 20.9941L15.6494 20.8494M15.4455 20.994C15.2938 20.7803 15.2116 20.5472 15.2264 20.3138C15.2415 20.0765 15.3551 19.8688 15.5391 19.711M15.6494 20.8494C15.3944 20.4901 15.4243 20.1389 15.7019 19.9007M15.5391 19.711C15.5391 19.711 15.539 19.7111 15.539 19.7111L15.7019 19.9007M15.5391 19.711C15.7361 19.5418 15.9724 19.4584 16.2231 19.4927C16.4673 19.5262 16.6894 19.6664 16.8783 19.8724M15.5391 19.711L15.7019 19.9007M15.7019 19.9007L16.8783 19.8724M16.8783 19.8724C16.8782 19.8722 16.8781 19.8721 16.878 19.872L16.6941 20.0414L16.8783 19.8724ZM17.72 17.1796L17.4798 17.249C17.5114 17.3582 17.5638 17.4602 17.6342 17.5495L17.72 17.1796ZM17.1917 6.1822C17.3681 6.40699 17.5473 6.63552 17.7285 6.87135L17.1917 6.1822ZM17.3472 20.4507C17.3468 20.4503 17.3465 20.4499 17.3461 20.4495L17.1538 20.6092L17.3481 20.4519C17.3478 20.4515 17.3475 20.4511 17.3472 20.4507ZM17.9758 21.1969C17.9164 21.2308 17.8563 21.2649 17.7956 21.2992L17.9188 21.5168L18.1099 21.3557C18.0649 21.3022 18.0202 21.2494 17.9758 21.1969ZM19.6417 20.0779C19.6901 20.1385 19.7389 20.1995 19.7882 20.2612L19.9834 20.105L19.8115 19.9236C19.7557 19.9764 19.6991 20.0278 19.6417 20.0779ZM16.5401 22.0023C16.5369 21.9979 16.5338 21.9936 16.5307 21.9892L16.4412 22.2927L16.6818 22.1986C16.6285 22.1252 16.582 22.0606 16.5401 22.0023Z" fill="#A57AAB" stroke="#A57AAB" stroke-width="0.5"/>
</svg>
