<svg width="1366" height="158" viewBox="0 0 1366 158" fill="none" xmlns="http://www.w3.org/2000/svg">
<mask id="mask0_913_11" style="mask-type:alpha" maskUnits="userSpaceOnUse" x="0" y="0" width="1366" height="158">
<rect width="1366" height="158" fill="#B0B0B0"/>
</mask>
<g mask="url(#mask0_913_11)">
<path d="M-982 279.925C-897.369 302.003 -802.805 304.934 -713.981 293.291C-577.535 275.416 -451.514 226.925 -330.351 175.701C-209.188 124.477 -89.3133 69.4915 42.3378 36.6921C202.801 -3.28498 377.104 -8.57161 542.22 18.0352C687.97 41.5186 825.075 88.8862 967.719 121.681C1110.36 154.475 1265.78 172.261 1406.9 135.798C1410.62 134.838 1414.32 133.83 1418 132.774L1418 -748.543C1322.36 -773.487 1209.49 -778.145 1104.53 -767.958C966.037 -754.513 838.094 -718.051 715.158 -679.529C592.222 -641.007 470.51 -599.659 336.905 -574.993C174.047 -544.926 -2.88941 -540.951 -170.489 -560.959C-318.426 -578.621 -457.589 -614.242 -602.375 -638.904C-725.162 -659.818 -857.304 -672.609 -981.993 -659.293L-982 279.925Z" fill="url(#paint0_linear_913_11)"/>
</g>
<defs>
<linearGradient id="paint0_linear_913_11" x1="218" y1="1169.1" x2="218" y2="-773" gradientUnits="userSpaceOnUse">
<stop stop-color="#FFFBFC"/>
<stop offset="1" stop-color="#F6F3FA" stop-opacity="0.53"/>
</linearGradient>
</defs>
</svg>
