<svg width="25" height="26" viewBox="0 0 25 26" fill="none" xmlns="http://www.w3.org/2000/svg">
<path d="M12.5 13L11 13C11 13.6128 11.3727 14.1639 11.9414 14.3921C12.5101 14.6203 13.1604 14.4796 13.584 14.0368L12.5 13ZM14 6.29167C14 5.46324 13.3284 4.79167 12.5 4.79167C11.6716 4.79167 11 5.46324 11 6.29167L14 6.29167ZM18.1215 9.29308C18.6941 8.69443 18.673 7.74491 18.0743 7.17229C17.4757 6.59966 16.5262 6.62076 15.9535 7.21942L18.1215 9.29308ZM12.5 3C17.6846 3 22 7.41362 22 13L25 13C25 5.88383 19.4657 -7.85306e-07 12.5 -4.80825e-07L12.5 3ZM22 13C22 18.5864 17.6846 23 12.5 23L12.5 26C19.4657 26 25 20.1162 25 13L22 13ZM12.5 23C7.31544 23 3 18.5864 3 13L-5.02681e-07 13C-1.91624e-07 20.1162 5.5343 26 12.5 26L12.5 23ZM3 13C3 7.41362 7.31543 3 12.5 3L12.5 -4.80825e-07C5.5343 -1.76345e-07 -8.13738e-07 5.88383 -5.02681e-07 13L3 13ZM14 13L14 6.29167L11 6.29167L11 13L14 13ZM15.9535 7.21942L11.416 11.9632L13.584 14.0368L18.1215 9.29308L15.9535 7.21942Z" fill="#A57AAB"/>
</svg>
