<svg width="23" height="22" viewBox="0 0 23 22" fill="none" xmlns="http://www.w3.org/2000/svg">
<path d="M22.4934 6.46808C22.4419 5.29913 22.2528 4.49549 21.9819 3.79912C21.7025 3.05995 21.2727 2.39817 20.7095 1.84802C20.1593 1.28932 19.493 0.855181 18.7622 0.580193C18.0617 0.309403 17.2621 0.12037 16.0929 0.0688308C14.915 0.0129267 14.5411 0 11.5536 0C8.56611 0 8.19217 0.0129267 7.01863 0.0644659C5.84946 0.116005 5.04566 0.305206 4.34933 0.575828C3.60985 0.855181 2.94794 1.28495 2.39769 1.84802C1.83888 2.39817 1.40483 3.06431 1.12962 3.79493C0.858778 4.49549 0.669709 5.29477 0.61816 6.46371C0.562246 7.64139 0.549316 8.01526 0.549316 11.0022C0.549316 13.9891 0.562246 14.363 0.613795 15.5363C0.665344 16.7052 0.85458 17.5089 1.12542 18.2052C1.40483 18.9444 1.83888 19.6062 2.39769 20.1563C2.94794 20.715 3.61421 21.1492 4.34497 21.4242C5.04566 21.695 5.84509 21.884 7.01443 21.9355C8.1878 21.9872 8.56191 22 11.5494 22C14.5369 22 14.9108 21.9872 16.0844 21.9355C17.2535 21.884 18.0573 21.695 18.7537 21.4242C20.2325 20.8525 21.4016 19.6836 21.9734 18.2052C22.2441 17.5047 22.4333 16.7052 22.4848 15.5363C22.5364 14.363 22.5493 13.9891 22.5493 11.0022C22.5493 8.01526 22.545 7.64139 22.4934 6.46808ZM20.5119 15.4503C20.4645 16.5248 20.284 17.105 20.1336 17.4918C19.7638 18.4502 19.003 19.2108 18.0444 19.5805C17.6575 19.7309 17.073 19.9114 16.0026 19.9586C14.842 20.0103 14.4939 20.023 11.558 20.023C8.62202 20.023 8.26958 20.0103 7.11317 19.9586C6.03853 19.9114 5.45822 19.7309 5.07135 19.5805C4.59432 19.4042 4.1601 19.1249 3.80765 18.7596C3.44227 18.4028 3.16287 17.9731 2.98656 17.4961C2.83611 17.1093 2.6556 16.5248 2.60842 15.4547C2.5567 14.2943 2.54394 13.9461 2.54394 11.0107C2.54394 8.07536 2.5567 7.72298 2.60842 6.56696C2.6556 5.49253 2.83611 4.91234 2.98656 4.52554C3.16287 4.04843 3.44227 3.61446 3.81201 3.26191C4.16866 2.8966 4.59852 2.61725 5.07572 2.44114C5.46259 2.29072 6.04726 2.11025 7.11753 2.06291C8.27814 2.01137 8.62639 1.99844 11.5622 1.99844C14.5025 1.99844 14.8506 2.01137 16.007 2.06291C17.0816 2.11025 17.6619 2.29072 18.0488 2.44114C18.5258 2.61725 18.96 2.8966 19.3125 3.26191C19.6779 3.61865 19.9573 4.04843 20.1336 4.52554C20.284 4.91234 20.4645 5.49673 20.5119 6.56696C20.5634 7.72735 20.5764 8.07536 20.5764 11.0107C20.5764 13.9461 20.5634 14.2899 20.5119 15.4503Z" fill="#F07402"/>
<path d="M11.5533 5.35071C8.43263 5.35071 5.90068 7.882 5.90068 11.0022C5.90068 14.1224 8.43263 16.6537 11.5533 16.6537C14.6741 16.6537 17.2059 14.1224 17.2059 11.0022C17.2059 7.882 14.6741 5.35071 11.5533 5.35071ZM11.5533 14.6682C9.52876 14.6682 7.88658 13.0265 7.88658 11.0022C7.88658 8.97792 9.52876 7.33622 11.5533 7.33622C13.578 7.33622 15.22 8.97792 15.22 11.0022C15.22 13.0265 13.578 14.6682 11.5533 14.6682Z" fill="#F07402"/>
<path d="M18.7491 5.12722C18.7491 5.85582 18.1583 6.44659 17.4293 6.44659C16.7006 6.44659 16.1097 5.85582 16.1097 5.12722C16.1097 4.39845 16.7006 3.80785 17.4293 3.80785C18.1583 3.80785 18.7491 4.39845 18.7491 5.12722Z" fill="#F07402"/>
</svg>
