<svg width="14" height="14" viewBox="0 0 14 14" fill="none" xmlns="http://www.w3.org/2000/svg">
<path d="M13.5658 3.8822C13.5339 3.18059 13.417 2.69823 13.2496 2.28027C13.0769 1.83661 12.8111 1.4394 12.463 1.1092C12.1228 0.77386 11.7109 0.513287 11.2592 0.348237C10.8261 0.185706 10.3318 0.0722471 9.60902 0.0413129C8.88084 0.00775875 8.64968 0 6.80282 0C4.95596 0 4.72479 0.00775875 3.99931 0.038693C3.27653 0.0696273 2.77963 0.183187 2.34916 0.345617C1.89201 0.513287 1.48282 0.771241 1.14266 1.1092C0.797205 1.4394 0.528875 1.83923 0.358742 2.27775C0.191308 2.69823 0.0744266 3.17797 0.0425591 3.87958C0.0079928 4.58643 0 4.81083 0 6.60361C0 8.39639 0.00799281 8.62079 0.0398603 9.32502C0.0717277 10.0266 0.188713 10.509 0.356147 10.927C0.528875 11.3706 0.797205 11.7678 1.14266 12.098C1.48282 12.4334 1.89471 12.6939 2.34646 12.859C2.77963 13.0215 3.27383 13.135 3.99672 13.1659C4.72209 13.1969 4.95336 13.2046 6.80022 13.2046C8.64708 13.2046 8.87825 13.1969 9.60373 13.1659C10.3265 13.135 10.8234 13.0215 11.2539 12.859C12.1681 12.5159 12.8908 11.8143 13.2443 10.927C13.4116 10.5065 13.5286 10.0266 13.5605 9.32502C13.5923 8.62079 13.6003 8.39639 13.6003 6.60361C13.6003 4.81083 13.5976 4.58643 13.5658 3.8822ZM12.3408 9.27343C12.3115 9.91831 12.1999 10.2666 12.1069 10.4987C11.8784 11.074 11.408 11.5305 10.8154 11.7524C10.5763 11.8427 10.2149 11.951 9.55317 11.9793C8.83569 12.0104 8.62051 12.018 6.80552 12.018C4.99052 12.018 4.77264 12.0104 4.05775 11.9793C3.39342 11.951 3.03467 11.8427 2.79551 11.7524C2.50061 11.6466 2.23217 11.4789 2.01429 11.2597C1.78842 11.0455 1.61569 10.7876 1.5067 10.5013C1.41369 10.2692 1.3021 9.91831 1.27293 9.27605C1.24096 8.57957 1.23307 8.37059 1.23307 6.60875C1.23307 4.84691 1.24096 4.6354 1.27293 3.94155C1.3021 3.29667 1.41369 2.94843 1.5067 2.71627C1.61569 2.4299 1.78842 2.16943 2.01699 1.95783C2.23747 1.73857 2.5032 1.5709 2.79821 1.4652C3.03737 1.37491 3.39881 1.26659 4.06045 1.23818C4.77794 1.20724 4.99322 1.19948 6.80811 1.19948C8.6258 1.19948 8.84098 1.20724 9.55587 1.23818C10.2202 1.26659 10.579 1.37491 10.8181 1.4652C11.113 1.5709 11.3815 1.73857 11.5993 1.95783C11.8252 2.17195 11.9979 2.4299 12.1069 2.71627C12.1999 2.94843 12.3115 3.29918 12.3408 3.94155C12.3727 4.63802 12.3807 4.84691 12.3807 6.60875C12.3807 8.37059 12.3727 8.57695 12.3408 9.27343Z" fill="white"/>
<path d="M6.80262 3.21154C4.87344 3.21154 3.3082 4.73085 3.3082 6.60363C3.3082 8.47641 4.87344 9.99572 6.80262 9.99572C8.73189 9.99572 10.297 8.47641 10.297 6.60363C10.297 4.73085 8.73189 3.21154 6.80262 3.21154ZM6.80262 8.80399C5.55107 8.80399 4.53588 7.81863 4.53588 6.60363C4.53588 5.38863 5.55107 4.40327 6.80262 4.40327C8.05427 4.40327 9.06936 5.38863 9.06936 6.60363C9.06936 7.81863 8.05427 8.80399 6.80262 8.80399Z" fill="white"/>
<path d="M11.2511 3.0774C11.2511 3.51472 10.8858 3.8693 10.4352 3.8693C9.98468 3.8693 9.6194 3.51472 9.6194 3.0774C9.6194 2.63999 9.98468 2.2855 10.4352 2.2855C10.8858 2.2855 11.2511 2.63999 11.2511 3.0774Z" fill="white"/>
</svg>
