<svg width="19" height="18" viewBox="0 0 19 18" fill="none" xmlns="http://www.w3.org/2000/svg">
<path d="M18.5036 5.29207C18.4614 4.33565 18.3067 3.67813 18.0851 3.10837C17.8565 2.50359 17.5048 1.96214 17.044 1.51202C16.5938 1.0549 16.0487 0.699693 15.4508 0.474704C14.8776 0.253148 14.2234 0.0984845 13.2668 0.0563161C12.3031 0.0105764 11.9971 0 9.55282 0C7.10851 0 6.80256 0.0105764 5.84239 0.0527448C4.8858 0.0949132 4.22815 0.249714 3.65842 0.471132C3.05339 0.699693 2.51183 1.05133 2.06162 1.51202C1.60441 1.96214 1.24928 2.50717 1.02411 3.10494C0.802512 3.67813 0.64782 4.33208 0.605643 5.28849C0.559895 6.25205 0.549316 6.55794 0.549316 9.00179C0.549316 11.4456 0.559895 11.7515 0.602071 12.7115C0.644248 13.6679 0.799078 14.3254 1.02068 14.8952C1.24928 15.5 1.60441 16.0414 2.06162 16.4916C2.51183 16.9487 3.05696 17.3039 3.65485 17.5289C4.22815 17.7504 4.88223 17.9051 5.83896 17.9473C6.79899 17.9896 7.10507 18 9.54939 18C11.9937 18 12.2996 17.9896 13.2598 17.9473C14.2164 17.9051 14.8741 17.7504 15.4438 17.5289C16.6537 17.0612 17.6103 16.1048 18.0781 14.8952C18.2996 14.322 18.4544 13.6679 18.4966 12.7115C18.5387 11.7515 18.5493 11.4456 18.5493 9.00179C18.5493 6.55794 18.5457 6.25205 18.5036 5.29207ZM16.8823 12.6412C16.8436 13.5203 16.6959 13.995 16.5728 14.3114C16.2703 15.0956 15.6478 15.718 14.8635 16.0204C14.547 16.1435 14.0687 16.2911 13.1929 16.3297C12.2433 16.3721 11.9585 16.3825 9.55639 16.3825C7.15426 16.3825 6.86589 16.3721 5.91974 16.3297C5.04049 16.2911 4.5657 16.1435 4.24917 16.0204C3.85886 15.8762 3.50359 15.6476 3.21522 15.3487C2.91628 15.0569 2.68768 14.7052 2.54342 14.315C2.42033 13.9985 2.27264 13.5203 2.23404 12.6448C2.19172 11.6953 2.18128 11.4105 2.18128 9.00879C2.18128 6.60711 2.19172 6.3188 2.23404 5.37297C2.27264 4.49389 2.42033 4.01918 2.54342 3.70271C2.68768 3.31235 2.91628 2.95728 3.2188 2.66883C3.5106 2.36995 3.8623 2.14139 4.25274 1.9973C4.56927 1.87423 5.04763 1.72657 5.92331 1.68783C6.8729 1.64567 7.15783 1.63509 9.55983 1.63509C11.9655 1.63509 12.2503 1.64567 13.1965 1.68783C14.0757 1.72657 14.5505 1.87423 14.8671 1.9973C15.2574 2.14139 15.6126 2.36995 15.901 2.66883C16.1999 2.96072 16.4285 3.31235 16.5728 3.70271C16.6959 4.01918 16.8436 4.49732 16.8823 5.37297C16.9245 6.32237 16.9351 6.60711 16.9351 9.00879C16.9351 11.4105 16.9245 11.6918 16.8823 12.6412Z" fill="#F07402"/>
<path d="M9.55255 4.37785C6.9993 4.37785 4.92771 6.44891 4.92771 9.00181C4.92771 11.5547 6.9993 13.6258 9.55255 13.6258C12.1059 13.6258 14.1774 11.5547 14.1774 9.00181C14.1774 6.44891 12.1059 4.37785 9.55255 4.37785ZM9.55255 12.0013C7.89613 12.0013 6.55253 10.6581 6.55253 9.00181C6.55253 7.34557 7.89613 6.00236 9.55255 6.00236C11.2091 6.00236 12.5526 7.34557 12.5526 9.00181C12.5526 10.6581 11.2091 12.0013 9.55255 12.0013Z" fill="#F07402"/>
<path d="M15.4401 4.195C15.4401 4.79112 14.9566 5.27448 14.3603 5.27448C13.764 5.27448 13.2806 4.79112 13.2806 4.195C13.2806 3.59873 13.764 3.11551 14.3603 3.11551C14.9566 3.11551 15.4401 3.59873 15.4401 4.195Z" fill="#F07402"/>
</svg>
