<svg width="18" height="18" viewBox="0 0 18 18" fill="none" xmlns="http://www.w3.org/2000/svg">
<path d="M17.9543 5.29207C17.9121 4.33565 17.7574 3.67813 17.5358 3.10837C17.3072 2.50359 16.9555 1.96214 16.4947 1.51202C16.0445 1.0549 15.4994 0.699693 14.9015 0.474704C14.3283 0.253148 13.6741 0.0984845 12.7175 0.0563161C11.7538 0.0105764 11.4478 0 9.0035 0C6.55919 0 6.25324 0.0105764 5.29308 0.0527448C4.33648 0.0949132 3.67883 0.249714 3.1091 0.471132C2.50407 0.699693 1.96251 1.05133 1.51231 1.51202C1.0551 1.96214 0.699964 2.50717 0.474794 3.10494C0.253196 3.67813 0.0985033 4.33208 0.0563268 5.28849C0.0105784 6.25205 0 6.55794 0 9.00179C0 11.4456 0.0105784 11.7515 0.0527549 12.7115C0.0949314 13.6679 0.249761 14.3254 0.47136 14.8952C0.699964 15.5 1.0551 16.0414 1.51231 16.4916C1.96251 16.9487 2.50764 17.3039 3.10553 17.5289C3.67883 17.7504 4.33291 17.9051 5.28964 17.9473C6.24967 17.9896 6.55576 18 9.00007 18C11.4444 18 11.7503 17.9896 12.7105 17.9473C13.6671 17.9051 14.3247 17.7504 14.8945 17.5289C16.1044 17.0612 17.061 16.1048 17.5288 14.8952C17.7502 14.322 17.9051 13.6679 17.9472 12.7115C17.9894 11.7515 18 11.4456 18 9.00179C18 6.55794 17.9964 6.25205 17.9543 5.29207ZM16.333 12.6412C16.2943 13.5203 16.1466 13.995 16.0235 14.3114C15.721 15.0956 15.0985 15.718 14.3142 16.0204C13.9976 16.1435 13.5194 16.2911 12.6436 16.3297C11.694 16.3721 11.4092 16.3825 9.00708 16.3825C6.60494 16.3825 6.31658 16.3721 5.37042 16.3297C4.49117 16.2911 4.01638 16.1435 3.69985 16.0204C3.30955 15.8762 2.95427 15.6476 2.66591 15.3487C2.36696 15.0569 2.13836 14.7052 1.99411 14.315C1.87101 13.9985 1.72333 13.5203 1.68472 12.6448C1.64241 11.6953 1.63197 11.4105 1.63197 9.00879C1.63197 6.60711 1.64241 6.3188 1.68472 5.37297C1.72333 4.49389 1.87101 4.01918 1.99411 3.70271C2.13836 3.31235 2.36696 2.95728 2.66948 2.66883C2.96128 2.36995 3.31298 2.14139 3.70342 1.9973C4.01995 1.87423 4.49832 1.72657 5.37399 1.68783C6.32358 1.64567 6.60851 1.63509 9.01051 1.63509C11.4162 1.63509 11.701 1.64567 12.6472 1.68783C13.5264 1.72657 14.0012 1.87423 14.3177 1.9973C14.708 2.14139 15.0633 2.36995 15.3517 2.66883C15.6506 2.96072 15.8792 3.31235 16.0235 3.70271C16.1466 4.01918 16.2943 4.49732 16.333 5.37297C16.3752 6.32237 16.3858 6.60711 16.3858 9.00879C16.3858 11.4105 16.3752 11.6918 16.333 12.6412Z" fill="white"/>
<path d="M9.00324 4.37785C6.44998 4.37785 4.37839 6.44891 4.37839 9.00181C4.37839 11.5547 6.44998 13.6258 9.00324 13.6258C11.5566 13.6258 13.6281 11.5547 13.6281 9.00181C13.6281 6.44891 11.5566 4.37785 9.00324 4.37785ZM9.00324 12.0013C7.34682 12.0013 6.00321 10.6581 6.00321 9.00181C6.00321 7.34557 7.34682 6.00236 9.00324 6.00236C10.6598 6.00236 12.0033 7.34557 12.0033 9.00181C12.0033 10.6581 10.6598 12.0013 9.00324 12.0013Z" fill="white"/>
<path d="M14.8908 4.195C14.8908 4.79112 14.4073 5.27448 13.8109 5.27448C13.2147 5.27448 12.7312 4.79112 12.7312 4.195C12.7312 3.59873 13.2147 3.11551 13.8109 3.11551C14.4073 3.11551 14.8908 3.59873 14.8908 4.195Z" fill="white"/>
</svg>
