<svg width="41" height="25" viewBox="0 0 41 25" fill="none" xmlns="http://www.w3.org/2000/svg">
<path opacity="0.5" d="M16.0503 19.389L16.0503 24.2363H14.9584C6.0052 24.2363 1.76007e-07 19.2095 4.77735e-07 10.5921C7.38603e-07 3.14165 4.47661 -0.000110626 9.8267 -0.000110626C14.8492 -0.000110626 18.3432 2.78259 18.3432 6.73223C18.3432 10.6819 14.6309 13.8236 8.07973 13.8236C8.07973 17.504 10.2634 19.2095 16.0503 19.389ZM22.6014 10.5921C22.6014 3.14165 27.078 -0.000110626 32.4281 -0.000110626C37.4506 -0.000110626 40.9446 2.78259 40.9446 6.73223C40.9446 10.6819 37.2323 13.8236 30.6811 13.8236C30.6811 17.504 32.8648 19.2095 38.6517 19.389L38.6517 24.2363H37.5598C28.6066 24.2363 22.6014 19.2095 22.6014 10.5921Z" fill="#A57AAB"/>
</svg>
