<svg width="135" height="221" viewBox="0 0 135 221" fill="none" xmlns="http://www.w3.org/2000/svg">
<path d="M18.2537 84.1117L35.8457 59.495L43.7483 82.7104C45.2919 87.2489 51.4979 86.678 53.9118 83.4865C54.3423 82.9212 54.7298 82.3352 55.1505 81.7611C61.0645 73.7259 66.2164 65.1572 70.5389 56.1668C75.2828 62.7721 80.5641 68.9737 86.329 74.7086C88.8306 77.177 93.5852 77.7223 95.6297 74.1777L113.285 43.5621C117.034 37.0652 107.37 30.4395 103.571 37.0139L89.6471 61.2496C84.1124 55.2124 79.1334 48.6878 74.7703 41.7549C72.09 37.4634 65.9773 37.267 63.9316 42.3441C60.3756 51.0885 55.9921 59.4744 50.841 67.3872C48.2272 59.7048 45.6134 52.0223 42.9995 44.3399C41.4843 39.8878 35.2128 40.2957 32.8316 43.5686L28.1016 50.1869L8.5438 77.5678C4.1676 83.7369 13.8492 90.2732 18.2537 84.1117Z" fill="#E6F2DE"/>
<path d="M61.1448 207.41C66.2688 207.487 71.9625 206.432 78.5099 204.234C85.1795 201.967 91.3502 198.444 96.6886 193.854C100.667 190.459 104.15 186.524 107.037 182.163C111.322 175.658 113.757 169.292 114.484 162.715C115.126 156.342 114.499 149.901 112.638 143.766C110.703 137.166 107.657 130.942 103.629 125.362C99.8449 120.185 95.0937 115.788 89.6388 112.416C77.6525 104.885 63.5156 101.456 50.8599 102.997C49.4419 103.173 48.0357 103.432 46.6482 103.771C45.2596 104.052 44.0325 104.854 43.2189 106.012C42.7644 106.579 42.4414 107.24 42.2729 107.946C42.1044 108.653 42.0947 109.389 42.2445 110.101C42.8186 116.334 43.6547 122.65 44.4671 128.584C45.4014 135.426 46.4921 142.908 47.8952 152.108C49.0177 159.425 50.2297 167.128 51.6173 175.629C52.5969 181.772 53.6244 188.011 54.6529 194.189C54.8032 195.105 54.9442 196.021 55.0852 196.937C55.3779 198.867 55.6884 200.857 56.0791 202.786L56.0937 202.869C56.5508 205.34 58.8262 207.381 61.1448 207.41ZM65.7355 194.017C64.7735 188.232 63.7991 182.322 62.8494 176.434C61.5062 168.122 60.3017 160.539 59.1809 153.251C57.7462 144.066 56.6447 136.487 55.6672 129.474C54.9986 124.653 54.2485 119.196 53.6319 113.708L54.5627 113.652L54.7116 113.643L55.0577 113.651L55.5044 113.624C55.639 113.611 55.7743 113.604 55.9096 113.605C58.827 113.568 61.7425 113.794 64.6207 114.28C64.9839 114.337 65.3681 114.431 65.7121 114.481L66.0003 114.533L66.025 114.555L66.1248 114.582C66.3231 114.617 66.6306 114.678 66.7681 114.712C67.1895 114.803 67.6071 114.909 68.0247 115.015C69.4497 115.397 70.9044 115.805 72.3165 116.281C73.7287 116.757 75.2309 117.331 76.6413 117.928C77.2752 118.208 77.8752 118.466 78.4861 118.752C78.5553 118.813 78.6699 118.853 78.7714 118.908C79.0219 119.063 79.29 119.188 79.5699 119.28L79.8403 119.423C82.4685 120.784 84.9789 122.362 87.3452 124.14C87.87 124.543 88.3565 124.929 88.8391 125.33C89.0171 125.488 89.1999 125.65 89.3779 125.807C89.5798 126.029 89.8052 126.228 90.0501 126.402C90.9636 127.272 91.8372 128.177 92.6425 129.11C93.5632 130.171 94.4656 131.313 95.3138 132.486C95.651 132.951 95.9696 133.418 96.2888 133.894L96.3728 133.968L96.4812 134.135C96.6992 134.486 96.9172 134.837 97.1216 135.194C98.5774 137.661 99.8312 140.241 100.871 142.909C101.121 143.562 101.358 144.22 101.59 144.865C101.636 145.002 101.734 145.45 101.755 145.565C101.782 145.695 101.834 145.819 101.908 145.929L102.001 146.223C102.4 147.605 102.734 149 103.002 150.38C103.27 151.761 103.485 153.182 103.627 154.565C103.663 154.922 103.69 155.28 103.722 155.643L103.74 155.87C103.74 156.09 103.749 156.309 103.758 156.528L103.781 157.797C103.773 159.205 103.687 160.612 103.524 162.011C103.448 162.664 103.348 163.315 103.243 163.951L103.2 164.169L103.174 164.198L103.109 164.501L102.984 165.05C102.66 166.341 102.256 167.61 101.772 168.85C101.562 169.376 101.325 169.922 100.988 170.652L100.851 170.936C100.618 171.389 100.375 171.843 100.132 172.287C98.5512 175.165 96.7065 177.889 94.6211 180.425L94.1366 180.972L94.0275 181.095C93.7959 181.286 93.5956 181.513 93.4339 181.766C93.0236 182.229 92.5657 182.677 92.1214 183.119C91.1182 184.113 90.0569 185.073 88.9592 185.975C87.8615 186.876 86.8406 187.661 85.7473 188.408L85.1923 188.796L84.9011 188.996C84.3524 189.337 83.7895 189.674 83.226 190.002C81.1735 191.181 79.04 192.214 76.8414 193.092C75.839 193.498 74.807 193.877 73.7776 194.223L73.2775 194.37C72.7889 194.524 72.3069 194.66 71.8316 194.779C70.1547 195.229 68.459 195.601 66.7661 195.871L66.0765 195.972L65.7355 194.017Z" fill="#E6F2DE"/>
<path d="M127.79 91.178C125.341 88.3186 121.037 87.9865 118.177 90.4362C115.318 92.8859 114.986 97.1897 117.436 100.049C119.885 102.909 124.189 103.241 127.048 100.791C129.908 98.3413 130.24 94.0374 127.79 91.178Z" fill="#E6F2DE"/>
</svg>
