<svg width="177" height="282" viewBox="0 0 177 282" fill="none" xmlns="http://www.w3.org/2000/svg">
<path d="M58.6278 82.8781C64.2161 92.2073 66.9936 102.914 61.9816 113.424C60.6104 116.304 62.8803 119.917 65.6289 120.903C68.8877 122.078 71.7466 120.13 73.1015 117.288C79.8305 103.17 75.6268 87.9663 67.7136 75.3345C70.8956 72.0533 73.6164 68.3546 75.8016 64.3395C85.5966 46.1421 83.3793 23.8869 70.7734 7.5485C66.1425 1.54742 57.2357 9.19674 61.8518 15.1847C69.4056 24.965 72.306 38.4632 68.9226 50.3703C67.2729 56.0051 64.4107 61.2082 60.5362 65.6156C54.5222 58.6445 47.1026 51.7617 38.002 49.3604C29.8664 47.1997 20.6916 48.6862 14.352 54.4879C11.3153 57.2416 9.24808 60.9013 8.45588 64.9262C7.66369 68.9512 8.1885 73.1278 9.95281 76.8389C13.7859 85.1317 22.2915 90.0129 31.1923 90.7033C40.8122 91.4253 50.448 88.2957 58.6278 82.8781ZM21.0113 64.5636C23.9585 60.3699 30.0713 59.2938 34.7642 60.6163C41.2623 62.4321 46.3875 67.398 50.7918 72.3044C51.0971 72.6447 51.3942 73.0042 51.6958 73.3588C48.8595 75.1728 45.7976 76.6088 42.5876 77.6304C37.0019 79.3922 30.1167 80.03 24.926 76.7768C20.9857 74.306 18.0039 68.8354 21.0113 64.5636Z" fill="#E6F2DE"/>
<path d="M116.657 263.238C113.598 264.041 112.258 268.119 113.313 270.853C114.582 274.09 117.851 275.027 120.917 274.187C141.628 268.677 155.138 247.193 150.831 226.129C148.773 216.13 143.154 207.209 135.018 201.026C126.883 194.844 116.785 191.821 106.603 192.519C99.0831 193.014 100.295 204.714 107.822 204.26C122.628 203.324 136.65 213.629 139.33 228.41C142.263 244.476 132.247 259.101 116.657 263.238Z" fill="#E6F2DE"/>
<path d="M135.304 123.256C140.564 129.056 146.963 136.251 147.26 144.585C147.504 151.473 142.158 155.809 135.776 152.853C127.965 149.201 124.336 139.904 118.373 134.135C112.535 128.479 104.663 124.563 96.3509 126.527C89.0445 128.245 91.0545 139.713 98.3501 137.968C105.228 136.343 110.374 142.272 114.142 147.145C118.989 153.412 123.459 159.869 130.832 163.37C145.304 170.241 159.7 158.919 158.761 143.353C157.739 126.288 142.68 115.53 133.071 103.125C128.917 97.7782 124.981 91.0499 125.761 83.984C126.333 78.719 129.826 72.5415 135.702 72.2337C142.343 71.885 147.995 78.1033 151.957 82.5808C157.776 89.1483 163.546 95.7329 172.067 98.7286C179.116 101.207 183.001 90.1733 175.929 87.6919C168.66 85.1403 164.16 78.4815 159.129 73.0491C154.595 68.1612 149.146 63.5135 142.623 61.5871C128.083 57.2876 115.621 68.9312 114.153 83.1447C112.452 99.627 125.268 112.186 135.304 123.256Z" fill="#E6F2DE"/>
<path d="M86.2692 194.797C83.4884 192.258 79.1762 192.454 76.6377 195.235C74.0991 198.016 74.2954 202.328 77.0762 204.867C79.857 207.405 84.1693 207.209 86.7078 204.428C89.2464 201.647 89.05 197.335 86.2692 194.797Z" fill="#E6F2DE"/>
</svg>
