<svg width="176" height="137" viewBox="0 0 176 137" fill="none" xmlns="http://www.w3.org/2000/svg">
<path d="M15.207 130.588C17.1233 127.347 16.0494 123.166 12.8082 121.25C9.56712 119.333 5.3862 120.407 3.46986 123.649C1.55351 126.89 2.62743 131.071 5.86855 132.987C9.10966 134.903 13.2906 133.829 15.207 130.588Z" fill="#FD8199"/>
<path d="M95.3903 59.4771C88.3624 67.776 79.1236 73.8589 67.5593 72.5047C64.391 72.1359 61.7031 75.4499 61.6559 78.3699C61.5949 81.8335 64.3617 83.9109 67.4886 84.2767C83.0222 86.0921 96.0575 77.2087 105.461 65.6438C109.594 67.5973 113.972 68.9795 118.478 69.7528C138.862 73.1542 159.212 63.8765 170.611 46.6742C174.797 40.355 164.684 34.3918 160.505 40.6927C153.684 50.9975 141.843 58.0971 129.481 58.7354C123.615 58.9916 117.767 57.9607 112.346 55.715C117.004 47.7738 121.126 38.5307 120.463 29.1419C119.884 20.7442 115.517 12.5393 107.981 8.4101C104.395 6.42398 100.264 5.64783 96.1984 6.19632C92.1331 6.7448 88.349 8.58883 85.4054 11.4559C78.7923 17.7592 76.9157 27.3846 79.1334 36.0323C81.5531 45.3709 87.6237 53.4821 95.3903 59.4771ZM100.592 17.9636C105.512 19.4005 108.502 24.8394 108.764 29.7081C109.142 36.4445 106.094 42.8976 102.871 48.6491C102.647 49.0479 102.403 49.4451 102.165 49.8449C99.5326 47.7454 97.1858 45.3104 95.1833 42.6015C91.7139 37.8827 88.8892 31.5713 90.2941 25.6087C91.3618 21.082 95.5782 16.4949 100.592 17.9636Z" fill="#C6DF5F"/>
</svg>
