<svg width="123" height="103" viewBox="0 0 123 103" fill="none" xmlns="http://www.w3.org/2000/svg">
<path d="M28.1664 71.028C31.7886 69.9999 33.8915 66.2301 32.8634 62.6079C31.8353 58.9857 28.0655 56.8828 24.4433 57.9109C20.8211 58.939 18.7182 62.7088 19.7463 66.331C20.7744 69.9532 24.5442 72.0561 28.1664 71.028Z" fill="#FE027B"/>
<path d="M25.8254 17.2382L54.8008 25.9491L35.3757 40.9179C31.5776 43.843 34.12 49.5332 37.9195 50.7885C38.5935 51.0136 39.2731 51.1914 39.9522 51.4044C49.4656 54.4104 59.2381 56.5228 69.1423 57.7142C64.4203 64.3352 60.2538 71.3347 56.6851 78.6413C55.1556 81.8055 56.1731 86.4818 60.1877 87.2736L94.862 94.1098C102.221 95.562 105.375 84.2776 97.9265 82.802L70.4949 77.4405C74.4241 70.2543 78.9938 63.4367 84.1487 57.0705C87.3462 53.1492 85.5603 47.2999 80.0947 47.0013C70.6707 46.456 61.3191 45.0119 52.1677 42.6887C58.5963 37.7364 65.0249 32.7842 71.4535 27.8319C75.1788 24.9616 72.7698 19.1568 68.9037 17.9588L61.1134 15.6164L28.8873 5.93647C21.6363 3.78417 18.5724 15.0567 25.8254 17.2382Z" fill="white"/>
</svg>
