<svg width="1366" height="1026" viewBox="0 0 1366 1026" fill="none" xmlns="http://www.w3.org/2000/svg">
<mask id="mask0_713_3" style="mask-type:alpha" maskUnits="userSpaceOnUse" x="0" y="0" width="1366" height="1026">
<rect width="1366" height="1026" fill="#D9D9D9"/>
</mask>
<g mask="url(#mask0_713_3)">
<g opacity="0.3">
<path d="M1392.58 1057.62L1392.47 1057.59C1355.33 1016.09 1316.89 973.195 1280.62 930.265C1185.35 817.794 1122.92 705.236 1056.8 586.08C1039.45 554.873 1021.6 522.613 1002.99 490.336C973.214 438.486 936.063 400.713 889.38 374.862C844.861 350.19 790.739 335.172 719.004 327.544C677.631 323.165 633.812 322.938 591.542 322.712C515.449 322.325 436.886 321.913 365.002 298.137C299.737 276.556 250.77 234.962 203.469 194.692C177.543 172.695 150.798 149.92 121.625 130.634C75.3472 100.003 27.6638 80.9355 -20.1407 73.9071C-62.9569 67.5986 -106.221 70.4948 -152.359 82.748C-190.545 92.8762 -227.517 108.643 -263.592 127.341L-263.141 127.734C-227.144 109.067 -190.203 93.3377 -152.106 83.2176C-55.5892 57.5846 33.9224 73.2193 121.313 131.045C150.439 150.316 177.175 173.068 203.011 195.026C250.392 235.313 299.41 276.962 364.797 298.585C436.821 322.408 515.535 322.834 591.606 323.232C633.949 323.445 677.726 323.695 719.059 328.09C862.909 343.341 945.073 390.424 1002.58 490.54C1021.11 522.822 1039.03 555.086 1056.34 586.277C1122.5 705.457 1184.94 818.047 1280.19 930.57C1316.56 973.497 1354.96 1016.42 1392.11 1057.88L1392.18 1057.91L1392.58 1057.62Z" fill="#F3E4DE"/>
<path d="M1396.85 1044.16L1391.08 1037.89C1370.51 1015.55 1349.28 992.476 1328.59 969.728C1311.34 950.712 1296.29 933.932 1282.61 918.442C1191.68 814.982 1130.1 714.092 1064.72 602.369C1043.89 566.653 1021.59 528.562 998.022 489.814C961.808 429.714 916.112 389.483 854.383 363.181C815.024 346.41 768.355 334.984 711.603 328.199C669.607 323.07 625.245 322.113 582.411 321.167L573.161 320.981C499.578 319.339 427.898 316.054 359.422 293.39C294.438 271.895 245.552 231.527 198.177 192.488C172.1 170.986 145.17 148.753 115.849 129.953C47.4678 86.1227 -21.0868 67.938 -93.6878 74.3868C-145.623 79.0394 -199.742 96.2272 -262.574 128.244C-262.429 128.361 -262.292 128.482 -262.163 128.604C-155.939 74.1474 -29.2987 37.4929 115.503 130.362C144.809 149.157 171.729 171.368 197.738 192.867C245.151 231.947 294.174 272.419 359.256 293.928C427.836 316.589 499.554 319.916 573.136 321.51L582.497 321.724C625.223 322.633 669.555 323.628 711.544 328.725C768.248 335.503 814.867 346.922 854.167 363.663C915.732 389.891 961.308 430.072 997.442 490.001C1021.09 528.806 1043.35 566.889 1064.13 602.582C1129.65 714.335 1191.16 815.198 1282.17 918.684C1295.83 934.16 1310.9 950.946 1328.19 969.985C1348.86 992.706 1370.12 1015.81 1390.67 1038.13L1396.39 1044.4L1396.85 1044.16Z" fill="#F3E4DE"/>
<path d="M1401.11 1030.69C1395.2 1024.43 1389.3 1018.18 1383.39 1011.93C1366.35 993.913 1348.75 975.286 1331.58 957.045C1313.17 937.483 1298.24 921.471 1284.63 906.637C1188.24 801.061 1121.63 696.799 1061.62 598.984C1037.5 559.732 1015.07 523.794 992.953 489.23C955.627 430.832 909.21 391.352 847.175 365.09C807.547 348.352 760.735 336.484 704.129 328.866C660.561 322.944 614.83 321.204 570.58 319.46L566.491 319.286C497.906 316.718 424.966 312.228 353.858 288.697C289.312 267.332 240.327 228.167 192.968 190.342C166.678 169.314 139.484 147.604 109.99 129.263C41.9694 87.0031 -26.2809 69.9474 -98.5358 77.0988C-148.612 82.1061 -200.911 98.7534 -261.54 129.152C-261.425 129.268 -261.26 129.391 -261.13 129.512C-156.157 76.5566 -31.6242 41.8976 109.66 129.677C139.097 147.932 166.295 169.682 192.609 190.689C239.966 228.571 289.003 267.735 353.629 289.117C424.786 312.704 497.815 317.186 566.475 319.789L570.619 319.953C614.789 321.679 660.524 323.459 704.02 329.337C760.593 336.953 807.312 348.789 846.912 365.508C908.855 391.74 955.06 431.08 992.37 489.425C1014.52 523.99 1036.99 559.874 1061.05 599.154C1121.07 697.031 1187.83 801.344 1284.19 906.91C1297.75 921.746 1312.67 937.744 1331.11 957.316C1348.25 975.546 1365.9 994.181 1382.9 1012.2C1388.81 1018.46 1394.76 1024.7 1400.62 1030.95L1401.11 1030.69Z" fill="#F3E4DE"/>
<path d="M1405.45 1017.21L1357.8 968.213C1349.96 960.227 1342.21 952.27 1334.54 944.344L1333.66 943.457C1318.17 927.498 1302.05 910.994 1286.64 894.858C1196.26 799.955 1130.1 706.596 1058.59 595.635C1037.5 562.924 1014.39 527.994 987.965 488.712C949.76 432.086 902.738 393.426 840.017 367.054C799.961 350.257 753.103 337.971 696.709 329.524C651.761 322.854 605.198 320.218 560.021 317.66C491.758 313.993 418.935 307.337 348.404 283.983C284.179 262.737 235.284 224.878 188.031 188.259C161.442 167.704 133.939 146.397 104.328 128.601C36.5455 87.9182 -31.3247 71.97 -103.263 79.8618C-151.439 85.1516 -201.986 101.254 -260.396 130.088L-259.997 130.434C-156.3 79.0008 -33.9398 46.1719 104.016 129.012C133.595 146.75 161.071 168.038 187.607 188.594C234.952 225.245 283.883 263.154 348.217 284.485C418.827 307.857 491.745 314.487 560.067 318.183C605.096 320.671 651.762 323.305 696.705 330.041C752.994 338.442 799.825 350.757 839.797 367.497C902.444 393.834 949.337 432.421 987.448 488.967C1013.89 528.198 1037.06 563.166 1058.06 595.836C1129.64 706.842 1195.8 800.192 1286.25 895.156C1301.62 911.328 1317.71 927.839 1333.29 943.765L1334.08 944.629C1341.84 952.581 1349.62 960.53 1357.35 968.529C1373.19 984.788 1389.07 1001.12 1404.99 1017.51L1405.45 1017.21Z" fill="#F3E4DE"/>
<path d="M1409.72 1003.76C1385.94 979.862 1361.61 955.599 1337.46 931.627C1334.14 928.298 1330.79 924.975 1327.41 921.657C1314.62 908.994 1301.41 895.869 1288.69 883.025C1193.71 787.201 1126.8 697.446 1055.51 592.264C1031.35 556.517 1006.31 521.149 982.91 488.19C943.864 433.377 896.158 395.462 832.793 368.958C792.217 352.07 745.313 339.413 689.339 330.189C642.89 322.567 593.323 318.947 553.447 316.036C490.754 311.581 416.762 303.76 342.884 279.314C279.149 258.197 230.284 221.614 183.052 186.248C156.219 166.109 128.423 145.306 98.5348 127.971C31.1037 88.8846 -36.4776 74.0608 -108.107 82.6619C-155.157 88.2868 -202.863 103.477 -259.383 131.056C-259.243 131.182 -259.096 131.306 -258.941 131.427C-156.565 81.4992 -36.3948 50.3506 98.1543 128.331C127.987 145.627 155.764 166.433 182.631 186.574C229.854 221.966 278.738 258.594 342.615 279.75C416.557 304.208 490.674 312.071 553.409 316.502C593.254 319.402 642.802 323.027 689.191 330.675C745.158 339.869 792.075 352.539 832.514 369.371C895.805 395.841 943.408 433.653 982.359 488.443C1005.75 521.332 1030.75 556.754 1054.96 592.5C1126.28 697.741 1193.22 787.501 1288.19 883.382C1300.9 896.212 1314.13 909.342 1326.96 922.013C1330.29 925.332 1333.65 928.653 1336.97 931.989C1361.11 955.965 1385.41 980.217 1409.26 1004.11L1409.72 1003.76Z" fill="#F3E4DE"/>
<path d="M1414.06 990.305C1386.93 963.812 1362.86 940.484 1340.42 918.942C1334.92 913.608 1329.35 908.328 1323.85 903.043C1312.92 892.613 1301.64 881.795 1290.74 871.239C1184.94 768.585 1113.68 674.833 1052.5 588.814C1028.39 554.904 1002.75 520.684 977.847 487.588C938.083 434.582 889.745 397.459 825.577 370.787C784.55 353.86 737.669 340.78 681.842 330.772C637.584 322.832 592.72 318.444 546.841 314.305C490.201 309.312 415.216 300.309 337.3 274.528C274.047 253.565 225.326 218.276 178.25 184.172C150.997 164.455 122.868 144.076 92.7342 127.262C25.6425 89.7577 -41.6106 76.0426 -112.875 85.3431C-157.929 91.2735 -204.019 105.912 -258.241 132C-258.11 132.121 -257.976 132.234 -257.814 132.366C-153.521 81.9114 -39.0339 54.1592 92.4151 127.643C122.494 144.467 150.636 164.86 177.824 184.564C224.974 218.703 273.735 254.024 337.176 274.994C415.096 300.815 490.2 309.82 546.856 314.817C592.679 318.967 637.476 323.351 681.774 331.276C737.445 341.289 784.347 354.357 825.294 371.266C889.335 397.857 937.625 434.915 977.333 487.835C1002.21 520.96 1027.89 555.147 1051.98 589.029C1113.22 675.069 1184.42 768.84 1290.28 871.532C1301.14 882.095 1312.47 892.912 1323.41 903.373C1328.97 908.631 1334.45 913.902 1339.97 919.241C1362.45 940.793 1386.47 964.128 1413.55 990.583L1414.06 990.305Z" fill="#F3E4DE"/>
<path d="M1418.34 976.824C1389.21 949.058 1365.34 926.63 1343.39 906.254C1336 899.435 1328.59 892.588 1321.46 885.989C1311.96 877.273 1302.15 868.25 1292.75 859.46C1203.76 776.554 1131.03 694.603 1049.44 585.453C1027.53 556.173 1004.94 527.7 981.106 497.585L972.817 487.142C932.288 435.879 883.181 399.549 818.391 372.78C776.829 355.758 729.772 342.234 674.386 331.484C629.354 322.734 583.327 317.26 540.282 312.686C460.556 304.159 394.305 290.536 331.804 269.839C269.032 249.078 220.453 215.094 173.58 182.266C145.94 162.926 117.411 143.015 86.9493 126.607C20.2307 90.6868 -46.7459 78.082 -117.661 88.1247C-168.422 95.2957 -216.227 113.559 -257.16 132.972L-256.69 133.362C-153.978 84.4692 -41.4813 58.0624 86.6334 126.979C117.086 143.364 144.337 162.428 173.153 182.61C220.153 215.519 268.788 249.493 331.656 270.325C394.172 291.028 460.46 304.645 540.257 313.166C583.259 317.764 629.282 323.199 674.33 331.954C729.639 342.726 776.65 356.234 818.135 373.23C882.854 399.956 931.83 436.212 972.294 487.366L980.598 497.815C1004.47 527.915 1027.01 556.429 1048.82 585.664C1130.44 694.824 1203.24 776.801 1292.23 859.733C1301.71 868.54 1311.45 877.559 1320.9 886.268C1328.13 892.89 1335.53 899.715 1342.87 906.527C1364.81 926.928 1388.55 949.332 1417.83 977.102L1418.34 976.824Z" fill="#F3E4DE"/>
<path d="M1422.63 963.365C1391.88 934.847 1368.38 913.32 1346.35 893.53C1337.39 885.506 1328.43 877.521 1319.69 869.797C1311.47 862.515 1303.02 854.979 1294.75 847.628C1200.87 763.548 1126.61 684.124 1046.43 582.069C1025.65 555.677 1004.29 530.164 981.693 503.144L967.893 486.588C926.591 437.19 876.841 401.639 811.224 374.722C769.229 357.553 722.05 343.681 667.099 332.159C620.147 322.323 573.381 315.936 533.76 311.013C458.286 301.623 392.347 287.032 326.351 265.126C264.236 244.559 215.866 211.932 169.097 180.367C139.771 160.568 112.118 141.875 81.2343 125.898C-43.8483 61.2742 -154.539 86.5221 -255.879 134.013L-255.443 134.401C-154.338 86.9932 -43.8887 61.7974 80.9008 126.322C111.634 142.237 139.36 160.917 168.679 180.732C215.448 212.298 263.874 244.964 326.079 265.57C392.168 287.508 458.132 302.078 533.713 311.505C573.248 316.428 620.062 322.774 666.879 332.602C721.861 344.134 768.933 358.018 810.961 375.141C876.393 401.994 926.105 437.505 967.308 486.839C971.951 492.417 976.541 497.949 981.179 503.439C1003.77 530.476 1025.12 555.958 1045.85 582.352C1126.08 684.44 1200.41 763.882 1294.32 847.989C1302.54 855.333 1311.03 862.871 1319.29 870.16C1327.94 877.9 1336.99 885.877 1345.88 893.889C1367.95 913.663 1391.45 935.199 1422.16 963.716L1422.63 963.365Z" fill="#F3E4DE"/>
<path d="M1426.94 949.917C1405.52 930.566 1377.4 905.252 1349.31 880.837C1338.89 871.78 1328.4 862.819 1318.23 854.153C1311.14 848.134 1303.88 841.887 1296.77 835.823C1197.49 750.422 1121.69 673.504 1043.33 578.667C1023.32 554.416 1002.6 531.027 980.703 506.307C974.743 499.59 968.795 492.839 962.736 486.011C920.86 438.451 870.38 403.677 803.966 376.624C761.329 359.37 714.16 345.013 659.584 332.793C621.347 324.208 580.515 316.975 527.182 309.349C458.61 299.628 388.935 283.116 320.738 260.425C259.298 240.05 211.196 208.76 164.737 178.509C134.869 159.091 106.706 140.733 75.4062 125.219C9.3634 92.472 -56.8815 82.1683 -127.187 93.6072C-172.75 101.033 -216.386 117.311 -254.794 135.024C-254.633 135.156 -254.477 135.305 -254.312 135.428C-154.716 89.5201 -46.2975 65.4355 75.0882 125.647C106.394 141.144 134.519 159.461 164.35 178.885C210.855 209.153 258.977 240.488 320.626 260.905C388.839 283.603 458.532 300.117 527.12 309.836C580.459 317.444 621.26 324.668 659.473 333.273C713.975 345.506 761.162 359.86 803.719 377.048C870.025 404.113 920.409 438.816 962.234 486.272C968.269 493.12 974.242 499.851 980.217 506.573C1002.1 531.328 1022.82 554.629 1042.82 578.897C1121.18 673.799 1197.03 750.716 1296.35 836.15C1303.4 842.232 1310.75 848.462 1317.76 854.503C1327.96 863.149 1338.44 872.088 1348.87 881.159C1376.98 905.587 1405.09 930.878 1426.47 950.206L1426.94 949.917Z" fill="#F3E4DE"/>
<path d="M1431.22 936.436C1409.32 917.123 1380.57 891.901 1352.29 868.124C1340.51 858.236 1328.64 848.51 1317.14 839.094C1311.01 834.044 1304.85 829.016 1298.82 824.038C1193.54 737.093 1116.29 662.72 1040.3 575.286C1020.66 552.667 1000.29 530.988 978.752 507.943C971.88 500.619 964.777 493.062 957.729 485.448C915.262 439.777 864.111 405.762 796.809 378.483C753.523 361.113 706.259 346.378 652.191 333.374C612.984 323.998 571.157 315.793 520.585 307.64C455.807 297.174 390.624 280.664 315.262 255.676C254.537 235.525 206.787 205.63 160.605 176.69C130.234 157.638 101.41 139.601 69.642 124.503C3.98483 93.3546 -61.9565 84.1316 -131.931 96.3161C-175.227 103.861 -216.225 118.861 -253.655 135.977C-253.471 136.145 -253.285 136.304 -253.117 136.467C-155.043 91.9974 -48.6969 68.8946 69.4042 124.949C101.098 140.013 129.872 157.994 160.246 177.085C206.506 206.051 254.293 235.94 315.061 256.115C390.445 281.14 455.732 297.647 520.584 308.148C571.166 316.323 612.869 324.487 652.037 333.877C706.147 346.858 753.362 361.586 796.54 378.919C863.777 406.185 914.847 440.134 957.264 485.702C964.33 493.313 971.393 500.885 978.271 508.192C999.82 531.163 1020.15 552.866 1039.72 575.463C1115.72 662.928 1193.07 737.347 1298.34 824.278C1304.38 829.287 1310.52 834.302 1316.67 839.365C1328.11 848.774 1339.99 858.492 1351.77 868.388C1380.06 892.147 1408.81 917.369 1430.73 936.679L1431.22 936.436Z" fill="#F3E4DE"/>
<path d="M1435.51 922.938C1411.7 902.448 1383.53 878.402 1355.21 855.398C1342.12 844.789 1329.03 834.437 1316.3 824.408C1311.1 820.331 1305.94 816.255 1300.82 812.18C1187.54 722.397 1111.18 652.794 1037.26 571.874C1017.84 550.603 997.611 530.268 976.233 508.716C968.536 500.986 960.604 492.984 952.695 484.914C909.498 440.931 857.633 407.699 789.536 380.38C746.238 363.044 698.832 347.868 644.748 334.052C601.179 323.054 557.536 313.678 514.075 305.981C454.763 295.285 393.68 278.819 309.686 250.968C249.856 231.123 202.536 202.591 156.726 174.986C125.618 156.23 96.2477 138.535 63.8448 123.834C-1.42384 94.275 -66.9936 86.1853 -136.711 99.0806C-177.519 106.648 -216.419 120.847 -252.469 137.042C-252.366 137.145 -252.217 137.263 -252.114 137.365C-160.289 95.677 -55.4376 70.3398 63.5577 124.273C95.9635 138.965 125.287 156.645 156.34 175.363C202.178 202.987 249.559 231.539 309.49 251.391C393.436 279.282 454.503 295.695 513.948 306.455C557.396 314.154 601.024 323.518 644.58 334.494C698.622 348.333 745.988 363.477 789.207 380.843C857.217 408.113 909.032 441.29 952.151 485.198C960.065 493.252 968.01 501.267 975.732 509.025C997.11 530.577 1017.25 550.872 1036.67 572.134C1110.69 653.085 1187.02 722.718 1300.36 812.539C1305.52 816.596 1310.69 820.676 1315.87 824.778C1328.55 834.791 1341.64 845.134 1354.75 855.748C1383.05 878.804 1411.2 902.766 1435.05 923.28L1435.51 922.938Z" fill="#F3E4DE"/>
<path d="M1439.77 909.5C1415.45 889.073 1386.71 865.152 1358.2 842.716C1343.89 831.516 1329.57 820.64 1315.7 810.148C1311.37 806.885 1307.09 803.639 1302.87 800.411C1197.99 720.662 1116.5 654.066 1034.18 568.486C1014.83 548.419 994.695 529.227 973.394 508.967C964.992 500.978 956.301 492.728 947.658 484.388C903.406 441.734 852.39 410.257 782.357 382.356C738.39 364.86 690.968 349.275 637.353 334.738C594.121 323.1 550.746 312.953 507.452 304.349C441.539 291.148 376.412 270.228 304.195 246.262C245.322 226.742 198.489 199.613 153.159 173.379C121.27 154.942 91.2056 137.518 58.036 123.199C-6.78617 95.211 -72.0276 88.2306 -141.401 101.885C-179.786 109.414 -216.806 122.796 -251.245 138.15C-251.111 138.262 -250.989 138.361 -250.859 138.482C-160.372 98.0454 -57.6441 73.7882 57.8193 123.634C90.961 137.934 121.038 155.371 152.844 173.799C198.202 200.052 245.051 227.234 304.029 246.752C376.255 270.74 441.4 291.657 507.42 304.847C550.672 313.44 594.005 323.575 637.195 335.202C690.779 349.729 738.257 365.304 782.088 382.792C852.09 410.683 903.054 442.113 947.203 484.713C955.871 493.032 964.543 501.286 972.945 509.275C994.271 529.562 1014.37 548.687 1033.74 568.776C1116.05 654.365 1197.59 720.994 1302.5 800.776C1306.77 804.004 1311.06 807.237 1315.37 810.506C1329.17 821.002 1343.51 831.858 1357.8 843.078C1386.32 865.498 1415.06 889.41 1439.42 909.839L1439.77 909.5Z" fill="#F3E4DE"/>
<path d="M1444.11 896.048C1419.29 875.72 1390 851.997 1361.15 830.017C1345.65 818.283 1330.19 807.018 1315.24 796.176C1311.72 793.657 1308.33 791.179 1304.87 788.65C1205.67 716.306 1116.62 649.554 1031.12 565.174C1011.79 546.128 991.669 528.054 970.35 508.957C961.364 500.817 951.89 492.387 942.609 483.897C897.936 443.19 846.399 412.533 775.091 384.332C730.481 366.655 682.977 350.65 629.916 335.447C587.06 323.156 543.999 312.231 500.93 302.724C444.476 290.307 389.92 272.113 326.697 250.958C317.534 247.888 308.152 244.752 298.663 241.627C240.913 222.451 194.656 196.764 149.928 171.896C117.185 153.695 86.231 136.506 52.3013 122.599C-12.0897 96.1769 -76.9836 90.3497 -146.074 104.743C-182.244 112.288 -216.885 124.696 -249.999 139.293L-249.513 139.736C-160.171 100.54 -59.4262 77.304 52.0691 123.028C85.9893 136.912 116.872 154.106 149.637 172.295C194.365 197.164 240.693 222.894 298.511 242.074C308.004 245.238 317.373 248.36 326.536 251.431C389.753 272.554 444.374 290.809 500.843 303.232C543.883 312.712 586.916 323.62 629.743 335.906C682.856 351.107 730.276 367.104 774.921 384.782C846.059 412.925 897.661 443.595 942.173 484.219C951.565 492.736 960.862 501.126 969.935 509.266C991.3 528.379 1011.45 546.406 1030.7 565.469C1116.17 649.862 1205.27 716.63 1304.48 788.995C1307.94 791.508 1311.37 794.027 1314.87 796.541C1329.78 807.415 1345.31 818.692 1360.75 830.372C1389.64 852.361 1418.9 876.049 1443.73 896.391L1444.11 896.048Z" fill="#F3E4DE"/>
<path d="M1448.4 882.572C1423.07 862.329 1393.25 838.76 1364.1 817.302C1347.44 805.094 1330.87 793.53 1314.73 782.284L1306.91 776.833C1198.46 700.985 1112.81 641.133 1028.08 561.77C1008.81 543.704 988.57 526.587 967.133 508.495C957.505 500.319 947.513 491.894 937.602 483.334C892.758 444.697 840.453 414.728 767.91 386.212C720.197 367.557 671.594 350.803 622.487 336.082C579.979 323.119 537.212 311.424 494.358 301.044C447.588 289.813 400.709 273.694 351.122 256.578C332.473 250.173 313.231 243.537 293.116 236.835C236.625 218.106 191.076 193.83 147.049 170.341C113.3 152.363 81.3495 135.372 46.4967 121.851C-17.4295 96.9958 -81.97 92.3054 -150.794 107.432C-184.57 114.871 -217.28 126.566 -248.77 140.286L-248.39 140.636C-158.972 101.571 -62.501 80.016 46.332 122.284C81.1482 135.812 113.043 152.765 146.786 170.76C190.88 194.252 236.46 218.538 292.992 237.3C313.1 243.972 332.33 250.593 350.952 257.027C400.559 274.132 447.39 290.244 494.191 301.485C537.013 311.836 579.75 323.502 622.229 336.436C671.346 351.158 719.961 367.91 767.689 386.558C840.09 415.036 892.308 444.956 937.072 483.576C947.048 492.148 957.101 500.594 966.652 508.744C988.052 526.794 1008.3 543.869 1027.59 561.948C1112.35 641.379 1198.02 701.266 1306.45 777.087L1314.35 782.565C1330.39 793.779 1346.98 805.379 1363.65 817.561C1392.8 838.988 1422.64 862.568 1447.92 882.791L1448.4 882.572Z" fill="#F3E4DE"/>
<path d="M1452.72 869.116C1425.5 847.951 1396.43 825.535 1367.04 804.604C1349.26 792.004 1331.56 780.148 1314.4 768.652L1277.51 743.96C1179.5 678.492 1102.1 626.779 1025.07 558.329C1005.72 541.196 985.374 525 963.874 507.903C953.664 499.769 943.075 491.38 932.558 482.777C887.669 446.195 834.653 417.001 760.738 388.113C712.823 369.428 664.187 352.262 615.079 336.705C565.592 320.965 525.147 309.107 487.823 299.356C447.452 288.846 407.326 274.432 364.937 259.18C340.394 250.366 314.922 241.198 287.626 232.128C232.618 213.894 187.975 191.106 144.668 169.041C109.762 151.226 76.7349 134.414 40.7275 121.2C-22.755 97.925 -86.9027 94.356 -155.515 110.226C-186.949 117.513 -217.714 128.546 -247.548 141.449L-247.124 141.824C-159.206 103.926 -64.7381 83.099 40.5048 121.652C76.4659 134.85 109.481 151.648 144.415 169.483C187.651 191.552 232.424 214.365 287.459 232.617C314.725 241.677 340.138 250.815 364.66 259.641C407.159 274.921 447.27 289.331 487.663 299.877C525.032 309.595 565.423 321.463 614.879 337.193C663.977 352.743 712.605 369.895 760.516 388.565C834.363 417.448 887.326 446.596 932.154 483.157C942.654 491.707 953.241 500.152 963.445 508.256C984.975 525.363 1005.27 541.494 1024.58 558.7C1101.64 627.16 1179.13 678.874 1277.1 744.357C1287.4 751.218 1297.81 758.221 1308.54 765.391L1314.04 769.047C1331.17 780.516 1348.85 792.401 1366.68 805.008C1396.07 825.923 1425.16 848.352 1452.29 869.476L1452.72 869.116Z" fill="#F3E4DE"/>
<path d="M1457 855.652C1429.35 834.63 1399.71 812.366 1370.04 791.913C1351.03 778.876 1332.12 766.746 1313.75 754.988L1310.92 753.191C1290.6 740.15 1271.13 727.8 1252.33 715.87C1167.02 661.791 1093.44 615.08 1021.97 554.936C1002.55 538.613 982.113 523.306 960.465 507.098C949.667 499.07 938.603 490.76 927.454 482.248C882.126 447.358 830.108 419.787 753.487 389.998C705.054 371.212 657.296 353.98 607.644 337.358C569.479 324.618 524.627 309.927 481.227 297.696C445.435 287.642 410.118 274.27 372.66 260.159C344.09 249.371 314.547 238.203 282.102 227.419C228.747 209.691 185.104 188.413 142.889 167.794C106.515 150.044 72.2991 133.336 34.939 120.505C-28.0449 98.7997 -91.8949 96.3291 -160.215 112.96C-189.929 120.199 -218.832 130.62 -246.433 142.424C-246.29 142.559 -246.156 142.671 -246.01 142.798C-158.389 105.115 -67.8528 85.6247 34.7598 120.981C72.0523 133.808 106.302 150.518 142.618 168.238C184.866 188.859 228.599 210.177 281.917 227.912C314.401 238.681 343.895 249.841 372.505 260.614C409.976 274.739 445.311 288.108 481.118 298.167C524.472 310.382 569.306 325.076 607.447 337.837C657.197 354.473 704.924 371.695 753.295 390.46C829.86 420.211 881.835 447.757 927.131 482.589C938.165 491.138 949.336 499.437 959.98 507.46C981.655 523.639 1002.13 538.939 1021.51 555.246C1093.03 615.437 1166.64 662.12 1251.94 716.233C1270.77 728.165 1290.27 740.525 1310.57 753.544L1313.39 755.367C1331.77 767.116 1350.63 779.221 1369.59 792.268C1399.28 812.718 1428.92 834.957 1456.55 855.968L1457 855.652Z" fill="#F3E4DE"/>
<path d="M1461.29 842.185C1433.16 821.307 1403.05 799.256 1372.98 779.223C1352.84 765.859 1332.85 753.59 1313.56 741.741L1312.96 741.414C1285.05 724.244 1258.74 708.521 1233.47 693.369C1154.48 646.063 1086.25 605.202 1018.95 551.577C999.453 536.034 978.85 521.562 956.928 506.211C945.702 498.277 934.022 490.111 922.374 481.698C866.086 440.824 804.422 414.381 746.239 391.922C694.679 372.005 646.921 354.37 600.139 338.016C554.687 322.105 513.967 307.967 474.634 296.027C442.331 286.241 410.509 273.578 376.787 260.222C345.434 247.748 312.929 234.815 276.516 222.69C225.13 205.65 182.73 185.879 141.607 166.705C103.715 149.014 67.9596 132.329 29.1073 119.786C-33.3963 99.653 -96.863 98.2812 -164.949 115.691C-192.321 122.674 -219.309 132.424 -245.275 143.47C-245.134 143.614 -244.957 143.751 -244.804 143.908C-158.747 107.333 -70.1427 88.3064 28.9463 120.259C67.7216 132.776 103.477 149.461 141.405 167.097C182.455 186.284 224.935 206.073 276.33 223.135C312.777 235.262 345.272 248.172 376.604 260.61C410.313 274.001 442.182 286.679 474.466 296.469C513.756 308.384 554.525 322.529 599.931 338.424C646.729 354.832 694.506 372.464 746.022 392.356C804.162 414.791 865.754 441.191 922.066 482.044C933.708 490.475 945.362 498.669 956.646 506.584C978.447 521.885 999.004 536.341 1018.52 551.873C1085.83 605.538 1154.08 646.409 1233.08 693.729C1258.46 708.895 1284.69 724.6 1312.64 741.763L1313.18 742.1C1332.52 753.957 1352.46 766.21 1372.6 779.583C1402.67 799.616 1432.78 821.666 1460.9 842.522L1461.29 842.185Z" fill="#F3E4DE"/>
<path d="M1465.63 828.685C1436.98 807.957 1406.33 786.079 1375.91 766.511C1354.57 752.804 1332.67 739.945 1315 729.598C1280.91 709.538 1249.26 691.767 1218.71 674.561C1144.34 632.692 1080.1 596.539 1015.89 548.177C996.279 533.372 975.493 519.691 953.503 505.198C941.756 497.48 929.596 489.459 917.447 481.153C865.169 445.441 808.357 420.419 739.133 393.885C695.504 377.118 644.624 357.682 592.824 338.671C587.778 336.857 582.811 335.013 577.927 333.226C539.676 319.172 503.566 305.904 468.143 294.412C438.533 284.756 409.503 272.536 378.745 259.68C345.283 245.664 310.733 231.201 271.1 218.018C221.962 201.706 181.055 183.468 141.399 165.801C101.743 148.133 64.0746 131.352 23.4208 119.145C-38.5754 100.556 -101.722 100.319 -169.542 118.462C-194.922 125.259 -219.691 134.306 -244.039 144.543L-243.46 145.066C-158.964 109.589 -72.3078 90.9252 23.2417 119.621C63.8493 131.812 101.415 148.539 141.182 166.235C180.949 183.931 221.761 202.146 270.93 218.468C310.498 231.639 345.047 246.102 378.491 260.121C409.253 273.017 438.369 285.237 467.978 294.845C503.387 306.379 539.496 319.6 577.711 333.661C582.643 335.455 587.644 337.301 592.568 339.12C644.401 358.133 695.312 377.58 738.913 394.328C808.055 420.853 864.835 445.864 917.076 481.534C929.256 489.851 941.357 497.843 953.16 505.599C975.143 520.061 995.918 533.776 1015.48 548.526C1079.74 596.935 1143.99 633.11 1218.39 674.95C1248.96 692.161 1280.51 709.918 1314.7 729.983C1332.3 740.327 1354.19 753.185 1375.54 766.876C1405.94 786.472 1436.62 808.344 1465.23 829.039L1465.63 828.685Z" fill="#F3E4DE"/>
<path d="M1469.89 815.247C1440.75 794.649 1409.61 772.957 1378.91 753.812C1358.23 741.022 1337.84 729.461 1317.04 717.798C1277.77 695.747 1241.76 676.788 1206.91 658.446C1135.97 621.079 1074.67 588.815 1012.87 544.81C993.137 530.768 972.142 517.803 949.988 504.145C937.732 496.609 925.112 488.776 912.45 480.66C855.959 444.328 792.335 418.838 731.906 395.797C706.174 385.975 680.792 376.137 653.938 365.77C631.656 357.141 608.562 348.217 585.347 339.347C575.361 335.507 565.319 331.629 555.658 327.9C522.897 315.263 491.972 303.3 461.559 292.766C434.222 283.212 407.358 271.355 378.954 258.812C343.955 243.342 307.828 227.345 265.579 213.301C219.178 197.901 179.993 181.227 142.124 165.136C100.115 147.252 60.4262 130.388 17.667 118.5C-43.8379 101.401 -106.595 102.294 -174.193 121.203C-198.43 128.165 -221.376 136.296 -242.902 145.552L-242.354 146.065C-158.474 110.829 -75.4399 93.1475 17.4937 118.959C60.2161 130.854 99.8678 147.724 141.904 165.579C179.721 181.672 218.958 198.344 265.421 213.765C307.615 227.82 343.757 243.773 378.694 259.222C407.128 271.776 434.061 283.685 461.382 293.185C491.796 303.767 522.68 315.697 555.405 328.341C565.088 332.058 575.191 335.957 585.127 339.79C608.376 348.662 631.464 357.603 653.783 366.226C680.592 376.625 705.955 386.418 731.717 396.251C792.02 419.258 855.678 444.75 912.088 481.016C924.802 489.178 937.4 496.975 949.638 504.515C971.836 518.197 992.791 531.13 1012.52 545.092C1074.35 589.147 1135.66 621.442 1206.62 658.814C1241.47 677.148 1277.47 696.133 1316.76 718.163C1337.55 729.821 1357.94 741.356 1378.54 754.145C1409.25 773.296 1440.38 794.974 1469.52 815.572L1469.89 815.247Z" fill="#F3E4DE"/>
<path d="M1474.16 801.792C1444.59 781.344 1412.9 759.849 1381.85 741.122C1360.29 728.195 1339.01 716.684 1319.06 706.002C1275.39 682.577 1235.56 663.039 1197.09 644.203C1128.77 610.679 1069.81 581.705 1009.81 541.41C989.96 528.067 968.785 515.883 946.413 502.967C933.675 495.63 920.597 488.082 907.329 480.077C853.261 447.399 795.109 424.394 724.682 397.7C679.343 380.495 634.468 362.585 587.001 343.639L577.915 339.991C564.189 334.494 550.583 328.953 537.412 323.597C508.778 311.934 481.681 300.966 455.003 291.09C429.47 281.594 404.478 269.953 377.992 257.593C341.866 240.781 304.501 223.413 259.993 208.571C216.695 194.17 179.803 179.207 144.099 164.696C99.4801 146.538 57.2403 129.38 11.872 117.774C-49.0542 102.262 -111.425 104.245 -178.853 123.921C-200.939 130.508 -221.954 138.053 -241.803 146.521L-241.526 146.769C-164.91 114.564 -81.1436 94.581 11.7979 118.295C57.0736 129.87 99.2391 146.993 143.903 165.119C179.684 179.656 216.583 194.65 259.9 209.048C304.355 223.843 341.668 241.212 377.736 258.042C404.304 270.364 429.336 282.038 454.906 291.527C481.526 301.422 508.565 312.408 537.26 324.044C550.381 329.392 564.019 334.945 577.794 340.448L586.883 344.088C634.402 363.032 679.185 380.959 724.61 398.165C795.003 424.857 853.06 447.838 907.146 480.513C920.324 488.479 933.505 496.081 946.23 503.403C968.598 516.28 989.7 528.476 1009.51 541.795C1069.53 582.101 1128.58 611.085 1196.87 644.607C1235.43 663.482 1275.19 682.999 1318.85 706.41C1338.8 717.101 1360.1 728.608 1381.59 741.523C1412.66 760.238 1444.33 781.715 1473.89 802.171L1474.16 801.792Z" fill="#F3E4DE"/>
<path d="M1478.5 788.323C1448.43 768.032 1416.27 746.75 1384.83 728.408C1362.4 715.431 1340.14 703.945 1321.09 694.18C1273.51 669.886 1230.48 650.294 1188.85 631.341C1125.35 602.451 1065.31 575.132 1006.72 537.999C986.801 525.362 965.46 513.918 942.883 501.756C929.649 494.663 916.056 487.313 902.32 479.57C848.048 448.807 787.951 426.157 724.214 402.163L717.492 399.606C671.322 382.214 625.359 363.454 570.573 340.675C553.98 333.791 537.742 326.826 521.999 320.077C496.451 309.157 472.417 298.849 448.524 289.441C424.631 280.034 401.098 268.506 376.221 256.271C339.242 238.124 300.997 219.344 254.602 203.927C215.095 190.778 180.97 177.495 147.801 164.643C97.7545 145.184 54.5647 128.441 6.14608 117.148C-54.231 103.108 -116.236 106.242 -183.449 126.7C-202.785 132.583 -221.927 139.71 -240.669 147.54C-240.495 147.685 -240.364 147.806 -240.221 147.941C-164.874 116.532 -83.0616 96.9288 6.02293 117.662C54.4136 128.936 97.5484 145.688 147.539 165.109C180.653 177.972 214.934 191.25 254.404 204.358C300.799 219.775 339 238.53 376.026 256.693C400.859 268.904 424.348 280.408 448.384 289.902C472.166 299.281 496.302 309.595 521.822 320.544C537.587 327.281 553.819 334.215 570.415 341.139C625.25 363.925 671.201 382.719 717.424 400.11L724.108 402.625C787.814 426.609 847.924 449.273 902.143 479.989C915.83 487.774 929.515 495.058 942.697 502.201C965.28 514.345 986.56 525.816 1006.51 538.425C1065.12 575.586 1125.18 602.871 1188.76 631.818C1230.34 650.763 1273.38 670.33 1320.9 694.634C1339.96 704.381 1362.22 715.859 1384.59 728.832C1416.02 747.2 1448.21 768.443 1478.26 788.721L1478.5 788.323Z" fill="#F3E4DE"/>
<path d="M1482.77 774.859C1452.24 754.725 1419.59 733.622 1387.8 715.69C1365.65 703.307 1343.6 692.353 1323.13 682.355C1272.2 657.543 1226.26 638.224 1181.78 619.548C1119.76 593.5 1061.2 568.918 1003.7 534.592C983.654 522.67 962.082 511.857 939.275 500.47C925.647 493.627 911.512 486.553 897.313 479.007C847.438 452.521 793.06 432.287 735.416 410.874C727.105 407.777 718.746 404.657 710.336 401.514C657.685 381.82 606.406 360.014 563.072 341.267C544.253 333.136 525.913 324.861 508.161 316.882C485.166 306.505 463.38 296.722 441.875 287.734C419.281 278.251 397.148 266.807 373.701 254.723C336.093 235.288 297.13 215.181 249.021 199.132C214.035 187.522 183.198 176.058 153.371 164.966C99.2087 144.806 52.3905 127.394 0.277575 116.436C-59.1684 103.959 -120.522 108.061 -187.097 129.025C-204.911 134.63 -222.423 141.219 -239.697 148.427C-239.569 148.557 -239.433 148.661 -239.317 148.777C-164.874 117.596 -86.4925 98.7142 0.202716 116.909C52.2231 127.836 99.0073 145.246 153.204 165.408C183.009 176.511 213.88 187.977 248.842 199.608C296.873 215.63 335.809 235.718 373.441 255.133C396.861 267.246 419 278.674 441.689 288.179C463.142 297.169 484.879 306.944 507.898 317.301C525.702 325.278 543.987 333.563 562.854 341.758C606.141 360.489 657.5 382.313 710.065 402.006C718.528 405.162 726.901 408.277 735.184 411.352C792.779 432.757 847.152 453.008 897.023 479.455C911.169 487.002 925.323 494.073 939 500.923C961.807 512.31 983.321 523.093 1003.33 535.022C1060.95 569.342 1119.52 593.938 1181.54 620.012C1225.96 638.698 1271.89 658.011 1322.8 682.809C1343.33 692.814 1365.35 703.763 1387.41 716.123C1419.2 734.016 1451.88 755.121 1482.47 775.254L1482.77 774.859Z" fill="#F3E4DE"/>
<path d="M1487.18 761.42C1451.29 738.352 1421.17 719.577 1390.78 703.033C1369.47 691.645 1347.58 680.819 1325.22 670.602C1271.26 645.585 1222.68 626.825 1175.74 608.68C1114.88 585.185 1057.38 562.997 1000.68 531.256C980.436 519.935 958.774 509.84 935.759 499.168C921.647 492.582 907.029 485.814 892.311 478.532C846.663 455.862 797.563 437.971 745.593 419.007C731.802 414.007 717.511 408.807 703.215 403.471C660.246 387.495 614.782 368.531 555.779 341.958C535.051 332.659 515.056 323.179 495.664 313.999C474.769 304.126 454.975 294.763 435.454 286.115C413.977 276.59 392.992 265.21 370.831 253.142C332.674 232.437 293.265 211.009 243.609 194.501C214.073 184.678 187.537 175.195 161.881 166.012C102.466 144.745 51.1902 126.42 -5.40563 115.786C-63.518 104.904 -123.475 109.808 -188.749 130.792C-205.621 136.21 -222.239 142.5 -238.618 149.35L-238.219 149.697C-165.72 119.321 -89.4958 100.559 -5.48069 116.259C51.146 126.904 102.329 145.197 161.636 166.427C187.329 175.604 213.819 185.071 243.349 194.911C292.821 211.404 332.353 232.874 370.448 253.51C392.679 265.573 413.63 276.951 435.135 286.495C454.672 295.148 474.422 304.488 495.36 314.385C514.629 323.522 534.694 332.998 555.473 342.352C614.516 368.91 660.007 387.893 702.92 403.88C717.26 409.192 731.551 414.391 745.336 419.409C797.312 438.355 846.42 456.221 892.077 478.865C906.799 486.186 921.396 492.966 935.532 499.532C958.535 510.238 980.195 520.342 1000.36 531.606C1057.17 563.357 1114.67 585.554 1175.5 609.07C1222.45 627.215 1271 645.946 1324.86 670.941C1347.23 681.155 1369.12 691.978 1390.43 703.363C1420.79 719.879 1450.9 738.624 1486.76 761.721L1487.18 761.42Z" fill="#F3E4DE"/>
<path d="M1491.38 747.922C1454.99 725.057 1424.43 706.499 1393.67 690.314C1372.05 679.155 1349.85 668.623 1327.16 658.772C1270.46 633.722 1219.57 615.795 1170.24 598.43C1110.31 577.273 1053.69 557.293 997.586 527.863C977.273 517.191 955.343 507.733 932.09 497.757C917.487 491.502 902.41 484.97 887.19 477.949C845.55 458.676 801.378 443.047 754.575 426.504C735.484 419.728 715.711 412.73 695.852 405.376C652.354 389.286 605.46 369.318 548.194 342.598C525.913 332.195 504.521 321.559 483.826 311.303C464.692 301.771 446.641 292.799 428.778 284.437C408.284 274.854 388.386 263.47 367.25 251.425C328.749 229.452 288.935 206.736 237.933 189.731C215.135 182.163 194.085 174.874 173.728 167.821C107.762 145.014 50.7815 125.294 -11.3044 115.111C-68.0039 105.793 -126.64 111.473 -190.601 132.492C-206.553 137.733 -222.273 143.763 -237.778 150.221C-237.669 150.334 -237.551 150.444 -237.425 150.552C-166.853 120.93 -92.7534 102.24 -11.3608 115.581C50.6884 125.77 107.559 145.51 173.546 168.305C193.927 175.338 214.965 182.613 237.769 190.164C288.786 207.174 328.464 229.834 366.943 251.77C388.083 263.855 407.999 275.236 428.536 284.844C446.359 293.173 464.41 302.193 483.577 311.679C504.187 321.934 525.594 332.576 547.967 343.01C605.233 369.73 652.162 389.7 695.645 405.785C715.524 413.126 735.254 420.148 754.419 426.911C801.17 443.456 845.407 459.097 886.939 478.333C902.166 485.386 917.239 491.877 931.831 498.167C955.021 508.121 976.958 517.563 997.227 528.21C1053.41 557.698 1110.05 577.666 1170.05 598.844C1219.23 616.187 1270.16 634.155 1326.83 659.147C1349.49 668.986 1371.68 679.509 1393.27 690.66C1423.99 706.868 1454.55 725.387 1491 748.256L1491.38 747.922Z" fill="#F3E4DE"/>
<path d="M-236.825 151.063L-236.485 151.38C-167.858 122.467 -95.8535 103.812 -17.081 114.938C51.7498 124.674 112.921 145.284 190.355 171.418C203.761 175.981 217.672 180.63 232.282 185.497C284.524 202.904 324.543 226.889 363.227 250.094C383.354 262.17 402.412 273.545 421.937 283.192C438.397 291.325 454.924 299.971 472.441 309.096C494.256 320.462 516.783 332.214 540.552 343.707C597.111 371.088 644.184 391.443 688.492 407.732C713.571 416.996 738.516 425.487 762.543 433.741C804.536 448.034 844.283 461.639 881.902 477.856C897.653 484.636 913.245 490.815 928.314 496.817C951.72 506.087 973.814 514.863 994.257 524.898C1049.97 552.24 1106 570.159 1165.27 589.155C1216.64 605.633 1269.72 622.614 1328.94 647.431C1351.92 656.898 1374.44 667.123 1396.35 678.043C1427.41 693.842 1458.38 712.196 1495.35 734.892L1495.69 734.491C1458.66 711.783 1427.72 693.439 1396.66 677.632C1374.72 666.72 1352.19 656.491 1329.21 647.004C1269.96 622.142 1216.86 605.159 1165.43 588.682C1106.23 569.739 1050.19 551.797 994.489 524.47C974.039 514.403 951.924 505.639 928.493 496.341C913.434 490.362 897.878 484.176 882.186 477.425C844.41 461.164 804.752 447.599 762.738 433.271C738.641 425.069 713.775 416.548 688.645 407.285C644.28 390.958 597.334 370.636 540.774 343.255C517.126 331.812 494.534 320.049 472.774 308.673C455.221 299.554 438.648 290.893 422.231 282.784C402.663 273.161 383.654 261.744 363.567 249.701C324.831 226.45 284.787 202.486 232.37 185.038C217.814 180.161 203.927 175.492 190.46 170.956C112.968 144.791 51.7777 124.137 -17.1169 114.436C-72.4141 106.612 -129.74 113.044 -192.299 134.09C-207.302 139.175 -222.171 144.929 -236.825 151.063Z" fill="#F3E4DE"/>
<path d="M-235.999 151.823L-235.616 152.164C-168.917 123.909 -99.0437 105.295 -22.8618 114.322C54.3055 123.386 121.066 145.63 213.506 176.431L226.767 180.763C280.151 198.558 322.173 224.951 359.251 248.27C378.493 260.371 396.695 271.782 415.384 281.508C430.52 289.383 445.785 297.742 461.94 306.567C484.675 318.974 508.199 331.842 533.123 344.342C589.169 372.421 636.249 393.162 681.312 409.659C711.3 420.633 741.055 430.367 769.863 439.799C807.41 452.08 842.925 463.708 876.963 477.297C893.193 483.779 909.287 489.65 924.748 495.306C948.404 503.942 970.684 512.072 991.24 521.474C1046.71 546.885 1102.22 562.891 1161 579.858C1214.31 595.202 1269.52 611.117 1331.02 635.607C1354.28 644.714 1377.1 654.635 1399.32 665.307C1434.27 682.454 1469.45 703.233 1499.71 721.372L1500.03 720.974C1469.75 702.833 1434.56 682.038 1399.62 664.89C1377.38 654.196 1354.54 644.26 1331.25 635.147C1269.7 610.681 1214.54 594.764 1161.11 579.387C1102.4 562.424 1046.92 546.445 991.478 521.028C970.907 511.62 948.596 503.48 925.004 494.856C909.454 489.208 893.4 483.322 877.134 476.846C843.129 463.259 807.568 451.616 770.048 439.306C741.262 429.911 711.476 420.166 681.497 409.166C636.477 392.693 589.407 371.974 533.441 343.913C508.443 331.378 484.984 318.571 462.221 306.145C446.105 297.304 430.863 288.982 415.671 281.069C396.982 271.342 378.779 259.883 359.591 247.83C322.491 224.522 280.453 198.125 226.922 180.307L213.727 175.883C121.237 145.075 54.3846 122.8 -22.8686 113.735C-76.7024 107.377 -132.645 114.548 -193.937 135.565C-208.132 140.503 -222.147 145.973 -235.999 151.823Z" fill="#F3E4DE"/>
<path d="M-235.214 152.551C-235.065 152.669 -234.965 152.779 -234.815 152.897C-169.998 125.267 -102.209 106.653 -28.6386 113.592C51.9952 121.172 122.612 143.261 221.206 176.061C275.759 194.264 317.813 221.981 354.941 246.42C373.388 258.576 390.867 270.038 408.766 279.86C422.745 287.494 436.808 295.54 451.676 304.052C475.259 317.505 499.579 331.477 525.654 344.993C581.262 373.804 628.347 394.931 674.067 411.575C708.649 424.122 742.97 434.854 776.233 445.208C809.771 455.664 841.365 465.459 871.929 476.763C888.747 482.985 905.252 488.507 921.205 493.831C945.031 501.816 967.577 509.317 988.217 518.116C1043.46 541.714 1098.66 555.868 1157.07 570.918C1212.26 585.121 1269.45 599.847 1333.02 623.806C1356.6 632.534 1379.75 642.157 1402.3 652.602C1437.59 669.34 1473.31 689.942 1503.98 707.916L1504.29 707.514C1473.61 689.548 1437.86 668.922 1402.61 652.217C1377.02 640.143 1352.11 630.477 1333.32 623.372C1269.61 599.357 1212.46 584.681 1157.23 570.454C1098.87 555.451 1043.72 541.224 988.446 517.695C967.75 508.858 945.291 501.358 921.419 493.406C905.456 488.059 888.966 482.542 872.146 476.328C841.552 465.062 809.975 455.167 776.452 444.717C743.238 434.371 708.914 423.647 674.366 411.102C628.702 394.496 581.592 373.341 526.052 344.582C499.967 331.044 475.605 317.096 452.188 303.66C437.274 295.133 423.242 287.097 409.232 279.453C391.342 269.653 373.912 258.15 355.487 246.03C318.303 221.553 276.178 193.793 221.542 175.581C122.951 142.772 52.2264 120.695 -28.4419 113.065C-80.9117 108.111 -135.493 115.938 -195.403 137.041C-208.893 141.778 -222.146 146.98 -235.214 152.551Z" fill="#F3E4DE"/>
<path d="M-234.488 153.2C-234.345 153.335 -234.208 153.44 -234.093 153.556C-171.202 126.477 -105.452 107.889 -34.3586 112.95C45.2084 118.555 114.944 137.822 215.772 171.392C271.312 189.932 313.373 218.993 350.584 244.553C368.324 256.766 384.997 268.318 402.29 278.201C415.149 285.637 428.102 293.401 441.833 301.612C466.153 316.141 491.145 331.118 518.296 345.671C573.382 375.206 620.558 396.776 666.902 413.508C705.727 427.547 744.453 438.945 781.881 449.958C811.602 458.732 839.596 466.965 866.904 476.251C884.183 482.132 901.216 487.315 917.663 492.3C941.672 499.599 964.336 506.498 985.166 514.738C1040.36 536.573 1095.38 549.058 1153.53 562.293C1210.5 575.23 1269.36 588.619 1335.04 612.001C1363.15 622.028 1384.87 630.638 1405.25 639.935C1441 656.283 1477.12 676.618 1508.32 694.456L1508.63 694.053C1477.5 676.219 1441.24 655.845 1405.56 639.484C1385.07 630.198 1363.45 621.603 1335.25 611.536C1269.56 588.123 1210.61 574.75 1153.65 561.788C1095.47 548.581 1040.53 536.114 985.376 514.272C964.561 506.037 941.824 499.152 917.818 491.844C901.377 486.843 884.346 481.65 867.053 475.764C839.778 466.481 811.735 458.24 782.02 449.498C744.593 438.484 705.916 427.094 667.044 413.039C620.793 396.338 573.608 374.746 518.562 345.244C491.479 330.744 466.406 315.7 442.149 301.192C428.39 292.962 415.4 285.204 402.548 277.8C385.38 267.902 368.63 256.371 350.89 244.159C313.709 218.513 271.51 189.453 215.886 170.904C115.012 137.318 45.2428 118.049 -34.4571 112.379C-85.4593 108.778 -138.726 117.292 -197.237 138.382C-209.76 142.959 -222.176 147.928 -234.488 153.2Z" fill="#F3E4DE"/>
<path d="M-233.831 153.798L-233.435 154.154C-172.407 127.64 -108.734 109.035 -40.15 112.263C44.2092 116.231 118.169 136.035 210.17 166.658C266.766 185.537 308.759 215.86 345.995 242.609C363.016 254.912 379.166 266.535 395.66 276.492C407.572 283.672 419.558 291.193 432.223 299.099C457.087 314.657 482.8 330.752 510.842 346.279C565.598 376.584 612.876 398.562 659.62 415.382C702.564 430.823 745.439 442.674 786.837 454.109C813.014 461.36 837.658 468.156 861.848 475.68C879.655 481.271 897.195 486.081 914.106 490.715C938.276 497.388 961.165 503.674 982.121 511.343C1037.37 531.539 1092.18 542.37 1150.22 553.87C1208.88 565.475 1269.57 577.483 1337.08 600.211C1365.38 609.701 1387.3 618.042 1408.22 627.185C1444.31 643.172 1480.99 663.325 1512.59 680.984L1512.87 680.562C1481.3 662.922 1444.63 642.735 1408.48 626.815C1387.51 617.634 1365.58 609.336 1337.27 599.757C1269.64 577.019 1208.94 565.044 1150.32 553.433C1092.26 541.928 1037.43 531.078 982.317 510.921C961.352 503.277 938.474 496.958 914.212 490.301C897.295 485.636 879.777 480.814 862.019 475.278C837.804 467.727 813.104 460.892 786.968 453.674C745.523 442.224 702.762 430.393 659.882 414.964C613.122 398.09 565.836 376.186 511.137 345.919C483.126 330.403 457.388 314.327 432.511 298.756C419.813 290.8 407.895 283.331 395.964 276.154C379.393 266.171 363.326 254.557 346.315 242.276C309.142 215.492 267.004 185.091 210.393 166.206C118.32 135.539 44.2901 115.74 -40.1646 111.75C-89.7434 109.429 -141.647 118.541 -198.759 139.667C-210.604 144.073 -222.275 148.777 -233.831 153.798Z" fill="#F3E4DE"/>
<path d="M-233.242 154.344L-232.859 154.685C-173.675 128.685 -112.024 110.053 -45.9133 111.596C30.951 113.357 101.227 127.497 204.68 161.951C262.149 181.147 304.176 212.786 341.194 240.734C357.659 253.05 373.087 264.772 389.083 274.876C400.047 281.81 411.071 289.071 422.816 296.693C448.167 313.25 474.482 330.462 503.408 346.98C557.037 377.61 605.796 400.649 652.452 417.324C699.107 434 745.949 446.079 791.165 457.73C813.98 463.578 835.61 469.166 856.864 475.201C875.098 480.449 893.165 484.873 910.552 489.17C934.944 495.19 958.015 500.943 979.077 507.997C1034.38 526.628 1089.16 535.876 1147.17 545.689C1207.39 555.897 1269.71 566.448 1339.09 588.415C1367.19 597.324 1390.05 605.596 1411.11 614.545C1447.64 630.066 1484.82 650.046 1516.86 667.537L1517.15 667.129C1485.12 649.621 1447.87 629.646 1411.36 614.104C1390.3 605.172 1367.31 596.849 1339.22 587.949C1269.78 565.952 1207.43 555.382 1147.19 545.217C1089.22 535.398 1034.53 526.124 979.26 507.561C958.179 500.462 935.117 494.731 910.682 488.687C893.323 484.408 875.307 479.935 857.016 474.755C835.768 468.702 814.148 463.136 791.305 457.269C746.071 445.622 699.303 433.625 652.684 416.895C606.064 400.165 557.346 377.207 503.724 346.56C474.899 330.095 448.559 312.904 423.203 296.316C411.494 288.688 400.409 281.454 389.463 274.517C373.465 264.421 358.035 252.756 341.636 240.396C304.57 212.44 262.467 180.718 204.943 161.532C101.354 127.023 31.0722 112.9 -45.8972 111.093C-94.0806 110.033 -144.6 119.731 -200.34 140.874C-211.437 145.054 -222.409 149.575 -233.242 154.344Z" fill="#F3E4DE"/>
<path d="M-232.744 154.753L-232.349 155.108C-175.007 129.564 -115.372 110.936 -51.6622 110.885C28.5954 110.82 98.879 123.774 199.137 157.198C257.537 176.691 299.406 209.657 336.396 238.747C352.161 251.198 367.102 262.985 382.517 273.178C392.667 279.874 402.808 286.796 413.512 294.14C439.458 311.829 466.284 330.068 495.954 347.587C549.277 379.015 598.111 402.491 645.298 419.223C695.468 437.104 746.034 449.118 794.953 460.764C814.69 465.439 833.337 469.878 851.799 474.657C870.631 479.513 889.145 483.533 906.974 487.492C931.633 492.932 954.872 498.042 976.023 504.579C1031.55 521.695 1086.33 529.468 1144.33 537.638C1206.12 546.385 1270.06 555.416 1341.1 576.565C1369.43 585.028 1392.61 593.016 1414.14 601.799C1451.04 616.978 1488.76 636.739 1521.14 654.056L1521.45 653.645C1489.01 636.323 1451.26 616.552 1414.33 601.377C1392.82 592.577 1369.54 584.531 1341.28 576.137C1270.09 554.927 1206.18 545.881 1144.31 537.133C1086.35 528.909 1031.6 521.194 976.187 504.098C954.968 497.557 931.713 492.442 907.028 487.031C889.181 483.075 870.718 479.006 851.942 474.187C833.42 469.379 814.758 464.935 795.003 460.263C746.128 448.642 695.614 436.627 645.41 418.743C598.33 402 549.509 378.586 496.303 347.169C466.562 329.655 439.804 311.42 413.88 293.766C403.155 286.434 392.927 279.463 382.805 272.787C367.455 262.606 352.529 250.824 336.725 238.389C299.722 209.285 257.813 176.287 199.27 156.706C98.9048 123.294 28.5162 110.295 -51.7723 110.349C-98.5567 110.389 -147.716 120.694 -202.072 141.866C-212.395 145.946 -222.584 150.292 -232.744 154.753Z" fill="#F3E4DE"/>
<path d="M-232.351 155.165C-232.205 155.291 -232.071 155.404 -231.955 155.52C-176.428 130.451 -118.772 111.773 -57.4527 110.247C24.6185 108.191 97.4402 120.465 193.577 152.544C252.851 172.354 294.566 206.629 331.367 236.833C346.63 249.392 361.063 261.207 375.899 271.53C385.21 277.959 394.525 284.58 404.392 291.601C430.723 310.333 458.004 329.714 488.572 348.287C541.546 380.487 590.439 404.348 638.045 421.213C691.641 440.154 745.775 451.954 798.186 463.351C815.011 467.025 830.969 470.511 846.793 474.142C866.168 478.665 885.126 482.395 903.361 485.869C928.243 490.704 951.671 495.255 972.955 501.253C1028.67 516.891 1083.54 523.158 1141.59 529.771C1204.96 537.045 1270.4 544.505 1343.21 564.84C1371.66 572.789 1395.14 580.539 1417.08 589.158C1454.43 603.941 1492.57 623.481 1525.51 640.638L1525.76 640.214C1492.89 623.052 1454.62 603.536 1417.34 588.7C1395.34 580.06 1371.81 572.32 1343.34 564.374C1270.46 544.018 1204.98 536.525 1141.68 529.295C1083.61 522.654 1028.79 516.394 973.137 500.769C951.807 494.755 928.335 490.18 903.491 485.386C885.132 481.822 866.347 478.19 846.868 473.669C831.046 469.981 815.155 466.499 798.341 462.847C745.901 451.432 691.762 439.649 638.218 420.706C590.677 403.901 541.877 380.073 488.899 347.833C458.399 329.312 431.112 309.948 404.879 291.23C395.007 284.227 385.683 277.582 376.335 271.16C361.477 260.849 347.162 249.045 331.913 236.492C295.069 206.215 253.3 171.894 193.86 152.065C97.5172 119.935 24.6898 107.679 -57.449 109.731C-102.801 110.872 -150.654 121.688 -203.54 142.891C-213.249 146.77 -222.853 150.862 -232.351 155.165Z" fill="#F3E4DE"/>
<path d="M-232.008 155.474L-231.613 155.829C-177.913 131.173 -122.184 112.491 -63.2015 109.537C21.311 105.417 94.1279 116.491 188.089 147.829C248.205 167.897 289.645 203.487 326.297 234.888C341.034 247.526 355.002 259.442 369.461 269.914C377.969 276.07 386.481 282.418 395.539 289.087C422.275 308.905 449.921 329.389 481.196 348.921C533.895 381.929 582.892 406.189 630.929 423.105C687.674 443.061 745.374 454.445 801.145 465.431C815.236 468.233 828.558 470.869 841.847 473.6C861.778 477.756 881.152 481.023 899.934 484.204C924.946 488.403 948.577 492.41 970.038 497.835C1025.97 512.08 1081.02 516.943 1139.21 522.049C1203.98 527.712 1270.98 533.631 1345.33 553.042C1373.97 560.537 1397.71 567.991 1420.15 576.437C1457.84 590.845 1496.47 610.149 1529.83 627.19L1530.15 626.809C1496.82 609.796 1458.09 590.421 1420.36 576.019C1397.93 567.548 1374.14 560.087 1345.43 552.596C1270.99 533.163 1204.01 527.289 1139.1 521.561C1080.92 516.429 1025.98 511.642 970.028 497.362C948.544 491.9 924.904 487.919 899.857 483.67C881.076 480.538 861.665 477.229 841.772 473.114C828.454 470.364 815.169 467.722 801.082 464.959C745.333 453.961 687.687 442.567 630.998 422.649C582.976 405.739 534.044 381.491 481.349 348.522C450.132 328.972 422.483 308.497 395.738 288.704C386.705 282.015 378.181 275.701 369.671 269.497C355.306 259.104 341.421 247.197 326.69 234.542C289.982 203.104 248.471 167.47 188.18 147.361C94.1257 115.991 21.2404 104.866 -63.3689 109.068C-107.366 111.236 -153.805 122.6 -205.344 143.792C-214.265 147.495 -223.155 151.411 -232.008 155.474Z" fill="#F3E4DE"/>
<path d="M-231.799 155.669L-231.379 156.052C-179.47 131.803 -125.708 113.084 -68.9957 108.859C17.6488 102.521 90.4977 112.388 182.54 143.093C243.455 163.442 284.712 200.331 321.171 232.903C335.392 245.643 348.889 257.677 362.777 268.157C370.515 274.05 378.306 280.038 386.548 286.419C413.686 307.334 441.716 328.964 473.616 349.543C526.089 383.318 575.145 408.011 623.61 424.985C683.356 445.886 744.393 456.671 803.431 467.11C814.969 469.12 825.803 471.024 836.752 473.044C857.102 476.778 877.024 479.647 896.29 482.417C921.505 486.072 945.295 489.509 966.911 494.431C1023.08 507.279 1078.3 510.724 1136.74 514.373C1202.9 518.463 1271.36 522.714 1347.24 541.217C1376.07 548.21 1400.18 555.401 1423 563.715C1461.07 577.707 1500.31 596.845 1534.09 613.672L1534.34 613.248C1500.56 596.403 1461.34 577.271 1423.26 563.265C1400.29 554.9 1376.21 547.741 1347.34 540.715C1271.37 522.211 1202.9 517.986 1136.66 513.848C1078.28 510.276 1023.17 506.859 966.998 493.972C945.407 489.029 921.57 485.576 896.31 481.954C877.062 479.18 857.177 476.305 836.82 472.54C825.893 470.556 815.013 468.636 803.502 466.598C744.468 456.198 683.525 445.388 623.823 424.511C575.402 407.561 526.401 382.906 473.984 349.17C442.072 328.577 414.085 306.971 387.009 286.078C378.841 279.731 371.009 273.71 363.18 267.833C349.34 257.313 335.889 245.295 321.635 232.601C285.138 199.987 243.868 162.988 182.824 142.614C90.6615 111.907 17.6362 101.951 -69.0404 108.384C-111.681 111.521 -156.771 123.374 -206.923 144.587C-215.28 148.134 -223.572 151.828 -231.799 155.669Z" fill="#F3E4DE"/>
<path d="M-208.665 145.355C-216.381 148.705 -224.046 152.191 -231.659 155.813C-231.509 155.925 -231.376 156.044 -231.263 156.168C-181.097 132.333 -129.271 113.588 -74.7283 108.202C13.7455 99.5244 86.6676 108.266 177.096 138.402C238.743 159.029 279.779 197.224 316.006 230.982C329.805 243.799 342.794 255.909 356.247 266.557C363.322 272.119 370.377 277.79 377.838 283.79C405.27 305.812 433.596 328.597 466.262 350.261C518.491 384.854 567.584 409.944 616.491 426.935C679.087 448.767 743.37 458.767 805.493 468.436C814.183 469.811 823.096 471.186 831.731 472.572C852.645 475.913 873.081 478.334 892.814 480.745C918.199 483.796 942.236 486.714 963.947 491.102C1020.47 502.621 1075.83 504.669 1134.42 506.833C1202.02 509.346 1271.88 511.933 1349.31 529.459C1378.39 536.02 1402.77 542.858 1426.02 551.061C1464.42 564.669 1504.21 583.578 1538.39 600.236L1538.7 599.825C1504.44 583.149 1464.74 564.24 1426.23 550.603C1402.93 542.425 1378.53 535.56 1349.41 528.966C1271.95 511.412 1201.98 508.822 1134.43 506.331C1075.79 504.137 1020.41 502.114 963.979 490.605C942.285 486.164 918.262 483.309 892.753 480.217C873.067 477.869 852.698 475.404 831.839 472.053C823.174 470.705 814.177 469.272 805.519 467.955C743.407 458.253 679.161 448.246 616.677 426.489C567.825 409.488 518.741 384.422 466.569 349.867C433.979 328.229 405.598 305.453 378.172 283.415C370.743 277.425 363.666 271.766 356.612 266.192C343.175 255.598 330.192 243.471 316.43 230.647C280.138 196.876 239.101 158.586 177.301 137.954C129.763 122.1 86.5765 112.175 45.3047 107.6C7.15246 103.368 -31.0545 103.394 -74.8098 107.734C-116.192 111.779 -159.928 124.102 -208.665 145.355Z" fill="#F3E4DE"/>
<path d="M-231.641 155.809C-231.497 155.944 -231.354 156.08 -231.192 156.211C-182.817 132.735 -132.887 113.996 -80.4917 107.535C9.5895 96.461 82.6208 104.022 171.541 133.683C234.012 154.572 274.744 194.111 310.65 228.967C323.996 241.899 336.532 254.075 349.594 264.859C355.989 270.094 362.34 275.409 369.038 281.016C395.503 303.101 425.446 328.163 458.867 350.899C510.789 386.289 559.949 411.793 609.277 428.861C674.595 451.495 742.017 460.618 807.295 469.413C813.872 470.319 820.332 471.166 826.743 472.054C848.218 475.011 869.096 477.044 889.244 478.993C914.875 481.476 939.089 483.821 960.909 487.738C1017.77 497.937 1073.38 498.628 1132.29 499.379C1201.23 500.263 1272.52 501.154 1351.38 517.688C1380.65 523.818 1405.34 530.389 1429 538.356C1467.94 551.609 1506.54 569.541 1542.77 586.77L1542.99 586.357C1506.79 569.1 1468.19 551.176 1429.21 537.93C1405.55 529.875 1380.82 523.328 1351.47 517.146C1272.59 500.641 1201.17 499.717 1132.19 498.857C1073.38 498.138 1017.79 497.426 960.938 487.25C939.139 483.32 914.882 480.951 889.272 478.457C869.071 476.509 848.194 474.475 826.757 471.56C820.34 470.654 813.851 469.775 807.29 468.923C742.104 460.159 674.673 451.014 609.457 428.433C560.181 411.364 511.068 385.876 459.177 350.544C425.88 327.85 395.908 302.769 369.534 280.725C362.748 275.069 356.451 269.8 350.12 264.529C337.031 253.824 324.497 241.59 311.2 228.666C275.201 193.729 234.397 154.147 171.757 133.2C124.577 117.459 81.398 107.968 39.7308 104.151C1.89467 100.659 -36.3585 101.579 -80.5856 107.052C-133.141 113.527 -183.189 132.311 -231.641 155.809Z" fill="#F3E4DE"/>
<path d="M-231.694 155.763C-231.532 155.894 -231.407 156.033 -231.276 156.154C-184.613 133.054 -136.505 114.357 -86.1964 106.897C5.22622 93.2982 78.2971 99.7316 166.033 128.98C229.215 150.101 269.654 190.959 305.325 227.012C318.12 239.995 330.386 252.358 343.066 263.203C348.734 268.094 354.425 273.022 360.469 278.224C387.142 301.415 417.364 327.732 451.38 351.553C503.034 387.733 552.297 413.638 602.059 430.795C669.851 454.156 743.605 462.577 808.666 469.986C813.032 470.512 817.397 471.039 821.672 471.478C843.675 474.049 865.016 475.627 885.689 477.199C911.491 479.078 935.869 480.942 957.796 484.34C1015.11 493.255 1071 492.613 1130.15 491.968C1200.45 491.16 1273.11 490.358 1353.36 505.85C1379.6 510.746 1405.95 517.385 1431.95 525.649C1471.27 538.542 1510.29 556.262 1547 573.321L1547.25 572.88C1510.55 555.826 1471.42 538.079 1432.1 525.211C1408.33 517.466 1382.56 510.986 1353.47 505.362C1273.05 489.861 1200.38 490.648 1130.07 491.45C1070.93 492.127 1015.08 492.762 957.898 483.838C935.872 480.425 911.486 478.587 885.683 476.66C865.014 475.128 843.697 473.577 821.71 471.012C817.376 470.495 813.072 469.989 808.653 469.521C743.714 462.106 670.03 453.68 602.22 430.323C552.52 413.186 503.33 387.317 451.735 351.166C417.779 327.375 387.493 301.093 360.811 277.928C354.876 272.706 349.223 267.771 343.549 262.897C330.974 252.097 318.712 239.774 305.931 226.748C270.232 190.628 229.725 149.766 166.324 128.58C119.499 112.959 76.2611 103.842 34.2527 100.723C-3.2673 97.9716 -41.5671 99.7869 -86.2653 106.442C-136.801 113.863 -184.958 132.601 -231.694 155.763Z" fill="#F3E4DE"/>
<path d="M-231.849 155.614L-231.419 156.019C-186.493 133.267 -140.231 114.584 -92.0244 106.217C0.703015 90.0997 73.8152 95.3492 160.472 124.278C224.429 145.653 264.515 187.801 299.914 225.007C312.448 238.151 324.208 250.533 336.47 261.542C341.525 266.062 346.518 270.561 351.825 275.349C378.755 299.605 409.297 327.258 443.856 352.165C495.268 389.155 544.687 415.515 594.774 432.678C665.152 456.785 741.972 463.986 809.764 470.301L816.598 470.959C839.111 473.042 860.952 474.215 882.062 475.312C908.089 476.731 932.592 478.024 954.736 480.94C1012.39 488.577 1068.57 486.656 1128.03 484.592C1199.65 482.125 1273.68 479.584 1355.33 494.03C1384.67 499.222 1410.67 505.416 1434.83 512.947C1474.56 525.434 1514.12 542.974 1551.28 559.84L1551.43 559.393C1514.23 542.495 1474.67 524.963 1434.86 512.432C1410.74 504.921 1384.67 498.705 1355.24 493.499C1273.51 479.018 1199.42 481.587 1127.79 484.022C1068.34 486.087 1012.17 488.013 954.577 480.396C932.479 477.448 907.831 476.125 881.852 474.819C860.725 473.668 838.934 472.55 816.405 470.414L809.574 469.796C741.831 463.44 665.02 456.261 594.726 432.211C544.663 415.028 495.393 388.738 444.011 351.758C409.447 326.868 378.934 299.283 351.969 274.976C346.705 270.212 341.66 265.715 336.676 261.19C324.455 250.262 312.654 237.847 300.157 224.696C264.649 187.405 224.529 145.208 160.411 123.749C113.823 108.19 70.5467 99.4906 28.2944 97.1898C-8.88834 95.1668 -47.3184 97.8199 -92.3865 105.663C-140.497 114.1 -186.856 132.817 -231.849 155.614Z" fill="#F3E4DE"/>
<path d="M-232.13 155.375C-231.975 155.501 -231.83 155.631 -231.694 155.763C-188.442 133.38 -143.984 114.735 -97.7665 105.538C-18.5387 89.7346 54.7749 86.098 154.987 119.554C219.639 141.166 259.398 184.678 294.441 223.029C306.603 236.305 318.031 248.804 329.905 259.892C334.267 263.934 338.712 268.087 343.24 272.351C370.372 297.884 401.149 326.719 436.532 352.846C487.666 390.652 537.122 417.408 587.628 434.608C660.413 459.429 740.256 465.234 810.753 470.379L811.616 470.424C834.706 472.127 856.987 472.818 878.575 473.521C904.807 474.339 929.578 475.148 951.778 477.594C1009.85 483.994 1066.35 480.742 1126.21 477.339C1199.08 473.186 1274.44 468.886 1357.47 482.227C1386.97 486.995 1413.29 492.883 1437.89 500.251C1477.98 512.351 1518.02 529.7 1555.61 546.388L1555.77 545.924C1518.24 529.257 1478.15 511.893 1437.98 499.775C1413.38 492.359 1386.99 486.493 1357.45 481.749C1274.36 468.338 1198.95 472.645 1126 476.797C1066.3 480.236 1009.77 483.428 951.76 477.041C929.458 474.589 904.752 473.841 878.51 472.953C856.963 472.33 834.601 471.574 811.622 469.899L810.701 469.825C740.248 464.704 660.438 458.901 587.727 434.114C537.311 416.955 487.962 390.187 436.841 352.443C401.532 326.351 370.798 297.492 343.704 272.049C339.189 267.815 334.737 263.65 330.347 259.554C318.502 248.533 307.037 235.993 294.936 222.737C259.812 184.321 220.016 140.767 155.154 119.064C108.776 103.596 65.5276 95.2705 22.874 93.7439C-14.1564 92.3864 -52.5219 95.9625 -98.0177 105.012C-144.274 114.272 -188.824 132.934 -232.13 155.375Z" fill="#F3E4DE"/>
<path d="M-232.535 154.997C-232.361 155.143 -232.22 155.286 -232.058 155.418C-190.489 133.374 -147.814 114.812 -103.527 104.862C-23.4858 86.8715 50.1699 81.6735 149.556 114.877C214.911 136.748 254.256 181.528 288.994 221.079C300.764 234.443 311.808 247.06 323.315 258.215C327.097 261.87 330.893 265.588 334.812 269.348C362.134 295.991 393.06 326.209 429.087 353.476C479.975 392.109 529.509 419.294 580.398 436.529C655.449 461.977 739.241 466.346 806.597 469.895C830.121 471.133 852.975 471.404 875.041 471.666C901.404 471.944 926.336 472.232 948.628 474.154C1007.12 479.316 1064.01 474.826 1124.27 470.092C1198.43 464.23 1275.12 458.157 1359.44 470.424C1389.2 474.799 1415.77 480.365 1440.78 487.563C1481.28 499.297 1521.82 516.402 1559.9 532.899L1560.06 532.409C1522 515.918 1481.47 498.805 1440.9 487.058C1415.89 479.877 1389.22 474.262 1359.44 469.877C1275.03 457.552 1198.34 463.617 1124.11 469.492C1063.96 474.28 1007.06 478.748 948.625 473.606C926.285 471.621 901.311 471.356 874.954 471.062C852.919 470.81 830.075 470.561 806.529 469.287C739.192 465.783 655.405 461.348 580.533 435.98C529.594 418.738 480.298 391.615 429.384 353.059C393.458 325.798 362.456 295.602 335.162 268.978C331.288 265.186 327.495 261.46 323.743 257.815C312.249 246.673 301.123 234.047 289.432 220.701C254.605 181.11 215.114 136.203 149.583 114.292C103.402 98.8519 60.0746 90.9603 17.1974 90.1918C-20.095 89.5024 -57.4532 93.8624 -103.856 104.262C-148.117 114.335 -190.904 132.926 -232.535 154.997Z" fill="#F3E4DE"/>
<path d="M-232.98 154.587L-232.544 154.975C-192.625 133.28 -151.652 114.81 -109.309 104.199C-28.5603 83.9272 45.4047 77.2138 143.936 110.146C209.989 132.244 249.061 178.38 283.469 219.103C294.815 232.552 305.553 245.257 316.765 256.571C319.916 259.753 323.192 262.977 326.332 266.241C353.862 294.096 385.05 325.669 421.659 354.16C472.345 393.587 521.888 421.149 573.217 438.457C644.249 462.413 721.816 466.762 801.585 469.397C825.702 470.156 849.011 469.95 871.548 469.788C898.109 469.538 923.167 469.303 945.701 470.818C1004.61 474.761 1061.84 468.976 1122.42 462.894C1197.88 455.328 1275.86 447.489 1361.52 458.649C1391.5 462.573 1418.42 467.874 1443.79 474.877C1484.68 486.235 1525.69 503.174 1564.19 519.472L1564.35 519.008C1525.87 502.698 1484.82 485.766 1443.88 474.361C1418.41 467.352 1391.49 462.051 1361.48 458.148C1275.78 446.955 1197.74 454.781 1122.21 462.374C1061.62 468.459 1004.43 474.212 945.56 470.271C923.084 468.786 897.95 468.994 871.398 469.219C848.936 469.464 825.605 469.634 801.499 468.841C721.719 466.24 644.302 461.903 573.372 437.953C522.101 420.675 472.564 393.096 421.999 353.767C385.394 325.317 354.221 293.748 326.8 265.93C323.49 262.656 320.402 259.439 317.161 256.216C306.027 244.977 295.237 232.274 283.891 218.825C249.387 178.031 210.229 131.789 144.041 109.635C98.0484 94.2498 54.6608 86.7879 11.6121 86.7759C-25.5918 86.7878 -62.9607 91.9878 -109.578 103.675C-151.945 114.355 -193 132.864 -232.98 154.587Z" fill="#F3E4DE"/>
<path d="M-233.569 154.041C-233.42 154.165 -233.279 154.293 -233.149 154.423C-194.896 133.072 -155.581 114.671 -115.057 103.536C-33.6975 81.066 40.5199 72.7513 138.459 105.453C205.177 127.768 243.8 175.276 277.872 217.14C288.906 230.694 299.326 243.474 310.199 254.873C312.729 257.556 315.338 260.256 317.934 262.999C345.592 292.096 376.938 325.075 414.236 354.826C464.653 394.996 514.302 423.006 566.037 440.385C638.646 464.762 719.719 467.765 796.572 468.851C821.219 469.167 844.904 468.465 868.016 467.876C894.792 467.095 920.069 466.417 942.634 467.386C1001.96 470.101 1059.66 463.116 1120.62 455.734C1197.37 446.384 1276.63 436.782 1363.55 446.828C1393.75 450.339 1420.98 455.351 1446.78 462.155C1488.09 473.147 1529.59 489.833 1568.55 506.008L1568.71 505.544C1529.71 489.393 1488.2 472.698 1446.88 461.653C1421.04 454.824 1393.78 449.81 1363.53 446.314C1276.5 436.241 1197.17 445.874 1120.46 455.199C1059.41 462.59 1001.93 469.622 942.605 466.916C919.998 465.866 894.722 466.592 867.93 467.319C844.938 467.959 821.168 468.66 796.517 468.305C719.775 467.246 638.698 464.205 566.207 439.886C514.576 422.553 464.962 394.593 414.647 354.429C377.417 324.73 346.062 291.777 318.475 262.723C315.951 260.023 313.325 257.269 310.765 254.576C299.945 243.224 289.515 230.422 278.514 216.87C244.331 174.929 205.606 127.368 138.662 104.957C94.0713 89.8311 48.0069 82.308 6.14552 83.3141C-30.937 83.9809 -68.3464 90.0588 -115.212 103.033C-155.892 114.268 -195.206 132.669 -233.569 154.041Z" fill="#F3E4DE"/>
<path d="M-234.264 153.401C-234.121 153.537 -233.987 153.649 -233.841 153.776C-197.103 132.829 -159.538 114.561 -120.842 102.833C-38.9453 78.0242 35.5503 68.1837 132.922 100.731C200.329 123.299 238.565 172.094 272.273 215.129C282.99 228.805 293.121 241.726 303.603 253.213C305.627 255.359 307.586 257.492 309.546 259.674C337.347 290.018 368.871 324.448 406.811 355.453C456.981 396.497 506.725 424.885 558.844 442.299C632.932 467.036 714.437 468.718 791.557 468.313C816.748 468.192 841.011 467.054 864.526 465.94C891.45 464.673 916.885 463.484 939.615 464.068C999.362 465.545 1057.51 457.368 1118.89 448.634C1196.8 437.559 1277.39 426.141 1365.59 435.068C1396.04 438.164 1423.57 442.855 1449.76 449.498C1491.48 460.124 1533.48 476.641 1572.82 492.561L1572.97 492.106C1533.54 476.115 1491.59 459.613 1449.92 449.026C1423.62 442.386 1396.04 437.639 1365.6 434.565C1277.27 425.592 1196.72 437.074 1118.76 448.141C1057.28 456.83 999.37 465.116 939.551 463.547C916.79 462.953 891.362 464.173 864.392 465.425C840.941 466.551 816.608 467.694 791.484 467.819C714.398 468.226 632.967 466.53 558.996 441.852C506.967 424.479 457.315 396.122 407.17 355.105C369.302 324.144 337.827 289.722 310.007 259.381C308.023 257.219 306.061 255.094 304.095 252.929C293.559 241.453 283.489 228.553 272.809 214.918C239.033 171.783 200.662 122.876 133.086 100.25C87.334 84.965 43.9408 78.278 0.424528 79.8422C-36.5829 81.1482 -74.0493 88.0508 -121.095 102.363C-159.87 114.122 -197.462 132.419 -234.264 153.401Z" fill="#F3E4DE"/>
<path d="M-235.093 152.65L-234.672 153.033C-199.49 132.41 -163.545 114.348 -126.585 102.154C-44.2292 75.0371 30.5065 63.5812 127.385 96.0085C195.474 118.8 233.291 168.928 266.635 213.181C277.038 226.923 286.793 239.936 297.074 251.556L301.186 256.215C329.099 287.901 360.819 323.778 399.332 356.081C449.326 397.948 499.096 426.766 551.59 444.192C627.039 469.278 712.428 469.511 786.572 467.787C812.258 467.172 837.059 465.565 861 464.011C888.136 462.222 913.721 460.537 936.604 460.675C996.863 461.051 1055.3 451.555 1117.17 441.54C1196.33 428.706 1278.18 415.48 1367.62 423.286C1398.27 425.934 1426.11 430.375 1452.69 436.795C1494.8 447.052 1537.25 463.324 1577.16 479.093L1577.31 478.654C1537.43 462.839 1495.01 446.578 1452.79 436.332C1426.18 429.871 1398.31 425.459 1367.64 422.766C1278.07 414.944 1196.18 428.233 1116.99 441C1055.06 450.994 996.75 460.475 936.49 460.099C913.602 459.979 887.976 461.63 860.848 463.394C836.838 464.953 812.089 466.606 786.47 467.225C712.333 468.932 627.064 468.701 551.771 443.659C499.41 426.298 449.693 397.526 399.82 355.71C361.206 323.45 329.594 287.561 301.662 255.879L297.578 251.239C287.34 239.643 277.515 226.635 267.18 212.897C233.76 168.56 195.84 118.33 127.567 95.4757C81.9412 80.2246 38.5021 73.9249 -5.20311 76.2972C-42.1347 78.2906 -79.6626 86.0827 -126.851 101.622C-163.89 113.895 -199.896 132.032 -235.093 152.65Z" fill="#F3E4DE"/>
<path d="M-236.024 151.796L-235.591 152.192C-201.967 131.998 -167.624 114.042 -132.363 101.481C-49.5715 72.0199 25.3004 59.0004 121.846 91.2949C190.606 114.286 227.995 165.774 260.961 211.24C271.055 225.078 280.576 238.175 290.463 249.891L292.855 252.623C320.916 285.644 352.662 323.063 391.903 356.716C441.638 399.396 491.534 428.65 544.397 446.106C621.087 471.441 706.996 470.299 781.528 467.23C807.725 466.127 833.021 464.028 857.481 462.008C884.781 459.738 910.626 457.595 933.528 457.269C994.32 456.436 1053.21 445.762 1115.49 434.43C1195.91 419.885 1279.01 404.755 1369.69 411.431C1400.52 413.7 1428.69 417.84 1455.68 424.073C1498.21 433.947 1541.1 450.034 1581.43 465.62L1581.67 465.183C1541.31 449.529 1498.36 433.5 1455.81 423.59C1428.77 417.35 1400.6 413.235 1369.67 410.927C1278.81 404.267 1195.71 419.357 1115.32 433.97C1052.96 445.244 994.223 455.962 933.456 456.775C910.458 457.077 884.717 459.218 857.393 461.509C832.964 463.539 807.64 465.667 781.422 466.734C706.948 469.784 621.152 470.946 544.542 445.628C491.803 428.215 441.987 399.026 392.421 356.461C353.222 322.832 321.391 285.412 293.386 252.429L291.055 249.718C281.144 238.023 271.62 224.887 261.535 211.071C228.51 165.575 191.034 113.991 122.085 90.8968C76.5855 75.6792 33.1259 69.794 -10.8059 72.9329C-47.7453 75.5563 -85.2456 84.2781 -132.563 101.106C-167.944 113.617 -202.33 131.549 -236.024 151.796Z" fill="#F3E4DE"/>
<path d="M-237.065 150.857L-236.632 151.254C-204.526 131.424 -171.723 113.693 -138.105 100.802C-54.9786 68.9907 20.0569 54.3778 116.34 86.5831C185.709 109.81 222.675 162.64 255.329 209.276C265.095 223.27 274.353 236.43 283.978 248.259L284.598 249.016C312.78 283.402 344.637 322.364 384.528 357.446C434.189 401.05 484.166 430.725 537.233 448.087C571.623 459.428 610.423 466.105 655.959 468.469C698.342 470.69 740.703 468.828 776.565 466.739C803.346 465.184 829.11 462.572 854.086 460.047C881.528 457.308 907.467 454.688 930.552 453.926C991.871 451.95 1051.14 440.071 1113.92 427.463C1195.53 411.137 1279.84 394.197 1371.74 399.686C1402.88 401.56 1431.31 405.378 1458.69 411.427C1501.63 420.969 1545.03 436.786 1585.83 452.198L1585.98 451.76C1545.22 436.333 1501.81 420.476 1458.73 410.903C1431.37 404.899 1402.84 401.036 1371.7 399.193C1279.66 393.666 1195.27 410.588 1113.65 426.956C1050.84 439.52 991.582 451.43 930.43 453.425C907.265 454.169 881.332 456.771 853.872 459.562C828.923 462.058 803.114 464.654 776.394 466.23C695.806 470.958 611.067 471.952 537.396 447.606C484.373 430.268 434.498 400.647 384.924 357.092C345.049 322.064 313.186 283.118 285.075 248.728L284.402 247.972C274.781 236.183 265.63 223.012 255.817 209.058C223.168 162.357 186.132 109.427 116.563 86.1313C71.0973 70.9156 27.617 65.4452 -16.4949 69.3665C-53.4202 72.6563 -91.0265 82.1955 -138.392 100.378C-172.015 113.286 -204.916 131.004 -237.065 150.857Z" fill="#F3E4DE"/>
<path d="M-144.186 99.7006C-176.212 112.874 -207.556 130.364 -238.223 149.811C-238.086 149.94 -237.94 150.067 -237.784 150.19C-207.086 130.802 -175.868 113.279 -143.856 100.148C-71.7005 70.5286 9.10918 47.852 110.831 81.8797C180.817 105.317 217.322 159.504 249.535 207.284C259.01 221.372 267.969 234.651 277.357 246.571C303.685 279.98 336.42 321.571 377.019 358.064C426.433 402.494 476.518 432.562 529.932 449.965C604.757 474.56 690.239 472.294 771.371 466.17C798.726 464.091 824.994 461.008 850.398 457.987C878.047 454.742 904.183 451.692 927.365 450.493C989.14 447.329 1048.9 434.257 1112.13 420.382C1194.92 402.253 1280.49 383.497 1373.63 387.816C1405.03 389.272 1433.75 392.813 1461.54 398.649C1504.89 407.834 1548.7 423.416 1589.99 438.658L1590.15 438.186C1548.86 422.96 1504.95 407.316 1461.58 398.134C1433.79 392.321 1405.01 388.736 1373.63 387.3C1280.42 382.994 1194.7 401.728 1111.91 419.883C1048.66 433.753 988.968 446.821 927.24 449.952C904.011 451.135 877.919 454.257 850.291 457.49C824.822 460.451 798.558 463.573 771.239 465.597C690.119 471.735 604.831 474.038 530.095 449.435C476.669 432.066 426.775 402.045 377.39 357.682C336.843 321.188 304.111 279.636 277.784 246.275C268.412 234.361 259.484 221.092 249.982 207.034C217.69 159.131 181.175 104.873 110.88 81.331C65.5694 66.1677 22.0375 61.1017 -22.2208 65.8073C-59.1002 69.8222 -96.7625 80.2337 -144.186 99.7006Z" fill="#F3E4DE"/>
<path d="M-149.949 99.0334C-180.445 112.364 -210.281 129.619 -239.466 148.659C-239.326 148.802 -239.164 148.934 -239.034 149.056C-209.844 130.056 -180.076 112.796 -149.62 99.4809C-77.2378 67.7808 3.8127 43.1827 105.326 77.168C175.987 100.845 212.017 156.376 243.818 205.367C253.018 219.505 261.7 232.891 270.785 244.89C295.12 276.921 328.412 320.773 369.744 358.752C418.892 403.965 468.968 434.46 522.911 451.928C598.718 476.723 684.796 473.212 766.577 465.688C794.381 463.1 821.224 459.543 847.117 456.045C874.96 452.33 901.226 448.797 924.487 447.165C986.823 442.907 1046.96 428.621 1110.7 413.461C1194.66 393.564 1281.5 372.958 1375.84 376.106C1407.45 377.17 1436.49 380.393 1464.63 386.021C1508.37 394.837 1552.78 410.269 1594.45 425.297L1594.61 424.85C1552.91 409.835 1508.46 394.409 1464.73 385.575C1436.52 379.969 1407.43 376.674 1375.84 375.615C1281.35 372.468 1194.5 393.086 1110.44 413.026C1046.76 428.15 986.594 442.417 924.397 446.722C900.97 448.336 874.722 451.865 846.937 455.562C821.066 459.096 794.269 462.67 766.404 465.237C684.675 472.711 598.775 476.253 523.07 451.512C469.272 434.074 419.242 403.643 370.132 358.472C328.93 320.566 295.685 276.73 271.368 244.744C262.253 232.734 253.635 219.361 244.432 205.231C212.563 156.14 176.482 100.505 105.531 76.7678C60.3364 61.6156 16.7037 56.947 -27.7504 62.4297C-64.839 66.9581 -102.548 78.2649 -149.949 99.0334Z" fill="#F3E4DE"/>
<path d="M-155.743 98.3551C-184.706 111.833 -213.04 128.824 -240.852 147.42L-240.389 147.827C-212.631 129.241 -184.319 112.263 -155.38 98.8051C-82.8214 65.0176 -1.71116 38.474 99.7554 72.4435C171.065 96.3406 206.546 153.181 238.017 203.393C246.94 217.638 255.357 231.145 264.065 243.188C292.534 282.042 323.482 323.016 362.112 359.328C411.025 405.381 461.225 436.272 515.502 453.768C550.523 465.18 590.217 471.154 636.789 472.04C682.04 472.916 727.084 468.785 761.376 465.088C789.752 462.033 817.169 457.952 843.495 453.94C871.432 449.748 897.835 445.763 921.329 443.75C984.098 438.269 1044.72 422.824 1108.97 406.467C1194.11 384.749 1282.17 362.277 1377.75 364.242C1409.58 364.894 1438.93 367.876 1467.46 373.28C1511.61 381.731 1556.41 396.922 1598.59 411.769L1598.74 411.331C1556.59 396.455 1511.71 381.268 1467.56 372.818C1439 367.372 1409.61 364.405 1377.69 363.744C1281.97 361.749 1193.96 384.245 1108.74 405.976C1044.63 422.38 983.91 437.86 921.173 443.246C897.759 445.277 871.316 449.229 843.334 453.454C816.928 457.448 789.6 461.521 761.24 464.629C682.935 473.067 592.585 478.355 515.716 453.343C461.583 435.877 411.47 405.033 362.542 359.023C324.03 322.771 293.06 281.809 264.691 242.969C255.853 230.901 247.452 217.448 238.523 203.172C207.038 152.898 171.464 95.9778 99.9037 71.957C54.7278 56.8014 11.0985 52.5269 -33.5224 58.854C-70.599 64.1057 -108.333 76.2954 -155.743 98.3551Z" fill="#F3E4DE"/>
<path d="M-161.535 97.669C-189.027 111.226 -215.938 127.933 -242.36 146.083L-241.908 146.476C-215.511 128.347 -188.618 111.643 -161.141 98.129C-88.4448 62.2694 -7.23241 33.757 94.2129 67.7384C166.152 91.8595 201.236 150.07 232.257 201.452C240.9 215.812 249.023 229.372 257.629 241.563C285.305 280.876 315.637 322.398 354.72 360.004C403.414 406.855 453.666 438.148 508.366 455.721C586.26 480.958 677.453 474.356 756.398 464.592C785.345 461.022 813.127 456.375 840.107 451.857C868.195 447.17 894.742 442.764 918.296 440.321C981.615 433.781 1042.78 417.132 1107.49 399.483C1193.82 375.954 1283.07 351.644 1379.84 352.424C1411.88 352.676 1441.54 355.36 1470.48 360.56C1515.05 368.645 1560.34 383.61 1602.98 398.285L1603.13 397.829C1560.51 383.168 1515.11 368.158 1470.61 360.077C1441.63 354.844 1411.89 352.174 1379.77 351.921C1282.97 351.139 1193.62 375.491 1107.25 399.018C1042.57 416.638 981.401 433.296 918.189 439.824C894.598 442.274 868.022 446.718 839.961 451.376C813.007 455.816 785.217 460.489 756.254 464.054C677.41 473.824 586.299 480.387 508.553 455.219C453.972 437.706 403.837 406.472 355.166 359.657C316.098 322.104 285.794 280.602 258.101 241.292C249.556 229.122 241.365 215.558 232.719 201.206C201.709 149.742 166.553 91.4398 94.4038 67.2281C49.2749 52.1365 5.5568 48.2246 -39.2481 55.2945C-76.386 61.2827 -114.118 74.3267 -161.535 97.669Z" fill="#F3E4DE"/>
<path d="M-167.304 97.0185C-193.351 110.578 -218.819 126.991 -243.923 144.659L-243.49 145.055C-218.528 127.349 -192.955 110.982 -166.929 97.434C-94.0902 59.4851 -12.7139 29.0246 88.7535 63.0423C161.276 87.3715 195.874 146.96 226.393 199.513C234.804 213.948 242.661 227.581 251.11 239.881C276.926 277.929 307.77 321.791 347.319 360.659C395.771 408.319 446.145 440.066 501.161 457.669C579.87 482.992 671.839 475.12 751.367 464.049C780.888 459.956 809.238 454.802 836.665 449.832C864.926 444.686 891.696 439.877 915.298 436.99C979.074 429.311 1040.69 411.491 1105.99 392.597C1193.54 367.267 1283.98 341.081 1381.88 340.664C1414.19 340.529 1444.15 342.866 1473.49 347.874C1518.4 355.566 1564.22 370.386 1607.23 384.815L1607.39 384.352C1564.27 369.895 1518.49 355.051 1473.49 347.406C1444.08 342.412 1414.05 339.982 1381.75 340.149C1283.73 340.563 1193.16 366.756 1105.67 392.133C1040.43 411 978.829 428.815 915.109 436.484C891.38 439.338 864.682 444.191 836.395 449.309C808.984 454.284 780.616 459.441 751.178 463.544C671.671 474.603 579.905 482.486 501.26 457.176C446.356 439.6 396.131 407.971 347.747 360.363C308.262 321.508 277.349 277.699 251.576 239.675C243.247 227.377 235.303 213.744 226.905 199.323C196.325 146.644 161.665 86.938 88.8805 62.5678C43.828 47.4542 0.0705897 43.9607 -44.9049 51.8353C-82.1895 58.4064 -119.949 72.3415 -167.304 97.0185Z" fill="#F3E4DE"/>
<path d="M-173.129 96.3302C-197.756 109.865 -221.914 125.918 -245.658 143.129L-245.209 143.531C-221.497 126.31 -197.344 110.274 -172.72 96.7474C-99.7847 56.6934 -18.3239 24.3156 83.2168 58.32C156.329 82.8401 190.451 143.772 220.562 197.577C228.668 212.099 236.349 225.844 244.452 238.199C271.523 279.541 301.799 323.047 339.887 361.303C362.279 383.823 385.743 403.189 409.483 418.863C436.394 436.651 464.855 450.288 493.925 459.559C573.505 485.054 666.145 475.867 746.311 463.527C776.379 458.891 805.272 453.203 833.169 447.712C861.576 442.137 888.492 436.898 912.244 433.621C976.523 424.819 1038.65 405.802 1104.43 385.669C1193.05 358.531 1284.77 330.476 1383.86 328.844C1416.43 328.321 1446.71 330.409 1476.37 335.194C1521.67 342.567 1567.98 357.104 1611.52 371.374L1611.67 370.928C1568.09 356.642 1521.78 342.07 1476.4 334.706C1446.62 329.9 1416.31 327.819 1383.75 328.348C1284.56 329.957 1192.77 358.05 1104.08 385.177C1038.38 405.327 976.294 424.329 912.006 433.108C888.207 436.369 861.356 441.621 832.922 447.226C805.013 452.702 776.177 458.371 746.063 462.992C666.014 475.343 573.478 484.526 494.086 459.086C438.717 441.459 388.42 409.383 340.248 361.003C302.264 322.793 272.034 279.303 245.001 238.003C236.833 225.635 229.162 211.912 220.961 197.367C190.833 143.461 156.678 82.4219 83.288 57.8073C38.2788 42.718 -5.5327 39.6372 -50.6296 48.3238C-87.5301 55.4857 -126.536 70.7038 -173.129 96.3302Z" fill="#F3E4DE"/>
<path d="M-178.865 95.6819C-202.127 109.154 -224.93 124.815 -247.421 141.531C-247.289 141.665 -247.143 141.794 -246.985 141.919C-224.559 125.191 -201.741 109.535 -178.45 96.0819C-105.479 53.9018 -23.9193 19.5635 77.6832 53.5889C151.44 78.3381 185.055 140.66 214.707 195.612C222.63 210.265 230.095 224.09 237.921 236.552C264.322 278.394 294.031 322.503 332.462 361.978C354.719 384.893 378.135 404.502 401.956 420.395C428.944 438.41 457.491 452.201 486.763 461.484C522.639 472.908 563.413 477.985 611.543 476.927C648.574 476.108 689.809 471.687 741.348 462.988C771.962 457.809 801.383 451.63 829.753 445.61C858.122 439.591 885.392 433.868 909.2 430.226C974.055 420.336 1036.67 400.173 1102.91 378.797C1192.81 349.856 1285.63 319.889 1385.93 317.047C1418.75 316.148 1449.31 317.941 1479.4 322.514C1525.11 329.529 1571.87 343.872 1615.87 357.959L1616.04 357.486C1572.07 343.424 1525.25 329.06 1479.46 322.036C1449.38 317.454 1418.74 315.666 1385.91 316.599C1285.54 319.407 1192.6 349.354 1102.67 378.389C1036.45 399.723 973.913 419.894 909.045 429.77C885.155 433.451 858.152 439.15 829.647 445.162C801.143 451.174 771.746 457.381 741.113 462.515C660.382 476.11 567.033 486.619 486.955 461.07C431.187 443.402 380.81 410.906 332.894 361.722C294.485 322.283 264.803 278.145 238.418 236.405C230.608 223.948 223.131 210.109 215.257 195.512C185.506 140.45 151.956 78.0347 77.8014 53.1404C32.8451 38.0979 -11.0496 35.3627 -56.3259 44.8799C-93.3577 52.63 -132.323 68.7915 -178.865 95.6819Z" fill="#F3E4DE"/>
<path d="M-184.622 94.9975C-206.596 108.323 -228.163 123.59 -249.349 139.811C-249.202 139.938 -249.09 140.062 -248.944 140.189C-227.727 123.978 -206.181 108.723 -184.26 95.3989C-114.7 53.2274 -29.8666 14.6825 72.2053 48.8964C146.579 73.8557 179.65 137.526 208.828 193.717C216.433 208.395 223.678 222.308 231.377 234.89C255.831 275.168 286.136 321.829 324.947 362.612C347.185 385.886 370.493 405.813 394.388 421.942C421.362 440.154 450.015 454.086 479.539 463.387C515.557 474.851 556.63 479.655 605.126 478.127C642.752 476.926 684.395 471.963 736.234 462.484C767.452 456.744 797.427 450.005 826.312 443.48C855.198 436.956 882.1 430.897 906.162 426.862C971.52 415.849 1034.63 394.493 1101.35 371.908C1192.37 341.126 1286.51 309.333 1387.97 305.287C1420.96 303.977 1451.87 305.466 1482.31 309.845C1528.43 316.489 1575.67 330.614 1620.16 344.518L1620.32 344.045C1575.86 330.129 1528.56 315.997 1482.37 309.327C1451.83 304.974 1420.88 303.452 1387.79 304.795C1286.28 308.795 1192.11 340.656 1101.08 371.425C1034.31 394.019 971.245 415.343 905.933 426.372C881.905 430.408 854.779 436.516 826.117 442.992C797.161 449.522 767.257 456.255 736.079 461.981C659.441 475.991 561.084 488.774 479.681 462.918C423.585 445.253 373.106 412.349 325.446 362.36C286.574 321.604 256.313 274.968 231.874 234.743C224.25 222.196 217.023 208.28 209.343 193.518C180.121 137.255 146.925 73.446 72.3015 48.4114C27.4128 33.3727 -16.4719 31.0629 -61.9293 41.3141C-99.2434 49.7926 -138.236 66.8459 -184.622 94.9975Z" fill="#F3E4DE"/>
<path d="M-190.398 94.3165C-211.092 107.474 -231.402 122.334 -251.36 138.033C-251.229 138.161 -251.088 138.287 -250.937 138.408C-230.963 122.714 -210.665 107.888 -189.989 94.7338C-120.44 50.5169 -35.4649 9.93894 66.6562 44.16C141.45 69.3007 174.025 134.174 202.749 191.446C210.211 206.392 217.288 220.498 224.799 233.227C247.067 271.332 277.711 320.534 317.595 363.274C339.646 386.896 362.928 407.101 386.857 423.434C413.924 441.927 442.691 456.033 472.433 465.35C554.705 491.33 653.984 477.154 731.292 461.934C763.069 455.664 793.599 448.405 823.077 441.353C851.873 434.434 879.099 427.929 903.158 423.548C969.068 411.419 1032.65 388.889 1099.98 365.097C1192.15 332.501 1287.45 298.764 1390.06 293.526C1423.34 291.834 1454.5 293.035 1485.38 297.206C1531.91 303.458 1579.61 317.372 1624.51 331.071L1624.68 330.582C1579.75 316.88 1532 302.942 1485.38 296.593C1454.49 292.465 1423.27 291.274 1389.94 292.975C1287.26 298.202 1191.93 331.945 1099.65 364.561C1032.39 388.389 968.841 410.872 903.019 422.945C878.83 427.406 851.64 433.904 822.798 440.808C793.329 447.882 762.827 455.16 731.121 461.425C653.887 476.632 554.659 490.757 472.569 464.85C416.895 447.358 364.881 413.097 318.155 362.995C278.228 320.279 247.622 271.118 225.438 233.07C217.855 220.298 210.815 206.186 203.351 191.296C174.54 133.927 141.96 68.918 66.8942 43.7139C22.0826 28.7015 -22.0078 26.7433 -67.5895 37.8151C-105.107 46.9915 -144.159 64.9263 -190.398 94.3165Z" fill="#F3E4DE"/>
<path d="M-196.192 93.6383C-215.595 106.593 -234.763 120.98 -253.499 136.174L-253.06 136.554C-234.252 121.403 -215.193 106.979 -195.737 94.0714C-126.195 47.7523 -41.2697 5.14461 61.1387 39.4827C136.549 64.7851 168.556 131.075 196.846 189.571C204.1 204.571 211.007 218.772 218.218 231.571C239.942 270.163 270.012 320.042 310.148 363.913C332.08 387.935 355.373 408.461 379.324 424.983C406.4 443.7 435.255 457.902 465.141 467.25C548.161 493.311 648.301 477.818 726.273 461.405C758.59 454.562 789.604 446.738 819.629 439.144C848.562 431.821 875.852 424.877 900.137 420.085C966.597 406.896 1030.68 383.252 1098.51 358.174C1191.79 323.766 1288.34 288.1 1392.09 281.686C1425.5 279.634 1457.06 280.503 1488.31 284.437C1535.28 290.376 1581.53 303.508 1628.83 317.575L1628.98 317.128C1581.75 303.048 1535.43 289.899 1488.44 283.963C1457.08 280.001 1425.55 279.125 1391.98 281.207C1288.22 287.663 1191.61 323.266 1098.24 357.756C1030.43 382.774 966.343 406.426 899.982 419.63C875.758 424.443 848.389 431.369 819.465 438.715C789.468 446.28 758.494 454.136 726.165 460.965C648.287 477.353 548.241 492.821 465.438 466.833C409.359 449.27 357.347 414.598 310.755 363.698C270.594 319.847 240.608 269.977 218.885 231.434C211.634 218.65 204.776 204.456 197.525 189.448C169.244 130.926 137.173 64.4701 61.4047 39.0554C16.602 24.0173 -27.4321 22.5004 -73.2241 34.3923C-111.048 44.1161 -150.093 63.0404 -196.192 93.6383Z" fill="#F3E4DE"/>
<path d="M-201.965 92.9971C-220.2 105.659 -238.083 119.61 -255.707 134.215C-255.548 134.355 -255.399 134.473 -255.255 134.608C-237.66 119.984 -219.721 106.071 -201.531 93.3936C-131.982 45.0826 -47.0319 0.326553 55.6358 34.7625C131.652 60.3093 163.135 127.984 190.958 187.702C198.002 202.764 204.59 216.991 211.683 229.884C232.814 268.954 262.377 319.562 302.738 364.593C324.549 388.919 347.771 409.757 371.768 426.496C398.842 445.423 427.883 459.784 457.946 469.173C541.693 495.319 642.658 478.467 721.215 460.843C754.157 453.475 785.726 445.083 816.227 436.951C845.303 429.207 872.716 421.902 897.129 416.732C964.086 402.437 1028.71 377.637 1097.1 351.347C1191.57 315.102 1289.29 277.579 1394.17 269.911C1427.96 267.443 1459.72 268.034 1491.34 271.757C1538.74 277.343 1585.45 290.269 1633.14 304.136L1633.31 303.646C1585.55 289.775 1538.79 276.874 1491.37 271.268C1459.7 267.507 1427.9 266.923 1394.02 269.408C1289.05 277.084 1191.32 314.606 1096.79 350.913C1028.38 377.189 963.851 401.964 896.952 416.24C872.579 421.443 845.148 428.751 816.035 436.502C785.535 444.634 753.984 453.023 721.053 460.405C642.546 477.988 541.7 494.794 458.153 468.716C401.751 451.139 349.609 416.039 303.302 364.353C262.95 319.345 233.427 268.77 212.32 229.784C205.229 216.882 198.623 202.659 191.582 187.588C177.583 157.407 163.05 126.162 142.087 98.4333C118.141 66.7264 89.9035 45.7547 55.8555 34.3195C11.044 19.3071 -33.0115 18.1566 -78.9587 30.8586C-116.927 41.3099 -155.97 61.0884 -201.965 92.9971Z" fill="#F3E4DE"/>
<path d="M-207.741 92.3158C-224.773 104.677 -241.519 118.124 -258.039 132.165L-257.584 132.55C-241.099 118.507 -224.352 105.06 -207.307 92.7123C-141.824 45.2705 -53.417 -4.68474 50.1118 30.0538C126.809 55.7749 157.794 124.862 185.067 185.841C191.845 200.976 198.259 215.258 205.078 228.202C224.146 264.682 254.27 318.548 295.297 365.215C316.96 389.922 340.187 411.049 364.16 427.961C391.38 447.168 420.45 461.645 450.752 471.039C487.567 482.486 529.761 486.377 579.832 482.902C619.301 480.181 662.64 472.967 716.174 460.278C749.659 452.327 781.78 443.375 812.814 434.686C842.059 426.549 869.575 418.839 894.004 413.271C961.424 397.868 1026.46 371.962 1095.29 344.479C1191.02 306.296 1289.91 266.812 1396.11 258.058C1429.37 255.192 1462.38 255.525 1494.17 258.982C1541.99 264.259 1589.14 276.926 1637.39 290.604L1637.54 290.158C1589.35 276.469 1542.06 263.73 1494.24 258.518C1462.39 255.031 1429.35 254.705 1395.97 257.542C1289.71 266.283 1190.78 305.831 1095.06 343.997C1026.2 371.47 961.195 397.426 893.845 412.776C869.374 418.368 841.83 426.059 812.613 434.215C781.567 442.891 749.455 451.865 715.957 459.801C636.834 478.584 535.146 496.753 450.935 470.602C394.106 452.966 341.908 417.425 295.826 364.925C254.886 318.307 224.778 264.494 205.692 228.065C198.867 215.091 192.576 200.85 185.685 185.696C171.865 154.885 157.571 123.041 136.761 94.7606C112.93 62.4123 84.6071 41.0853 50.3306 29.5627C5.53072 14.516 -38.6063 13.8072 -84.7182 27.2968C-122.87 38.5391 -161.957 59.156 -207.741 92.3158Z" fill="#F3E4DE"/>
<path d="M-213.507 91.657C-229.434 103.656 -245.064 116.601 -260.458 130.067L-260.024 130.463C-244.597 117 -228.965 104.047 -213.058 92.0591C-147.629 42.7008 -59.2495 -9.49809 44.5577 25.3831C121.798 51.3276 152.265 121.839 179.177 184.027C185.711 199.223 191.927 213.582 198.55 226.593C217.132 263.492 246.701 318.129 287.894 365.926C309.465 391.005 332.611 412.42 356.649 429.595C383.845 449.024 413.075 463.641 443.569 473.023C480.566 484.494 523.053 488.13 573.423 484.182C613.403 481.069 657.135 473.308 711.196 459.83C745.276 451.296 777.958 441.758 809.486 432.528C838.804 423.974 866.443 415.903 890.991 409.983C958.964 393.512 1024.59 366.453 1093.95 337.695C1190.81 297.711 1290.92 256.32 1398.15 246.329C1431.74 243.123 1465.06 243.11 1497.19 246.367C1545.31 251.241 1592.97 263.753 1641.62 277.213L1641.79 276.723C1593.01 263.255 1545.34 250.761 1497.18 245.854C1464.98 242.567 1431.58 242.588 1397.94 245.787C1290.64 255.822 1190.46 297.218 1093.57 337.241C1024.19 365.944 958.603 393.006 890.688 409.458C866.164 415.406 838.52 423.494 809.215 432.062C777.671 441.287 744.992 450.816 710.912 459.35C631.023 479.272 528.48 498.788 443.657 472.564C386.441 454.902 334.211 418.947 288.328 365.661C247.209 317.899 217.638 263.319 199.066 226.443C192.446 213.423 186.245 199.07 179.7 183.908C166.737 153.917 152.133 120.001 131.404 91.1825C107.66 58.2216 79.2911 36.524 44.6878 24.8998C-0.112077 9.85307 -44.2699 9.55958 -90.5342 23.8506C-128.843 35.7583 -167.922 57.2599 -213.507 91.657Z" fill="#F3E4DE"/>
<path d="M-219.301 90.9792C-234.066 102.598 -248.637 115.011 -262.954 127.894L-262.534 128.277C-248.152 115.406 -233.624 102.969 -218.819 91.3831C-153.471 40.0891 -65.0696 -14.298 39.0358 20.6176C116.928 46.8222 146.804 118.715 173.204 182.158C179.527 197.416 185.494 211.796 191.96 224.916C220.729 284.026 248.831 329.016 280.449 366.556C302.04 392.034 325.104 413.739 349.139 431.075C376.361 450.781 405.7 465.532 436.343 474.936C473.539 486.378 516.301 489.811 567.157 485.395C607.517 481.875 651.707 473.579 706.181 459.292C740.589 450.247 773.606 440.181 805.518 430.43C835.122 421.389 863.134 412.879 887.924 406.552C956.245 389.011 1022.13 360.831 1091.95 331.088C1190.09 289.153 1291.6 245.767 1400.17 234.485C1434.09 230.921 1467.72 230.632 1500.13 233.668C1548.72 238.193 1596.84 250.476 1646 263.746L1646.16 263.265C1597.01 249.986 1548.84 237.705 1500.21 233.147C1467.76 230.175 1434 230.421 1400.07 234.011C1291.42 245.34 1189.87 288.694 1091.75 330.648C1021.98 360.438 956.053 388.562 887.829 406.126C863.029 412.431 835.02 420.98 805.385 430.011C773.433 439.729 740.49 449.83 706.059 458.839C625.531 479.981 522.136 500.838 436.639 474.519C379.221 456.894 326.886 420.49 281.026 366.378C249.534 328.872 221.442 283.904 192.673 224.843C186.267 211.752 180.299 197.372 173.945 182.103C161.241 151.605 146.866 116.963 126.251 87.6072C102.65 53.9757 74.2386 31.9473 39.3671 20.251C-5.31889 5.22385 -49.6208 5.30321 -96.0219 20.401C-134.769 32.9363 -173.896 55.3898 -219.301 90.9792Z" fill="#F3E4DE"/>
<path d="M-225.049 90.3172C-238.76 101.518 -252.281 113.377 -265.575 125.631C-265.413 125.762 -265.282 125.884 -265.152 126.005C-251.824 113.754 -238.318 101.889 -224.573 90.6898C-127.575 11.598 -47.9675 -11.4396 33.5396 15.9283C112.048 42.2947 141.38 115.632 167.267 180.329C173.398 195.646 179.171 210.094 185.37 223.239C213.46 283.182 241.331 328.899 272.998 367.155C294.432 392.992 317.468 414.984 341.54 432.564C368.827 452.483 398.227 467.36 429.091 476.82C466.514 488.254 509.566 491.44 560.708 486.489C601.464 482.566 646.071 473.751 701.133 458.697C736.032 449.07 769.497 438.447 801.904 428.203C831.74 418.732 859.954 409.831 884.839 403.124C953.822 384.495 1020.39 355.151 1090.78 324.056C1190 280.36 1292.54 235.175 1402.09 222.618C1436.3 218.654 1470.27 218.078 1503 220.848C1551.96 225.047 1600.54 237.124 1650.15 250.175L1650.31 249.719C1600.66 236.658 1552.13 224.58 1503 220.388C1470.22 217.58 1436.21 218.154 1401.96 222.142C1292.29 234.671 1189.68 279.926 1090.46 323.639C1020.05 354.689 953.523 384.009 884.548 402.613C859.648 409.315 831.422 418.25 801.613 427.691C769.219 437.95 735.696 448.591 700.75 458.202C619.439 480.381 515.06 502.61 429.224 476.329C371.372 458.613 318.935 421.801 273.445 366.904C241.809 328.659 213.987 282.949 185.879 223.057C179.717 209.906 173.871 195.471 167.777 180.147C155.293 149.053 141.229 113.75 120.764 83.8509C97.2511 49.607 68.732 27.1872 33.6166 15.3983C-11.0415 0.390241 -55.4046 0.851611 -101.978 16.811C-140.215 29.9707 -180.518 54.0084 -225.049 90.3172Z" fill="#F3E4DE"/>
<path d="M-171.956 45.6955C-205.392 67.0564 -237.348 94.0314 -268.308 123.291L-267.838 123.681C-179.619 40.393 -82.0118 -25.7687 28.0213 11.2028C107.156 37.8018 135.975 112.546 161.337 178.483C167.226 193.852 172.843 208.352 178.828 221.569C206.745 283.236 236.02 332.211 268.419 371.301C289.413 396.663 312.082 418.213 335.818 435.467C362.597 454.907 391.583 469.481 421.945 478.75C534.242 512.964 681.394 464.547 799.698 425.63C829.218 415.927 857.127 406.759 881.875 399.747C951.534 380.092 1018.78 349.512 1089.92 317.233C1220.56 257.895 1355.67 196.542 1506.08 208.214C1555.49 212.049 1604.49 223.913 1654.63 236.722L1654.76 236.318C1604.6 223.465 1555.56 211.585 1506.11 207.773C1355.57 196.094 1220.38 257.452 1089.63 316.849C1018.46 349.192 951.312 379.681 881.656 399.327C856.892 406.335 828.983 415.503 799.461 425.214C681.224 464.087 534.166 512.478 422.14 478.327C290.718 438.246 220.727 312.558 179.413 221.47C173.462 208.256 167.912 193.76 161.983 178.406C149.787 146.719 135.927 110.766 115.558 80.334C92.097 45.3793 63.6774 22.6674 28.1455 10.7367C-5.84084 -0.677474 -40.7402 -2.83395 -75.6956 4.32849C-106.912 10.7215 -138.402 24.2405 -171.956 45.6955Z" fill="#F3E4DE"/>
</g>
</g>
</svg>
