<svg width="146" height="549" viewBox="0 0 146 549" fill="none" xmlns="http://www.w3.org/2000/svg">
<path fill-rule="evenodd" clip-rule="evenodd" d="M70.2604 549C48.6778 548.519 30.6967 540.606 17.9877 526.225C6.47477 513.28 8.85698e-06 495.537 9.68484e-06 476.597C1.13207e-05 439.173 25.1775 401.562 73.1403 401.562C91.3619 401.562 106.47 394.879 117.241 382.623C126.83 371.355 132.108 356.486 132.108 340.186C132.108 310.942 113.399 279.532 72.1581 279.532C49.8605 279.532 31.1578 271.86 17.9677 257.238C6.47478 244.293 0.22051 226.784 0.220511 208.072C0.220513 171.149 25.398 133.752 73.8353 133.752C114.595 133.752 133.064 102.589 133.064 73.8193C133.084 44.5883 114.141 12.9314 72.3853 12.9314L72.3853 -3.2178e-06C94.9234 -2.23263e-06 114.107 8.15313 127.538 23.2565C139.285 36.6824 146 54.6661 146 73.8393C146 92.7787 139.525 110.522 127.778 123.707C114.829 138.57 96.1261 146.482 73.8219 146.482C32.1 146.482 12.9162 178.607 12.9162 208.092C12.9162 223.677 18.1949 238.058 27.5429 248.604C38.0936 260.352 53.442 266.587 72.1447 266.587C94.6828 266.587 113.633 274.5 126.816 289.844C138.57 303.029 145.044 321.006 145.044 340.186C145.044 359.366 138.57 377.61 127.057 390.976C113.867 406.347 95.1639 414.473 73.1069 414.473C31.6255 414.507 12.9161 446.651 12.9161 476.597C12.9161 492.423 18.1949 507.045 27.5429 517.831C37.8531 529.339 52.4798 535.574 70.227 536.049L70.2604 549Z" fill="#B8B8B8"/>
</svg>
