<svg width="172" height="120" viewBox="0 0 172 120" fill="none" xmlns="http://www.w3.org/2000/svg">
<path d="M49.9742 72.6132C51.1708 72.6132 52.1409 71.6223 52.1409 70.4C52.1409 69.1777 51.1708 68.1867 49.9742 68.1867C48.7776 68.1867 47.8075 69.1777 47.8075 70.4C47.8075 71.6223 48.7776 72.6132 49.9742 72.6132Z" fill="#A57AAB"/>
<path d="M112.992 29.3019C114.183 29.3019 115.148 28.3163 115.148 27.1005C115.148 25.8846 114.183 24.899 112.992 24.899C111.802 24.899 110.837 25.8846 110.837 27.1005C110.837 28.3163 111.802 29.3019 112.992 29.3019Z" fill="#A57AAB"/>
<path d="M122.472 27.7315C123.653 27.5357 124.455 26.3988 124.263 25.1922C124.071 23.9857 122.958 23.1663 121.777 23.3622C120.596 23.558 119.794 24.6949 119.986 25.9015C120.178 27.108 121.29 27.9274 122.472 27.7315Z" fill="#A57AAB"/>
<path d="M31.6725 43.947C31.9626 43.947 32.2498 43.8885 32.5176 43.7747C32.7854 43.661 33.0286 43.4943 33.2331 43.2843C33.4377 43.0742 33.5997 42.8249 33.7096 42.5508C33.8196 42.2766 33.8753 41.983 33.8738 41.6867C34.999 37.7745 37.3101 34.3276 40.4745 31.842C43.6389 29.3564 47.4935 27.9601 51.4839 27.8539C67.0195 26.9357 85.7936 48.8327 85.7936 48.8327L96.1661 59.0512C102.551 65.4555 111.471 72.0011 121.094 71.8009C139.73 71.3771 142.911 55.0603 142.888 55.0486C142.9 54.9076 142.9 54.7657 142.888 54.6247C142.848 54.055 142.598 53.5219 142.188 53.1328C141.779 52.7437 141.24 52.5274 140.681 52.5274C140.122 52.5274 139.583 52.7437 139.174 53.1328C138.764 53.5219 138.514 54.055 138.474 54.6247C137.35 58.5379 135.04 61.9857 131.875 64.4716C128.71 66.9575 124.855 68.3532 120.864 68.4575C105.328 69.3876 86.4851 47.5259 86.4851 47.5259L76.1933 37.2602C69.8085 30.8677 60.8882 24.3104 51.2764 24.5223C32.6291 24.9461 29.4483 41.2629 29.4714 41.2629C29.46 41.4039 29.46 41.5457 29.4714 41.6867C29.4698 41.983 29.5256 42.2766 29.6355 42.5508C29.7455 42.8249 29.9073 43.0742 30.1119 43.2843C30.3165 43.4943 30.5597 43.661 30.8276 43.7747C31.0954 43.8885 31.3825 43.947 31.6725 43.947Z" fill="#A57AAB"/>
<path d="M30.693 54.2951C32.1188 54.2951 33.2746 53.1145 33.2746 51.6581C33.2746 50.2016 32.1188 49.021 30.693 49.021C29.2672 49.021 28.1114 50.2016 28.1114 51.6581C28.1114 53.1145 29.2672 54.2951 30.693 54.2951Z" fill="#A57AAB"/>
<path d="M32.0414 60.7818C32.0414 61.2475 32.1766 61.7027 32.4299 62.0899C32.6832 62.4771 33.0431 62.7789 33.4643 62.9571C33.8855 63.1353 34.3489 63.1819 34.7961 63.0911C35.2432 63.0002 35.6539 62.776 35.9763 62.4467C36.2986 62.1174 36.5182 61.6979 36.6071 61.2411C36.696 60.7844 36.6504 60.311 36.476 59.8808C36.3015 59.4505 36.006 59.0828 35.6269 58.8241C35.2479 58.5654 34.8023 58.4273 34.3464 58.4273C33.7351 58.4273 33.1489 58.6754 32.7166 59.1169C32.2843 59.5585 32.0414 60.1573 32.0414 60.7818Z" fill="#A57AAB"/>
<path d="M43.6701 67.398C43.6701 66.9067 43.5274 66.4265 43.2602 66.018C42.993 65.6095 42.6133 65.2911 42.1689 65.1031C41.7246 64.9151 41.2356 64.8659 40.7639 64.9617C40.2922 65.0576 39.8589 65.2941 39.5189 65.6415C39.1788 65.9889 38.9471 66.4315 38.8533 66.9134C38.7594 67.3952 38.8077 67.8947 38.9917 68.3486C39.1758 68.8025 39.4874 69.1904 39.8873 69.4634C40.2872 69.7363 40.7574 69.882 41.2383 69.882C41.8833 69.882 42.5017 69.6203 42.9578 69.1545C43.4138 68.6886 43.6701 68.0568 43.6701 67.398Z" fill="#A57AAB"/>
<path d="M59.1826 71.1652C60.3729 71.1652 61.3378 70.1796 61.3378 68.9637C61.3378 67.7479 60.3729 66.7623 59.1826 66.7623C57.9923 66.7623 57.0274 67.7479 57.0274 68.9637C57.0274 70.1796 57.9923 71.1652 59.1826 71.1652Z" fill="#A57AAB"/>
<path d="M67.7117 66.8128C68.7153 66.5708 69.3368 65.5437 69.1 64.5186C68.8631 63.4934 67.8575 62.8585 66.854 63.1005C65.8504 63.3425 65.2289 64.3696 65.4657 65.3947C65.7026 66.4199 66.7082 67.0548 67.7117 66.8128Z" fill="#A57AAB"/>
<path d="M73.9921 61.1585C74.896 61.1585 75.6287 60.4101 75.6287 59.4868C75.6287 58.5636 74.896 57.8151 73.9921 57.8151C73.0883 57.8151 72.3556 58.5636 72.3556 59.4868C72.3556 60.4101 73.0883 61.1585 73.9921 61.1585Z" fill="#A57AAB"/>
<path d="M78.5099 54.0126C78.5076 54.2976 78.5884 54.5769 78.742 54.8149C78.8957 55.0529 79.1152 55.2388 79.3726 55.349C79.63 55.4591 79.9136 55.4886 80.1874 55.4335C80.4613 55.3785 80.7128 55.2415 80.9101 55.0399C81.1075 54.8383 81.2416 54.5813 81.2955 54.3016C81.3493 54.0219 81.3206 53.7322 81.2127 53.4693C81.1049 53.2063 80.9229 52.9822 80.69 52.8252C80.457 52.6683 80.1836 52.5858 79.9045 52.5881C79.5347 52.5881 79.18 52.7382 78.9184 53.0053C78.6569 53.2725 78.5099 53.6348 78.5099 54.0126Z" fill="#A57AAB"/>
<path d="M92.2361 43.5821C92.5142 43.5821 92.7861 43.4978 93.0173 43.34C93.2486 43.1822 93.4287 42.9579 93.5351 42.6955C93.6415 42.433 93.6694 42.1442 93.6151 41.8656C93.5609 41.587 93.427 41.3311 93.2304 41.1302C93.0337 40.9294 92.7832 40.7926 92.5105 40.7372C92.2377 40.6818 91.9549 40.7102 91.698 40.8189C91.4411 40.9276 91.2215 41.1117 91.067 41.3479C90.9125 41.5841 90.8301 41.8617 90.8301 42.1458C90.8286 42.3349 90.8638 42.5223 90.9339 42.6973C91.0041 42.8723 91.1077 43.0312 91.2385 43.1649C91.3694 43.2986 91.5249 43.4043 91.6962 43.4759C91.8675 43.5476 92.0511 43.5836 92.2361 43.5821Z" fill="#A57AAB"/>
<path d="M98.1714 38.4021C99.0752 38.4021 99.8079 37.6537 99.8079 36.7304C99.8079 35.8072 99.0752 35.0587 98.1714 35.0587C97.2676 35.0587 96.5349 35.8072 96.5349 36.7304C96.5349 37.6537 97.2676 38.4021 98.1714 38.4021Z" fill="#A57AAB"/>
<path d="M104.833 33.1163C105.864 33.1163 106.7 32.2624 106.7 31.2091C106.7 30.1558 105.864 29.3019 104.833 29.3019C103.802 29.3019 102.966 30.1558 102.966 31.2091C102.966 32.2624 103.802 33.1163 104.833 33.1163Z" fill="#A57AAB"/>
<path d="M131.462 30.8305C132.626 30.5497 133.348 29.3577 133.073 28.168C132.798 26.9784 131.631 26.2416 130.466 26.5223C129.302 26.8031 128.58 27.9952 128.855 29.1848C129.13 30.3745 130.297 31.1113 131.462 30.8305Z" fill="#A57AAB"/>
<path d="M137.99 37.9195C139.288 37.9195 140.341 36.8442 140.341 35.5179C140.341 34.1915 139.288 33.1163 137.99 33.1163C136.692 33.1163 135.639 34.1915 135.639 35.5179C135.639 36.8442 136.692 37.9195 137.99 37.9195Z" fill="#A57AAB"/>
<path d="M141.784 47.2851C143.192 47.0518 144.147 45.6972 143.919 44.2597C143.69 42.8221 142.364 41.8458 140.957 42.0792C139.55 42.3125 138.594 43.6671 138.822 45.1047C139.051 46.5423 140.377 47.5185 141.784 47.2851Z" fill="#A57AAB"/>
<path d="M27.9041 98.4187C27.9901 98.4666 28.0838 98.4984 28.1807 98.5129C28.2498 98.5129 28.3881 98.3952 28.5956 98.1597C28.803 97.9243 28.9067 97.783 28.9067 97.7242C28.9067 97.4416 27.9963 97.2297 26.1753 97.1002C26.8668 94.8516 27.4315 93.074 27.8695 91.779C28.3074 90.484 28.8606 89.0831 29.5405 87.5762C30.0915 86.2916 30.7961 85.0815 31.6381 83.9738C32.1549 83.3467 32.7132 82.7567 33.3092 82.2079C33.6265 81.9075 33.9655 81.632 34.3234 81.3838C34.5078 81.2818 34.6 81.1758 34.6 81.0659C34.6026 80.8745 34.5416 80.6878 34.4271 80.5362C34.3847 80.4753 34.3298 80.4246 34.266 80.388C34.2022 80.3513 34.1313 80.3296 34.0584 80.3243C33.5122 80.6881 32.9851 81.0811 32.4794 81.5015C32.4794 81.5015 31.9954 81.9254 31.1771 82.6788C30.3819 83.2321 29.2294 83.9738 27.7196 84.892L23.6859 87.3878C22.5334 88.1295 21.185 89.0124 19.7674 90.0484C18.5009 90.9512 17.285 91.9259 16.1255 92.968C15.1281 93.88 14.2559 94.9255 13.5324 96.076C12.855 97.0902 12.4028 98.2433 12.2072 99.4547C9.00576 100.647 6.04208 102.422 3.45964 104.693C2.41244 105.541 1.56003 106.612 0.962618 107.833C0.365205 109.053 0.0373494 110.393 0.00216078 111.757C-0.0233891 112.856 0.177891 113.948 0.592897 114.962C1.0079 115.976 1.62743 116.89 2.41097 117.643C3.18672 118.414 4.10494 119.019 5.11212 119.423C6.11931 119.828 7.19525 120.023 8.27711 119.998C9.37443 119.998 10.467 119.852 11.5271 119.562C12.5029 119.285 13.4431 118.889 14.3277 118.385C15.2216 117.873 16.0435 117.239 16.771 116.501C17.5163 115.768 18.2094 114.981 18.8454 114.147C19.5301 113.241 20.1356 112.276 20.6549 111.263C21.2772 110.109 21.7958 109.073 22.2107 108.155C22.6371 107.248 23.0982 106.094 23.5822 104.729C24.0663 103.363 24.4697 102.186 24.7347 101.197C24.9998 100.208 25.4147 99.078 25.8872 97.6653C26.3108 97.732 26.7274 97.8384 27.1319 97.9832C27.3998 98.108 27.658 98.2536 27.9041 98.4187ZM22.2684 101.068C21.9803 101.821 21.5308 102.928 20.943 104.387C20.3552 105.847 19.8596 106.954 19.4678 107.719L17.9119 110.686C17.4067 111.678 16.8125 112.62 16.137 113.499C15.5954 114.17 14.9846 114.9 14.2125 115.713C13.5788 116.439 12.8403 117.062 12.0227 117.561C11.264 118.003 10.4601 118.358 9.62544 118.62C8.73548 118.913 7.80599 119.06 6.87111 119.056C5.39178 119.05 3.97 118.469 2.89493 117.431C2.31653 116.918 1.85641 116.28 1.54759 115.564C1.23876 114.847 1.08894 114.07 1.10865 113.287C1.12047 111.905 1.40275 110.538 1.93911 109.269C2.47548 107.999 3.25506 106.852 4.23186 105.894C6.51647 103.562 9.21541 101.696 12.1841 100.397C12.1557 101.38 12.4385 102.346 12.9908 103.151C13.5209 103.936 13.9819 104.329 14.3737 104.329C14.645 104.264 14.8905 104.116 15.0768 103.905C15.3995 103.614 15.5608 103.391 15.5608 103.234C15.451 103.039 15.3064 102.867 15.1344 102.728C14.8039 102.375 14.521 101.979 14.2931 101.55C14.0083 101.02 13.8614 100.424 13.8667 99.8197C16.9621 98.5223 20.2608 97.8045 23.6052 97.7006L22.2684 101.068ZM23.8358 97.0178C20.452 97.1493 17.1069 97.8002 13.9128 98.9485C14.0687 97.8386 14.4622 96.7774 15.0653 95.8405C15.7089 94.7994 16.4839 93.8495 17.3703 93.0151C18.3729 92.0575 19.4397 91.1725 20.5627 90.3663C21.8305 89.4363 22.983 88.6475 24.0202 88.0118L27.5698 85.7985C28.9182 84.9627 29.9325 84.3034 30.6239 83.8325C29.6266 84.9256 28.7811 86.1536 28.1115 87.482C27.2471 89.0831 26.6017 90.4251 26.1523 91.4965C25.7028 92.5678 24.8845 94.4043 23.8358 97.0178Z" fill="#A57AAB"/>
<path d="M54.9184 93.5449C54.9776 93.5244 55.0324 93.4924 55.0798 93.4507L55.4485 93.1799C55.6206 93.0697 55.8019 92.9751 55.9903 92.8974L57.0159 92.5324C57.2221 92.3863 57.3919 92.1928 57.5115 91.9673C57.6511 91.7761 57.7458 91.5545 57.7881 91.3199C57.714 90.8951 57.5126 90.5043 57.2118 90.2015C56.8315 89.7188 56.5089 89.4833 56.2438 89.4833C55.9787 89.4833 56.0939 89.4834 56.0939 89.6364C55.9725 90.2858 55.7383 90.9077 55.4025 91.4729C55.059 92.0397 54.8207 92.6662 54.6995 93.3212C54.6957 93.3515 54.6988 93.3823 54.7085 93.4111C54.7182 93.44 54.7341 93.4663 54.7552 93.4879C54.7763 93.5094 54.802 93.5258 54.8303 93.5357C54.8586 93.5456 54.8887 93.5487 54.9184 93.5449Z" fill="#A57AAB"/>
<path d="M94.9213 103.893C95.3823 103.516 96.0739 102.869 97.0536 101.939C97.2956 101.691 97.4108 101.538 97.4108 101.491C97.4108 101.444 97.4108 101.338 97.2725 101.338C97.1342 101.338 97.1458 101.338 97.0536 101.491C96.339 102.162 95.6705 102.763 95.0596 103.293C94.1425 104.188 92.9957 104.801 91.752 105.058C91.2103 105.058 90.9453 104.823 90.9453 104.34C91.0258 103.704 91.3092 103.112 91.752 102.657C92.0747 102.306 92.3465 101.909 92.5588 101.48C92.506 101.092 92.3176 100.736 92.0286 100.479C91.6713 100.09 91.4063 99.902 91.245 99.902C91.0836 99.902 90.2192 100.526 88.94 101.774C86.0664 104.701 84.3645 106.169 83.8344 106.177C83.7686 106.187 83.7014 106.181 83.6383 106.159C83.5751 106.138 83.5177 106.102 83.4707 106.054C83.4237 106.006 83.3883 105.947 83.3674 105.883C83.3465 105.818 83.3407 105.75 83.3504 105.682C83.3504 104.301 84.307 102.649 86.2201 100.726C88.1333 98.7954 89.9195 97.8418 91.5906 97.8418C91.7477 97.8565 91.8948 97.9274 92.0056 98.042C92.0718 98.087 92.1275 98.1461 92.1693 98.2151C92.211 98.2842 92.2378 98.3617 92.2476 98.4422C92.2473 98.6001 92.216 98.7562 92.1555 98.9014C92.1179 98.9809 92.0869 99.0637 92.0632 99.1486C92.074 99.2442 92.1192 99.3323 92.1899 99.3958C92.2821 99.4782 92.3514 99.5253 92.3975 99.5253C92.4436 99.5253 92.6856 99.1957 92.6856 98.5482C92.6856 98.1244 92.3859 97.6653 91.7866 97.159C91.2509 96.6859 90.5699 96.4194 89.8619 96.4056C88.3252 96.4056 86.5735 97.3906 84.6066 99.3605C83.548 100.358 82.6905 101.558 82.0826 102.892L81.3336 103.504C80.2413 104.551 78.8695 105.244 77.392 105.494C77.0578 105.494 76.885 105.329 76.885 105.011C76.9371 104.268 77.1752 103.55 77.5764 102.928C77.9936 102.183 78.4635 101.471 78.9824 100.797C79.2554 100.492 79.4879 100.151 79.6739 99.7843C79.6554 99.4255 79.5483 99.0771 79.3627 98.7719C79.1553 98.3951 78.9132 98.2068 78.6482 98.2068C77.5236 98.4089 76.4569 98.8632 75.525 99.5371C74.288 100.272 73.095 101.082 71.9523 101.962C72.079 101.739 72.275 101.397 72.5631 100.926L73.1854 99.8785C73.3237 99.643 73.4505 99.3841 73.5773 99.1133C73.6792 98.8992 73.7416 98.6677 73.7616 98.4305C73.7483 97.958 73.5538 97.5098 73.22 97.1826C73.006 96.8751 72.6838 96.6641 72.321 96.5939C72.079 96.5939 71.9523 96.7117 71.9523 96.9354C71.6966 98.0437 71.2645 99.1016 70.673 100.067C70.189 100.926 69.7279 101.703 69.2784 102.421C68.9326 102.735 68.5984 103.03 68.2757 103.304C67.3586 104.2 66.2118 104.812 64.9681 105.07C64.4264 105.07 64.1614 104.835 64.1614 104.352C64.2419 103.716 64.5254 103.124 64.9681 102.669C65.2908 102.318 65.5626 101.921 65.7749 101.491C65.7221 101.103 65.5337 100.748 65.2447 100.491C64.8874 100.102 64.6224 99.9138 64.4611 99.9138C64.2997 99.9138 63.4353 100.538 62.1561 101.786C59.2825 104.713 57.5806 106.181 57.0505 106.189C56.9847 106.199 56.9175 106.193 56.8544 106.171C56.7912 106.15 56.7338 106.114 56.6868 106.066C56.6398 106.018 56.6044 105.959 56.5835 105.894C56.5626 105.83 56.5568 105.761 56.5665 105.694C56.5665 104.313 57.5231 102.661 59.4362 100.738C61.3493 98.8072 63.1356 97.8536 64.8067 97.8536C64.9643 97.8662 65.1121 97.9374 65.2217 98.0538C65.2879 98.0988 65.3436 98.1579 65.3854 98.2269C65.4271 98.296 65.4539 98.3735 65.4637 98.454C65.4634 98.6118 65.432 98.768 65.3714 98.9131C65.3338 98.9927 65.303 99.0754 65.2793 99.1604C65.2901 99.256 65.3353 99.3441 65.406 99.4076C65.4982 99.49 65.5675 99.5371 65.6135 99.5371C65.6596 99.5371 65.9017 99.2075 65.9017 98.56C65.9017 98.1362 65.602 97.677 65.0027 97.1708C64.467 96.6977 63.786 96.4311 63.078 96.4174C61.5413 96.4174 59.7896 97.4023 57.8227 99.3723C56.785 100.355 55.9333 101.524 55.3102 102.822L54.3998 103.552C52.6596 104.929 51.3341 105.624 50.4236 105.624C50.0318 105.624 49.8359 105.412 49.8359 104.988C49.8359 104.352 50.539 103.045 51.9335 101.056C52.7115 100.045 53.4127 98.974 54.0309 97.8536C54.0209 97.6557 53.9718 97.462 53.8866 97.284C53.8014 97.106 53.6821 96.9473 53.5355 96.8176C53.4036 96.6647 53.2425 96.5409 53.0622 96.4539C52.8818 96.3668 52.686 96.3183 52.4866 96.3114C52.2907 96.3114 52.1409 96.4291 52.0487 96.6881C51.9565 96.9471 51.2189 98.2186 49.9857 100.22C49.5477 100.938 49.1906 101.574 48.914 102.115L47.1967 103.599C45.4334 105 44.2463 105.694 43.6239 105.694C43.0016 105.694 42.7135 105.294 42.7135 104.517C42.7205 103.721 42.829 102.93 43.0363 102.162C43.1367 101.763 43.2598 101.37 43.405 100.985C45.6979 98.7438 47.846 96.3529 49.8359 93.8274C51.8719 91.261 52.89 89.4009 52.89 88.2472C52.8954 87.7109 52.6923 87.1944 52.3253 86.8109C52.1582 86.6133 51.9511 86.4552 51.7182 86.3474C51.4854 86.2397 51.2324 86.1849 50.9768 86.187C50.0548 86.187 48.7987 87.1759 47.2083 89.1537C45.4733 91.3956 44.0355 93.8617 42.9324 96.488C42.1403 98.2289 41.5634 100.064 41.2152 101.95C40.7937 102.345 40.3471 102.711 39.8783 103.045C39.0076 103.914 37.8902 104.478 36.686 104.658C36.3633 104.658 36.2019 104.529 36.2019 104.246C36.2919 103.617 36.5035 103.013 36.8243 102.468C37.101 101.989 37.314 101.475 37.4581 100.938C37.4337 100.564 37.2969 100.206 37.0663 99.9138C36.9874 99.7628 36.8738 99.6336 36.7353 99.5373C36.5968 99.4409 36.4375 99.3803 36.271 99.3605C35.8792 99.3605 34.5999 100.502 32.4333 102.786C30.2666 105.07 28.949 106.208 28.4803 106.2C28.2613 106.2 28.1576 106.071 28.1576 105.824C28.1576 105.153 28.7913 103.869 30.0821 101.974C30.8703 100.989 31.5183 99.8951 32.0068 98.7248C31.9994 98.2072 31.8253 97.7066 31.5114 97.3003C31.4117 97.1197 31.2723 96.9651 31.1043 96.8486C30.9364 96.7322 30.7443 96.6571 30.5432 96.6293C30.3472 96.6293 30.2435 96.7117 30.2435 96.8883C29.8054 98.1746 29.1459 99.3707 28.2959 100.42C27.0051 102.363 26.3481 103.799 26.3481 104.729C26.3444 105.028 26.4056 105.325 26.5272 105.598C26.6487 105.87 26.8275 106.112 27.0511 106.306C27.4112 106.684 27.8962 106.91 28.4111 106.942C28.8721 106.942 29.9785 106.012 31.7187 104.14C32.5701 103.116 33.5198 102.181 34.5538 101.35C34.646 101.35 34.6921 101.385 34.6921 101.456C34.6641 101.764 34.6023 102.068 34.5078 102.363C34.3991 102.746 34.3371 103.141 34.3234 103.54C34.305 103.785 34.34 104.032 34.4256 104.261C34.5113 104.491 34.6456 104.699 34.819 104.87C35.1664 105.16 35.6035 105.315 36.0521 105.306C37.4191 105.116 38.6994 104.514 39.7285 103.575C40.2236 103.212 40.6971 102.819 41.1462 102.398C41.0655 102.983 41.0232 103.573 41.0194 104.164C40.9794 104.777 41.1689 105.383 41.5495 105.859C41.7112 106.049 41.9113 106.202 42.1362 106.305C42.361 106.409 42.6052 106.461 42.8518 106.459C43.7623 106.459 45.1568 105.694 47.0123 104.164C47.4618 103.799 47.9689 103.375 48.5106 102.892C48.3118 103.288 48.1904 103.72 48.1533 104.164C48.151 104.434 48.203 104.702 48.306 104.951C48.4091 105.2 48.5611 105.425 48.7526 105.612C49.0427 105.963 49.4569 106.183 49.9051 106.224C50.8847 106.224 52.3253 105.506 54.2385 104.046L55.0682 103.387C54.9591 103.749 54.9047 104.126 54.9069 104.505C54.9075 104.797 54.972 105.084 55.0957 105.347C55.2193 105.61 55.3989 105.841 55.6214 106.024C55.9963 106.417 56.5022 106.653 57.0389 106.683C57.2839 106.651 57.5174 106.558 57.719 106.412C58.088 106.164 58.4384 105.889 58.7677 105.588C59.1826 105.211 59.5399 104.882 59.8511 104.576L61.1303 103.304L62.2828 102.127L62.2021 102.539C62.1845 102.853 62.1845 103.167 62.2021 103.481C62.1881 103.787 62.2386 104.092 62.3499 104.376C62.4613 104.661 62.6309 104.917 62.8475 105.129C63.2735 105.53 63.8358 105.745 64.4149 105.729C65.2908 105.729 66.5125 105.082 68.0914 103.775C68.2182 103.669 68.368 103.552 68.5294 103.398C68.1554 103.887 67.8562 104.431 67.6419 105.011C67.6456 105.431 67.7697 105.84 67.9991 106.189C68.2296 106.577 68.4371 106.765 68.6331 106.765C68.829 106.765 68.8289 106.601 68.9903 106.259C69.2632 105.727 69.5673 105.212 69.9008 104.717C70.3973 103.986 70.9734 103.314 71.618 102.716C72.5786 101.825 73.625 101.036 74.7412 100.361C75.3923 99.9029 76.1126 99.5569 76.8734 99.337C76.9426 99.337 76.9886 99.337 76.9886 99.4076C76.8652 99.6965 76.7146 99.9725 76.5391 100.232C76.2188 100.799 75.9302 101.385 75.6748 101.986C75.4267 102.521 75.2856 103.101 75.2599 103.693C75.2746 104.306 75.5226 104.888 75.9514 105.317C76.1183 105.539 76.3285 105.722 76.5686 105.856C76.8086 105.99 77.0733 106.071 77.3458 106.094C78.2102 106.094 79.478 105.376 81.1722 103.952C81.3796 103.787 81.587 103.599 81.806 103.41C81.7063 103.758 81.6558 104.119 81.6562 104.482C81.6568 104.773 81.7215 105.061 81.8451 105.324C81.9687 105.586 82.1482 105.818 82.3707 106C82.7456 106.394 83.2516 106.629 83.7884 106.66C84.0333 106.627 84.2667 106.534 84.4683 106.389C84.8373 106.141 85.1878 105.865 85.5171 105.565C85.932 105.188 86.2892 104.858 86.6004 104.552L87.8796 103.281L89.0321 102.104L88.9515 102.516C88.9339 102.829 88.9339 103.144 88.9515 103.457C88.9375 103.763 88.9879 104.069 89.0992 104.353C89.2106 104.637 89.3802 104.894 89.5968 105.106C90.0228 105.507 90.5851 105.722 91.1642 105.706C92.1208 105.859 93.3885 105.211 94.9213 103.893ZM47.4964 92.4971C49.4556 89.3578 50.9115 87.7881 51.8643 87.7881C51.929 87.7786 51.995 87.7844 52.0571 87.8051C52.1193 87.8259 52.1759 87.8609 52.2227 87.9075C52.2695 87.9542 52.3052 88.0112 52.327 88.0742C52.3487 88.1372 52.3561 88.2044 52.3484 88.2708C52.3484 89.2989 51.3918 91.0648 49.4787 93.5684C47.7266 95.8862 45.8368 98.0918 43.8199 100.173C44.661 97.4438 45.9005 94.8601 47.4964 92.5089V92.4971Z" fill="#A57AAB"/>
<path d="M109.881 110.698C109.973 110.698 110.03 110.603 110.03 110.403C110.03 108.3 110.906 105.388 112.658 101.668C114.322 98.096 116.297 94.684 118.559 91.4729C120.741 88.3964 122.493 86.4578 123.814 85.6573C124.126 85.4807 124.287 85.2923 124.287 85.0922C124.205 84.6959 124.013 84.3321 123.734 84.0444C123.365 83.5618 123.088 83.3263 122.892 83.3263C122.178 83.3263 120.641 85.0098 118.282 88.3767C115.774 92.0131 113.532 95.8339 111.575 99.8079C109.454 104.07 108.394 107.209 108.394 109.226C108.421 109.422 108.491 109.61 108.598 109.775C108.706 109.941 108.849 110.079 109.016 110.18C109.257 110.425 109.554 110.603 109.881 110.698Z" fill="#A57AAB"/>
<path d="M120.391 99.9962C121.877 99.551 123.317 98.9596 124.69 98.2304C126.154 97.4843 127.547 96.6016 128.851 95.5933C130.106 94.623 131.176 93.4259 132.009 92.0615C132.803 90.8253 133.239 89.3845 133.265 87.9058C133.241 86.9867 132.992 86.0883 132.541 85.2925C132.09 84.4967 131.451 83.8289 130.683 83.3498C128.661 81.9913 126.266 81.3273 123.849 81.4544C119.726 81.5033 115.641 82.2718 111.771 83.7265C107.866 85.0632 104.239 87.1312 101.076 89.8247C98.1484 92.3833 96.6846 94.985 96.6846 97.6299C96.6656 98.2854 96.8 98.936 97.0766 99.5278C97.3532 100.12 97.7641 100.635 98.2751 101.032C99.3366 101.89 100.656 102.348 102.009 102.327C104.32 102.256 106.523 101.307 108.186 99.6666C110.318 97.6753 111.968 95.2046 113.004 92.45C113.211 92.0095 113.359 91.5422 113.442 91.0609C113.442 90.9078 113.384 90.8372 113.257 90.8372C113.131 90.8372 113.062 90.9667 112.969 91.2139C111.696 94.0157 109.912 96.5446 107.714 98.6659C106.061 100.494 103.783 101.603 101.352 101.762C100.979 101.786 100.606 101.72 100.262 101.571C99.9178 101.422 99.6124 101.193 99.3699 100.903C98.8794 100.263 98.63 99.4655 98.6669 98.6542C98.7087 96.8346 99.2784 95.0688 100.303 93.5802C101.455 91.8031 102.902 90.2453 104.579 88.9771C106.391 87.5855 108.319 86.3603 110.342 85.3158C112.394 84.2654 114.545 83.4293 116.761 82.8201C118.694 82.2657 120.689 81.9689 122.696 81.9371C124.789 81.8285 126.873 82.2747 128.747 83.2321C129.373 83.5201 129.909 83.9793 130.295 84.5589C130.682 85.1386 130.904 85.8161 130.937 86.5166C130.905 88.4217 130.328 90.2755 129.277 91.8496C128.223 93.5548 126.867 95.0441 125.278 96.2408C123.78 97.3783 122.155 98.3306 120.437 99.078C119.092 99.7217 117.635 100.086 116.15 100.149H115.378C115.263 100.149 115.205 100.149 115.205 100.302C115.205 100.455 115.747 100.632 116.853 100.632C118.056 100.587 119.246 100.373 120.391 99.9962Z" fill="#A57AAB"/>
<path d="M171.378 101.35C171.343 101.35 171.309 101.357 171.277 101.371C171.245 101.385 171.216 101.406 171.193 101.433L171.124 101.503C170.367 102.235 169.571 102.923 168.739 103.563C166.998 104.941 165.673 105.635 164.762 105.635C164.371 105.635 164.175 105.423 164.175 105C164.175 104.364 164.878 103.057 166.272 101.068C167.05 100.056 167.751 98.9858 168.37 97.8654C168.344 97.467 168.166 97.0948 167.874 96.8294C167.742 96.6765 167.581 96.5527 167.401 96.4657C167.221 96.3786 167.025 96.3301 166.825 96.3232C166.629 96.3232 166.48 96.4409 166.376 96.6999C166.272 96.9589 165.546 98.2304 164.325 100.232C163.829 101.056 163.426 101.762 163.172 102.351C161.863 103.252 160.313 103.717 158.735 103.681C159.39 103.162 159.933 102.511 160.33 101.767C160.727 101.024 160.968 100.204 161.04 99.3605C161.019 98.7094 160.779 98.0856 160.36 97.5946C160.211 97.3826 160.02 97.2049 159.8 97.073C159.58 96.9412 159.334 96.8582 159.081 96.8294C158.813 96.8393 158.552 96.9161 158.32 97.0531C157.993 97.2401 157.681 97.4527 157.386 97.6888C157.041 97.9714 156.718 98.2421 156.407 98.5247C156.096 98.8072 155.761 99.1368 155.381 99.5371L154.482 100.491L153.71 101.35L153.191 101.939C154.149 100.503 154.923 98.9479 155.496 97.3121C155.448 96.8994 155.275 96.5124 155.001 96.2055C154.678 95.7699 154.39 95.558 154.136 95.558C153.883 95.558 153.883 95.6286 153.883 95.7816C153.466 97.3822 152.809 98.9073 151.935 100.302C151.532 101.056 151.14 101.833 150.783 102.657C149.532 103.451 148.083 103.859 146.611 103.834C147.266 103.316 147.809 102.664 148.206 101.92C148.603 101.177 148.844 100.357 148.916 99.5136C148.9 98.8615 148.659 98.236 148.236 97.7477C148.09 97.5111 147.895 97.311 147.663 97.1622C147.432 97.0134 147.171 96.9198 146.899 96.8883C146.635 96.8986 146.378 96.9754 146.15 97.112C145.817 97.2958 145.501 97.5085 145.205 97.7477C144.859 98.0302 144.536 98.301 144.237 98.5835C143.937 98.8661 143.58 99.1957 143.199 99.596L142.3 100.55L141.528 101.409L141.021 101.998C141.978 100.561 142.753 99.0067 143.326 97.3709C143.273 96.9597 143.1 96.5742 142.831 96.2643C142.496 95.8287 142.208 95.6168 141.966 95.6168C141.724 95.6168 141.701 95.6875 141.701 95.8405C141.284 97.4411 140.627 98.9661 139.753 100.361C139.315 101.201 138.877 102.06 138.439 102.939L137.886 103.422C136.966 104.314 135.821 104.925 134.579 105.188C134.037 105.188 133.76 104.952 133.76 104.47C133.847 103.833 134.134 103.242 134.579 102.786C134.897 102.432 135.168 102.036 135.385 101.609C135.326 101.221 135.135 100.866 134.844 100.608C134.498 100.22 134.233 100.032 134.06 100.032C133.887 100.032 133.046 100.656 131.813 101.903C128.985 104.799 127.318 106.247 126.811 106.247C126.745 106.257 126.678 106.251 126.615 106.23C126.552 106.209 126.494 106.173 126.447 106.125C126.4 106.077 126.365 106.018 126.344 105.953C126.323 105.889 126.317 105.82 126.327 105.753C126.327 104.372 127.283 102.72 129.196 100.797C131.11 98.8661 132.896 97.9125 134.567 97.9125C134.728 97.9244 134.88 97.9955 134.993 98.1126C135.056 98.1599 135.109 98.2197 135.149 98.2886C135.189 98.3574 135.214 98.4337 135.224 98.5129C135.23 98.6713 135.199 98.8289 135.132 98.972C135.094 99.0516 135.063 99.1343 135.04 99.2193C135.045 99.2678 135.06 99.3147 135.084 99.3572C135.108 99.3997 135.14 99.4368 135.178 99.4665C135.227 99.5308 135.296 99.5764 135.374 99.596C135.57 99.596 135.673 99.2663 135.673 98.6188C135.673 98.195 135.374 97.7359 134.775 97.2297C134.234 96.7566 133.55 96.4903 132.838 96.4763C131.302 96.4763 129.55 97.4612 127.583 99.4312C125.616 101.401 124.648 103.147 124.679 104.67C124.683 104.961 124.749 105.248 124.872 105.51C124.995 105.772 125.173 106.004 125.393 106.189C125.771 106.578 126.275 106.813 126.811 106.848C127.056 106.818 127.29 106.725 127.491 106.577C127.862 106.332 128.213 106.057 128.54 105.753C128.954 105.376 129.312 105.047 129.623 104.741C129.934 104.435 130.361 104.011 130.914 103.469L132.066 102.292L131.997 102.704C131.979 103.018 131.979 103.332 131.997 103.646C131.981 103.951 132.029 104.256 132.138 104.54C132.248 104.825 132.416 105.082 132.631 105.294C133.061 105.688 133.621 105.902 134.198 105.894C135.591 105.642 136.874 104.96 137.875 103.94L138.151 103.705C137.437 105.164 136.711 106.671 135.996 108.237C134.936 110.248 134.274 112.452 134.049 114.724C134.065 115.089 134.203 115.438 134.44 115.713C134.694 116.054 134.913 116.219 135.074 116.219C135.236 116.219 135.224 116.136 135.224 115.96C135.275 114.718 135.524 113.493 135.962 112.334C136.391 111.072 136.895 109.837 137.471 108.637C137.978 107.578 138.624 106.283 139.569 104.576C139.73 105.023 140.04 105.398 140.445 105.635C140.95 105.926 141.525 106.068 142.104 106.047C143.649 105.914 145.107 105.265 146.253 104.199C147.737 104.24 149.207 103.9 150.529 103.21C149.722 104.827 148.923 106.503 148.132 108.237C147.067 110.245 146.405 112.451 146.184 114.724C146.201 115.087 146.334 115.435 146.565 115.713C146.83 116.054 147.037 116.219 147.21 116.219C147.383 116.219 147.36 116.136 147.36 115.96C147.404 114.717 147.654 113.492 148.097 112.334C148.523 111.072 149.023 109.837 149.596 108.637C150.114 107.578 150.817 106.283 151.693 104.576C151.859 105.024 152.173 105.399 152.581 105.635C153.083 105.924 153.653 106.067 154.229 106.047C155.777 105.917 157.24 105.267 158.389 104.199C160.003 104.256 161.601 103.848 162.999 103.022C162.801 103.419 162.676 103.85 162.63 104.293C162.63 104.564 162.684 104.833 162.789 105.082C162.894 105.331 163.048 105.555 163.241 105.741C163.531 106.093 163.945 106.313 164.394 106.353C165.373 106.353 166.825 105.635 168.739 104.175C169.625 103.488 170.471 102.749 171.274 101.962C171.422 101.827 171.558 101.677 171.677 101.515C171.528 101.397 171.481 101.35 171.378 101.35ZM141.09 105.07C140.353 105.07 139.938 104.799 139.938 104.246C139.938 103.693 140.399 103.34 141.298 103.34C142.053 103.386 142.798 103.541 143.51 103.799C142.867 104.489 142.014 104.937 141.09 105.07ZM146.057 100.42C145.474 101.489 144.77 102.485 143.96 103.387C142.882 103.118 141.789 102.917 140.687 102.786C143.76 99.2781 145.681 97.524 146.449 97.524C146.513 97.5165 146.578 97.5238 146.639 97.5454C146.699 97.567 146.754 97.6023 146.8 97.6487C146.845 97.6951 146.88 97.7514 146.901 97.8134C146.922 97.8754 146.929 97.9415 146.922 98.0067C146.81 98.877 146.515 99.7124 146.057 100.455V100.42ZM153.226 105.07C152.488 105.07 152.074 104.799 152.074 104.246C152.074 103.693 152.523 103.34 153.433 103.34C154.185 103.386 154.926 103.541 155.635 103.799C154.995 104.488 154.146 104.937 153.226 105.07ZM158.182 100.42C157.602 101.492 156.898 102.488 156.084 103.387C155.007 103.117 153.913 102.916 152.811 102.786C155.884 99.2781 157.805 97.524 158.574 97.524C158.638 97.5145 158.704 97.5203 158.766 97.5411C158.828 97.5618 158.885 97.5968 158.932 97.6435C158.979 97.6901 159.014 97.7471 159.036 97.8101C159.058 97.8731 159.065 97.9404 159.058 98.0067C158.94 98.8773 158.641 99.7122 158.182 100.455V100.42Z" fill="#A57AAB"/>
<path d="M171.435 90.2015C171.055 89.7188 170.732 89.4833 170.467 89.4833C170.202 89.4833 170.317 89.4834 170.317 89.6364C170.196 90.2875 169.957 90.9101 169.614 91.4729C169.278 92.0419 169.044 92.6679 168.923 93.3212C168.919 93.3515 168.922 93.3823 168.932 93.4111C168.942 93.44 168.958 93.4663 168.979 93.4879C169 93.5094 169.025 93.5258 169.054 93.5357C169.082 93.5456 169.112 93.5487 169.142 93.5449C169.201 93.5244 169.256 93.4924 169.303 93.4507L169.672 93.1799C169.84 93.0694 170.017 92.9748 170.202 92.8974L171.228 92.5324C171.438 92.3874 171.612 92.1938 171.735 91.9673C171.873 91.7763 171.964 91.5542 172 91.3199C171.932 90.8955 171.734 90.504 171.435 90.2015Z" fill="#A57AAB"/>
<path d="M48.9599 10.5718H49.5132C49.5342 10.5755 49.5557 10.5742 49.5761 10.5681C49.5965 10.5619 49.6153 10.5509 49.631 10.5361C49.6466 10.5213 49.6586 10.503 49.6661 10.4826C49.6737 10.4623 49.6765 10.4404 49.6744 10.4187V0.918265C49.6765 0.896596 49.6737 0.874714 49.6661 0.854351C49.6586 0.833988 49.6466 0.815708 49.631 0.800892C49.6153 0.786075 49.5965 0.775138 49.5761 0.768952C49.5557 0.762767 49.5342 0.761482 49.5132 0.765216H48.9714C48.8562 0.765216 48.8101 0.824085 48.8101 0.918265V9.00602L43.3243 0.918265C43.2939 0.874384 43.2544 0.837911 43.2086 0.811454C43.1627 0.784997 43.1116 0.769205 43.0592 0.765216H42.4944C42.4743 0.763419 42.454 0.766136 42.4351 0.773192C42.4161 0.780247 42.399 0.791479 42.3847 0.806065C42.3704 0.820652 42.3594 0.838236 42.3525 0.85762C42.3456 0.877005 42.3428 0.897715 42.3446 0.918265V10.4187C42.3428 10.4393 42.3456 10.46 42.3525 10.4794C42.3594 10.4987 42.3704 10.5164 42.3847 10.5309C42.399 10.5455 42.4161 10.5567 42.4351 10.5638C42.454 10.5708 42.4743 10.5736 42.4944 10.5718H43.0476C43.0686 10.5755 43.0902 10.5742 43.1106 10.5681C43.1311 10.5619 43.1499 10.5509 43.1655 10.5361C43.1811 10.5213 43.1931 10.503 43.2007 10.4826C43.2082 10.4623 43.2111 10.4404 43.209 10.4187V2.33099L48.6949 10.4187C48.724 10.4639 48.7633 10.5013 48.8094 10.5279C48.8555 10.5545 48.907 10.5695 48.9599 10.5718Z" fill="#A57AAB"/>
<path d="M58.8138 10.4187V3.72014C58.8159 3.69847 58.813 3.67659 58.8055 3.65623C58.7979 3.63587 58.7859 3.61755 58.7703 3.60273C58.7547 3.58792 58.7359 3.57702 58.7154 3.57083C58.695 3.56465 58.6734 3.56336 58.6524 3.56709H58.1223C58.1013 3.56336 58.0797 3.56465 58.0593 3.57083C58.0388 3.57702 58.02 3.58792 58.0044 3.60273C57.9888 3.61755 57.9768 3.63587 57.9692 3.65623C57.9617 3.67659 57.9589 3.69847 57.9609 3.72014V7.25192C57.9685 7.92188 57.7346 8.5713 57.3039 9.07665C57.109 9.32495 56.8616 9.52493 56.5801 9.66154C56.2987 9.79815 55.9906 9.86786 55.679 9.86543C54.3076 9.86543 53.6506 8.90009 53.6506 7.2637V3.73193C53.6524 3.71138 53.6497 3.69067 53.6428 3.67128C53.6359 3.6519 53.625 3.63428 53.6107 3.61969C53.5964 3.60511 53.5792 3.59391 53.5602 3.58685C53.5412 3.5798 53.5209 3.57708 53.5008 3.57888H52.9476C52.9275 3.57708 52.9072 3.5798 52.8883 3.58685C52.8693 3.59391 52.852 3.60511 52.8378 3.61969C52.8235 3.63428 52.8124 3.6519 52.8055 3.67128C52.7986 3.69067 52.796 3.71138 52.7978 3.73193V7.35787C52.7978 9.42984 53.6736 10.666 55.4715 10.666C56.0296 10.6823 56.5758 10.4991 57.0158 10.148C57.4202 9.84023 57.7447 9.43604 57.9609 8.9707V10.3834C57.9589 10.4051 57.9617 10.4269 57.9692 10.4473C57.9768 10.4677 57.9888 10.486 58.0044 10.5008C58.02 10.5156 58.0388 10.5266 58.0593 10.5327C58.0797 10.5389 58.1013 10.5402 58.1223 10.5365H58.6524C58.6706 10.5398 58.6892 10.5394 58.7073 10.5353C58.7253 10.5312 58.7425 10.5234 58.7575 10.5124C58.7725 10.5014 58.7853 10.4875 58.7949 10.4714C58.8046 10.4553 58.811 10.4374 58.8138 10.4187Z" fill="#A57AAB"/>
<path d="M65.2677 10.1715L65.0488 9.67706C65.0391 9.66477 65.0267 9.65485 65.0128 9.64804C64.9988 9.64122 64.9835 9.63769 64.968 9.63769C64.9526 9.63769 64.9374 9.64122 64.9235 9.64804C64.9095 9.65485 64.8972 9.66477 64.8874 9.67706C63.9193 10.1715 63.0779 9.88898 63.0779 9.0649V4.42651H64.8874C64.9796 4.42651 65.0257 4.36764 65.0257 4.27346V3.76724C65.0278 3.74557 65.025 3.72369 65.0174 3.70333C65.0099 3.68297 64.9977 3.66465 64.9821 3.64983C64.9665 3.63502 64.9478 3.62408 64.9274 3.6179C64.907 3.61171 64.8854 3.61046 64.8644 3.6142H63.0779V1.69526C63.08 1.67359 63.0772 1.65171 63.0696 1.63135C63.0621 1.61098 63.0501 1.5927 63.0345 1.57789C63.0189 1.56307 63 1.55213 62.9796 1.54595C62.9592 1.53976 62.9377 1.53848 62.9167 1.54221H62.3865C62.3655 1.53848 62.3439 1.53976 62.3235 1.54595C62.303 1.55213 62.2843 1.56307 62.2687 1.57789C62.2531 1.5927 62.241 1.61098 62.2334 1.63135C62.2259 1.65171 62.223 1.67359 62.2251 1.69526V3.6142H61.43C61.4098 3.6124 61.3896 3.61512 61.3706 3.62217C61.3516 3.62923 61.3344 3.64046 61.3201 3.65504C61.3058 3.66963 61.2948 3.68721 61.2879 3.7066C61.281 3.72598 61.2784 3.74669 61.2801 3.76724V4.27346C61.2784 4.29401 61.281 4.31468 61.2879 4.33407C61.2948 4.35345 61.3058 4.37107 61.3201 4.38566C61.3344 4.40024 61.3516 4.41144 61.3706 4.41849C61.3896 4.42555 61.4098 4.4283 61.43 4.42651H62.2251V9.13554C62.2079 9.35902 62.2397 9.58362 62.3182 9.79296C62.3968 10.0023 62.52 10.1911 62.679 10.3456C62.838 10.5002 63.0287 10.6165 63.2373 10.6861C63.4459 10.7558 63.6671 10.7771 63.8848 10.7484C64.3382 10.7443 64.7843 10.6314 65.1871 10.4187C65.2793 10.3246 65.3138 10.2539 65.2677 10.1715Z" fill="#A57AAB"/>
<path d="M71.4912 3.6142C71.2186 3.47934 70.9179 3.41467 70.6153 3.42584C70.381 3.42241 70.1483 3.46641 69.9307 3.55532C69.7131 3.64422 69.5149 3.77627 69.3476 3.94383C69.0032 4.26886 68.7386 4.67217 68.5753 5.12109V3.67305C68.5771 3.6525 68.5745 3.63183 68.5676 3.61244C68.5607 3.59306 68.5497 3.57544 68.5354 3.56085C68.5211 3.54626 68.5039 3.53507 68.4849 3.52801C68.4659 3.52096 68.4456 3.5182 68.4255 3.52H67.8839C67.8638 3.5182 67.8435 3.52096 67.8245 3.52801C67.8055 3.53507 67.7883 3.54626 67.774 3.56085C67.7597 3.57544 67.7488 3.59306 67.7419 3.61244C67.735 3.63183 67.7323 3.6525 67.734 3.67305V10.3716C67.7323 10.3922 67.735 10.4129 67.7419 10.4323C67.7488 10.4517 67.7597 10.4693 67.774 10.4838C67.7883 10.4984 67.8055 10.5097 67.8245 10.5167C67.8435 10.5238 67.8638 10.5265 67.8839 10.5247H68.4255C68.4456 10.5265 68.4659 10.5238 68.4849 10.5167C68.5039 10.5097 68.5211 10.4984 68.5354 10.4838C68.5497 10.4693 68.5607 10.4517 68.5676 10.4323C68.5745 10.4129 68.5771 10.3922 68.5753 10.3716V7.11066C68.5623 6.40073 68.7591 5.70326 69.1401 5.10931C69.2827 4.85409 69.4868 4.64019 69.7328 4.48777C69.9788 4.33535 70.2587 4.24945 70.5462 4.23815C70.7717 4.23325 70.9955 4.27737 71.2031 4.36763C71.2225 4.37703 71.2438 4.38203 71.2654 4.38229C71.2869 4.38254 71.3082 4.37804 71.3278 4.3691C71.3475 4.36016 71.3652 4.34699 71.3795 4.33048C71.3937 4.31397 71.4043 4.29454 71.4106 4.27346L71.5604 3.779C71.6295 3.72014 71.618 3.64952 71.4912 3.6142Z" fill="#A57AAB"/>
<path d="M74.188 1.24789C74.5254 1.24789 74.7989 0.968543 74.7989 0.623946C74.7989 0.27935 74.5254 0 74.188 0C73.8507 0 73.5772 0.27935 73.5772 0.623946C73.5772 0.968543 73.8507 1.24789 74.188 1.24789Z" fill="#A57AAB"/>
<path d="M74.4647 3.56709H73.9115C73.8287 3.56709 73.7616 3.63561 73.7616 3.72013V10.4187C73.7616 10.5033 73.8287 10.5718 73.9115 10.5718H74.4647C74.5474 10.5718 74.6145 10.5033 74.6145 10.4187V3.72013C74.6145 3.63561 74.5474 3.56709 74.4647 3.56709Z" fill="#A57AAB"/>
<path d="M82.3477 9.46517C82.316 9.43621 82.2748 9.42019 82.2323 9.42019C82.1898 9.42019 82.1488 9.43621 82.1171 9.46517C81.6688 9.75513 81.1496 9.91018 80.6189 9.91253C80.2656 9.92126 79.9144 9.85337 79.5886 9.71335C79.2628 9.57333 78.9698 9.36436 78.7289 9.10022C78.2281 8.56564 77.9546 7.85042 77.9682 7.11065C77.9595 6.74408 78.0223 6.37939 78.1529 6.03783C78.2835 5.69628 78.4793 5.38467 78.7289 5.12108C78.9679 4.8545 79.2606 4.64389 79.5869 4.50368C79.9131 4.36347 80.2652 4.29698 80.6189 4.30877C81.1428 4.30838 81.6553 4.46384 82.094 4.75614C82.1092 4.77367 82.1279 4.78772 82.1488 4.79735C82.1696 4.80697 82.1923 4.81193 82.2152 4.81193C82.2381 4.81193 82.2606 4.80697 82.2814 4.79735C82.3023 4.78772 82.321 4.77367 82.3362 4.75614L82.6243 4.34409C82.6934 4.23814 82.6242 4.16751 82.5551 4.09688C81.8811 3.63072 81.0678 3.42236 80.2582 3.5085C79.4487 3.59464 78.6949 3.96974 78.1295 4.56777C77.8028 4.90711 77.5465 5.31042 77.3762 5.75347C77.2058 6.19652 77.125 6.67018 77.1384 7.14597C77.1234 7.62372 77.2035 8.0996 77.3739 8.54479C77.5443 8.98998 77.8013 9.39519 78.1295 9.73591C78.4524 10.0751 78.8398 10.343 79.268 10.5232C79.6961 10.7034 80.1559 10.7921 80.6189 10.7837C81.3164 10.79 81.9993 10.5807 82.5781 10.1833C82.6703 10.1833 82.705 10.042 82.6358 9.94785L82.3477 9.46517Z" fill="#A57AAB"/>
<path d="M85.7936 1.24789C86.131 1.24789 86.4045 0.968543 86.4045 0.623946C86.4045 0.27935 86.131 0 85.7936 0C85.4563 0 85.1828 0.27935 85.1828 0.623946C85.1828 0.968543 85.4563 1.24789 85.7936 1.24789Z" fill="#A57AAB"/>
<path d="M86.0702 3.56709H85.5171C85.4343 3.56709 85.3672 3.63561 85.3672 3.72013V10.4187C85.3672 10.5033 85.4343 10.5718 85.5171 10.5718H86.0702C86.153 10.5718 86.2201 10.5033 86.2201 10.4187V3.72013C86.2201 3.63561 86.153 3.56709 86.0702 3.56709Z" fill="#A57AAB"/>
<path d="M92.2361 3.42583C91.7709 3.41689 91.3091 3.5076 90.8803 3.69212C90.4515 3.87664 90.0653 4.15087 89.7467 4.49714C89.4178 4.8355 89.1596 5.23834 88.9872 5.68144C88.8149 6.12453 88.7321 6.59871 88.744 7.07533C88.7345 7.55341 88.8183 8.02862 88.9905 8.47329C89.1626 8.91796 89.4196 9.32315 89.7467 9.66528C90.0695 10.0044 90.4569 10.2724 90.8851 10.4526C91.3132 10.6328 91.7731 10.7214 92.2361 10.7131C92.6956 10.721 93.1517 10.6321 93.5761 10.4518C94.0005 10.2715 94.3839 10.0038 94.7024 9.66528C95.0295 9.32315 95.2866 8.91796 95.4587 8.47329C95.6309 8.02862 95.7146 7.55341 95.7051 7.07533C95.717 6.59871 95.6343 6.12453 95.462 5.68144C95.2897 5.23834 95.0313 4.8355 94.7024 4.49714C94.3886 4.15091 94.0065 3.87644 93.5814 3.6918C93.1564 3.50715 92.6979 3.41652 92.2361 3.42583ZM94.1146 9.0649C93.8697 9.32229 93.5767 9.52686 93.2531 9.66657C92.9294 9.80628 92.5817 9.87829 92.2303 9.87829C91.8789 9.87829 91.5312 9.80628 91.2075 9.66657C90.8839 9.52686 90.5909 9.32229 90.346 9.0649C89.8452 8.53032 89.5717 7.8151 89.5853 7.07533C89.5767 6.70876 89.6396 6.34407 89.7701 6.00252C89.9007 5.66096 90.0964 5.34936 90.346 5.08577C90.5909 4.82838 90.8839 4.62377 91.2075 4.48406C91.5312 4.34435 91.8789 4.27238 92.2303 4.27238C92.5817 4.27238 92.9294 4.34435 93.2531 4.48406C93.5767 4.62377 93.8697 4.82838 94.1146 5.08577C94.3626 5.34993 94.5566 5.66192 94.6853 6.00352C94.8139 6.34513 94.8746 6.7095 94.8638 7.07533C94.8711 7.44174 94.8078 7.80602 94.6772 8.1474C94.5467 8.48877 94.3516 8.80055 94.1031 9.0649H94.1146Z" fill="#A57AAB"/>
<path d="M101.226 4.27347C102.597 4.27347 103.254 5.23879 103.254 6.86341V10.3952C103.254 10.4894 103.254 10.5482 103.415 10.5482H103.945C103.966 10.55 103.986 10.5473 104.005 10.5403C104.024 10.5332 104.041 10.522 104.055 10.5074C104.069 10.4928 104.08 10.4752 104.087 10.4558C104.094 10.4364 104.097 10.4157 104.095 10.3952V6.7104C104.095 4.63842 103.219 3.40231 101.421 3.40231C100.867 3.38775 100.325 3.57088 99.8886 3.92027C99.4842 4.228 99.1597 4.63219 98.9435 5.09752V3.68484C98.9452 3.66429 98.9426 3.64358 98.9357 3.62419C98.9288 3.60481 98.9178 3.58722 98.9035 3.57264C98.8892 3.55805 98.872 3.54682 98.853 3.53976C98.834 3.53271 98.8138 3.52999 98.7936 3.53179H98.2405C98.2204 3.52999 98.2001 3.53271 98.1811 3.53976C98.1621 3.54682 98.145 3.55805 98.1307 3.57264C98.1165 3.58722 98.1054 3.60481 98.0985 3.62419C98.0916 3.64358 98.0889 3.66429 98.0906 3.68484V10.3834C98.0889 10.404 98.0916 10.4247 98.0985 10.444C98.1054 10.4634 98.1165 10.481 98.1307 10.4956C98.145 10.5102 98.1621 10.5214 98.1811 10.5285C98.2001 10.5355 98.2204 10.5383 98.2405 10.5365H98.7936C98.8138 10.5383 98.834 10.5355 98.853 10.5285C98.872 10.5214 98.8892 10.5102 98.9035 10.4956C98.9178 10.481 98.9288 10.4634 98.9357 10.444C98.9426 10.4247 98.9452 10.404 98.9435 10.3834V6.85166C98.9397 6.18799 99.1687 5.54486 99.5889 5.03868C99.7874 4.79311 100.038 4.59667 100.321 4.46413C100.605 4.33159 100.914 4.26642 101.226 4.27347Z" fill="#A57AAB"/>
<path d="M107.91 3.56709H107.357C107.274 3.56709 107.207 3.63561 107.207 3.72013V10.4187C107.207 10.5033 107.274 10.5718 107.357 10.5718H107.91C107.993 10.5718 108.06 10.5033 108.06 10.4187V3.72013C108.06 3.63561 107.993 3.56709 107.91 3.56709Z" fill="#A57AAB"/>
<path d="M107.633 1.24789C107.971 1.24789 108.244 0.968543 108.244 0.623946C108.244 0.27935 107.971 0 107.633 0C107.296 0 107.023 0.27935 107.023 0.623946C107.023 0.968543 107.296 1.24789 107.633 1.24789Z" fill="#A57AAB"/>
<path d="M115.505 8.66458C115.505 7.25187 114.064 6.781 112.958 6.45137C112.197 6.21592 111.575 5.85097 111.575 5.27411C111.575 4.69725 112.266 4.09685 113.073 4.09685C113.67 4.0926 114.253 4.2868 114.733 4.65017C114.765 4.68252 114.808 4.70064 114.854 4.70064C114.899 4.70064 114.942 4.68252 114.975 4.65017L115.24 4.37938C115.259 4.3665 115.274 4.34902 115.285 4.32847C115.296 4.30793 115.302 4.28496 115.302 4.26165C115.302 4.23834 115.296 4.2154 115.285 4.19486C115.274 4.17432 115.259 4.1568 115.24 4.14392C114.628 3.65382 113.873 3.38841 113.096 3.39049C112.501 3.37237 111.916 3.55889 111.437 3.92024C111.234 4.07677 111.07 4.27976 110.958 4.51285C110.846 4.74594 110.788 5.00265 110.791 5.26233C110.791 6.54554 112.232 6.98111 113.327 7.34606C114.099 7.58151 114.71 8.0171 114.71 8.64105C114.71 9.265 114.018 9.94782 113.073 9.94782C112.365 9.95158 111.682 9.68251 111.16 9.19436C111.145 9.17682 111.126 9.16277 111.105 9.15315C111.084 9.14353 111.062 9.13857 111.039 9.13857C111.016 9.13857 110.994 9.14353 110.973 9.15315C110.952 9.16277 110.933 9.17682 110.918 9.19436L110.664 9.46514C110.647 9.47951 110.634 9.4975 110.624 9.51785C110.615 9.5382 110.61 9.5604 110.61 9.58288C110.61 9.60535 110.615 9.62752 110.624 9.64787C110.634 9.66822 110.647 9.68621 110.664 9.70057C110.98 10.0177 111.355 10.2666 111.767 10.4324C112.179 10.5983 112.619 10.6777 113.062 10.6659C113.7 10.6861 114.327 10.4826 114.836 10.0891C115.044 9.91686 115.212 9.69978 115.327 9.45347C115.443 9.20716 115.503 8.93772 115.505 8.66458Z" fill="#A57AAB"/>
<path d="M121.048 9.71238C121.039 9.70009 121.026 9.69016 121.012 9.68335C120.998 9.67654 120.983 9.67304 120.968 9.67304C120.952 9.67304 120.937 9.67654 120.923 9.68335C120.909 9.69016 120.897 9.70009 120.887 9.71238C119.93 10.2068 119.078 9.9243 119.078 9.10022V4.46182H120.887C120.979 4.46182 121.025 4.40295 121.025 4.30877V3.80256C121.027 3.78201 121.024 3.7613 121.018 3.74192C121.011 3.72253 121 3.70495 120.985 3.69036C120.971 3.67577 120.954 3.66454 120.935 3.65749C120.916 3.65043 120.896 3.64771 120.875 3.64951H119.078V1.73058C119.079 1.71003 119.077 1.68932 119.07 1.66993C119.063 1.65055 119.052 1.63296 119.038 1.61838C119.023 1.60379 119.006 1.59256 118.987 1.5855C118.968 1.57845 118.948 1.57573 118.928 1.57753H118.386C118.365 1.57379 118.344 1.57508 118.323 1.58126C118.303 1.58745 118.284 1.59839 118.268 1.6132C118.253 1.62802 118.241 1.6463 118.233 1.66666C118.226 1.68702 118.223 1.70891 118.225 1.73058V3.64951H117.429C117.409 3.64771 117.389 3.65043 117.37 3.65749C117.351 3.66454 117.334 3.67577 117.32 3.69036C117.305 3.70495 117.294 3.72253 117.288 3.74192C117.281 3.7613 117.278 3.78201 117.28 3.80256V4.30877C117.278 4.32932 117.281 4.35 117.288 4.36938C117.294 4.38877 117.305 4.40639 117.32 4.42097C117.334 4.43556 117.351 4.44679 117.37 4.45385C117.389 4.4609 117.409 4.46362 117.429 4.46182H118.225V9.17085C118.21 9.39381 118.243 9.61744 118.322 9.82577C118.401 10.0341 118.525 10.222 118.683 10.376C118.842 10.5301 119.031 10.6465 119.239 10.7169C119.447 10.7874 119.667 10.8102 119.884 10.7837C120.338 10.7796 120.784 10.6667 121.187 10.4541C121.279 10.3952 121.313 10.3246 121.267 10.2422L121.048 9.71238Z" fill="#A57AAB"/>
<path d="M128.897 10.3952C128.897 10.5129 128.897 10.5718 129.081 10.5718H129.542C129.669 10.5718 129.727 10.5129 129.727 10.3952V6.73391C129.792 5.85559 129.547 4.98236 129.035 4.27344C128.7 3.95266 128.301 3.71056 127.865 3.56414C127.429 3.41771 126.967 3.3705 126.511 3.42582C125.682 3.4069 124.86 3.57574 124.102 3.92025C124.078 3.92646 124.054 3.93826 124.034 3.95481C124.014 3.97135 123.998 3.99225 123.987 4.01592C123.976 4.03959 123.971 4.06547 123.971 4.09169C123.971 4.11791 123.976 4.1438 123.987 4.1675L124.126 4.54419C124.129 4.57097 124.14 4.59639 124.155 4.61816C124.171 4.63993 124.192 4.6574 124.216 4.66904C124.24 4.68067 124.266 4.68612 124.293 4.68488C124.319 4.68364 124.345 4.67574 124.368 4.66192L124.656 4.54419C125.242 4.3389 125.857 4.23158 126.477 4.22634C127.004 4.21496 127.528 4.32352 128.009 4.54419C128.291 4.71992 128.518 4.97284 128.666 5.27412C128.768 5.51614 128.823 5.776 128.828 6.03933V6.35718H128.597C127.586 6.33458 126.574 6.41345 125.578 6.59264C125.176 6.6643 124.787 6.79933 124.425 6.99291C124.126 7.14766 123.875 7.38546 123.702 7.67904C123.529 7.97262 123.44 8.3101 123.445 8.65284C123.445 10.2892 124.713 10.713 125.82 10.713C126.946 10.7468 128.04 10.3235 128.862 9.53579L128.897 10.3952ZM128.897 8.52333C128.897 8.86473 128.62 9.20613 128.079 9.54753C127.536 9.88131 126.914 10.0564 126.281 10.0538C125.013 10.0538 124.391 9.58285 124.391 8.62928C124.391 7.34607 125.843 6.96937 128.701 6.96937H128.897V8.52333Z" fill="#A57AAB"/>
</svg>
