<svg width="123" height="182" viewBox="0 0 123 182" fill="none" xmlns="http://www.w3.org/2000/svg">
<path d="M8.04837 74.8507C9.62854 79.7256 12.4635 84.7747 16.6565 90.2629C20.9532 95.8449 26.2788 100.549 32.3454 104.122C36.842 106.793 41.6904 108.82 46.7498 110.145C54.2892 112.103 61.1005 112.355 67.5603 110.921C73.8001 109.473 79.6939 106.802 84.9009 103.062C90.524 99.1013 95.4325 94.2096 99.4151 88.5974C103.095 83.3455 105.724 77.4301 107.156 71.1791C110.418 57.4041 109.104 42.9169 103.563 31.4346C102.939 30.1493 102.24 28.9017 101.471 27.698C100.757 26.4742 99.6024 25.5713 98.2435 25.1749C97.5606 24.9275 96.8312 24.8348 96.1077 24.9033C95.3842 24.9719 94.6846 25.2001 94.0591 25.5715C88.3444 28.1255 82.6362 30.9541 77.2815 33.6373C71.1065 36.7286 64.3764 40.1745 56.1203 44.4704C49.557 47.8931 42.6563 51.5252 35.0574 55.5808C29.5583 58.4897 23.9845 61.4748 18.4686 64.4411C17.6503 64.8788 16.8285 65.3078 16.0067 65.7368C14.2743 66.6365 12.4912 67.5721 10.7915 68.5642L10.7175 68.6047C8.5258 69.8346 7.32847 72.6465 8.04837 74.8507ZM22.2061 74.8759C27.3715 72.0993 32.6516 69.2704 37.9189 66.472C45.3534 62.5194 52.142 58.9334 58.6794 55.5214C66.9103 51.2006 73.7291 47.7132 80.0512 44.5259C84.3995 42.3377 89.3226 39.8676 94.3183 37.5137L94.6712 38.3767L94.7277 38.5148L94.8323 38.8448L95.0017 39.259C95.0579 39.3821 95.1077 39.508 95.1509 39.6362C96.1264 42.386 96.8529 45.2185 97.3218 48.0994C97.3844 48.4619 97.4195 48.8558 97.4837 49.1974L97.5266 49.4872L97.5139 49.5177L97.5208 49.6207C97.5517 49.8197 97.5931 50.1304 97.6055 50.2715C97.6547 50.6999 97.6893 51.1293 97.7238 51.5587C97.822 53.0307 97.905 54.5393 97.9099 56.0295C97.9148 57.5197 97.8566 59.1267 97.7459 60.6544C97.6857 61.3447 97.6346 61.9959 97.5612 62.6663C97.5256 62.7516 97.5248 62.8729 97.5058 62.9866C97.4397 63.2738 97.4077 63.5679 97.4107 63.8626L97.3629 64.1646C96.9226 67.0913 96.239 69.9764 95.3191 72.7899C95.107 73.4166 94.898 74.0017 94.6743 74.5879C94.5826 74.8071 94.4884 75.0324 94.3967 75.2517C94.2517 75.5144 94.1356 75.7921 94.0503 76.0798C93.5214 77.2252 92.9464 78.3441 92.3234 79.4072C91.6159 80.621 90.8264 81.8434 89.9898 83.0246C89.6579 83.494 89.3189 83.9461 88.9713 84.4017L88.928 84.5052L88.8056 84.6615C88.5435 84.9812 88.2813 85.3008 88.0095 85.6093C86.1442 87.7831 84.1064 89.8022 81.9159 91.6467C81.3789 92.0946 80.8322 92.5314 80.2967 92.9585C80.1815 93.0462 79.7898 93.2831 79.6873 93.3404C79.5726 93.4078 79.4722 93.4971 79.3918 93.6032L79.1442 93.7858C77.9648 94.6091 76.752 95.3755 75.5319 96.0743C74.3117 96.7732 73.0359 97.4345 71.7724 98.0151C71.4458 98.1647 71.1156 98.3056 70.7828 98.4527L70.5734 98.544C70.3655 98.6144 70.1611 98.6935 69.9567 98.7726L68.763 99.2035C67.4274 99.6507 66.0681 100.023 64.6916 100.32C64.0482 100.459 63.4004 100.574 62.7638 100.68L62.5443 100.71L62.5078 100.694L62.2002 100.73L61.6401 100.789C60.3139 100.899 58.9823 100.926 57.6531 100.868C57.0871 100.839 56.4933 100.791 55.6934 100.707L55.3808 100.669C54.8768 100.594 54.3692 100.511 53.8703 100.424C50.6364 99.8561 47.4627 98.9887 44.39 97.8327L43.7157 97.5507L43.5638 97.4872C43.308 97.3297 43.0292 97.2131 42.7375 97.1416C42.1664 96.9028 41.595 96.6138 41.0331 96.3359C39.7687 95.7069 38.5175 95.012 37.3101 94.2638C36.1026 93.5156 35.0304 92.8025 33.9705 92.0087L33.4241 91.6085L33.1413 91.3972C32.6416 90.9879 32.1408 90.5638 31.6487 90.1362C29.8707 88.5737 28.2051 86.8873 26.6642 85.0897C25.9571 84.2717 25.2652 83.4172 24.6053 82.5545L24.3052 82.1285C24.002 81.7156 23.7176 81.3033 23.452 80.8917C22.4847 79.4497 21.5854 77.9647 20.7844 76.4492L20.4655 75.8293L22.2061 74.8759Z" fill="#E6F2DE"/>
<path d="M59.1991 138.063C61.299 136.516 63.5551 135.212 65.9246 134.178C67.2385 133.607 68.337 131.92 68.6896 130.632C69.081 129.188 68.9168 127.66 68.2317 126.37C67.8806 125.716 67.4033 125.145 66.8282 124.691C66.2531 124.237 65.5919 123.91 64.8838 123.728L63.5776 123.555L63.4768 123.548C62.5484 123.56 61.6309 123.811 60.8077 124.277C53.4934 127.56 47.2396 132.995 42.8526 139.88C38.4656 146.766 36.1467 154.787 36.1948 162.909C36.1954 167.282 36.9012 171.605 38.2834 175.699C38.6685 177.104 39.5437 178.299 40.7442 179.062C42.0036 179.803 43.5111 179.995 44.9393 179.596C45.6418 179.397 46.3032 179.059 46.8854 178.6C47.4676 178.141 47.9592 177.571 48.3318 176.922C48.7107 176.198 49.5439 174.321 48.949 172.579C48.1968 170.369 47.6691 168.08 47.3741 165.746C47.1469 163.157 47.1979 160.543 47.5262 157.949C48.2553 152.786 50.3291 147.884 53.5259 143.767C55.2078 141.657 57.111 139.744 59.1991 138.063Z" fill="#F79A71"/>
<path d="M115.224 120.702C116.73 117.251 115.153 113.232 111.702 111.726C108.251 110.221 104.232 111.797 102.727 115.248C101.221 118.699 102.798 122.718 106.249 124.224C109.7 125.73 113.718 124.153 115.224 120.702Z" fill="#FD8199"/>
</svg>
