<svg width="121" height="126" viewBox="0 0 121 126" fill="none" xmlns="http://www.w3.org/2000/svg">
<path d="M89.207 12.8082C91.1233 9.56711 90.0494 5.38619 86.8082 3.46984C83.5671 1.5535 79.3862 2.62741 77.4699 5.86853C75.5535 9.10964 76.6274 13.2906 79.8685 15.2069C83.1097 17.1233 87.2906 16.0493 89.207 12.8082Z" fill="#A8C51B"/>
<path d="M40.4225 69.4769C33.3946 77.7758 24.1559 83.8586 12.5915 82.5045C9.42322 82.1357 6.73534 85.4497 6.68817 88.3697C6.62712 91.8332 9.39395 93.9107 12.5209 94.2765C28.0544 96.0918 41.0897 87.2085 50.4937 75.6436C54.6258 77.597 59.0045 78.9793 63.5099 79.7526C83.8941 83.154 104.244 73.8763 115.643 56.6739C119.83 50.3548 109.716 44.3916 105.537 50.6925C98.7164 60.9973 86.8754 68.0968 74.5134 68.7352C68.6476 68.9913 62.7994 67.9605 57.3778 65.7148C62.0363 57.7736 66.1579 48.5305 65.4951 39.1417C64.916 30.744 60.5494 22.5391 53.0129 18.4099C49.4268 16.4238 45.2959 15.6476 41.2306 16.1961C37.1653 16.7446 33.3812 18.5886 30.4376 21.4557C23.8245 27.759 21.9479 37.3844 24.1656 46.0321C26.5853 55.3707 32.6559 63.4819 40.4225 69.4769ZM45.6239 27.9634C50.5441 29.4002 53.5345 34.8391 53.7965 39.7079C54.1739 46.4443 51.1267 52.8974 47.9033 58.6489C47.6796 59.0477 47.4352 59.4449 47.1969 59.8447C44.5649 57.7452 42.218 55.3102 40.2156 52.6013C36.7461 47.8825 33.9214 41.5711 35.3264 35.6085C36.3941 31.0818 40.6104 26.4947 45.6239 27.9634Z" fill="#FED000"/>
</svg>
