<svg width="34" height="23" viewBox="0 0 34 23" fill="none" xmlns="http://www.w3.org/2000/svg">
<path d="M26 5.16667H29C29.2652 5.16667 29.5196 5.27788 29.7071 5.47583C29.8946 5.67379 30 5.94227 30 6.22222V16.7778C30 17.0577 29.8946 17.3262 29.7071 17.5242C29.5196 17.7221 29.2652 17.8333 29 17.8333H26M8 17.8333H5C4.73478 17.8333 4.48043 17.7221 4.29289 17.5242C4.10536 17.3262 4 17.0577 4 16.7778V6.22222C4 5.94227 4.10536 5.67379 4.29289 5.47583C4.48043 5.27788 4.73478 5.16667 5 5.16667H8M13 11.5H21M30 11.5H32M2 11.5H4M9 2H12C12.5523 2 13 2.47259 13 3.05556V19.9444C13 20.5274 12.5523 21 12 21H9C8.44772 21 8 20.5274 8 19.9444V3.05556C8 2.47259 8.44772 2 9 2ZM22 2H25C25.5523 2 26 2.47259 26 3.05556V19.9444C26 20.5274 25.5523 21 25 21H22C21.4477 21 21 20.5274 21 19.9444V3.05556C21 2.47259 21.4477 2 22 2Z" stroke="#A57AAB" stroke-width="3" stroke-linecap="round" stroke-linejoin="round"/>
</svg>
