<svg width="35" height="35" viewBox="0 0 35 35" fill="none" xmlns="http://www.w3.org/2000/svg">
<path d="M9.75 29.125C12.6035 29.125 14.9167 26.8118 14.9167 23.9583C14.9167 21.1049 12.6035 18.7917 9.75 18.7917C6.89653 18.7917 4.58333 21.1049 4.58333 23.9583C4.58333 26.8118 6.89653 29.125 9.75 29.125ZM9.75 29.125C8.24606 29.125 6.76278 29.4752 5.41762 30.1477C4.07246 30.8203 2.90236 31.7968 2 33M9.75 29.125C11.2539 29.125 12.7372 29.4752 14.0824 30.1477C15.4275 30.8203 16.5976 31.7968 17.5 33C18.4024 31.7968 19.5725 30.8203 20.9176 30.1477C22.2628 29.4752 23.7461 29.125 25.25 29.125M9.75 12.3333C12.6035 12.3333 14.9167 10.0201 14.9167 7.16667C14.9167 4.3132 12.6035 2 9.75 2C6.89653 2 4.58333 4.3132 4.58333 7.16667C4.58333 10.0201 6.89653 12.3333 9.75 12.3333ZM9.75 12.3333C8.24606 12.3333 6.76278 12.6835 5.41762 13.3561C4.07246 14.0287 2.90236 15.0052 2 16.2083M9.75 12.3333C11.2539 12.3333 12.7372 12.6835 14.0824 13.3561C15.4275 14.0287 16.5976 15.0052 17.5 16.2083C18.4024 15.0052 19.5725 14.0287 20.9176 13.3561C22.2628 12.6835 23.7461 12.3333 25.25 12.3333M25.25 29.125C28.1035 29.125 30.4167 26.8118 30.4167 23.9583C30.4167 21.1049 28.1035 18.7917 25.25 18.7917C22.3965 18.7917 20.0833 21.1049 20.0833 23.9583C20.0833 26.8118 22.3965 29.125 25.25 29.125ZM25.25 29.125C26.7539 29.125 28.2372 29.4752 29.5824 30.1477C30.9275 30.8203 32.0976 31.7968 33 33M25.25 12.3333C28.1035 12.3333 30.4167 10.0201 30.4167 7.16667C30.4167 4.3132 28.1035 2 25.25 2C22.3965 2 20.0833 4.3132 20.0833 7.16667C20.0833 10.0201 22.3965 12.3333 25.25 12.3333ZM25.25 12.3333C26.7539 12.3333 28.2372 12.6835 29.5824 13.3561C30.9275 14.0287 32.0976 15.0052 33 16.2083" stroke="white" stroke-width="3" stroke-linecap="round" stroke-linejoin="round"/>
</svg>
