<svg width="213" height="264" viewBox="0 0 213 264" fill="none" xmlns="http://www.w3.org/2000/svg">
<path d="M-6.46566 90.1448C-7.24599 95.2096 -6.9838 100.994 -5.70598 107.782C-4.37773 114.699 -1.73588 121.296 2.07686 127.214C4.89247 131.622 8.31161 135.613 12.235 139.071C18.089 144.21 24.0601 147.497 30.4749 149.12C36.6992 150.633 43.1646 150.897 49.4975 149.897C56.3008 148.887 62.8846 146.725 68.9651 143.502C74.6133 140.466 79.6211 136.364 83.7109 131.424C92.8183 120.587 98.1573 107.055 98.3706 94.3078C98.3909 92.8791 98.3279 91.4506 98.1821 90.0296C98.0948 88.6156 97.4691 87.2899 96.4336 86.3249C95.9348 85.7968 95.325 85.3861 94.6479 85.122C93.9709 84.858 93.2434 84.7473 92.5177 84.7978C86.2648 84.5098 79.8943 84.47 73.905 84.4591C66.9994 84.4441 59.4387 84.4963 50.1326 84.6215C42.7313 84.7278 34.9343 84.8696 26.3234 85.0757C20.1035 85.2016 13.7828 85.362 7.52217 85.5316C6.59448 85.5546 5.66752 85.5683 4.74056 85.5821C2.78866 85.6068 0.775227 85.6408 -1.18897 85.7628L-1.27334 85.7657C-3.78396 85.8789 -6.11768 87.8522 -6.46566 90.1448ZM6.16914 96.5326C12.0314 96.3748 18.0195 96.222 23.9826 96.0905C32.4004 95.9025 40.0765 95.7516 47.45 95.6432C56.7446 95.4843 64.4034 95.435 71.4834 95.4305C76.3513 95.4309 81.8593 95.4379 87.38 95.5815L87.3071 96.511L87.2955 96.6597L87.2406 97.0015L87.2056 97.4477C87.2005 97.5829 87.1884 97.7178 87.1693 97.8517C86.8043 100.746 86.1798 103.603 85.3034 106.387C85.1963 106.739 85.0506 107.107 84.9543 107.441L84.8623 107.719L84.8373 107.74L84.7971 107.836C84.7353 108.027 84.6326 108.323 84.5802 108.455C84.4316 108.86 84.2694 109.259 84.1072 109.658C83.5331 111.017 82.9289 112.402 82.2633 113.735C81.5976 115.068 80.8232 116.478 80.0374 117.792C79.6733 118.382 79.3349 118.941 78.9679 119.507C78.8978 119.567 78.8425 119.675 78.7744 119.768C78.5862 119.995 78.4255 120.243 78.2956 120.507L78.1172 120.756C76.408 123.172 74.5002 125.442 72.4136 127.541C71.9423 128.006 71.4926 128.434 71.0292 128.857C70.8488 129.012 70.6633 129.171 70.4829 129.325C70.2352 129.495 70.0066 129.691 69.8011 129.909C68.8137 130.695 67.797 131.436 66.7626 132.105C65.5849 132.871 64.3301 133.608 63.0517 134.287C62.5443 134.557 62.0382 134.808 61.5229 135.059L61.4377 135.132L61.2581 135.217C60.8802 135.384 60.5023 135.552 60.1208 135.705C57.4774 136.808 54.7493 137.696 51.9635 138.358C51.2823 138.517 50.5977 138.661 49.9273 138.802C49.7849 138.829 49.3286 138.864 49.2113 138.869C49.0785 138.878 48.9487 138.913 48.8292 138.971L48.5259 139.023C47.1022 139.228 45.6744 139.367 44.2703 139.443C42.8662 139.519 41.4293 139.536 40.0397 139.486C39.6807 139.473 39.3224 139.451 38.9591 139.432L38.7309 139.42C38.5135 139.389 38.2954 139.368 38.0773 139.347L36.8173 139.195C35.4232 138.994 34.0416 138.716 32.6787 138.361C32.0416 138.196 31.4111 138.008 30.7948 137.816L30.5854 137.744L30.5597 137.714L30.2687 137.608L29.7419 137.409C28.5079 136.911 27.3066 136.336 26.1453 135.686C25.6529 135.406 25.1441 135.096 24.4674 134.661L24.2051 134.487C23.7885 134.194 23.3727 133.891 22.9662 133.589C20.3327 131.628 17.8878 129.426 15.663 127.012L15.1874 126.457L15.0803 126.332C14.9227 126.076 14.7261 125.847 14.4976 125.652C14.0949 125.182 13.7144 124.667 13.3375 124.166C12.4908 123.036 11.6857 121.852 10.9436 120.641C10.2014 119.43 9.56432 118.311 8.9745 117.125L8.66637 116.522L8.50874 116.206C8.24637 115.616 7.98977 115.012 7.74243 114.409C6.85676 112.214 6.12717 109.959 5.55908 107.66C5.29522 106.612 5.0614 105.537 4.85979 104.47L4.78324 103.955C4.69813 103.449 4.62948 102.953 4.57724 102.466C4.36153 100.743 4.22591 99.0125 4.19186 97.2988L4.18569 96.6017L6.16914 96.5326Z" fill="#C6DF5F"/>
<path d="M82.8486 44.1526C85.4199 43.7146 88.0212 43.5647 90.6029 43.7058C92.033 43.787 93.7727 42.7738 94.6669 41.7816C95.6658 40.6677 96.206 39.2292 96.1741 37.7689C96.1544 37.027 95.9847 36.3026 95.675 35.6387C95.3654 34.9747 94.9221 34.3847 94.3715 33.9037L93.2825 33.1619L93.1953 33.111C92.3606 32.7044 91.4285 32.5157 90.4835 32.562C82.4742 32.2058 74.4446 34.2485 67.4302 38.4266C60.4158 42.6047 54.7383 48.7266 51.1297 56.0029C49.1639 59.9097 47.8511 64.0877 47.2446 68.3667C46.9573 69.7942 47.2014 71.2559 47.931 72.4764C48.7225 73.7052 49.9828 74.5544 51.4382 74.8394C52.1548 74.9781 52.8977 74.9732 53.6241 74.8252C54.3504 74.6772 55.0459 74.3889 55.6704 73.9769C56.3346 73.5 57.9227 72.198 58.1745 70.3745C58.496 68.0629 59.054 65.7806 59.8397 63.5635C60.8007 61.149 62.0219 58.8363 63.4813 56.667C66.4536 52.3836 70.51 48.9373 75.2167 46.6967C77.6674 45.5688 80.2277 44.7153 82.8486 44.1526Z" fill="#F79A71"/>
<path d="M131.058 192.374C121.049 196.627 110.062 197.907 100.341 191.498C97.6773 189.744 93.7864 191.496 92.4314 194.083C90.8197 197.149 92.357 200.249 94.9856 201.981C108.044 210.587 123.682 208.513 137.281 202.411C140.094 206.013 143.384 209.217 147.061 211.933C163.739 224.136 186.088 224.999 204.004 214.758C210.584 210.996 204.232 201.122 197.666 204.871C186.94 211.009 173.172 212.027 161.843 207.039C156.488 204.631 151.728 201.081 147.895 196.637C155.626 191.638 163.463 185.235 167.093 176.551C170.351 168.789 170.139 159.497 165.264 152.421C162.954 149.034 159.613 146.484 155.735 145.146C151.857 143.808 147.648 143.754 143.73 144.991C134.989 147.648 128.985 155.402 127.078 164.124C125.041 173.553 126.816 183.528 131.058 192.374ZM154.369 157.632C158.118 161.127 158.343 167.33 156.388 171.797C153.697 177.984 148.074 182.378 142.608 186.066C142.229 186.322 141.832 186.566 141.44 186.816C140.033 183.758 139.031 180.528 138.461 177.208C137.483 171.433 137.798 164.525 141.733 159.831C144.722 156.268 150.551 154.066 154.369 157.632Z" fill="#F07402"/>
<path d="M114.127 15.3098L136.092 36.1181L112.011 40.755C107.304 41.6602 107.016 47.8859 109.846 50.7155C110.346 51.2196 110.874 51.6839 111.384 52.1795C118.531 59.1418 126.31 65.4224 134.621 70.9395C127.426 74.7306 120.558 79.1094 114.085 84.0314C111.296 86.1701 110.102 90.8046 113.333 93.3169L141.231 115.013C147.151 119.618 155.042 110.957 149.052 106.29L126.96 89.1678C133.701 84.5154 140.848 80.4803 148.314 77.1115C152.934 75.0464 153.968 69.0188 149.221 66.2947C141.048 61.5706 133.344 56.0761 126.214 49.8865C134.183 48.3533 142.152 46.8201 150.121 45.287C154.739 44.398 155.197 38.1299 152.282 35.3215L146.377 29.7268L121.943 6.59143C116.434 1.40889 108.629 10.1003 114.127 15.3098Z" fill="#FED000"/>
<path d="M111.524 134.673C115.222 135.384 118.795 132.962 119.505 129.264C120.215 125.567 117.794 121.993 114.096 121.283C110.398 120.573 106.825 122.995 106.115 126.692C105.405 130.39 107.826 133.963 111.524 134.673Z" fill="#FE027B"/>
</svg>
