<svg width="199" height="252" viewBox="0 0 199 252" fill="none" xmlns="http://www.w3.org/2000/svg">
<path d="M30.987 77.585C27.453 76.5482 23.7087 79.8056 23.1102 83.1774C22.4147 87.1777 25.0996 90.1004 28.6498 91.1372C52.5066 98.1419 78.7894 84.7938 87.1837 61.1347C91.1401 49.8908 90.9215 37.5797 86.5685 26.4861C82.2154 15.3926 74.0235 6.26995 63.513 0.811295C55.709 -3.27068 49.9187 9.17118 57.6823 13.2531C72.9182 21.262 80.6494 40.0309 74.4305 56.4323C67.6617 74.2787 48.9402 82.859 30.987 77.585Z" fill="#E6F2DE"/>
<path d="M49.7895 204.133C51.5519 213.116 53.6201 224.193 48.9365 232.694C45.0657 239.722 37.1391 240.809 32.5923 233.974C27.0074 225.586 28.9549 214.09 26.4763 204.712C24.0621 195.519 18.5657 186.825 9.14227 183.782C0.853479 181.061 -3.99908 193.732 4.31385 196.461C12.1278 198.973 13.681 208.013 14.5421 215.169C15.6124 224.386 16.1918 233.531 21.4306 241.509C31.7071 257.158 52.7671 254.598 61.1283 238.49C70.3023 220.828 61.7721 200.945 59.6073 182.728C58.6819 174.863 58.8026 165.75 63.7678 159.149C67.4857 154.239 74.6398 150.197 80.6673 153.458C87.4754 157.145 89.3826 166.78 90.646 173.663C92.505 183.758 94.3076 193.788 100.979 201.999C106.507 208.753 116.953 200.1 111.44 193.321C105.735 186.342 105.252 176.996 103.498 168.495C101.888 160.864 99.2647 152.918 93.9374 147.034C82.0595 133.912 62.7217 137.961 52.7751 151.26C41.1949 166.668 46.4257 186.986 49.7895 204.133Z" fill="#FD8199"/>
<path d="M104.639 115.275L136.838 101.287C134.818 110.629 132.794 119.976 130.763 129.329C129.576 134.803 136.079 137.991 140.392 136.259C141.2 135.958 141.903 135.6 142.662 135.283C153.357 130.832 163.615 125.383 173.302 119.009C174.055 128.502 175.584 137.917 177.875 147.157C178.876 151.142 183.279 154.566 187.447 152.248L223.386 132.298C231.004 128.061 225.365 115.576 217.667 119.854L189.232 135.633C187.352 126.235 186.319 116.686 186.146 107.102C186.058 101.181 180.104 97.277 175.023 101.116C166.25 107.723 156.869 113.47 147.008 118.277L153.043 90.4452C154.206 85.0693 147.727 81.6452 143.405 83.5158L134.738 87.2733L98.8791 102.832C90.8333 106.321 96.5607 118.765 104.639 115.275Z" fill="#FED000"/>
</svg>
