<svg width="986" height="262" viewBox="0 0 986 262" fill="none" xmlns="http://www.w3.org/2000/svg">
<path fill-rule="evenodd" clip-rule="evenodd" d="M986 135.945C985.136 174.667 970.925 206.927 945.096 229.728C921.847 250.384 889.98 262 855.966 262C788.752 262 721.202 216.829 721.202 130.778C721.202 98.0868 709.2 70.9817 687.187 51.6568C666.951 34.4539 640.246 24.9833 610.972 24.9833C558.449 24.9833 502.038 58.55 502.038 132.541C502.038 172.545 488.259 206.1 461.998 229.764C438.749 250.384 407.303 261.605 373.696 261.605C307.382 261.605 240.217 216.433 240.217 129.532C240.217 56.4041 184.249 23.269 132.579 23.269C80.0802 23.2331 23.2247 57.2193 23.2247 132.133H0C0 91.6971 14.643 57.2793 41.7685 33.1832C65.8814 12.1081 98.1799 0.0600586 132.615 0.0600586C166.63 0.0600586 198.496 11.6765 222.177 32.7516C248.87 55.9846 263.081 89.5393 263.081 129.556C263.081 204.409 320.777 238.827 373.732 238.827C401.721 238.827 427.551 229.356 446.491 212.585C467.591 193.656 478.789 166.119 478.789 132.565C478.789 92.1287 493 58.1304 520.558 34.4779C544.238 13.3908 576.525 1.77435 610.972 1.77435C645.419 1.77435 678.186 13.3908 702.19 34.0463C729.796 57.7108 744.391 91.2656 744.391 130.838C744.451 205.26 802.183 238.827 855.966 238.827C884.387 238.827 910.649 229.356 930.021 212.585C950.689 194.087 961.887 167.846 962.739 136.005L986 135.945Z" fill="#B8B8B8"/>
</svg>
