<svg width="75" height="82" viewBox="0 0 75 82" fill="none" xmlns="http://www.w3.org/2000/svg">
<path d="M17.5891 29.45C20.0396 25.8181 19.0818 20.8874 15.4499 18.437C11.818 15.9866 6.88733 16.9443 4.4369 20.5762C1.98647 24.2081 2.94423 29.1388 6.57612 31.5892C10.208 34.0397 15.1387 33.0819 17.5891 29.45Z" fill="#FE027B"/>
<path d="M12.7221 56.6944C10.3429 54.6109 6.21392 55.7868 4.54211 58.1928C2.57191 61.0582 3.62846 64.2912 6.04275 66.3593C22.2147 80.4223 47.5791 79.5681 62.609 64.1957C69.7366 56.8862 73.9745 47.2322 74.5344 37.0294C75.0943 26.8266 71.9381 16.7696 65.6529 8.72892C61.0274 2.7792 52.0179 10.3405 56.6131 16.3195C65.6864 28.0563 65.0117 45.4447 54.2737 55.9493C42.6129 67.3832 24.8867 67.2862 12.7221 56.6944Z" fill="#E6F2DE"/>
</svg>
