<svg width="41" height="25" viewBox="0 0 41 25" fill="none" xmlns="http://www.w3.org/2000/svg">
<path opacity="0.5" d="M24.8941 4.84729L24.8941 -1.15003e-06L25.9859 -1.07179e-06C34.9391 -4.30283e-07 40.9443 5.02682 40.9443 13.6442C40.9443 21.0947 36.4677 24.2364 31.1176 24.2364C26.0951 24.2364 22.6012 21.4537 22.6012 17.5041C22.6012 13.5545 26.3135 10.4127 32.8646 10.4127C32.8646 6.73234 30.6809 5.02682 24.8941 4.84729ZM18.3429 13.6442C18.3429 21.0947 13.8663 24.2364 8.51623 24.2364C3.49369 24.2364 -0.000246429 21.4537 -0.000246008 17.5041C-0.000245586 13.5545 3.71207 10.4127 10.2632 10.4127C10.2632 6.73234 8.07949 5.02681 2.29265 4.84729L2.29265 -2.76946e-06L3.38451 -2.69122e-06C12.3377 -2.04971e-06 18.3429 5.02681 18.3429 13.6442Z" fill="#A57AAB"/>
</svg>
