<svg width="104" height="103" viewBox="0 0 104 103" fill="none" xmlns="http://www.w3.org/2000/svg">
<path d="M28.157 51.482C28.67 51.7825 29.3284 51.609 29.6278 51.0945C29.9272 50.58 29.7541 49.9194 29.2411 49.6189C28.7282 49.3183 28.0697 49.4918 27.7704 50.0063C27.471 50.5208 27.6441 51.1814 28.157 51.482Z" fill="#A57AAA"/>
<path d="M65.6867 49.077C66.1932 49.3737 66.8435 49.2024 67.1392 48.6943C67.4348 48.1862 67.2638 47.5338 66.7573 47.237C66.2508 46.9402 65.6005 47.1115 65.3048 47.6196C65.0092 48.1277 65.1801 48.7802 65.6867 49.077Z" fill="#A57AAA"/>
<path d="M70.0921 50.8662C70.6464 51.0804 71.2686 50.8033 71.482 50.2473C71.6953 49.6914 71.4189 49.067 70.8646 48.8528C70.3104 48.6386 69.6881 48.9157 69.4748 49.4717C69.2615 50.0277 69.5379 50.652 70.0921 50.8662Z" fill="#A57AAA"/>
<path d="M27.3355 34.855C27.459 34.9284 27.5958 34.9766 27.7379 34.9968C27.88 35.0169 28.0247 35.0087 28.1637 34.9726C28.3026 34.9364 28.433 34.8731 28.5474 34.7862C28.6618 34.6992 28.758 34.5905 28.8303 34.4662C30.265 33.1171 32.0873 32.2564 34.0381 32.0064C35.9888 31.7564 37.9687 32.1299 39.6961 33.0737C46.5612 36.576 49.2411 50.4745 49.2411 50.4745L51.1707 57.3541C52.3336 61.6432 54.544 66.6313 58.7108 68.9484C66.7814 73.4363 72.129 67.3833 72.1175 67.3765C72.1582 67.3204 72.1931 67.2603 72.2218 67.1971C72.3674 66.947 72.4079 66.6491 72.3345 66.3689C72.2611 66.0887 72.0797 65.8492 71.8304 65.7031C71.5805 65.5567 71.283 65.5154 71.0029 65.5883C70.7229 65.6611 70.4829 65.8422 70.3355 66.092C68.9008 67.441 67.0785 68.3017 65.1278 68.5517C63.177 68.8017 61.1972 68.4283 59.4698 67.4845C52.5989 63.9788 49.8859 50.0841 49.8859 50.0841L47.9952 43.204C46.8265 38.9116 44.6161 33.9235 40.4493 31.6064C32.3787 27.1184 27.0345 33.1657 27.0426 33.1783C27.002 33.2344 26.967 33.2945 26.9383 33.3576C26.8659 33.482 26.8188 33.6194 26.7996 33.7621C26.7804 33.9048 26.7895 34.05 26.8265 34.1891C26.8634 34.3283 26.9274 34.4588 27.0147 34.5731C27.1021 34.6873 27.2111 34.7832 27.3355 34.855Z" fill="#A57AAA"/>
<path d="M24.3917 38.957C25.0002 39.3135 25.7814 39.1077 26.1365 38.4974C26.4917 37.887 26.2863 37.1032 25.6778 36.7467C25.0693 36.3902 24.2881 36.596 23.933 37.2064C23.5778 37.8167 23.7832 38.6005 24.3917 38.957Z" fill="#A57AAA"/>
<path d="M23.3943 42.0269C23.239 42.294 23.1957 42.612 23.2741 42.9111C23.3525 43.2102 23.546 43.4658 23.8122 43.6218C24.0784 43.7777 24.3954 43.8212 24.6935 43.7427C24.9916 43.6642 25.2464 43.4701 25.4018 43.2031C25.5571 42.9361 25.6004 42.618 25.522 42.3189C25.4436 42.0198 25.2501 41.7642 24.9839 41.6082C24.7177 41.4523 24.4007 41.4088 24.1026 41.4873C23.8045 41.5658 23.5497 41.7599 23.3943 42.0269Z" fill="#A57AAA"/>
<path d="M26.7503 47.6785C26.8307 47.5419 26.8834 47.3907 26.9052 47.2336C26.927 47.0765 26.9175 46.9165 26.8773 46.7631C26.8371 46.6097 26.767 46.4657 26.671 46.3397C26.5749 46.2136 26.4549 46.1078 26.3179 46.0286C26.0425 45.8673 25.7146 45.8223 25.4062 45.9035C25.0979 45.9847 24.8343 46.1855 24.6736 46.4618C24.5129 46.738 24.4681 47.067 24.5492 47.3764C24.6303 47.6858 24.8305 47.9502 25.1059 48.1116C25.242 48.1924 25.3928 48.2453 25.5494 48.2672C25.706 48.2891 25.8654 48.2797 26.0183 48.2394C26.1712 48.1991 26.3147 48.1288 26.4403 48.0325C26.566 47.9362 26.6713 47.8159 26.7503 47.6785Z" fill="#A57AAA"/>
<path d="M32.4538 53.1769C32.9635 53.4756 33.6179 53.3032 33.9154 52.7919C34.2129 52.2806 34.0409 51.624 33.5311 51.3254C33.0214 51.0268 32.367 51.1991 32.0695 51.7104C31.772 52.2217 31.944 52.8783 32.4538 53.1769Z" fill="#A57AAA"/>
<path d="M37.1757 53.416C37.666 53.5665 38.185 53.2897 38.3348 52.7978C38.4846 52.3059 38.2086 51.7852 37.7182 51.6347C37.2279 51.4842 36.7089 51.761 36.559 52.2529C36.4092 52.7448 36.6853 53.2655 37.1757 53.416Z" fill="#A57AAA"/>
<path d="M41.2261 52.6837C41.6115 52.9096 42.1064 52.7792 42.3314 52.3926C42.5564 52.0059 42.4263 51.5094 42.0408 51.2835C41.6553 51.0577 41.1604 51.188 40.9355 51.5747C40.7105 51.9614 40.8406 52.4579 41.2261 52.6837Z" fill="#A57AAA"/>
<path d="M44.8967 50.8154C44.8074 50.9688 44.7826 51.1516 44.8276 51.3235C44.8726 51.4954 44.9839 51.6423 45.1369 51.7319C45.2899 51.8216 45.4721 51.8466 45.6434 51.8014C45.8147 51.7563 45.9611 51.6447 46.0504 51.4913C46.1397 51.3378 46.1646 51.1551 46.1195 50.9832C46.0745 50.8113 45.9632 50.6644 45.8102 50.5747C45.6572 50.4851 45.475 50.4601 45.3037 50.5052C45.1324 50.5504 44.986 50.6619 44.8967 50.8154Z" fill="#A57AAA"/>
<path d="M53.3061 49.8691C53.4591 49.9587 53.6413 49.9837 53.8126 49.9386C53.9839 49.8934 54.1304 49.7819 54.2197 49.6284C54.3089 49.475 54.3338 49.2922 54.2888 49.1203C54.2437 48.9484 54.1325 48.8015 53.9795 48.7118C53.8265 48.6222 53.6443 48.5972 53.473 48.6423C53.3017 48.6875 53.1553 48.799 53.066 48.9525C52.9767 49.1059 52.9518 49.2887 52.9969 49.4606C53.0419 49.6325 53.1531 49.7794 53.3061 49.8691Z" fill="#A57AAA"/>
<path d="M57.1241 49.1965C57.5096 49.4223 58.0045 49.292 58.2295 48.9053C58.4544 48.5186 58.3243 48.0221 57.9389 47.7963C57.5534 47.5704 57.0585 47.7008 56.8335 48.0874C56.6085 48.4741 56.7386 48.9706 57.1241 49.1965Z" fill="#A57AAA"/>
<path d="M61.2608 48.6408C61.7036 48.9002 62.2721 48.7505 62.5306 48.3063C62.789 47.8621 62.6396 47.2917 62.1967 47.0323C61.7539 46.7728 61.1854 46.9226 60.927 47.3668C60.6685 47.811 60.818 48.3814 61.2608 48.6408Z" fill="#A57AAA"/>
<path d="M73.2218 54.2815C73.7897 54.4558 74.3909 54.1353 74.5644 53.5655C74.7379 52.9957 74.4182 52.3925 73.8502 52.2183C73.2822 52.044 72.6811 52.3646 72.5076 52.9343C72.334 53.5041 72.6538 54.1072 73.2218 54.2815Z" fill="#A57AAA"/>
<path d="M74.2623 58.9581C74.8166 59.2829 75.5283 59.0955 75.8518 58.5394C76.1753 57.9834 75.9882 57.2694 75.4339 56.9446C74.8796 56.6198 74.1679 56.8073 73.8444 57.3633C73.5208 57.9193 73.7079 58.6334 74.2623 58.9581Z" fill="#A57AAA"/>
<path d="M71.8317 63.7781C72.4909 64.0334 73.2314 63.7043 73.4856 63.043C73.7399 62.3817 73.4116 61.6387 72.7523 61.3834C72.0931 61.1281 71.3526 61.4572 71.0984 62.1185C70.8441 62.7798 71.1724 63.5228 71.8317 63.7781Z" fill="#A57AAA"/>
<path d="M3.07314 66.0899C2.97344 66.3933 2.97859 66.7216 3.08781 67.0217C3.45822 68.1 4.44051 67.7677 5.21847 67.4942L15.6088 63.9146L16.2559 65.8066L6.46807 69.1884C6.13217 69.3308 5.76963 69.3989 5.40508 69.3881C5.04053 69.3772 4.68256 69.2877 4.35556 69.1256C4.02856 68.9634 3.74021 68.7325 3.51014 68.4485C3.28007 68.1646 3.11367 67.8342 3.02231 67.4799C2.8692 67.0223 2.79296 66.5424 2.7967 66.0598L3.07314 66.0899Z" fill="#94A68C"/>
<path d="M11.0657 77.4915C10.2952 77.1447 9.64283 76.5791 9.18913 75.8645C8.25488 74.293 9.51853 73.4506 10.0975 73.107L14.2976 70.5946L15.3674 72.1059L10.7783 74.8482C10.1652 75.2105 9.76801 75.7071 10.2486 76.5162C10.4814 76.8853 10.8144 77.1801 11.2085 77.3657L16.4573 74.2341L17.5272 75.7453L11.447 79.3752L10.6425 78.0194L11.0657 77.4915Z" fill="#94A68C"/>
<path d="M28.3527 81.7465C30.5077 83.2806 31.3654 85.0633 30.1491 86.7946C29.8892 87.1702 29.5545 87.4877 29.1661 87.727C28.7777 87.9663 28.3442 88.1223 27.8927 88.185C27.4412 88.2478 26.9815 88.216 26.5428 88.0917C26.1041 87.9674 25.6958 87.7533 25.3437 87.4628C24.8865 87.1306 24.4786 86.7349 24.1324 86.2876L21.6118 89.8617L19.9688 88.6974L26.0348 80.0936L28.3527 81.7465ZM24.2295 86.1738C24.5587 86.4843 24.9069 86.7739 25.2721 87.0407L25.5836 87.2232C26.6312 87.3637 27.6962 86.7696 28.5138 85.6038C30.1875 83.2327 28.4555 82.0084 27.9691 81.6614L27.6028 81.4002L24.2295 86.1738Z" fill="#94A68C"/>
<path d="M33.659 95.8104C33.0131 96.0077 32.3217 95.9962 31.6826 95.7775C31.4176 95.6845 31.174 95.5388 30.9665 95.3491C30.759 95.1594 30.5918 94.9296 30.475 94.6734C30.3582 94.4173 30.2942 94.1402 30.2868 93.8587C30.2793 93.5772 30.3286 93.2971 30.4318 93.0352C30.946 91.6994 32.3706 91.7504 33.2936 92.1049C33.8051 92.3145 34.2679 92.628 34.653 93.0256L35.1417 91.7602C35.3428 91.2418 35.8215 89.9938 34.163 89.348C33.6025 89.1318 32.9868 89.1063 32.4106 89.2756L32.364 89.0233C33.3507 88.9245 34.347 89.0543 35.276 89.4027C37.6849 90.3407 37.0427 91.9895 36.7184 92.8391L35.1069 96.938L33.6003 96.3501L33.659 95.8104ZM34.6198 93.2156C34.3348 92.9324 33.9943 92.7118 33.6199 92.5677C32.9853 92.4752 32.4747 92.7812 32.1437 93.6425C31.8127 94.5037 31.9428 95.317 32.7081 95.6102C33.0245 95.731 33.3735 95.7346 33.6923 95.6205L34.6198 93.2156Z" fill="#94A68C"/>
<path d="M41.2481 91.4353L42.7342 91.4602L42.9224 92.3464C43.2121 92.1032 43.55 91.9244 43.9136 91.8219C44.2773 91.7193 44.6585 91.6953 45.0322 91.7515C46.8918 91.972 47.8458 93.4697 47.6188 95.4548C47.3322 97.9015 45.491 99.1116 44.0031 98.9304C43.3639 98.8232 42.7718 98.5249 42.3042 98.0747L41.8475 101.997L40.0327 101.779L41.2481 91.4353ZM42.3394 97.8548C42.6139 98.0578 42.9261 98.2038 43.2576 98.2841C44.3157 98.2601 45.4443 97.4239 45.6996 95.2304C45.8938 93.5674 45.4277 92.3478 44.1325 92.1942C43.9261 92.1634 43.7155 92.1754 43.5138 92.2294C43.3121 92.2834 43.1236 92.3782 42.9599 92.508L42.3394 97.8548Z" fill="#94A68C"/>
<path d="M51.399 92.1222L52.8414 91.7569L53.2517 92.5404C53.4687 92.2303 53.7487 91.9698 54.0734 91.7761C54.398 91.5825 54.7599 91.4602 55.1352 91.4172C56.9911 91.139 58.2966 92.3384 58.5942 94.3127C58.9546 96.7507 57.4715 98.3955 56.0148 98.6127C55.3682 98.6822 54.716 98.5494 54.1475 98.2325L54.7274 102.141L52.923 102.411L51.399 92.1222ZM54.1384 98.0487C54.4584 98.1682 54.7982 98.225 55.1394 98.2162C56.1611 97.9225 57.0287 96.8171 56.7056 94.6338C56.4565 92.975 55.6923 91.9221 54.399 92.1109C54.1925 92.1345 53.993 92.2003 53.8128 92.3042C53.6326 92.4081 53.4755 92.548 53.3512 92.7151L54.1384 98.0487Z" fill="#94A68C"/>
<path d="M61.121 86.7001C61.2411 86.6524 61.3697 86.6295 61.4989 86.6331C61.628 86.6366 61.7552 86.6664 61.8726 86.7207C61.99 86.775 62.0952 86.8526 62.1818 86.9488C62.2684 87.0451 62.3347 87.1579 62.3766 87.2806C62.4251 87.4017 62.4485 87.5314 62.4452 87.6618C62.442 87.7923 62.4122 87.9206 62.3578 88.0391C62.3033 88.1576 62.2253 88.2636 62.1286 88.3508C62.0318 88.4379 61.9183 88.5043 61.7951 88.5459C61.6741 88.5929 61.5449 88.6148 61.4153 88.6104C61.2857 88.606 61.1583 88.5753 61.0408 88.5202C60.9233 88.4651 60.8181 88.3868 60.7315 88.2899C60.6449 88.1929 60.5788 88.0795 60.537 87.9562C60.49 87.8355 60.4679 87.7065 60.4721 87.577C60.4762 87.4475 60.5065 87.3202 60.5611 87.2028C60.6157 87.0853 60.6934 86.9802 60.7897 86.8938C60.8859 86.8075 60.9986 86.7415 61.121 86.7001ZM61.351 90.0003L63.0266 89.2209L65.4703 95.8819L63.747 96.5171L61.351 90.0003Z" fill="#94A68C"/>
<path d="M10.6358 23.1701L8.374 26.1665C9.28908 27.4784 10.1724 28.7253 10.3993 29.0134L10.2579 29.2564L4.02588 20.0267L4.71697 19.1049L15.247 22.6364L13.9831 24.3166L10.6358 23.1701ZM10.4689 23.1111L5.06021 21.2534L7.59732 25.0287C7.59732 25.0287 8.00585 25.6559 8.27019 26.0125L10.4689 23.1111Z" fill="#94A68C"/>
<path d="M20.9208 15.7037C20.9883 16.2853 20.9103 16.8746 20.6938 17.4183C20.4774 17.962 20.1293 18.443 19.6811 18.8179C18.9509 19.4443 18.0036 19.7562 17.0452 19.6857C16.0868 19.6153 15.1947 19.1682 14.5629 18.4416C14.2492 18.068 14.0133 17.6351 13.8693 17.1685C13.7253 16.7019 13.676 16.211 13.7244 15.7251C13.7728 15.2391 13.9179 14.7678 14.151 14.3391C14.3842 13.9104 14.7008 13.5331 15.0819 13.2294C15.7264 12.694 16.4798 12.3066 17.2894 12.0943L17.8813 13.5893C16.936 13.4516 15.9776 13.4294 15.027 13.5231C14.2139 14.2958 14.6174 15.5563 15.6493 16.7738C16.997 18.3393 18.7507 19.0875 19.9842 18.0179C20.3138 17.7506 20.5555 17.3899 20.6779 16.9828C20.8003 16.5757 20.7976 16.141 20.6703 15.7354L20.9208 15.7037Z" fill="#94A68C"/>
<path d="M21.9826 12.3767C21.5206 11.5292 21.412 10.5328 21.6806 9.60536C21.9491 8.67797 22.5729 7.89518 23.4155 7.42832C23.8317 7.19353 24.29 7.04338 24.7642 6.98644C25.2383 6.9295 25.719 6.96689 26.1788 7.09649C26.6386 7.22608 27.0685 7.44533 27.4438 7.74169C27.8192 8.03806 28.1326 8.40573 28.3662 8.82367C28.8285 9.67117 28.9366 10.668 28.6668 11.5952C28.3971 12.5224 27.7715 13.3041 26.9275 13.7687C26.0879 14.2413 25.0955 14.3602 24.1683 14.0992C23.2411 13.8382 22.455 13.2187 21.9826 12.3767ZM26.9718 13.5464C27.8773 12.8277 27.6833 11.5658 26.9115 10.1671C25.9033 8.35054 24.4723 7.28713 23.3121 7.68583C22.436 8.36734 22.6828 9.64471 23.4748 11.1018C24.4772 12.915 25.7746 14.0087 26.9718 13.5464Z" fill="#94A68C"/>
<path d="M39.1497 3.65107C39.0666 3.31532 38.7933 2.3095 37.7976 2.5718C37.5667 2.6431 37.355 2.76606 37.1784 2.93139C37.0018 3.09671 36.8649 3.3001 36.7781 3.52624C36.9089 3.783 37.0109 4.05353 37.0822 4.33287L38.3493 9.18731L36.5391 9.63965L35.2514 4.68776C35.1625 4.34863 34.8949 3.3462 33.8992 3.60849C33.6896 3.66995 33.4953 3.77497 33.3288 3.91672C33.1624 4.05848 33.0276 4.23379 32.9331 4.43128L34.4323 10.1898L32.66 10.6566L30.9087 3.93573L32.2738 3.42429L32.8476 4.27254C33.2743 3.53458 33.9722 2.99375 34.7917 2.76591C35.1229 2.63078 35.4908 2.6158 35.8319 2.72359C36.173 2.83138 36.466 3.05517 36.6603 3.35638C36.8737 2.96705 37.1621 2.62423 37.5089 2.34785C37.8556 2.07148 38.2537 1.8671 38.68 1.74657C40.4065 1.29176 40.7908 2.75825 40.9325 3.29903L42.1963 8.15927L40.4298 8.62949L39.1497 3.65107Z" fill="#94A68C"/>
<path d="M45.3619 0.990736L46.8423 0.826149L47.1329 1.65593C47.3932 1.37883 47.7095 1.16058 48.0605 1.01573C48.4115 0.870885 48.7893 0.802761 49.1687 0.815902C51.0495 0.800586 52.1795 2.16865 52.2045 4.14622C52.225 6.60999 50.5228 8.03334 49.0554 8.04263C48.4059 8.02094 47.7787 7.79968 47.2585 7.40876L47.2854 11.3504L45.4642 11.3696L45.3619 0.990736ZM47.2379 7.21825C47.5365 7.38302 47.8642 7.48803 48.2027 7.52748C49.2547 7.36795 50.2626 6.40677 50.2496 4.19575C50.2294 2.51578 49.621 1.36797 48.3152 1.37879C48.1073 1.37294 47.9004 1.41005 47.7074 1.48786C47.5144 1.56566 47.3395 1.68249 47.1935 1.83106L47.2379 7.21825Z" fill="#94A68C"/>
<path d="M58.779 8.44036C58.1771 8.74551 57.4948 8.85327 56.8284 8.74841C56.552 8.70036 56.288 8.59719 56.052 8.44496C55.816 8.29273 55.6128 8.09454 55.4545 7.86217C55.2962 7.62979 55.1859 7.36794 55.1303 7.09209C55.0746 6.81624 55.0746 6.53198 55.1304 6.25619C55.4 4.8624 56.8284 4.66741 57.8274 4.86478C58.3667 4.9838 58.8757 5.21332 59.3225 5.53897L59.5891 4.19004C59.6994 3.6417 59.9607 2.32846 58.2142 1.98017C57.615 1.85228 56.9904 1.93219 56.4425 2.20681L56.3502 1.96655C57.3091 1.69859 58.3172 1.65952 59.294 1.85248C61.8261 2.36618 61.4848 4.0826 61.3264 5.00618L60.4692 9.33752L58.8856 9.01488L58.779 8.44036ZM59.2868 5.71984C58.9588 5.48747 58.5857 5.32701 58.1917 5.24893C57.5528 5.27026 57.0993 5.66406 56.9246 6.56254C56.7499 7.46102 57.0045 8.24641 57.8083 8.40701C58.1415 8.47305 58.4872 8.41676 58.7824 8.2484L59.2868 5.71984Z" fill="#94A68C"/>
<path d="M66.3037 3.85677L67.7041 4.28154L67.6365 5.32818C68.4951 5.01189 69.4402 5.0265 70.2889 5.36924C72.0171 6.0947 71.4394 7.48638 71.22 8.00959L69.292 12.6524L67.5902 11.9346L69.5654 7.21086C69.7145 6.84823 70.0941 5.93008 69.0278 5.47607C68.7977 5.37983 68.5502 5.33267 68.3009 5.33759C68.0517 5.34251 67.8063 5.39942 67.5802 5.50467L65.3 10.9653L63.6065 10.2601L66.3037 3.85677Z" fill="#94A68C"/>
<path d="M78.6132 12.4653C78.8085 12.1297 79.3875 11.3207 78.4588 10.6834C78.2488 10.5408 78.0119 10.4428 77.7627 10.3956C77.5135 10.3483 77.2573 10.3528 77.0099 10.4087L73.6813 15.2783L72.1796 14.2433L78.1312 5.55705L79.706 6.47969L77.1315 10.2394C78.0249 10.1136 78.9332 10.3226 79.6828 10.8264C81.2273 11.8943 80.3751 13.1329 80.0577 13.5986L77.2221 17.7407L75.718 16.6966L78.6132 12.4653Z" fill="#94A68C"/>
<path d="M82.5855 22.1089C81.9179 22.0117 81.2966 21.71 80.8064 21.245C80.6063 21.0478 80.4477 20.8124 80.3399 20.5528C80.2321 20.2931 80.1773 20.0144 80.1787 19.7331C80.1801 19.4518 80.2378 19.1737 80.3482 18.9152C80.4586 18.6567 80.6195 18.423 80.8215 18.228C81.8496 17.2321 83.1187 17.8825 83.8344 18.62C84.208 19.0274 84.4948 19.5069 84.6773 20.0293L85.6737 19.0614C86.07 18.6728 87.0313 17.7386 85.797 16.4569C85.371 16.0134 84.8109 15.7234 84.2039 15.6321L84.2707 15.3842C85.2108 15.7149 86.0611 16.2609 86.754 16.9788C88.5632 18.8146 87.286 20.0526 86.6306 20.7004L83.4635 23.7638L82.344 22.6036L82.5855 22.1089ZM84.5494 20.1561C84.409 19.7797 84.1927 19.4364 83.9141 19.1477C83.3373 18.8097 82.78 18.8634 82.151 19.519C81.522 20.1746 81.2713 20.951 81.8409 21.5408C82.0747 21.7878 82.3909 21.9399 82.7293 21.9681L84.5494 20.1561Z" fill="#94A68C"/>
<path d="M94.0744 30.5858C94.3759 30.4133 95.2573 29.8822 94.7459 28.993C94.618 28.7911 94.4461 28.621 94.2432 28.4954C94.0403 28.3698 93.8117 28.292 93.5745 28.2679C93.366 28.4535 93.1387 28.6168 92.8965 28.7551L88.5694 31.2863L87.6486 29.6917L92.0507 27.1113C92.3464 26.9354 93.2369 26.402 92.7222 25.5186C92.6064 25.3318 92.4525 25.1718 92.2705 25.0492C92.0885 24.9265 91.8827 24.844 91.6666 24.807L86.5491 27.8061L85.6249 26.2172L91.5912 22.73L92.4519 23.9094L91.7912 24.686C92.6161 24.9056 93.3241 25.4372 93.7668 26.1693C93.9824 26.4543 94.0935 26.8051 94.0814 27.1627C94.0692 27.5202 93.9345 27.8625 93.7 28.1319C94.1308 28.2325 94.5375 28.4179 94.8963 28.6775C95.2552 28.937 95.5592 29.2655 95.7905 29.6438C96.6901 31.195 95.39 31.9539 94.911 32.232L90.5931 34.7607L89.6656 33.1777L94.0744 30.5858Z" fill="#94A68C"/>
<path d="M94.7319 43.4003C94.1752 43.2229 93.6713 42.9091 93.2658 42.4873C92.8602 42.0655 92.5659 41.5489 92.4094 40.9844C92.1434 40.0568 92.2527 39.0615 92.7137 38.2145C93.1746 37.3676 93.95 36.7373 94.8715 36.4605C95.3359 36.3293 95.8218 36.2922 96.3007 36.3514C96.7796 36.4106 97.242 36.5648 97.6608 36.8052C98.0797 37.0456 98.4467 37.3672 98.7404 37.7514C99.0341 38.1355 99.2486 38.5745 99.3714 39.0426C100.045 41.3539 98.1101 42.3536 97.123 42.5744L95.8211 38.1651C93.9503 38.7216 92.55 40.0116 93.0112 41.5852C93.1213 41.9932 93.3498 42.3592 93.6677 42.6366C93.9856 42.914 94.3785 43.0903 94.7964 43.1432L94.7319 43.4003ZM96.7384 40.6965C97.748 40.4501 99.1607 39.7105 99.098 38.7815C98.8674 37.9947 97.5833 37.7157 95.9962 38.1436L96.7384 40.6965Z" fill="#94A68C"/>
<path d="M100.816 46.1969L101.086 47.6349L100.133 48.0622C100.807 48.6788 101.228 49.5254 101.312 50.4364C101.466 52.3114 99.9707 52.4359 99.4111 52.4805L94.4215 52.8933L94.271 51.0517L99.3567 50.6331C99.5266 50.6556 99.6994 50.6394 99.8622 50.5858C100.025 50.5322 100.174 50.4425 100.297 50.3234C100.421 50.2042 100.516 50.0587 100.576 49.8976C100.636 49.7366 100.659 49.564 100.643 49.3928C100.62 49.1437 100.546 48.9019 100.427 48.6824C100.307 48.4629 100.144 48.2702 99.9472 48.1161L94.0672 48.597L93.9158 46.7703L100.816 46.1969Z" fill="#94A68C"/>
<path d="M100.541 60.7073C100.577 60.4724 100.726 59.4191 100.797 58.793L95.0876 58.2491C94.9779 58.2211 94.8634 58.2187 94.7527 58.242C94.642 58.2653 94.538 58.3138 94.4489 58.3836C94.3597 58.4534 94.2877 58.5428 94.2383 58.6449C94.1889 58.7469 94.1634 58.859 94.1638 58.9725C94.144 59.3615 94.2687 59.7441 94.5136 60.0464L94.2732 60.1538C93.9984 59.5456 93.8789 58.8783 93.9255 58.2122C94.074 56.7475 95.0342 56.3868 96.1111 56.4901L100.984 56.9555L101.044 56.2146L101.214 56.2287L101.154 56.9696L101.99 57.0482L103.471 59.0488L100.981 58.8081L100.797 60.733L100.541 60.7073Z" fill="#94A68C"/>
<path d="M97.0129 63.0624C97.939 63.3269 98.7227 63.9494 99.1919 64.7931C99.6611 65.6368 99.7774 66.6327 99.5152 67.5621C99.2615 68.4937 98.6496 69.2861 97.8139 69.7653C96.9781 70.2445 95.9869 70.3713 95.0578 70.1178C94.5988 69.9876 94.1698 69.7678 93.7955 69.4711C93.4211 69.1743 93.1088 68.8064 92.8763 68.3884C92.6439 67.9705 92.4959 67.5106 92.4409 67.0353C92.3858 66.5599 92.4247 66.0783 92.5555 65.6181C92.8092 64.6865 93.4211 63.8941 94.2568 63.4149C95.0926 62.9357 96.0838 62.8089 97.0129 63.0624ZM92.6838 65.8096C92.559 66.9546 93.5911 67.7067 95.1232 68.1311C97.1197 68.6879 98.8794 68.4154 99.4032 67.3025C99.54 66.2033 98.459 65.4691 96.8557 65.0341C94.8486 64.4556 93.1437 64.6205 92.655 65.7928L92.6838 65.8096Z" fill="#94A68C"/>
<path d="M1.65236 48.2196C2.58581 48.7665 3.78417 48.4509 4.32898 47.5146C4.87379 46.5783 4.55874 45.3759 3.62529 44.829C2.69184 44.2821 1.49347 44.5978 0.948661 45.5341C0.403852 46.4704 0.718906 47.6727 1.65236 48.2196Z" fill="#94A68C"/>
<path d="M81.1095 84.7172C82.043 85.2641 83.2414 84.9484 83.7862 84.0121C84.331 83.0758 84.0159 81.8734 83.0825 81.3266C82.149 80.7797 80.9507 81.0953 80.4059 82.0316C79.861 82.9679 80.1761 84.1703 81.1095 84.7172Z" fill="#94A68C"/>
</svg>
