<svg width="112" height="112" viewBox="0 0 112 112" fill="none" xmlns="http://www.w3.org/2000/svg">
<path d="M46.8292 111.805C43.5725 111.272 41.1177 108.822 38.9551 106.658C37.478 105.195 36.0858 103.792 34.6663 103.154C33.1475 102.469 31.1202 102.337 28.972 102.196C25.8272 101.988 22.576 101.777 20.1225 99.767C17.6691 97.7568 16.7785 94.5546 15.9518 91.485C15.3988 89.4311 14.8788 87.4926 13.9328 86.1807C12.9868 84.8688 11.3185 83.7534 9.54705 82.5784C6.90023 80.8176 4.16502 78.9996 3.02335 75.9884C1.88167 72.9772 2.74577 69.8755 3.54911 66.8279C4.09986 64.7468 4.61927 62.7826 4.45348 61.1249C4.3009 59.5732 3.42529 57.8117 2.49683 55.9438C1.13356 53.2049 -0.407734 50.0979 0.124418 46.8411C0.656572 43.5843 3.10617 41.1325 5.27083 38.9669C6.73364 37.4898 8.13629 36.1006 8.77485 34.6781C9.45968 33.1594 9.59003 31.1469 9.73277 28.9839C9.94126 25.8391 10.1519 22.5878 12.162 20.1344C14.1722 17.681 17.3744 16.7904 20.4435 15.9666C22.4974 15.4136 24.4364 14.8907 25.7478 13.9476C27.0592 13.0046 28.1756 11.3304 29.3506 9.5589C31.1114 6.91207 32.9294 4.17687 35.9406 3.0352C38.9518 1.89352 42.0555 2.74572 45.103 3.54905C47.1842 4.09981 49.1483 4.61923 50.8056 4.45641C52.3578 4.30085 54.1193 3.42524 55.9871 2.49678C58.7256 1.13649 61.8331 -0.407792 65.0899 0.124362C68.3466 0.656515 70.7985 3.10613 72.964 5.27078C74.4411 6.73359 75.8304 8.13624 77.2524 8.77778C78.7716 9.45964 80.784 9.58998 82.9441 9.73224C86.0889 9.94073 89.3407 10.1667 91.7966 12.162C94.2524 14.1573 95.1401 17.3773 95.9673 20.444C96.5174 22.4973 97.0403 24.4363 97.9828 25.7507C98.9254 27.0651 100.601 28.1755 102.372 29.3535C105.016 31.1109 107.754 32.9294 108.896 35.9406C110.037 38.9517 109.185 42.0554 108.381 45.106C107.831 47.1841 107.312 49.1483 107.475 50.8055C107.63 52.3577 108.506 54.1192 109.434 55.9871C110.794 58.7285 112.339 61.833 111.807 65.0898C111.274 68.3466 108.821 70.8009 106.66 72.964C105.197 74.4411 103.794 75.8333 103.153 77.2523C102.471 78.7715 102.339 80.7988 102.198 82.947C101.99 86.0918 101.779 89.3431 99.769 91.7965C97.7588 94.2499 94.5536 95.14 91.487 95.9673C89.4336 96.5173 87.4946 97.0402 86.1797 97.9858C84.8649 98.9313 83.7554 100.601 82.5774 102.372C80.8196 105.019 79.0016 107.754 75.9904 108.896C72.9792 110.037 69.875 109.188 66.825 108.381C64.7468 107.831 62.7827 107.312 61.125 107.477C59.5732 107.63 57.8117 108.506 55.9439 109.434C53.19 110.795 50.086 112.337 46.8292 111.805ZM33.0593 98.5615C34.1806 98.7274 35.2753 99.0398 36.3153 99.4905C38.4072 100.443 40.1308 102.154 41.7978 103.819C43.701 105.721 45.4987 107.52 47.4766 107.843C49.4544 108.166 51.7314 107.033 54.1409 105.835C56.2511 104.788 58.4311 103.706 60.7129 103.477C63.0913 103.255 65.5086 103.879 67.8417 104.495C70.3879 105.171 72.7914 105.805 74.5491 105.139C76.3068 104.474 77.7508 102.365 79.2152 100.149C80.5421 98.1578 81.9109 96.0973 83.8209 94.7238C85.731 93.3503 88.12 92.7085 90.4292 92.0873C92.9855 91.3935 95.4215 90.7441 96.6425 89.2519C97.8635 87.7597 97.9974 85.3143 98.1704 82.6859C98.3302 80.2691 98.4917 77.7854 99.4737 75.6068C100.426 73.5149 102.137 71.7913 103.802 70.1242C105.704 68.2211 107.5 66.4229 107.823 64.445C108.146 62.4672 107.016 60.1907 105.819 57.7812C104.771 55.671 103.689 53.491 103.46 51.2092C103.223 48.8283 103.862 46.4135 104.478 44.0804C105.151 41.5337 105.788 39.1307 105.12 37.3725C104.451 35.6143 102.348 34.1713 100.132 32.7069C98.138 31.3795 96.0775 30.0107 94.707 28.1012C93.3365 26.1916 92.6917 23.8021 92.0675 21.4924C91.3767 18.9366 90.7243 16.5001 89.2321 15.2791C87.7399 14.0581 85.2984 13.9187 82.6676 13.7606C80.2508 13.6008 77.7671 13.4393 75.5855 12.4568C73.4966 11.5048 71.773 9.79403 70.106 8.12919C68.2028 6.22728 66.4046 4.43106 64.4267 4.10788C62.4489 3.7847 60.1724 4.91512 57.7629 6.11235C55.6527 7.16 53.4727 8.24205 51.1879 8.47029C48.81 8.70774 46.3952 8.06887 44.0622 7.45252C41.5154 6.77988 39.1095 6.14246 37.3513 6.81097C35.5931 7.47947 34.1501 9.58277 32.6856 11.7986C31.3617 13.7901 29.9924 15.8535 28.0829 17.224C26.1733 18.5946 23.7839 19.2393 21.4741 19.8635C18.9183 20.5543 16.4818 21.2067 15.2578 22.6984C14.0338 24.1901 13.9034 26.6331 13.7334 29.262C13.5736 31.6788 13.4121 34.1624 12.4296 36.3441C11.4776 38.4329 9.76684 40.1566 8.10199 41.8236C6.20008 43.7267 4.40089 45.5245 4.07771 47.5023C3.75453 49.4802 4.88792 51.7571 6.08516 54.1666C7.1328 56.2769 8.21486 58.4569 8.44309 60.7416C8.68055 63.1195 8.04166 65.5344 7.42532 67.8674C6.7497 70.4137 6.11525 72.8201 6.78078 74.5778C7.44631 76.3355 9.55557 77.7795 11.7714 79.2439C13.7629 80.5678 15.8233 81.9366 17.1968 83.8467C18.5703 85.7567 19.2121 88.1457 19.8333 90.455C20.5271 93.0113 21.1765 95.4473 22.6682 96.6712C24.1599 97.8952 26.6059 98.0262 29.2348 98.1961C30.5058 98.2664 31.8022 98.35 33.0602 98.5556L33.0593 98.5615Z" fill="white"/>
<path d="M48.9078 99.0838C38.9297 97.4556 29.825 92.418 23.1449 84.8292C16.4648 77.2405 12.6227 67.5703 12.2733 57.4663C11.9239 47.3623 15.0887 37.4498 21.2287 29.4177C27.3686 21.3857 36.1036 15.7311 45.9453 13.4175C55.787 11.1039 66.1265 12.2744 75.202 16.7296C84.2774 21.1848 91.5273 28.649 95.7162 37.8504C99.9051 47.0518 100.774 57.4209 98.1746 67.1911C95.5752 76.9613 89.6686 85.5278 81.4611 91.4311C76.8103 94.7955 71.5386 97.2042 65.9509 98.5178C60.3631 99.8313 54.5704 100.024 48.9078 99.0838ZM62.6748 14.83C39.9933 11.1238 18.5281 26.549 14.8201 49.2423C11.112 71.9357 26.5391 93.389 49.2324 97.097C71.9258 100.805 93.3791 85.378 97.0871 62.6847C100.795 39.9913 85.3562 18.5361 62.6748 14.83Z" fill="white"/>
<path d="M44.04 42.5352C43.0036 41.6268 42.5325 40.5483 42.705 39.4924C43.1249 36.9227 46.0908 37.4592 46.1207 37.6504C46.3061 39.2625 47.4608 40.2695 49.2869 40.5679C50.9049 40.8323 51.9884 40.3497 52.1605 39.2969C52.3325 38.244 51.7897 37.6789 50.4542 37.4607L49.9635 37.3805C48.2949 37.1079 47.6869 36.4558 47.8677 35.3494L47.9139 35.0669C48.1029 33.9099 48.9647 33.4949 50.5053 33.7467L51.3798 33.8896C52.272 34.0354 52.9258 33.6414 53.0516 32.871C53.2028 31.9461 52.3477 31.1987 50.8041 30.9465C48.621 30.5897 47.6326 31.668 47.167 32.6485C47.1111 32.8226 44.1688 32.4212 44.5931 29.8247C44.7651 28.7718 45.5111 27.944 46.7258 27.4249C47.9405 26.9058 49.579 26.7827 51.5301 27.1015C56.1818 27.8615 58.3995 29.9126 57.9082 32.9195C57.6394 34.5643 56.3945 35.5487 54.3794 35.8271C56.3481 36.8603 57.2699 38.4889 56.9424 40.4935C56.4049 43.783 53.4511 45.2272 48.7221 44.4545C46.6838 44.1275 45.0837 43.4172 44.04 42.5352Z" fill="white"/>
<path d="M58.6655 37.984L58.9259 36.3899C59.7113 31.5835 63.1167 29.0008 67.8993 29.7823C72.7294 30.5715 75.0894 34.0688 74.2997 38.9019L74.0392 40.4961C73.2495 45.3292 69.8946 47.9202 65.0645 47.1309C60.2344 46.3417 57.8714 42.8439 58.6655 37.984ZM68.7704 40.1115L69.182 37.5924C69.5436 35.3795 68.9001 34.1415 67.2315 33.8689C65.563 33.5962 64.5641 34.514 64.1987 36.7506L63.7826 39.2965C63.4216 41.5064 64.0928 42.7245 65.7405 42.9938C67.3882 43.263 68.4093 42.3214 68.7704 40.1115Z" fill="white"/>
<path d="M20.1222 58.094L27.76 44.9899C28.1534 44.2083 28.9431 43.7297 31.2838 44.1121C33.6245 44.4946 34.1162 45.1857 34.2379 46.0483L37.5411 60.8913C37.6443 61.3815 36.0692 62.312 34.5256 62.0598C33.4192 61.879 32.3862 61.0995 31.9639 59.1616L31.7002 57.8788L26.3941 57.0118L25.6998 58.1961C24.7896 59.8796 23.6127 60.298 22.5093 60.1177C21.0966 59.8869 19.868 58.5288 20.1222 58.094ZM31.3727 53.996L30.4146 48.8895L27.8442 53.4072L31.3727 53.996Z" fill="white"/>
<path d="M38.9561 60.2492L40.9345 48.1411C41.195 46.5469 42.1204 45.892 43.432 46.1063L43.9198 46.186C45.1541 46.3877 45.479 46.8103 46.0364 47.7716L50.6827 56.4703L51.7518 49.927C52.008 48.3596 52.9139 47.674 54.3773 47.9131L54.8412 47.9889C56.254 48.2197 56.8659 49.1656 56.6117 50.7211L54.6333 62.8291C54.3733 64.4204 53.4474 65.0783 52.1358 64.864L51.7253 64.7969C50.491 64.5952 50.1797 64.239 49.6466 63.2969L44.8885 54.4608L43.813 61.0428C43.5569 62.6102 42.6539 63.2963 41.1906 63.0572L40.7266 62.9814C39.3124 62.7595 38.7 61.8166 38.9561 60.2492Z" fill="white"/>
<path d="M57.4494 57.069C58.2756 52.0129 62.5456 48.979 67.6077 49.8062C72.7234 50.6421 75.7609 54.8333 74.9333 59.8984C74.1057 64.9635 69.8614 67.9893 64.7725 67.1578C59.6836 66.3263 56.6223 62.1312 57.4494 57.069ZM69.8371 59.0932C70.2448 56.5978 69.0502 54.7139 66.8642 54.3567C64.6781 53.9995 62.9587 55.3279 62.5427 57.8738C62.1354 60.3662 63.3412 62.2 65.5243 62.5567C67.7074 62.9134 69.4342 61.5588 69.8371 59.0932Z" fill="white"/>
<path d="M75.1226 65.3556C75.3243 64.1213 77.0598 63.0308 77.2199 63.1913C78.4025 64.5735 80.0113 65.5228 81.793 65.8898C83.3604 66.1459 84.1516 65.8263 84.2901 64.9787C84.4583 63.9496 83.2026 63.5612 81.6127 62.9564C78.932 61.9076 76.3325 60.3805 76.8953 56.9363C77.458 53.4922 80.3052 51.8962 84.8558 52.6398C87.143 53.0135 88.6509 53.7087 89.5869 54.5213C90.419 55.2405 90.7148 56.0278 90.5851 56.8219C90.3499 58.2615 88.4256 59.2173 88.3347 59.12C87.3149 57.8299 85.8696 56.9443 84.2571 56.6216C82.77 56.3786 81.9758 56.6977 81.8373 57.5454C81.6818 58.4971 82.9734 58.8151 84.6328 59.4801C87.7907 60.7107 90.059 62.4524 89.5589 65.5129C88.967 69.1355 86.1285 70.6779 81.1675 69.8673C78.571 69.443 76.9092 68.6432 75.9978 67.7553C75.6564 67.4655 75.3962 67.0919 75.2428 66.6712C75.0893 66.2505 75.0479 65.7972 75.1226 65.3556Z" fill="white"/>
<path d="M42.6028 80.428C42.7413 80.4477 42.8706 80.5086 42.974 80.6028C43.0773 80.6971 43.1499 80.8202 43.1822 80.9563L43.743 82.7946C43.8466 83.1322 43.9393 83.4618 44.0489 83.8004C44.0675 83.8854 44.1087 83.9638 44.1682 84.0273C44.2277 84.0908 44.3033 84.137 44.3869 84.161L47.2014 85.0453C47.3345 85.0752 47.456 85.1433 47.5508 85.2413C47.6457 85.3393 47.7098 85.4629 47.7353 85.5969C47.7608 85.7309 47.7466 85.8694 47.6943 85.9954C47.6421 86.1214 47.5541 86.2293 47.4412 86.306C46.6478 86.8634 45.8539 87.4238 45.053 87.9708C44.9571 88.0285 44.8791 88.1117 44.8278 88.2112C44.7765 88.3107 44.7539 88.4225 44.7625 88.5341C44.7805 89.5081 44.7865 90.4801 44.7891 91.4547C44.7976 91.5884 44.7656 91.7215 44.6972 91.8368C44.6288 91.952 44.5272 92.0439 44.4058 92.1005C44.2864 92.162 44.1514 92.1866 44.018 92.1714C43.8846 92.1561 43.7587 92.1016 43.6564 92.0147C42.8677 91.4216 42.0804 90.8268 41.2943 90.2301C41.221 90.1681 41.1322 90.1271 41.0373 90.1117C40.9425 90.0962 40.8453 90.1067 40.756 90.1422C39.8186 90.4593 38.8778 90.7727 37.9335 91.0826C37.8262 91.1235 37.7104 91.1367 37.5967 91.1211C37.4829 91.1055 37.375 91.0615 37.2827 90.9932C37.1905 90.9249 37.1169 90.8344 37.0687 90.7302C37.0206 90.626 36.9995 90.5114 37.0073 90.3969C37.0135 90.307 37.0331 90.2186 37.0654 90.1346C37.3845 89.2096 37.7006 88.2841 38.0227 87.3595C38.056 87.2785 38.0671 87.1901 38.055 87.1033C38.0429 87.0166 38.008 86.9346 37.9537 86.8658C37.3601 86.0695 36.7735 85.2683 36.1828 84.4725C36.0956 84.3677 36.0409 84.2397 36.0255 84.1043C36.0101 83.9688 36.0345 83.8318 36.096 83.7101C36.1574 83.5884 36.253 83.4873 36.3712 83.4193C36.4893 83.3512 36.6248 83.3192 36.7609 83.3271C37.735 83.3458 38.71 83.3586 39.6832 83.3832C39.7869 83.3935 39.8914 83.3747 39.9851 83.3291C40.0788 83.2835 40.158 83.2128 40.214 83.1249C40.7826 82.317 41.3622 81.517 41.9364 80.713C42.0086 80.6068 42.1098 80.5235 42.2279 80.473C42.346 80.4225 42.4761 80.4069 42.6028 80.428Z" fill="white"/>
<path d="M61.9888 83.5957C62.1273 83.6153 62.2566 83.6763 62.36 83.7705C62.4633 83.8647 62.5359 83.9879 62.5682 84.124C62.752 84.7372 62.9422 85.3485 63.129 85.9623C63.2296 86.2993 63.3253 86.6295 63.4349 86.968C63.4532 87.0532 63.4943 87.1318 63.5538 87.1953C63.6134 87.2588 63.6891 87.3049 63.7729 87.3286L66.5844 88.2125C66.7179 88.2418 66.8398 88.3096 66.9351 88.4075C67.0304 88.5053 67.095 88.629 67.1208 88.7631C67.1467 88.8973 67.1326 89.0361 67.0805 89.1624C67.0283 89.2886 66.9403 89.3968 66.8273 89.4736C66.0309 90.0306 65.2399 90.5914 64.439 91.1385C64.3431 91.1961 64.2651 91.2794 64.2138 91.3788C64.1625 91.4783 64.1399 91.5901 64.1485 91.7017C64.1665 92.6757 64.1696 93.6473 64.1752 94.6223C64.1837 94.7564 64.1513 94.8898 64.0823 95.0051C64.0133 95.1203 63.911 95.2119 63.7888 95.2676C63.6699 95.3289 63.5355 95.3536 63.4026 95.3384C63.2697 95.3232 63.1443 95.2689 63.0424 95.1823C62.2537 94.5893 61.4654 93.9943 60.6774 93.3973C60.6046 93.3353 60.5163 93.2944 60.4219 93.279C60.3275 93.2635 60.2307 93.2742 60.142 93.3098C59.2007 93.6263 58.2598 93.9397 57.3195 94.2502C57.212 94.291 57.096 94.3041 56.9822 94.2884C56.8684 94.2727 56.7603 94.2287 56.6678 94.1604C56.5754 94.0921 56.5016 94.0018 56.4531 93.8976C56.4046 93.7934 56.383 93.6787 56.3903 93.564C56.3989 93.4744 56.4194 93.3864 56.4514 93.3022C56.7705 92.3772 57.0866 91.4517 57.4087 90.5272C57.4423 90.4459 57.4534 90.3572 57.4407 90.2702C57.4281 90.1832 57.3921 90.1012 57.3368 90.0329L55.5688 87.6401C55.4816 87.5353 55.4269 87.4074 55.4115 87.2719C55.3961 87.1365 55.4206 86.9995 55.482 86.8778C55.5434 86.7561 55.6391 86.655 55.7572 86.5869C55.8753 86.5189 56.0108 86.4869 56.1469 86.4948C57.121 86.5135 58.096 86.5262 59.0692 86.5509C59.1729 86.5611 59.2774 86.5424 59.3711 86.4968C59.4648 86.4512 59.544 86.3805 59.6 86.2926C60.1686 85.4847 60.7453 84.6842 61.3224 83.8807C61.3946 83.7745 61.4958 83.6911 61.6139 83.6406C61.732 83.5901 61.8621 83.5745 61.9888 83.5957Z" fill="white"/>
<path d="M28.0043 68.2191C28.1419 68.239 28.2703 68.2996 28.3732 68.3931C28.476 68.4867 28.5484 68.6088 28.5812 68.7439L29.142 70.5822C29.248 70.9049 29.3383 71.2495 29.4479 71.588C29.4664 71.673 29.5077 71.7514 29.5672 71.8149C29.6267 71.8784 29.7023 71.9246 29.7859 71.9486L32.6004 72.8329C32.6939 72.8523 32.7825 72.8906 32.8606 72.9455C32.9388 73.0004 33.0049 73.0707 33.0548 73.1521C33.1047 73.2335 33.1374 73.3242 33.151 73.4188C33.1645 73.5133 33.1584 73.6096 33.1333 73.7017C33.0897 73.8689 32.9843 74.0132 32.8383 74.1055C32.0449 74.6629 31.251 75.2233 30.4531 75.7708C30.3566 75.8281 30.2781 75.911 30.2262 76.0104C30.1744 76.1099 30.1513 76.2218 30.1596 76.3336C30.1775 77.3076 30.1836 78.2796 30.1892 79.2547C30.1973 79.3886 30.1647 79.5219 30.0958 79.6371C30.0268 79.7522 29.9247 79.8439 29.8028 79.9C29.6834 79.9615 29.5485 79.9862 29.4151 79.9709C29.2817 79.9556 29.1558 79.9011 29.0534 79.8142C28.2647 79.2211 27.4774 78.6263 26.6914 78.0297C26.618 77.9676 26.5292 77.9267 26.4344 77.9112C26.3396 77.8957 26.2423 77.9062 26.153 77.9417C25.2157 78.2588 24.2729 78.5719 23.3335 78.8826C23.226 78.9233 23.1101 78.9364 22.9962 78.9207C22.8824 78.905 22.7743 78.861 22.6819 78.7928C22.5894 78.7245 22.5156 78.6341 22.4671 78.5299C22.4186 78.4258 22.397 78.3111 22.4043 78.1964C22.4115 78.1066 22.4321 78.0183 22.4654 77.9346C22.7815 77.0091 23.1006 76.0841 23.4227 75.1595C23.4557 75.0782 23.4664 74.9895 23.4538 74.9027C23.4411 74.8158 23.4056 74.7339 23.3508 74.6653C22.7572 73.869 22.1705 73.0678 21.5799 72.272C21.4903 72.1672 21.4342 72.038 21.419 71.901C21.4039 71.764 21.4302 71.6256 21.4947 71.5038C21.5551 71.3801 21.6518 71.2779 21.7719 71.2107C21.8921 71.1436 22.0298 71.1148 22.1668 71.1281C23.1409 71.1468 24.116 71.1596 25.0916 71.1877C25.1955 71.1963 25.2999 71.1766 25.3934 71.1306C25.487 71.0845 25.5663 71.014 25.6229 70.9264C26.191 70.1031 26.7682 69.318 27.3424 68.514C27.413 68.4067 27.5129 68.3219 27.6302 68.2697C27.7475 68.2174 27.8773 68.1999 28.0043 68.2191Z" fill="white"/>
<path d="M78.5245 76.474C78.663 76.4937 78.7923 76.5546 78.8956 76.6489C78.999 76.7431 79.0716 76.8663 79.1039 77.0023C79.2877 77.6156 79.4779 78.2269 79.6646 78.8406C79.7677 79.1628 79.861 79.5079 79.9706 79.8464C79.9882 79.9318 80.0291 80.0107 80.0887 80.0744C80.1484 80.138 80.2245 80.1839 80.3086 80.207L83.1201 81.0909C83.2535 81.1202 83.3754 81.188 83.4708 81.2858C83.5661 81.3837 83.6307 81.5074 83.6565 81.6415C83.6823 81.7757 83.6683 81.9145 83.6161 82.0407C83.5639 82.167 83.4759 82.2752 83.3629 82.352C82.5665 82.9089 81.7756 83.4698 80.9747 84.0168C80.8788 84.0745 80.8008 84.1577 80.7495 84.2572C80.6981 84.3567 80.6755 84.4685 80.6842 84.5801C80.7022 85.5541 80.7052 86.5257 80.7108 87.5007C80.7189 87.6346 80.6864 87.7679 80.6175 87.8831C80.5485 87.9982 80.4464 88.0899 80.3245 88.146C80.2056 88.2073 80.0712 88.2319 79.9383 88.2168C79.8054 88.2016 79.68 88.1472 79.578 88.0607C78.7894 87.4676 77.9958 86.886 77.213 86.2757C77.1403 86.2137 77.0519 86.1727 76.9575 86.1573C76.8632 86.1419 76.7664 86.1526 76.6777 86.1882C75.7364 86.5046 74.7955 86.8181 73.8551 87.1286C73.7477 87.1693 73.6317 87.1824 73.5179 87.1667C73.404 87.151 73.2959 87.107 73.2035 87.0388C73.1111 86.9705 73.0372 86.8801 72.9887 86.776C72.9403 86.6718 72.9187 86.5571 72.926 86.4424C72.9345 86.3528 72.9551 86.2647 72.9871 86.1806C73.3032 85.2551 73.6223 84.3301 73.9444 83.4055C73.9773 83.3242 73.9881 83.2355 73.9754 83.1487C73.9628 83.0618 73.9272 82.9799 73.8725 82.9113L72.1045 80.5185C72.0173 80.4137 71.9626 80.2857 71.9472 80.1503C71.9317 80.0148 71.9562 79.8778 72.0177 79.7561C72.0791 79.6344 72.1747 79.5333 72.2929 79.4653C72.411 79.3973 72.5464 79.3652 72.6825 79.3731C73.6566 79.3919 74.6317 79.4046 75.6044 79.4322C75.7083 79.4412 75.8128 79.4216 75.9064 79.3756C76 79.3295 76.0793 79.2588 76.1356 79.1709C76.7067 78.3482 77.281 77.5625 77.8551 76.7586C77.9279 76.6522 78.0296 76.5689 78.1482 76.5184C78.2668 76.468 78.3974 76.4526 78.5245 76.474Z" fill="white"/>
</svg>
