<svg width="69" height="69" viewBox="0 0 69 69" fill="none" xmlns="http://www.w3.org/2000/svg">
<path d="M27.7601 68.6056C25.7908 68.1931 24.3619 66.6341 23.1033 65.2571C22.2432 64.326 21.4332 63.4336 20.5859 63.0064C19.6793 62.548 18.448 62.4122 17.1433 62.2685C15.2333 62.0562 13.2586 61.8397 11.8186 60.5487C10.3787 59.2577 9.92305 57.283 9.5027 55.3907C9.22155 54.1246 8.95741 52.9297 8.41673 52.1049C7.87606 51.2802 6.89013 50.5555 5.84292 49.7917C4.2784 48.6473 2.6616 47.4657 2.04784 45.6006C1.43407 43.7354 2.04455 41.8694 2.61655 40.0348C3.00848 38.7821 3.37814 37.5998 3.32211 36.5855C3.27125 35.6361 2.78566 34.5394 2.27076 33.3764C1.51464 31.6711 0.660047 29.7367 1.07253 27.7673C1.48501 25.7979 3.04365 24.3708 4.42095 23.1104C5.35206 22.2504 6.24414 21.4422 6.6717 20.593C7.13004 19.6865 7.26402 18.4642 7.40964 17.1504C7.62193 15.2405 7.83841 13.2657 9.1294 11.8258C10.4204 10.3859 12.3951 9.93021 14.287 9.51166C15.5531 9.2305 16.7484 8.96456 17.5728 8.42569C18.3972 7.88682 19.1226 6.89728 19.8864 5.85007C21.0308 4.28556 22.2124 2.66876 24.0775 2.05499C25.9427 1.44123 27.8102 2.04451 29.6448 2.61651C30.8975 3.00844 32.0798 3.37811 33.0937 3.32387C34.0435 3.27122 35.1402 2.78563 36.3032 2.27073C38.0082 1.5164 39.9429 0.660006 41.9123 1.07249C43.8817 1.48497 45.3088 3.04362 46.5692 4.42092C47.4292 5.35203 48.2374 6.24411 49.0862 6.67346C49.9931 7.13001 51.2154 7.26399 52.5274 7.40923C54.4373 7.62152 56.412 7.84737 57.8538 9.12937C59.2956 10.4114 59.749 12.3969 60.1697 14.2873C60.4491 15.553 60.715 16.7483 61.2535 17.5745C61.792 18.4007 62.7823 19.1226 63.8292 19.8882C65.3923 21.0303 67.0109 22.2123 67.6246 24.0775C68.2384 25.9427 67.6351 27.8101 67.0627 29.6465C66.6712 30.8975 66.3015 32.0798 66.3557 33.0937C66.4084 34.0434 66.894 35.1402 67.4089 36.3031C68.1628 38.0099 69.0196 39.9429 68.6071 41.9123C68.1946 43.8817 66.6338 45.3101 65.2587 46.5691C64.3276 47.4292 63.4351 48.2392 63.0061 49.0862C62.5496 49.9931 62.4137 51.2244 62.27 52.5291C62.0577 54.4391 61.8412 56.4138 60.5502 57.8538C59.2592 59.2937 57.2827 59.749 55.3923 60.1697C54.1266 60.4491 52.9313 60.715 52.1047 61.2553C51.2781 61.7956 50.557 62.7823 49.7914 63.8291C48.6489 65.394 47.4673 67.0108 45.6021 67.6246C43.7369 68.2383 41.8691 67.6368 40.0331 67.0627C38.7821 66.6711 37.5998 66.3015 36.5855 66.3575C35.6362 66.4083 34.5394 66.8939 33.3765 67.4088C31.6621 68.1631 29.7295 69.018 27.7601 68.6056ZM19.7315 60.1653C20.4101 60.2968 21.0684 60.5167 21.6897 60.8195C22.9381 61.4564 23.9416 62.5453 24.9119 63.6046C26.0196 64.8147 27.0659 65.9594 28.2619 66.2099C29.4579 66.4604 30.8756 65.8318 32.3758 65.1679C33.6896 64.5869 35.0469 63.987 36.443 63.9095C37.8978 63.8387 39.3534 64.2844 40.7578 64.7231C42.2905 65.2037 43.7373 65.6551 44.826 65.2973C45.9148 64.9396 46.8515 63.694 47.8037 62.3839C48.6659 61.2072 49.5556 59.9892 50.7563 59.2043C51.9571 58.4195 53.4297 58.0934 54.8532 57.7776C56.4291 57.4243 57.9306 57.0948 58.7148 56.219C59.499 55.3431 59.6469 53.8572 59.8236 52.2608C59.9865 50.793 60.1522 49.2845 60.8095 47.984C61.4464 46.7356 62.5353 45.7321 63.5946 44.7618C64.8047 43.6541 65.9476 42.6075 66.1981 41.4115C66.4486 40.2154 65.8218 38.7981 65.1579 37.2979C64.577 35.9841 63.977 34.6268 63.8995 33.2307C63.8198 31.774 64.2744 30.3204 64.7131 28.916C65.1919 27.3829 65.6451 25.9364 65.2856 24.8473C64.926 23.7582 63.684 22.8222 62.374 21.8701C61.1954 21.0074 59.9774 20.1178 59.1944 18.9174C58.4113 17.7171 58.0834 16.2441 57.7658 14.8202C57.4143 13.2446 57.083 11.7428 56.2072 10.9585C55.3314 10.1743 53.8479 10.0232 52.2497 9.85554C50.7819 9.69267 49.2733 9.52691 47.9711 8.86929C46.7245 8.23271 45.721 7.14388 44.7507 6.08456C43.643 4.87442 42.5964 3.73151 41.4003 3.481C40.2043 3.2305 38.787 3.85734 37.2868 4.52126C35.973 5.10219 34.6157 5.70218 33.2178 5.77924C31.7629 5.85939 30.3093 5.40473 28.9048 4.96602C27.3718 4.48721 25.9235 4.03369 24.8344 4.39321C23.7453 4.75273 22.8093 5.99479 21.8571 7.30481C20.9967 8.48197 20.1066 9.70174 18.9063 10.4848C17.7059 11.2678 16.2329 11.5958 14.809 11.9133C13.2335 12.2648 11.7316 12.5961 10.9456 13.4716C10.1596 14.347 10.0139 15.8316 9.83902 17.4283C9.67615 18.8962 9.51039 20.4047 8.85276 21.7069C8.21619 22.9535 7.12737 23.957 6.06804 24.9273C4.8579 26.035 3.71319 27.0813 3.46268 28.2773C3.21218 29.4733 3.84082 30.891 4.50474 32.3912C5.08567 33.705 5.68566 35.0623 5.76272 36.4602C5.84286 37.9151 5.3882 39.3688 4.94949 40.7732C4.46889 42.3059 4.01716 43.7545 4.37488 44.8432C4.7326 45.932 5.97826 46.8687 7.28829 47.8209C8.46544 48.6813 9.68341 49.571 10.4683 50.7717C11.2531 51.9724 11.5792 53.4451 11.895 54.8686C12.2483 56.4445 12.5778 57.946 13.4533 58.732C14.3287 59.518 15.8151 59.6641 17.4118 59.839C18.1841 59.9163 18.9715 60.0023 19.7323 60.1617L19.7315 60.1653Z" fill="#F07402"/>
<path d="M29.3713 60.9133C23.3374 59.6509 17.928 56.3353 14.0648 51.5316C10.2015 46.7278 8.12344 40.7331 8.18464 34.569C8.24585 28.4048 10.4425 22.4526 14.4004 17.7265C18.3583 13.0004 23.8325 9.79292 29.8902 8.65055C35.9479 7.50817 42.2142 8.5016 47.6216 11.4616C53.0289 14.4215 57.2426 19.1649 59.5447 24.8834C61.8467 30.6019 62.0947 36.9417 60.2464 42.8225C58.3981 48.7034 54.5678 53.7614 49.4082 57.1347C46.484 59.0579 43.2075 60.3821 39.7681 61.0307C36.3288 61.6793 32.795 61.6394 29.3713 60.9133ZM40.0423 9.96468C26.3268 7.09199 12.8332 15.9058 9.95903 29.6285C7.08483 43.3513 15.9002 56.8377 29.6229 59.7119C43.3456 62.5861 56.832 53.7707 59.7062 40.048C62.5804 26.3253 53.7579 12.8374 40.0423 9.96468Z" fill="#F07402"/>
<path d="M27.9398 26.3355C27.3332 25.7541 27.0754 25.0843 27.2092 24.4458C27.5346 22.8919 29.3267 23.2992 29.3397 23.4164C29.409 24.4034 30.085 25.0482 31.1893 25.2795C32.1677 25.4844 32.8408 25.2198 32.9741 24.5832C33.1075 23.9465 32.7921 23.5876 31.9846 23.4184L31.6878 23.3563C30.6789 23.1449 30.3262 22.7313 30.4663 22.0622L30.5021 21.8913C30.6487 21.1917 31.1848 20.9623 32.1165 21.1575L32.6452 21.2682C33.1848 21.3812 33.5937 21.159 33.6913 20.6931C33.8084 20.1338 33.3078 19.6554 32.3744 19.4598C31.0543 19.1834 30.4229 19.8134 30.1127 20.398C30.074 20.5025 28.2926 20.1782 28.6215 18.6081C28.7548 17.9714 29.2317 17.4874 29.9857 17.2041C30.7396 16.9209 31.7411 16.8903 32.9209 17.1374C35.7338 17.7266 37.0291 19.0361 36.6482 20.8544C36.4399 21.849 35.6549 22.4149 34.4199 22.5298C35.5911 23.2125 36.1084 24.2296 35.8545 25.4418C35.4379 27.4309 33.5995 28.2305 30.7398 27.6316C29.5071 27.3772 28.5517 26.9011 27.9398 26.3355Z" fill="#F07402"/>
<path d="M36.9721 23.9599L37.1741 22.9959C37.7828 20.0895 39.9272 18.6086 42.8192 19.2144C45.74 19.8261 47.0828 22.0204 46.4706 24.943L46.2687 25.907C45.6566 28.8296 43.5428 30.3169 40.622 29.7051C37.7012 29.0934 36.3566 26.8987 36.9721 23.9599ZM43.0697 25.5299L43.3888 24.0066C43.6691 22.6685 43.3106 21.8969 42.3016 21.6855C41.2927 21.4742 40.6593 22.0062 40.3761 23.3586L40.0536 24.8982C39.7737 26.2345 40.1496 26.9947 41.1459 27.2034C42.1423 27.4121 42.7898 26.8662 43.0697 25.5299Z" fill="#F07402"/>
<path d="M12.9487 35.1642L17.9565 27.3892C18.2173 26.9238 18.7114 26.6536 20.1268 26.9501C21.5422 27.2466 21.823 27.6808 21.8737 28.2096L23.4833 37.3406C23.5328 37.642 22.5482 38.1661 21.6147 37.9706C20.9457 37.8304 20.3376 37.3276 20.1329 36.1357L20.0071 35.3471L16.7985 34.6751L16.3434 35.3777C15.7433 36.3785 15.0151 36.6014 14.3479 36.4617C13.4936 36.2827 12.782 35.4222 12.9487 35.1642ZM19.9129 32.9731L19.4678 29.8366L17.7796 32.5188L19.9129 32.9731Z" fill="#F07402"/>
<path d="M24.3626 36.9878L25.8961 29.666C26.098 28.702 26.6795 28.3282 27.4727 28.4943L27.7676 28.5561C28.514 28.7124 28.7004 28.9786 29.0139 29.5793L31.6082 35.004L32.4369 31.0473C32.6354 30.0994 33.2059 29.7064 34.0908 29.8917L34.3713 29.9505C35.2256 30.1294 35.5727 30.7221 35.3757 31.6628L33.8422 38.9846C33.6406 39.9468 33.0588 40.3224 32.2656 40.1563L32.0175 40.1043C31.2711 39.948 31.0911 39.7226 30.7919 39.1342L28.1332 33.6228L27.2996 37.603C27.1011 38.5508 26.5324 38.9442 25.6475 38.7589L25.367 38.7001C24.5115 38.5266 24.1641 37.9356 24.3626 36.9878Z" fill="#F07402"/>
<path d="M35.7138 35.5523C36.3542 32.4948 39.0375 30.7626 42.0986 31.4037C45.192 32.0516 46.9286 34.687 46.2871 37.7499C45.6456 40.8128 42.9782 42.5408 39.9009 41.8963C36.8236 41.2518 35.0726 38.6134 35.7138 35.5523ZM43.2046 37.1212C43.5207 35.6122 42.8441 34.4323 41.5222 34.1555C40.2003 33.8786 39.1169 34.6411 38.7945 36.1806C38.4788 37.6878 39.1635 38.8375 40.4837 39.114C41.8038 39.3905 42.8924 38.6122 43.2046 37.1212Z" fill="#F07402"/>
<path d="M46.2544 41.0793C46.4107 40.3329 47.4975 39.7156 47.5906 39.8178C48.2735 40.6918 49.2278 41.3137 50.3031 41.5856C51.2509 41.7841 51.7415 41.6108 51.8489 41.0983C51.9792 40.476 51.2249 40.2053 50.2728 39.7938C48.6684 39.0823 47.1263 38.0815 47.5625 35.9988C47.9988 33.9161 49.7764 33.0212 52.5281 33.5975C53.9112 33.8872 54.8108 34.3516 55.3589 34.872C55.8463 35.3326 56.0052 35.8202 55.9046 36.3004C55.7223 37.1709 54.5242 37.701 54.4714 37.6393C53.8853 36.8257 53.0289 36.2471 52.0554 36.0068C51.1562 35.8184 50.6637 35.9913 50.5564 36.5039C50.4358 37.0794 51.214 37.3081 52.2068 37.7582C54.097 38.5934 55.4314 39.7159 55.0438 41.5666C54.585 43.7572 52.8141 44.6197 49.8142 43.9914C48.2441 43.6625 47.2535 43.1303 46.7224 42.5647C46.5223 42.3789 46.374 42.1443 46.2919 41.8839C46.2099 41.6235 46.1969 41.3462 46.2544 41.0793Z" fill="#F07402"/>
<path d="M26.0367 49.3784C26.1205 49.3941 26.1976 49.4347 26.258 49.4949C26.3184 49.5551 26.3593 49.6321 26.3753 49.7159L26.667 50.8509C26.721 51.0593 26.7685 51.2626 26.8261 51.4718C26.8351 51.5241 26.858 51.573 26.8926 51.6133C26.9271 51.6536 26.9719 51.6837 27.0222 51.7006L28.7126 52.3157C28.7929 52.3374 28.865 52.3822 28.9201 52.4445C28.9753 52.5068 29.011 52.5838 29.0229 52.6661C29.0348 52.7484 29.0223 52.8324 28.9871 52.9077C28.9518 52.9831 28.8953 53.0464 28.8245 53.0901C28.3261 53.4081 27.8273 53.7279 27.3246 54.0394C27.2646 54.0719 27.2148 54.1205 27.1809 54.1797C27.1469 54.2389 27.1301 54.3064 27.1324 54.3746C27.1169 54.9684 27.0942 55.5607 27.0694 56.1544C27.0709 56.2361 27.0478 56.3163 27.003 56.3846C26.9582 56.453 26.8938 56.5062 26.8183 56.5374C26.7439 56.5716 26.6611 56.583 26.5802 56.57C26.4994 56.5571 26.4242 56.5205 26.3642 56.4648C25.8999 56.0821 25.4364 55.6985 24.9738 55.3137C24.9308 55.2739 24.8778 55.2466 24.8204 55.2345C24.7631 55.2225 24.7036 55.2263 24.6482 55.2455C24.0687 55.4132 23.4871 55.5787 22.9034 55.7418C22.837 55.7638 22.7661 55.7687 22.6972 55.7561C22.6284 55.7435 22.5638 55.7138 22.5095 55.6697C22.4551 55.6256 22.4128 55.5685 22.3863 55.5037C22.3598 55.4389 22.35 55.3685 22.3579 55.299C22.3641 55.2444 22.3784 55.1911 22.4004 55.1408C22.6198 54.586 22.8375 54.0308 23.0588 53.4764C23.0812 53.4279 23.0904 53.3744 23.0854 53.3212C23.0804 53.268 23.0613 53.2171 23.0302 53.1737C22.6902 52.6726 22.3545 52.1686 22.0163 51.6679C21.966 51.6017 21.9362 51.5222 21.9305 51.4393C21.9248 51.3564 21.9434 51.2736 21.9841 51.2011C22.0248 51.1287 22.0858 51.0697 22.1596 51.0314C22.2334 50.9932 22.3168 50.9774 22.3995 50.9859C22.9923 51.0237 23.586 51.0579 24.1781 51.0993C24.241 51.1084 24.3051 51.0998 24.3634 51.0745C24.4217 51.0493 24.4719 51.0084 24.5084 50.9563C24.8767 50.4796 25.2515 50.0081 25.623 49.5339C25.6699 49.4712 25.7338 49.4232 25.8071 49.3956C25.8804 49.368 25.9601 49.362 26.0367 49.3784Z" fill="#F07402"/>
<path d="M37.7595 51.8337C37.8433 51.8494 37.9204 51.89 37.9808 51.9502C38.0412 52.0104 38.0821 52.0874 38.0981 52.1712C38.1934 52.5497 38.2927 52.9272 38.3898 53.3062C38.4419 53.5142 38.4913 53.7179 38.5488 53.9271C38.5576 53.9795 38.5806 54.0285 38.6151 54.0688C38.6497 54.1091 38.6946 54.1392 38.745 54.156L40.4336 54.7706C40.5141 54.7921 40.5865 54.8367 40.6419 54.8989C40.6973 54.9611 40.7333 55.0381 40.7454 55.1206C40.7575 55.203 40.7452 55.2871 40.71 55.3626C40.6748 55.4381 40.6182 55.5017 40.5473 55.5454C40.0471 55.863 39.5501 56.1832 39.0474 56.4947C38.9874 56.5272 38.9376 56.5758 38.9037 56.635C38.8697 56.6942 38.8529 56.7617 38.8552 56.8299C38.8397 57.4237 38.8152 58.0156 38.7922 58.6097C38.7937 58.6916 38.7704 58.772 38.7252 58.8403C38.6801 58.9086 38.6152 58.9616 38.5393 58.9923C38.4652 59.0264 38.3827 59.0378 38.3022 59.0249C38.2216 59.0121 38.1467 58.9756 38.0869 58.9201C37.6226 58.5375 37.1586 58.1536 36.6948 57.7686C36.6521 57.7289 36.5994 57.7016 36.5423 57.6896C36.4853 57.6777 36.426 57.6815 36.371 57.7008C35.789 57.8681 35.2074 58.0335 34.6262 58.1971C34.5597 58.219 34.4887 58.2238 34.4197 58.2112C34.3508 58.1985 34.2862 58.1688 34.2317 58.1247C34.1773 58.0806 34.1347 58.0236 34.108 57.9588C34.0813 57.894 34.0713 57.8236 34.0788 57.7539C34.0865 57.6996 34.1014 57.6465 34.1231 57.5961C34.3426 57.0413 34.5603 56.4861 34.7815 55.9317C34.8042 55.8831 34.8134 55.8293 34.808 55.776C34.8027 55.7227 34.783 55.6718 34.7511 55.6287L33.7391 54.1232C33.6888 54.057 33.659 53.9775 33.6533 53.8946C33.6475 53.8117 33.6662 53.7289 33.7069 53.6564C33.7476 53.584 33.8086 53.525 33.8824 53.4867C33.9562 53.4485 34.0396 53.4327 34.1223 53.4412C34.7151 53.479 35.3087 53.5132 35.9008 53.5546C35.9637 53.5637 36.0279 53.5551 36.0862 53.5298C36.1445 53.5046 36.1947 53.4637 36.2312 53.4117C36.5995 52.935 36.9724 52.463 37.3458 51.9892C37.3927 51.9265 37.4565 51.8785 37.5299 51.8509C37.6032 51.8233 37.6829 51.8174 37.7595 51.8337Z" fill="#F07402"/>
<path d="M17.4753 41.5455C17.5586 41.5614 17.6352 41.6018 17.6953 41.6616C17.7554 41.7213 17.7962 41.7977 17.8125 41.8809L18.1042 43.0159C18.1601 43.2153 18.2057 43.4276 18.2633 43.6368C18.2723 43.6891 18.2953 43.738 18.3298 43.7783C18.3643 43.8186 18.4091 43.8487 18.4594 43.8656L20.1498 44.4807C20.2063 44.495 20.2592 44.5207 20.3053 44.5563C20.3514 44.5918 20.3898 44.6364 20.418 44.6874C20.4462 44.7383 20.4637 44.7945 20.4693 44.8524C20.475 44.9104 20.4687 44.9689 20.4509 45.0243C20.4198 45.1249 20.3516 45.21 20.2602 45.2623C19.7618 45.5803 19.263 45.9001 18.7621 46.212C18.7019 46.2442 18.6517 46.2926 18.6175 46.3518C18.5832 46.4109 18.5661 46.4785 18.5681 46.5468C18.5526 47.1406 18.53 47.7329 18.5069 48.327C18.5082 48.4088 18.4848 48.4891 18.4397 48.5574C18.3945 48.6256 18.3298 48.6787 18.254 48.7096C18.1797 48.7438 18.0968 48.7552 18.0159 48.7422C17.9351 48.7293 17.8599 48.6927 17.7999 48.637C17.3356 48.2543 16.8721 47.8707 16.4095 47.4859C16.3665 47.4461 16.3135 47.4187 16.2562 47.4067C16.1988 47.3947 16.1393 47.3985 16.084 47.4177C15.5044 47.5854 14.9216 47.7506 14.341 47.9144C14.2744 47.9363 14.2034 47.9411 14.1345 47.9285C14.0656 47.9158 14.0009 47.8861 13.9465 47.842C13.892 47.7979 13.8495 47.7408 13.8228 47.6761C13.7961 47.6113 13.786 47.5408 13.7936 47.4712C13.8004 47.4167 13.8153 47.3635 13.8379 47.3134C14.0556 46.7582 14.275 46.2034 14.4963 45.6489C14.5186 45.6003 14.5275 45.5466 14.5222 45.4933C14.5168 45.4401 14.4974 45.3892 14.4659 45.3459C14.1259 44.8448 13.7903 44.3408 13.4521 43.8401C13.4003 43.7738 13.3697 43.6936 13.3642 43.6097C13.3586 43.5259 13.3784 43.4423 13.421 43.3698C13.4612 43.2961 13.5228 43.2365 13.5978 43.1988C13.6728 43.1612 13.7575 43.1474 13.8406 43.1592C14.4335 43.197 15.0271 43.2312 15.6206 43.2748C15.6837 43.2829 15.7478 43.2737 15.806 43.2482C15.8642 43.2227 15.9145 43.1819 15.9513 43.13C16.3197 42.644 16.6926 42.1814 17.0641 41.7072C17.11 41.6438 17.1732 41.5949 17.2461 41.5662C17.319 41.5376 17.3985 41.5304 17.4753 41.5455Z" fill="#F07402"/>
<path d="M48.0251 47.9441C48.1089 47.9599 48.186 48.0005 48.2464 48.0607C48.3068 48.1209 48.3477 48.1979 48.3637 48.2816C48.459 48.6602 48.5583 49.0377 48.6554 49.4166C48.7094 49.6157 48.7569 49.8284 48.8144 50.0376C48.8229 50.0901 48.8456 50.1392 48.8803 50.1796C48.9149 50.22 48.96 50.25 49.0106 50.2664L50.6992 50.881C50.7797 50.9025 50.8521 50.9471 50.9075 51.0093C50.9629 51.0715 50.9989 51.1486 51.011 51.231C51.0231 51.3134 51.0108 51.3976 50.9756 51.4731C50.9404 51.5486 50.8838 51.6121 50.8129 51.6558C50.3127 51.9735 49.8157 52.2937 49.313 52.6052C49.253 52.6377 49.2032 52.6863 49.1693 52.7455C49.1353 52.8047 49.1185 52.8722 49.1208 52.9404C49.1053 53.5342 49.0808 54.1261 49.0578 54.7201C49.0591 54.802 49.0356 54.8823 48.9905 54.9505C48.9454 55.0188 48.8807 55.0719 48.8049 55.1027C48.7308 55.1369 48.6483 55.1482 48.5678 55.1354C48.4872 55.1225 48.4123 55.086 48.3526 55.0305C47.8883 54.6479 47.4206 54.2721 46.9604 53.8791C46.9177 53.8393 46.865 53.812 46.8079 53.8001C46.7509 53.7881 46.6917 53.792 46.6366 53.8113C46.0547 53.9785 45.473 54.1439 44.8918 54.3076C44.8253 54.3294 44.7543 54.3343 44.6853 54.3216C44.6164 54.309 44.5518 54.2793 44.4973 54.2352C44.4429 54.1911 44.4003 54.134 44.3736 54.0692C44.3469 54.0045 44.3369 53.934 44.3444 53.8644C44.3521 53.81 44.367 53.7569 44.3888 53.7065C44.6064 53.1514 44.8259 52.5966 45.0472 52.0421C45.0694 51.9935 45.0784 51.9397 45.073 51.8865C45.0677 51.8332 45.0483 51.7824 45.0167 51.7391L44.0047 50.2336C43.9544 50.1674 43.9246 50.088 43.9189 50.0051C43.9131 49.9221 43.9318 49.8394 43.9725 49.7669C44.0132 49.6944 44.0742 49.6354 44.148 49.5972C44.2218 49.5589 44.3052 49.5431 44.3879 49.5516C44.9807 49.5894 45.5743 49.6237 46.1661 49.6669C46.2292 49.6752 46.2933 49.6661 46.3516 49.6405C46.4099 49.615 46.4601 49.5741 46.4968 49.5221C46.867 49.0364 47.2381 48.5734 47.6096 48.0993C47.6568 48.0365 47.721 47.9885 47.7946 47.961C47.8683 47.9335 47.9482 47.9276 48.0251 47.9441Z" fill="#F07402"/>
</svg>
