<?xml version="1.0" encoding="UTF-8"?>
<svg xmlns="http://www.w3.org/2000/svg" version="1.1" viewBox="0 0 452.57 197.8">
  <defs>
    <style>
      .cls-1 {
        fill: #00813b;
      }

      .cls-2 {
        fill: #eb7e01;
      }

      .cls-3 {
        fill: #d75715;
      }

      .cls-4 {
        fill: #e86517;
      }

      .cls-5 {
        fill: #009c42;
      }

      .cls-6 {
        fill: #e76415;
      }

      .cls-7 {
        fill: #eb7d01;
      }
    </style>
  </defs>
  <!-- Generator: Adobe Illustrator 28.7.1, SVG Export Plug-In . SVG Version: 1.2.0 Build 142)  -->
  <g>
    <g id="Camada_1">
      <g>
        <path class="cls-6" d="M42.43,84.9c.29.28.6.56.98.71.24.04.35.23.5.38.46.27.78.75,1.31.93.18.06.38.08.44.31,1.57,1.22,3.25,2.27,4.92,3.33,1.79,1.14,3.58,2.3,5.5,3.23.16.07.34.09.44.25.12.12.25.22.43.22.19,0,.34.09.45.25.26.21.51.43.87.45.31.12.67.16.88.47.2.21.46.3.75.28,1.54.55,2.98,1.32,4.49,1.94,4.38,1.79,8.89,3.14,13.6,3.66,6.28.7,12.29-.32,17.96-3.19,2.81-1.34,5.33-3.12,7.76-5.07,3.62-2.9,6.8-6.28,10.12-9.5,2.16-2.1,4.33-4.22,6.81-5.96.7-.49,1.41-.96,2.17-1.35,1.75-.75,3.5-1.47,5.41-1.67.68-.09,1.36-.07,2.04,0,1.92.21,3.69.88,5.42,1.66.14,0,.24.04.29.17,1.53.92,2.95,1.99,4.37,3.05.24.06.37.23.47.44.12.32.52.33.69.68-.4.03-.76.04-1.13.06-.23.08-.47.04-.71.05-.15-.03-.34.08-.49-.16.42-.25.89-.06,1.31-.14-.47.06-.94-.03-1.42.08-.47.1.14.2-.02.28l-.58.18c-.16.18-.42-.02-.58.14-.83.03-1.44.51-2.03,1-1.4,1.18-2.64,2.5-3.56,4.09-.14.2-.16.5-.44.62-.23.23-.36.53-.47.84-.26,1.01-.81,1.92-1.13,2.92-.84,2.61-1.47,5.29-2.38,7.89-.08.23-.12.47-.25.68-.81,1.75-1.49,3.56-2.13,5.37-1.49,4.25-3.48,8.22-6.45,11.65-1.12,1.3-2.44,2.38-3.83,3.39-.73.53-1.49,1.02-2.25,1.51-.23.15-.46.42-.78.17-.03-.23.12-.36.26-.49.96-.83,1.85-1.73,2.7-2.68.83-.92,1.57-1.9,2.24-2.83-2.45,2.39-5.2,4.55-8.3,6.24-4.39,2.4-9.06,3.85-14.03,4.35-4.91.5-9.74-.03-14.49-1.32-.26-.07-.51-.18-.74-.31-.1-.05-.18-.1-.27-.15-.25-.07-.53-.07-.75-.25-.78-.12-1.47-.49-2.19-.77-.21-.09-.49.04-.6-.26-.8-.13-1.47-.58-2.18-.92-.23-.03-.41-.14-.6-.26-2.05-.99-4.06-2.06-5.92-3.38-.27-.08-.5-.23-.68-.43-1.86-1.29-3.68-2.65-5.34-4.18-1.47-1.33-2.99-2.62-4.23-4.18-.12-.06-.2-.15-.26-.27-.35-.31-.68-.64-.91-1.05-.12-.05-.21-.14-.26-.26-.44-.5-.87-1.01-1.31-1.51-.2-.15-.3-.38-.44-.58-.11-.15-.22-.3-.33-.45-.15-.15-.36-.26-.38-.51-.37-.37-.67-.8-.93-1.25-.27-.16-.36-.49-.55-.71-.11-.16-.21-.31-.32-.46-.27-.19-.48-.42-.5-.76-.4-.58-.81-1.16-1.21-1.73-.21-.23-.4-.46-.45-.77-.75-1-1.25-2.15-1.93-3.19-.12-.17-.17-.37-.29-.53-.38-.7-.77-1.4-1.15-2.1-.15-.17-.27-.36-.26-.6-.55-1.12-1.11-2.24-1.66-3.36-.21-.18-.16-.46-.29-.68-.49-1.18-.99-2.38-1.48-3.57.03-.23.12-.28.29-.1"/>
        <path class="cls-5" d="M122.79,76.26c0,.13-.06.21-.18.28-3.35,1.97-6.1,4.67-8.85,7.35-3,2.93-5.91,5.96-9.13,8.65-2.49,2.08-5.12,3.96-7.99,5.48-.16.09-.36.13-.54.19-.1,0-.21-.02-.31-.05-2.35-1.18-4.41-2.77-6.42-4.45-1.05-.88-2.06-1.79-3.03-2.74-4-3.95-7.53-8.3-10.86-12.81-1.23-1.67-2.44-3.35-3.58-5.09-.17-.26-.49-.51-.27-.9.29-.12.58-.25.87-.37.07-.15.2-.21.36-.23,1.35-.8,2.7-1.59,4.05-2.39.25-.14.43-.41.75-.4,1.61-.94,3.21-1.88,4.82-2.81.18-.1.34-.23.54-.29.36-.2.71-.4,1.07-.59.12-.18.3-.21.49-.25,2.24-1.17,4.3-2.68,6.76-3.39.42-.12.84-.21,1.26-.31.4-.13.83.04,1.23-.11h.16c.35.14.73-.01,1.09.1,1.25.16,2.34.83,3.52,1.2.18.12.44.12.58.31,1.14.68,2.25,1.4,3.46,1.9.21.02.39.1.49.3.75.5,1.53.93,2.35,1.29.21.08.46.1.58.34,1.36.81,2.72,1.63,4.09,2.43,2.6,1.51,5.2,3.02,7.8,4.52,1.62.95,3.23,1.9,4.85,2.84"/>
        <path class="cls-1" d="M127.46,99.08c.82-2.42,1.53-4.88,2.21-7.35.4-1.44.9-2.85,1.72-4.14.01.24.02.48.03.73-.09.52-.1,1.05,0,1.57l.04,6.26c.1,1.09.03,2.18.05,3.26.01.8-.04,1.6.14,2.38.02.33.03.66-.18.95v.73c.17.2.2.44.2.68,0,3.11.03,6.24-.01,9.35,0,.1-.02.2-.04.29-.25,1.15-.06,2.31-.12,3.47-.01.32,0,.63,0,.95-.09,1.92-.26,3.84-1.16,5.6-.66,1.28-1.54,2.36-2.79,3.11-1.63.97-3.24,1.97-4.93,2.85-.19.1-.38.21-.55.33-4.45,2.62-8.94,5.15-13.39,7.76-.19.08-.37.18-.54.31-2.79,1.77-5.67,3.37-8.54,5-.2.1-.38.21-.56.33-1.39.8-2.83,1.43-4.47,1.49-.49,0-.97,0-1.47,0-.44,0-.88-.03-1.3-.16-.22-.06-.42-.14-.64-.21-.36-.14-.73-.22-1.06-.42-.18-.14-.39-.24-.61-.3-.12-.05-.24-.1-.36-.16-.47-.22-.93-.47-1.38-.74-.12-.05-.24-.1-.36-.16-.78-.53-1.62-.96-2.42-1.44-.16-.12-.33-.21-.51-.29-.32-.15-.6-.36-.94-.49-.17-.1-.33-.21-.49-.31-.36-.26-.76-.46-1.14-.7-.16-.1-.34-.18-.51-.27-.32-.19-.62-.42-.96-.61l-.25-.14c-.27-.18-.55-.34-.85-.47-.8-.55-1.73-.9-2.46-1.56v-.22c.14-.22.37-.24.58-.24,1.35.03,2.68-.14,4.02-.17,6.35-.15,12.6-1.06,18.64-3.06,5.07-1.68,9.66-4.23,13.62-7.82,2.88-2.61,5.21-5.66,7.13-9.04,2.39-4.18,4-8.67,5.39-13.26.38-1.23.83-2.44,1.22-3.67"/>
        <path class="cls-3" d="M127.46,99.08c-1.01,4.01-2.27,7.94-3.87,11.76-2.12,5.09-4.96,9.71-8.94,13.58-4.66,4.52-10.22,7.41-16.4,9.23-4,1.17-8.1,1.85-12.26,2.23-2.85.26-5.7.3-8.55.38-.21,0-.45-.07-.62.14-.12.05-.24.03-.37,0-.91-.1-1.82-.02-2.73-.03-.25,0-.49,0-.74,0-.25,0-.49,0-.73-.03l-.24-.05c-.47-.14-.95-.06-1.42-.07-.32,0-.64,0-.97-.05-.37-.13-.76-.1-1.14-.1-.22,0-.45,0-.66-.04l-.21-.05c-.27-.1-.55-.07-.84-.07-.18,0-.36,0-.54-.03l-.22-.04c-.31-.1-.64-.06-.97-.08-.15,0-.29-.02-.44-.05-.25-.09-.51-.08-.77-.1-.16-.01-.29-.08-.41-.19l-.05-.03-.06.02c-.27-.11-.56-.04-.84-.05-.85.16-1.67.14-2.43-.32.07-.52.51-.38.79-.39,1.25-.05,2.48-.08,3.72-.12,2.71-.1,5.41-.27,8.1-.49,5.23-.45,10.42-1.21,15.55-2.37,4.36-.99,8.63-2.29,12.75-4.05,3.7-1.57,7.18-3.53,10.41-5.92.27-.2.51-.45.88-.48,1.54-.83,2.96-1.84,4.32-2.94,3.18-2.58,5.32-5.96,7.06-9.59,1.08-2.24,1.81-4.61,2.7-6.92.34-.9.75-1.78,1.14-2.67"/>
        <path class="cls-7" d="M95.94,98.1l.16.11c-1.48.92-3.1,1.49-4.74,2.03-1.89.63-3.84,1.06-5.81,1.28-2.17.25-4.35.26-6.55.08-2.77-.22-5.48-.76-8.15-1.49-2.89-.79-5.68-1.85-8.42-3.07-.73-.33-1.46-.68-2.19-1.01-.16-.07-.33-.1-.34-.31-.74-1.51-1.49-3.01-2.2-4.52-.8-1.67-1.54-3.36-2.2-5.09-.58-1.54-1.19-3.08-1.72-4.65-.75-2.18-1.42-4.38-2.03-6.59-.44-1.57-.81-3.17-1.21-4.75-.04-.14-.05-.29.12-.38.23-.13.34.02.43.2,1.86,2.01,3.94,3.78,5.93,5.63,1.76,1.64,3.61,3.18,5.45,4.75.83.7,1.62,1.46,2.55,2.05.25.1.52.15.58.47.23.32.56.51.88.7.12.08.24.14.32.25.38.31.77.63,1.15.94.17.05.35.09.5.19,2.18,1.57,4.31,3.18,6.57,4.65,4.15,2.71,8.48,5.09,13.17,6.77,2.52.9,5.13,1.39,7.76,1.75"/>
        <path class="cls-4" d="M95.94,98.1c-.98.25-1.92-.1-2.85-.26-4.68-.85-8.95-2.76-13.08-5.03-4.09-2.25-7.89-4.9-11.6-7.7l-.18-.11c-.12-.18.03-.4-.1-.58-.3-.85-.33-1.75-.48-2.63-.03-.24-.13-.47-.13-.72-.26-1.46-.45-2.93-.6-4.4-.12-.25,0-.54-.12-.79.08-.18-.19-.34-.04-.53-.12-.24.01-.53-.11-.79l-.04-.68c-.12-.29.04-.62-.11-.91-.01-.23-.03-.46-.04-.7-.12-.3.02-.64-.11-.94-.01-.32-.03-.64-.04-.97-.12-.36.03-.73-.1-1.08-.01-.38-.03-.75-.04-1.12-.16-.49.07-1.02-.11-1.51-.01-.57-.03-1.14-.04-1.71-.12-.27-.08-.57-.03-.84.07-.34.23-.19.33.01.63,1.22,1.38,2.37,2.19,3.49.17.1.3.22.29.44.74,1.41,1.75,2.66,2.57,4.02l.25.11c-.03.18.07.33.16.47,4.39,6.4,9.03,12.6,14.57,18.07,2.89,2.85,6.01,5.41,9.58,7.39"/>
        <path class="cls-2" d="M59.75,134.97c-.1-.07-.21-.14-.14-.29,2.75-.59,5.32-1.68,7.9-2.77.11-.04.2-.12.3-.19.14-.23.42-.14.61-.26,2.52-1.27,4.97-2.66,7.29-4.27,1.41-.97,2.86-1.9,4.13-3.07.75-.04,1.42.3,2.13.46,2.2.52,4.42.83,6.67,1.03,1.39.13,2.78.16,4.16.1,3.95-.17,7.8-.9,11.51-2.31,3.6-1.37,6.9-3.25,9.91-5.64,1.27-1.01,2.43-2.15,3.68-3.2-.32.81-.87,1.47-1.4,2.14-1.24,1.56-2.57,3.04-4.14,4.3l-.12.18c-1.51,1.32-3.2,2.38-4.91,3.39-4.96,2.95-10.28,4.98-15.85,6.45-3.85,1.01-7.75,1.78-11.7,2.34-2.61.38-5.24.66-7.87.88-2.48.2-4.95.34-7.43.46-1.31.07-2.62.07-3.94.11-.17,0-.35-.01-.49.1-.1.01-.2.03-.29.04"/>
        <g>
          <g>
            <path class="cls-5" d="M154.11,132.72c5.34,2.16,10.71,2.03,16.08.12,2.63-.94,4.89-2.52,6.78-4.57.74-.81,1.24-1.82,1.85-2.75.15-.31.31-.62.46-.93.31-1.1.61-2.2.92-3.31-.03-.27-.02-.53.12-.78.05-1.82.03-3.65-.49-5.42-.7-2.42-2.17-4.35-4.14-5.9-1.69-1.34-3.63-2.25-5.59-3.09-.5-.22-1-.42-1.5-.64-.27-.04-.52-.12-.74-.29-2.53-.83-5.09-1.55-7.48-2.73-.23-.07-.44-.16-.59-.35-.9-.4-1.55-1.02-1.75-2.04-.14-.18-.14-.39-.11-.6-.07-.36-.04-.7.15-1.02l.08-.17c.12-.7.73-.94,1.2-1.3.31-.25.64-.4,1.03-.43,1.77-.52,3.51-.56,5.22.25.1.05.24.04.36.05.18.04.37.1.5.25,1.53.81,2.86,1.9,4.18,2.99.99.81,1.71.38,2.49-.38.41-.41.79-.84,1.18-1.27.13-.16.22-.35.45-.4.51-.71,1.14-1.32,1.75-1.94.15-.14.29-.3.44-.45.27-.3.55-.6.81-.9.94-1.1.97-1.38.21-2.72-.15-.15-.3-.31-.45-.47l-.14-.14c-.16-.14-.31-.29-.47-.44-1.4-1.05-2.83-2.06-4.37-2.92-.19-.1-.39-.21-.58-.31-1.33-.48-2.62-1.08-4-1.38-.38-.08-.75-.17-1.12-.25-.27.07-.48-.13-.72-.14-.46.09-.88-.15-1.33-.16-.31.02-.62.03-.92-.1h-2.85c-.29.12-.6.12-.92.1-.28.01-.56.03-.84.05-.19.12-.4.12-.62.11-2.29.39-4.52.94-6.56,2.09-.13.14-.27.27-.49.25-.66.4-1.29.84-1.85,1.36-.18.22-.35.45-.64.55-1.62,1.68-2.76,3.61-3.2,5.94-.1.52-.1,1.04-.2,1.55v2.04c.06,1.14.21,2.27.62,3.35.16.23.28.46.27.75.1.21.2.43.3.64.18.13.27.31.28.53l.17.26c.14.21.27.41.4.62.9,1.4,2.14,2.48,3.4,3.53.19,0,.31.12.4.28.4.3.81.58,1.22.87.26-.04.42.1.55.29,1.85,1.01,3.74,1.91,5.71,2.68,2.27.89,4.69,1.41,6.74,2.85.83.6,1.64,1.18,1.81,2.29.18.29.12.58.01.87-.11,1.23-.61,2.23-1.68,2.9-.13.18-.3.28-.53.27-2.33,1.01-4.65.82-6.96-.08-2.12-.83-3.88-2.21-5.57-3.71-.49-.43-1.01-.83-1.55-1.2-.24,0-.49,0-.73,0-.5.08-.79.46-1.12.77-.08.13-.16.28-.35.27-.4.39-.8.77-1.2,1.16-.15.32-.42.52-.71.7-.79.75-1.58,1.49-2.38,2.23-.01.17-.11.25-.27.27-.29.31-.58.61-.88.91v.88c2.73,3.59,6.27,6.08,10.43,7.76"/>
            <path class="cls-5" d="M298.2,122.45h-15.98c-.14,0-.29-.01-.44-.02-.24-.22-.11-.5-.11-.75,0-11.26,0-22.52,0-33.78-.27-.84-.88-1.16-1.72-1.16-2.99,0-5.98,0-8.98,0-1.16,0-1.62.47-1.63,1.6.01.22.04.44.04.66v37.08c0,.22-.03.43-.04.65.07,1.27.07,2.54,0,3.81.08.18.05.36-.04.62-.15-.22-.25-.39-.26-.61-.64-1.63-1.31-3.25-1.94-4.89-.78-2.07-1.68-4.09-2.35-6.2-.16-.18-.23-.4-.26-.64-.34-.64-.6-1.3-.77-2.01-.16-.18-.22-.4-.25-.63-.94-2.37-1.88-4.73-2.81-7.09-.9-2.29-1.77-4.57-2.66-6.86-.07-.18-.14-.35-.14-.55-.1-.25-.21-.49-.31-.73-.13-.23-.26-.46-.26-.73-.16-.17-.19-.39-.25-.6-.8-2.03-1.6-4.05-2.39-6.07-.09-.23-.17-.45-.26-.67-.02-.14-.05-.28-.07-.42-.12-.04-.14-.14-.12-.24-.19-.23-.25-.51-.33-.79-.2-.32-.32-.67-.41-1.03-.3-.72-.6-1.46-.9-2.19-.14-.17-.25-.35-.26-.58l-.14-.15c-.55-.64-1.25-.77-2.07-.76-2.29.04-4.57,0-6.86-.01-1.02.03-1.97.18-2.34,1.34-.1.25-.19.49-.29.73l-.02.15c-.02.24-.1.46-.26.65-.04.21-.08.41-.29.53-.07.53-.25,1.03-.58,1.47-.01.53-.31.97-.47,1.46-.27.69-.55,1.38-.82,2.07,0,.12,0,.25-.17.27.04.62-.38,1.08-.56,1.63-.21.53-.27,1.13-.66,1.59.05.25-.03.45-.25.6-.04.16.07.37-.14.49l-.03.24c-.1.24-.2.49-.3.73-.12.29-.25.59-.36.9-.2.49-.27,1.03-.63,1.45-.08.25-.04.55-.29.73.01.66-.42,1.16-.6,1.75-.18.18-.05.49-.28.64.06.26-.05.43-.27.55-.08.3-.05.64-.31.87.03.62-.38,1.08-.55,1.62-.26.23-.1.62-.34.86-.2.37-.15.84-.45,1.18-.05.14-.1.29-.16.44-.38.98-.76,1.95-1.14,2.93.08.33-.33.44-.33.73-.01.48-.32.87-.42,1.32-.03.27-.12.51-.29.73l-.13.19c-.22.68-.42,1.37-.75,2.01-.07.2-.16.4-.24.6-.36.97-.72,1.94-1.08,2.91-.1.2-.2.39-.31.58.03.12.05.24-.08.31-.11.26-.21.51-.32.77v.09c-.21.53-.42,1.08-.62,1.61-.25.68-.5,1.37-.75,2.05-.05.21-.09.44-.25.6l-.09.15c-.02.45-.34.77-.51,1.15-.06.75-.5,1.36-.71,2.05.02.95.29,1.21,1.4,1.21,2.96.01,5.91,0,8.86,0,1.22,0,1.58-.26,2.02-1.4.71-1.86,1.42-3.73,2.11-5.61.15-.41.35-.55.79-.54,5.2.01,10.4.01,15.6,0,.49,0,.67.2.82.62.64,1.76,1.31,3.51,1.98,5.26.58,1.54.8,1.68,2.48,1.69,2.57,0,5.13,0,7.69,0,.67,0,1.38.13,1.99-.31.12-.08.22-.05.33.03.47.37,1.02.28,1.55.28,6.08,0,12.17,0,18.25,0,3.05,0,6.11,0,9.16,0,1.16,0,1.64-.5,1.64-1.66,0-2.88-.01-5.76-.02-8.64-.1-.14-.19-.29-.29-.44-.54-.53-1.24-.42-1.9-.47M250.91,115.91c-2.98-.03-5.95-.01-8.96-.01,1.57-4.73,3.11-9.42,4.65-14.1.38.06.33.34.38.52,1.46,4.31,2.89,8.63,4.35,12.94.17.48.19.66-.42.66M269.65,133.1c-.27-.4-.23-.7-.21-1.12.28.36.36.64.21,1.12"/>
            <path class="cls-5" d="M347.14,112.16h0c.09-2.03-.06-4.06-.28-6.08l-.05-.1c-.1-.2-.08-.43-.13-.64-.08-.29-.15-.59-.23-.89-.01-.15-.03-.29-.04-.44-.58-1.52-1.16-3.03-1.74-4.55-.18-.34-.37-.68-.55-1.02-.86-1.42-1.81-2.77-2.83-4.07-.1-.11-.2-.21-.3-.31-1.44-1.37-2.83-2.81-4.53-3.87-.73-.46-1.48-.91-2.22-1.36-.2-.11-.4-.22-.6-.33-1.31-.49-2.58-1.08-3.93-1.47-1.49-.43-3.02-.66-4.55-.9h-.15c-.41,0-.82.02-1.22-.12h-1.8c-.35.14-.72.11-1.08.11-2.68.27-5.28.88-7.76,1.95-.15.08-.3.15-.45.23-.62.31-1.25.63-1.87.94-.12.14-.27.26-.47.25-4.33,2.62-7.48,6.27-9.55,10.87-.04.22-.12.42-.27.59-.74,1.91-1.34,3.85-1.61,5.89-.1.77-.07,1.55-.18,2.31v2.19c0,1.25.08,2.51.37,3.7.63,2.57,1.43,5.08,2.88,7.36,1.47,2.33,3.16,4.46,5.27,6.22,5.46,4.56,11.75,6.35,18.79,5.54,2.91-.33,5.66-1.26,8.25-2.61.93-.49,1.76-1.14,2.69-1.62.16-.12.32-.25.49-.38.22-.17.35-.46.67-.5.26-.23.53-.45.79-.67.28-.26.57-.53.86-.79.15-.15.3-.3.45-.45.16-.18.31-.37.48-.54,1.77-1.79,3.11-3.9,4.17-6.15,1.12-2.37,1.83-4.89,2.13-7.51-.01-.27-.03-.53.1-.78M326.81,122.04c-7.13,2.4-14.48-2.11-15.59-9.59-.59-4,.18-7.7,2.9-10.79,3.15-3.57,7.2-4.71,11.74-3.6,4.51,1.09,7.27,4.15,8.54,8.57.34,1.17.49,2.38.45,3.44,0,5.72-3.15,10.32-8.05,11.97"/>
            <path class="cls-5" d="M222.72,87.75l-.07-.27c-.18-.19-.38-.36-.56-.55-.54-.18-1.1-.2-1.66-.19-2.79,0-5.57,0-8.35,0-.61,0-1.15.12-1.53.64-.18.33-.11.68-.11,1.04,0,4.61,0,9.22.01,13.84,0,.66-.26.91-.9.91-4.72-.01-9.43-.02-14.14,0-.98,0-.47-.65-.55-1.05v-13.48c-.1-1.37-.65-1.89-2.03-1.89-2.76,0-5.52.05-8.27-.02-1.47-.03-2.06.44-2.05,1.91,0,.17.02.34.02.51,0,12.21,0,24.43,0,36.63,0,.17-.01.34-.02.51.01,2.09.03,4.18.03,6.26,0,.62.24,1,.88,1.08,3.42,0,6.84,0,10.25,0,.19-.07.38-.13.58-.2.1-.1.2-.18.29-.28.22-.45.29-.9.29-1.4,0-5.56,0-11.12-.02-16.68,0-.58.16-.72.73-.72,4.25.02,8.49.01,12.73.01.39,0,.78,0,1.17,0,.87.02.99.14.99.99,0,1.09,0,2.19,0,3.29,0,4.41,0,8.83-.01,13.24,0,.62-.08,1.21.53,1.6.46.14.95.17,1.44.17,3.09-.01,6.18-.01,9.26-.02.55-.15.93-.48,1.06-1.06,0-13.28,0-26.56,0-39.84,0-1.66,0-3.32,0-4.98"/>
            <path class="cls-5" d="M390.85,87.75c-.18-.27-.32-.58-.6-.78-.16-.08-.33-.15-.5-.23-3.01,0-6.01,0-9.02,0-1.51,0-1.87.36-1.87,1.9v22.85c0,.29-.03.58-.03.87.05.18.05.36-.02.56-.21-.08-.25-.25-.31-.39-.4-.51-.72-1.05-1-1.62-.09-.15-.18-.29-.27-.45-1.2-1.77-2.33-3.57-3.39-5.42-.12-.19-.23-.38-.35-.56-.34-.4-.63-.84-.83-1.34-.1-.14-.2-.29-.31-.44-.75-1.17-1.51-2.33-2.23-3.51-.94-1.51-1.84-3.03-2.76-4.55-.1-.14-.19-.29-.29-.44-.39-.51-.72-1.05-1-1.63-.12-.18-.23-.37-.35-.56-.86-1.34-1.73-2.68-2.56-4.03-.49-.81-1.14-1.26-2.12-1.25-3.29.02-6.59,0-9.89,0-1.32,0-1.63.31-1.63,1.62,0,14.55,0,29.1,0,43.65,0,.36-.09.73.13,1.05.16.07.24.23.32.37.38.18.78.23,1.19.23,3.11-.01,6.22-.02,9.33-.03l.14-.03c.1-.05.19-.11.29-.17.43-.44.44-1,.44-1.57v-25.71c0-.25-.06-.51.1-.79.15.25.26.43.38.62,5.26,8.7,10.52,17.4,15.79,26.11.23.38.47.74.77,1.06.3.33.64.5,1.09.5,3.32,0,6.65-.01,9.97,0,.62,0,1.09-.23,1.39-.77v-5.85c0-13.09,0-26.19,0-39.28"/>
          </g>
          <g>
            <path class="cls-2" d="M200.19,75.36c0-.1,0-.2,0-.29-.05-.25-.1-.49-.14-.73-.05-.19-.1-.39-.14-.59-.1-.24-.2-.49-.29-.73-.05-.1-.1-.19-.15-.29-.1-.19-.21-.38-.32-.57l-.74-.89c-.5-.44-1.05-.8-1.62-1.14-.53-.17-1.07-.34-1.6-.51-.31,0-.62.01-.92-.11h-.18c-.35.14-.72.12-1.08.13l-.27.06c-.3.08-.59.16-.88.25-.35.28-.75.47-1.18.61l-.14.12c-.12.37-.55.44-.75.73-.01.27-.27.31-.42.45-.12.19-.23.38-.34.57.02.2-.12.32-.22.47l-.18.13c-.07.29-.13.58-.2.87-.04.14-.08.29-.12.44v.15c0,.27,0,.53-.12.77.16.24-.22.47-.01.71.17.21.12.46.12.71.05.15.1.29,0,.44.1.24.21.47.31.71.15.18.26.37.27.6.16.29.31.57.47.85.53.49,1.07.99,1.6,1.48.25,0,.43.13.59.29.16-.01.31.04.44.14.27.04.55.05.73.29.29.01.59.03.88.04h1.31c.59-.15,1.18-.29,1.76-.44.23-.12.42-.31.71-.32.49-.45.99-.9,1.48-1.35l.07-.1c.12-.16.25-.33.37-.49.21-.47.42-.94.63-1.41.05-.19.1-.39.14-.59-.08-.23.11-.38.14-.59,0-.14.01-.29.01-.44v-.44ZM194.06,79.32c-2.03-.05-3.61-1.77-3.57-3.87.04-2.08,1.71-3.7,3.79-3.66,2.07.04,3.64,1.71,3.59,3.83-.03,2.14-1.69,3.75-3.81,3.7"/>
            <path class="cls-2" d="M158.02,80.42v-.32c-.02-.31-.1-.61-.25-.91-1.6,0-3.2,0-4.81,0q-1.15,0-1.05-1.2v-.73c-.05-.25-.06-.49,0-.73.19-.27.49-.13.73-.13,1.18-.01,2.35,0,3.53.01.09-.06.18-.12.28-.18.01-.58.03-1.17.05-1.75-.18-.31-.5-.24-.78-.24-1,0-1.99,0-2.99,0q-.9,0-.82-.92v-.73c-.05-.2-.07-.39.03-.58.18-.24.45-.12.67-.12,1.68-.01,3.35-.01,5.03-.01l.16-.17c0-.58,0-1.16,0-1.75l-.03-.1c-.55-.18-1.12-.09-1.67-.09-1.94-.01-3.9,0-5.85-.01-.51,0-.74.1-.74.68.03,3.44.01,6.87.02,10.3,0,.21.06.43.1.64l.09.03c2.64,0,5.27.01,7.91.02h.16c.12-.34.19-.66.21-.98"/>
            <path class="cls-2" d="M262.36,79.4c-1.16-2.99-2.38-5.96-3.58-8.94-.09-.23-.2-.43-.29-.65-.62-.12-1.25-.07-1.88-.03-.66,1.22-1.1,2.55-1.63,3.83,0,.29-.12.52-.28.74-.21.34-.18.79-.54,1.04l-.06.27c-.38,1.22-.9,2.4-1.41,3.57-.2.47-.39.95-.55,1.44-.08.23-.16.51.08.73.68-.03,1.35-.05,2.03-.07.29-.67.58-1.34.88-2.01.14-.06.28-.09.42-.05,1.29-.15,2.57,0,3.86-.04.2,0,.53-.16.56.25.29.64.39,1.38.9,1.93.68-.02,1.36-.04,2.04-.06.1-.72-.3-1.32-.54-1.94M258.75,77.17c-.92,0-1.84,0-2.86,0,.55-1.49,1.07-2.88,1.64-4.42.54,1.44,1.02,2.74,1.51,4.03.11.3,0,.4-.29.4"/>
            <path class="cls-2" d="M225.55,80.78c-.06-.19-.13-.38-.19-.58l-.1-.16-.05-.25c-.14-.07-.13-.2-.12-.33-.21-.31-.34-.66-.42-1.03-.2-.25-.31-.55-.36-.86-.16-.11-.1-.28-.11-.43-.26-.29-.43-.62-.45-1.01-.08-.16-.16-.32-.25-.49-.09-.34-.36-.63-.34-1.01-.15-.16-.22-.37-.25-.59l-.04-.11c-.08-.16-.17-.32-.25-.49-.25-.72-.68-1.38-.77-2.17-.16-.11-.23-.28-.26-.46-.16-.34-.31-.67-.47-1.01-.26,0-.53-.05-.8-.08h-.14c-.38-.04-.77,0-1.1.36-.23.54-.46,1.08-.69,1.62-.12.33-.24.68-.36,1.01-.05.2-.06.43-.27.56-.6,1.53-1.2,3.06-1.8,4.58-.06.16-.18.29-.27.42-.05.2-.1.39-.14.59-.08.37-.21.72-.42,1.04-.23.35-.38.74-.44,1.16.03.16.11.28.29.31h1.75c.1-.07.19-.13.29-.19l.03-.12c.16-.4.33-.8.49-1.19.06-.15.12-.29.18-.44l.08-.13c.6-.25,1.23-.12,1.84-.1.98.02,1.97-.16,2.94.1.05.2.1.39.16.59.06.1.11.19.17.29.1.28.21.55.31.84.18.08.15.38.42.36.58,0,1.16,0,1.75,0,.3-.13.27-.36.17-.61M221.44,77.17c-.83,0-1.65,0-2.48,0-.3,0-.39-.12-.28-.4.49-1.28.97-2.57,1.52-4.01.53,1.45,1.02,2.76,1.51,4.07.1.27-.01.34-.27.34"/>
            <path class="cls-2" d="M321.18,80.65h0c-.03-.1-.05-.2-.08-.3-.16-.16-.21-.38-.26-.59-.15-.15-.21-.33-.19-.53-.16-.18-.25-.4-.27-.64-.49-1.2-.97-2.4-1.49-3.59-.75-1.74-1.29-3.57-2.2-5.24-.58.01-1.16.02-1.75.03-.1.16-.19.31-.29.46-.2.49-.4.96-.6,1.45,0,.28-.11.52-.27.73-.03.28-.12.53-.29.74-.69,1.71-1.38,3.41-2.07,5.12,0,.28-.11.52-.27.74-.23.61-.43,1.24-.71,1.83-.18.36-.01.45.27.53h1.6c.27-.03.36-.19.47-.45.22-.55.31-1.15.68-1.64,1.57-.16,3.15-.18,4.72,0l.17.25c.16.18.23.4.26.62.05.32.14.62.34.88.3.44.76.28,1.17.31.28.01.57.01.85.02l.27-.03c.1-.24.05-.47-.03-.71M317.12,77.16h-2.92c.55-1.46,1.06-2.84,1.65-4.42.55,1.5,1.05,2.81,1.53,4.14.09.25-.08.29-.27.29"/>
            <path class="cls-2" d="M271.42,71.85c.88,0,1.75,0,2.63.01.51-.66.29-1.36.14-2.06-1.51-.14-3.01-.04-4.52-.06-1.21-.02-2.43,0-3.65,0-.33,0-.64.01-.75.4.01.43.04.86.04,1.29,0,.2,0,.38.25.43.85,0,1.7,0,2.55,0,.17,0,.4-.11.51.14.01,2.89.02,5.79.04,8.67,0,.25-.17.61.27.72.58,0,1.16,0,1.75,0,.44-.25.22-.7.31-1.05v-8.21c-.06-.39.25-.28.43-.28"/>
            <path class="cls-2" d="M305.11,69.74h-6.22c-.31,0-.64-.03-.94.11l-.03.1c0,.58,0,1.16,0,1.75.05.16.21.14.32.18.81,0,1.62.02,2.42-.03.54-.04.64.18.64.67-.02,2.9-.01,5.8,0,8.71.05.17.21.14.32.18h1.61c.09-.05.19-.12.28-.17.01-2.83.05-5.66.03-8.5,0-.68.12-.97.86-.89.72.08,1.47.03,2.2.03.1-.05.18-.12.28-.18q.18-1.95-1.76-1.95"/>
            <path class="cls-2" d="M278.59,69.95c0,.14-.01.29-.02.43v9.96c0,.25,0,.49,0,.74l.16.27.14.04c.58,0,1.17,0,1.75,0,.25-.13.26-.38.3-.61v-10.55c-.05-.14-.1-.28-.16-.42-.73-.05-1.49-.27-2.19.14"/>
            <path class="cls-2" d="M291.28,74.63c-.9-.32-1.85-.49-2.66-1.02-.73-.47-.7-1.14.03-1.64.13-.15.3-.23.51-.24,1-.18,1.88.06,2.63.77.29.27.6.49,1.02.23.15-.13.3-.26.45-.39.75-.94.71-.94-.23-1.7-.56-.45-1.22-.66-1.85-.94-.18-.05-.36-.1-.54-.14l-.08-.02c-.39,0-.78-.03-1.16,0-1.56.19-3.22.56-3.64,2.61v1.31c.1.54.33,1,.75,1.36.27.13.49.33.69.55l.17.12c1.19.79,2.71.77,3.91,1.57.51.34.69.78.41,1.32-.4.77-1.55,1.21-2.4.92-.27-.02-.51-.1-.72-.28-.47-.04-.77-.38-1.12-.62-.86-.6-.84-.62-1.62.07-.7.62-.72.86-.02,1.51,1.02.95,2.22,1.53,3.64,1.56h.73c2.51-.26,4.3-1.65,4.09-4.35-.09-.22-.17-.44-.25-.65-.67-.99-1.65-1.51-2.73-1.9"/>
            <path class="cls-2" d="M166.85,74.33c-.78-.25-1.67-.34-2.17-1.14-.2-.25-.19-.51,0-.76,0-.42.34-.51.62-.59,1.04-.31,1.98-.12,2.83.58.72.59.92.53,1.52-.16.72-.85.71-1-.2-1.66-.18-.13-.35-.26-.53-.38-.15-.08-.3-.16-.45-.24-1.19-.4-2.4-.61-3.65-.32-.12.12-.27.15-.44.14-.49.18-.95.38-1.34.74-.18.25-.36.49-.55.74-.19.31-.32.65-.34,1.02v1.02c.21,1.53,1.36,2.13,2.6,2.63,1.04.43,2.18.6,3.14,1.23.21.12.34.29.3.54.06,1.04-1.11,1.9-2.2,1.63-.35.02-.66-.08-.94-.29-.51-.11-.9-.44-1.3-.73-.25-.17-.39-.51-.78-.44-.25.2-.49.4-.74.59-.63.7-.6,1.08.15,1.68.16.13.35.24.53.36.27.07.5.2.68.41.6.38,1.25.59,1.96.6.34,0,.68,0,1.02,0,.75-.08,1.48-.23,2.16-.6,1.96-1.09,2.61-3.42,1.26-4.94-.81-.92-2-1.29-3.15-1.66"/>
            <path class="cls-2" d="M247.94,80.15c.2-.38.4-.75.61-1.12-.01-.16.01-.32.12-.45.11-1.25-.22-2.33-1.13-3.22-.16-.15-.25-.27-.08-.49.36-.41.47-.93.66-1.42v-.88c-.27-1.45-1.16-2.33-2.52-2.8-1.76-.01-3.52-.03-5.28-.03-.24,0-.48.06-.72.1l-.03.1c0,3.71,0,7.41,0,11.12,0,.21.11.31.31.32,1.86,0,3.72,0,5.57,0,.76-.03,1.41-.35,2.01-.77.16-.16.31-.32.47-.47M243.2,71.67c.44,0,.88-.01,1.31.01.77.03,1.28.53,1.32,1.28.05.74-.46,1.39-1.21,1.49-.41.05-.83.01-1.24.01q-1.5.01-1.5-1.51,0-1.28,1.31-1.28M245.13,79.38c-.52.1-1.07.08-1.6.11q-1.65-.03-1.64-1.71c0-1.5,0-1.51,1.47-1.5.58,0,1.17-.05,1.75.08.76.18,1.23.73,1.23,1.5s-.46,1.38-1.21,1.52"/>
            <path class="cls-2" d="M183.87,80.58h0c.12-.15.29-.27.26-.5-.13-.25-.38-.44-.42-.75-.3-.23-.31-.79-.85-.77-.14.02-.25.11-.38.18-1.1.61-2.23.9-3.44.27-.33-.12-.68-.23-.88-.55-.15-.15-.3-.31-.45-.46l-.12-.15c-.38-.46-.62-.97-.61-1.58-.18-.47-.18-.92,0-1.39-.02-.36.05-.68.27-.98l.02-.03c.09-.23.06-.55.44-.56.04-.47.43-.65.74-.9.23-.27.57-.31.88-.4.25.02.42-.28.69-.18.32-.15.64-.14.97,0,.16-.01.32-.05.4.14.29.1.58.21.87.32.25.1.43.36.74.29.14-.11.27-.23.41-.34,0-.18.1-.29.21-.4.08-.12.16-.24.23-.36.07-.13.13-.26.2-.38.04-.23-.04-.42-.19-.58-.38-.21-.77-.4-1.16-.6-1.16-.33-2.32-.47-3.52-.27-.12.12-.27.14-.44.12-.24.08-.47.15-.71.23h0c-.35.18-.7.36-1.05.54-.1.16-.18.34-.41.29-.88.93-1.6,1.96-1.94,3.21.02.27,0,.53-.14.77-.04,1.5,0,2.97,1.05,4.2.12.08.21.16.22.31.12.19.41.25.38.55h0c.4.01.47.4.69.59.28-.04.37.26.58.34.34.19.77.22,1.03.55.27-.05.51,0,.73.18.19-.1.39-.04.58,0h.15c.44,0,.88,0,1.32,0,.48-.12.96-.25,1.44-.36.2-.09.4-.18.6-.27.19-.11.38-.22.58-.33"/>
            <path class="cls-2" d="M212.16,79.32c-.29-.16-.61-.12-.92-.12-1.4-.04-2.8.08-4.19-.08-.21-1.18-.05-2.37-.09-3.55-.05-1.93.08-3.85-.07-5.76-.68-.13-1.35-.05-2.03-.05l-.17.18c0,3.76,0,7.52,0,11.28.05.16.21.13.32.17h6.88c.1-.05.19-.12.28-.17.06-.64.07-1.27,0-1.9"/>
          </g>
        </g>
      </g>
    </g>
  </g>
</svg>