<svg width="1366" height="266" viewBox="0 0 1366 266" fill="none" xmlns="http://www.w3.org/2000/svg">
<mask id="mask0_918_13" style="mask-type:alpha" maskUnits="userSpaceOnUse" x="0" y="0" width="1366" height="258">
<rect width="1366" height="258" fill="#D9D9D9"/>
</mask>
<g mask="url(#mask0_918_13)">
<path d="M-9.96068 2758.24C40.5461 2781.5 96.1547 2782.95 147.842 2768.05C227.241 2745.17 299.36 2687.91 368.524 2627.67C437.687 2567.43 505.952 2502.96 581.97 2463.32C674.626 2415 776.72 2405.59 874.633 2432.38C961.063 2456.03 1043.33 2506.82 1128.29 2541.05C1213.25 2575.28 1305.13 2592.3 1386.57 2548.33C1388.72 2547.17 1390.85 2545.96 1392.97 2544.7L1380.51 27.6219C1323.44 1.33652 1257.02 -1.69853 1195.81 11.878C1115.04 29.7946 1041.34 73.5008 970.65 119.434C899.964 165.366 830.103 214.468 752.629 244.962C658.192 282.133 554.502 290.113 455.381 270.821C367.89 253.791 284.865 216.305 198.957 191.308C126.102 170.109 48.064 158.269 -24.6081 175.768L-9.96068 2758.24Z" fill="url(#paint0_linear_918_13)"/>
</g>
<defs>
<linearGradient id="paint0_linear_918_13" x1="677.776" y1="3641.25" x2="604.047" y2="1447.79" gradientUnits="userSpaceOnUse">
<stop stop-color="#FFFBFC"/>
<stop offset="1" stop-color="#F6F3FA" stop-opacity="0.53"/>
</linearGradient>
</defs>
</svg>
