<svg width="1366" height="285" viewBox="0 0 1366 285" fill="none" xmlns="http://www.w3.org/2000/svg">
<mask id="mask0_924_18" style="mask-type:alpha" maskUnits="userSpaceOnUse" x="0" y="0" width="1366" height="285">
<rect width="1366" height="285" fill="#D9D9D9"/>
</mask>
<g mask="url(#mask0_924_18)">
<path d="M1374.84 970.923C1325.62 991.26 1270.62 993.959 1218.96 983.235C1139.61 966.769 1066.31 922.1 995.842 874.914C925.374 827.729 855.655 777.077 779.086 746.864C685.761 710.038 584.386 705.168 488.355 729.677C403.586 751.31 323.846 794.943 240.884 825.152C157.922 855.362 67.5315 871.745 -14.5461 838.157C-16.7087 837.273 -18.8599 836.344 -20.9999 835.371L-21 23.5284C34.6266 0.551098 100.267 -3.73992 161.312 5.64433C241.862 18.029 316.274 51.6173 387.774 87.1023C459.273 122.587 530.061 160.676 607.766 183.398C702.484 211.095 805.391 214.756 902.867 196.325C988.907 180.055 1069.84 147.243 1154.05 124.525C1225.46 105.26 1302.32 93.4768 1374.84 105.743L1374.84 970.923Z" fill="#C6DF5F"/>
</g>
</svg>
