<svg width="1366" height="185" viewBox="0 0 1366 185" fill="none" xmlns="http://www.w3.org/2000/svg">
<mask id="mask0_901_5" style="mask-type:alpha" maskUnits="userSpaceOnUse" x="0" y="0" width="1366" height="185">
<path d="M0 0H1366V185H0V0Z" fill="white"/>
</mask>
<g mask="url(#mask0_901_5)">
<path d="M1412.9 -45.5069C1415.71 16.765 1357.89 73.2483 1286.37 93.1915C1214.85 113.135 1136.06 103.407 1063.77 85.4698C991.483 67.5327 921.999 41.6087 848.134 28.778C764.455 14.228 676.11 17.1196 594.798 38.9851C528.092 56.9248 467.343 86.9967 405.923 115.016C344.502 143.036 280.662 169.556 211.502 179.332C142.343 189.109 66.3272 180.09 12.2583 143.179C-41.8106 106.268 -66.3972 37.9806 -32.4061 -12.6952C-10.7641 -44.9628 30.3393 -65.8483 73.2986 -75.9661C116.258 -86.0839 161.529 -86.7255 206.197 -87.2968C576.321 -92.0295 946.737 -96.7594 1316.5 -82.334C1354.98 -80.8313 1403.11 -79.0065 1412.9 -48.2361C1413.11 -47.5754 1412.87 -46.1892 1412.9 -45.5069Z" fill="#C6DF5F"/>
</g>
</svg>
