<svg width="323" height="526" viewBox="0 0 323 526" fill="none" xmlns="http://www.w3.org/2000/svg">
<g clip-path="url(#clip0_1415_37)">
<path d="M64.958 440.22C69.6218 451.39 75.7065 461.888 83.3423 471.282C90.997 480.701 99.5605 489.302 109.024 496.899C114.81 501.544 120.891 505.774 127.067 509.879C128.818 510.836 130.673 511.316 132.628 511.3C134.623 511.629 136.58 511.432 138.52 510.705C142.013 509.546 145.666 506.617 147.208 503.198C148.795 499.658 149.465 495.485 148.035 491.745C147.445 490.539 146.855 489.334 146.266 488.128C144.792 485.941 142.872 484.249 140.518 483.06C140.164 482.819 139.813 482.588 139.45 482.35C140.509 483.063 141.567 483.776 142.638 484.496C130.345 476.215 118.836 466.704 109.021 455.568C109.87 456.54 110.732 457.519 111.581 458.491C104.693 450.619 98.7096 441.984 94.1128 432.573C94.7024 433.778 95.292 434.984 95.8816 436.19C95.0146 434.402 94.2045 432.595 93.4388 430.763C91.8884 427.042 89.6256 423.936 85.9316 422.074C82.6452 420.425 77.9753 419.909 74.479 421.248C70.8499 422.631 67.4373 425.112 65.7907 428.755C64.2266 432.235 63.4392 436.563 64.9644 440.208L64.958 440.22Z" fill="#FED000"/>
<path d="M87.3711 313.626C75.9502 327.855 67.7109 344.021 62.5655 361.511C60.3504 369.031 58.8844 376.776 58.2184 384.583C57.4557 393.559 57.2119 402.448 58.3593 411.402C59.6286 421.327 61.9195 431.188 65.7386 440.446C67.2763 444.161 69.5644 447.279 73.2457 449.134C76.5321 450.784 81.202 451.3 84.6983 449.961C88.3275 448.578 91.7401 446.097 93.3866 442.454C94.9507 438.974 95.7223 434.662 94.213 431.001C91.6448 424.783 89.7538 418.32 88.4985 411.709C88.7464 413.028 88.9943 414.347 89.2422 415.666C87.5323 406.446 87.097 397.034 87.8191 387.681C87.7192 388.968 87.6129 390.267 87.513 391.554C88.328 381.37 90.4899 371.339 93.8655 361.696C93.4432 362.9 93.0208 364.104 92.5922 365.321C95.9708 355.782 100.509 346.691 106.138 338.281L103.992 341.469C105.849 338.714 107.817 336.039 109.889 333.455C112.319 330.426 113.817 326.716 113.608 322.781C113.417 319.062 111.485 314.667 108.535 312.285C105.572 309.896 101.761 308.189 97.8615 308.566C93.9619 308.943 89.8992 310.48 87.3648 313.639L87.3711 313.626Z" fill="#F9A826"/>
<path d="M201.257 255.547C184.454 257.012 167.628 260.696 151.903 266.84C136.263 272.955 121.22 281.19 108.246 291.91C100.555 298.264 93.3351 305.147 87.0529 312.92C84.6167 315.93 83.1281 319.669 83.3342 323.594C83.5248 327.313 85.4568 331.708 88.4069 334.091C91.3696 336.479 95.1808 338.186 99.0805 337.809C103.002 337.436 107.021 335.892 109.577 332.737C114.253 326.95 119.422 321.601 125.023 316.698C124.051 317.547 123.073 318.409 122.101 319.258C131.558 311.022 142.118 304.137 153.374 298.623C152.169 299.212 150.963 299.802 149.757 300.392C162.602 294.14 176.266 289.691 190.298 287.018C188.979 287.266 187.66 287.513 186.341 287.761C191.785 286.735 197.269 285.991 202.788 285.509C206.751 285.163 210.621 283.458 213.285 280.436C215.664 277.729 217.359 273.406 217.004 269.762C216.62 265.844 215.093 261.81 211.931 259.266C208.943 256.864 205.179 255.205 201.257 255.547Z" fill="#FEDC7B"/>
<path d="M234.701 352.972C237.792 352.252 240.769 351.191 243.633 349.819C246.497 348.448 249.079 347.244 251.601 345.575C254.124 343.905 256.395 341.856 258.64 339.826C262.332 336.474 265.383 332.143 267.547 327.674C270.579 321.411 271.739 315.063 272.104 308.189C272.243 305.529 272.096 302.86 271.736 300.219C271.248 296.651 270.589 292.982 269.392 289.565C268.265 286.325 266.72 283.161 264.947 280.23C263.241 277.403 261.009 274.93 258.792 272.505C255.256 268.642 250.697 265.571 246.109 263.11C241.531 260.646 236.477 258.909 231.47 257.567C226.061 256.127 220.557 255.572 214.985 255.165C211.292 254.894 207.573 254.863 203.873 255.174C199.916 255.507 196.031 257.228 193.376 260.247C190.997 262.953 189.302 267.277 189.658 270.92C190.041 274.839 191.569 278.873 194.73 281.417C197.721 283.828 201.479 285.468 205.404 285.136C209.227 284.816 213.073 284.847 216.892 285.149C215.605 285.05 214.306 284.943 213.019 284.843C218.578 285.307 224.094 286.343 229.369 288.175C228.165 287.753 226.961 287.33 225.744 286.902C229.347 288.172 232.808 289.806 235.995 291.919C234.937 291.206 233.879 290.493 232.808 289.774C235.212 291.4 237.404 293.275 239.333 295.438C238.483 294.466 237.622 293.487 236.772 292.515C238.556 294.557 240.058 296.799 241.262 299.223C240.673 298.017 240.083 296.811 239.494 295.605C240.78 298.276 241.671 301.089 242.226 304.002C241.978 302.683 241.73 301.364 241.483 300.045C242.11 303.556 242.332 307.149 242.058 310.706C242.158 309.419 242.264 308.12 242.364 306.833C242.136 309.511 241.617 312.138 240.753 314.679C241.175 313.475 241.597 312.271 242.026 311.054C241.197 313.415 240.094 315.646 238.696 317.721C239.409 316.663 240.122 315.605 240.842 314.534C239.381 316.672 237.661 318.602 235.732 320.316C236.704 319.467 237.683 318.605 238.655 317.756C236.214 319.893 233.479 321.654 230.571 323.082C231.776 322.493 232.982 321.903 234.188 321.313C231.336 322.691 228.35 323.756 225.256 324.466C221.713 325.283 218.144 328.848 216.568 331.973C214.918 335.259 214.402 339.929 215.741 343.425C217.124 347.055 219.605 350.467 223.248 352.114C224.453 352.536 225.657 352.958 226.874 353.387C229.523 353.941 232.129 353.793 234.704 352.95L234.701 352.972Z" fill="#F9A826"/>
<path d="M76.6935 336.448C95.1385 345.491 114.969 352.135 135.148 355.988C155.34 359.847 176.234 361.155 196.741 359.642C208.835 358.749 220.851 356.797 232.672 354.098C236.209 353.293 239.794 349.712 241.361 346.59C243.01 343.304 243.526 338.634 242.187 335.138C240.804 331.509 238.324 328.096 234.68 326.45C233.476 326.027 232.272 325.605 231.055 325.176C228.405 324.622 225.8 324.77 223.224 325.614C220.561 326.223 217.888 326.773 215.202 327.284C216.521 327.036 217.84 326.789 219.159 326.541C204.391 329.311 189.349 330.529 174.322 330.203C170.088 330.112 165.854 329.894 161.636 329.565C162.923 329.665 164.223 329.771 165.51 329.871C150.8 328.692 136.217 326.081 122.033 322.009C117.959 320.842 113.929 319.556 109.934 318.152C111.138 318.575 112.342 318.997 113.559 319.426C105.566 316.609 97.7502 313.343 90.1504 309.617C86.6776 307.913 82.39 307.566 78.6979 308.79C75.205 309.949 71.5514 312.878 70.0095 316.297C68.4232 319.837 67.753 324.01 69.1832 327.75C70.6008 331.452 73.0627 334.65 76.6904 336.438L76.6935 336.448Z" fill="#FED000"/>
<path d="M-2.49322 237.381C1.39186 249.093 6.36847 260.444 12.2534 271.293C16.7632 279.616 21.9883 287.555 27.9163 294.944C33.7842 302.248 40.1618 309.215 47.1634 315.458C53.2492 320.877 59.804 325.615 66.5963 330.115C71.8216 333.576 77.2783 336.686 82.9063 339.455C86.3696 341.161 90.6762 341.503 94.3589 340.281C98.0415 339.06 101.505 336.193 103.047 332.774C104.633 329.235 105.304 325.061 103.873 321.321C102.443 317.582 99.994 314.422 96.3663 312.633C90.375 309.69 84.5897 306.351 79.0549 302.624C80.1132 303.338 81.1715 304.051 82.2425 304.77C74.5026 299.541 67.276 293.573 60.6892 286.96C58.5231 284.781 56.4298 282.536 54.4124 280.234C55.2617 281.206 56.1235 282.185 56.9728 283.157C47.7228 272.581 40.0432 260.737 33.8699 248.129C34.4595 249.335 35.0491 250.54 35.6386 251.746C31.8837 244.047 28.6951 236.086 25.997 227.952C24.7848 224.297 21.9278 220.989 18.4898 219.263C15.2034 217.614 10.5335 217.098 7.03723 218.437C3.40806 219.82 -0.00451441 222.3 -1.65108 225.944C-3.29765 229.588 -3.7588 233.534 -2.47742 237.397L-2.49322 237.381Z" fill="#F9A826"/>
<path d="M0.768005 61.8799C-4.20656 72.8647 -8.18262 84.3822 -11.0711 96.0974C-13.9788 107.882 -15.5522 119.846 -16.4838 131.934C-17.3219 142.779 -17.3631 153.676 -16.6676 164.54C-15.8792 176.827 -14.0471 188.957 -11.7247 201.04C-9.37717 213.231 -6.21039 225.255 -2.33175 237.044C-1.12278 240.688 1.74688 244.003 5.17542 245.732C8.46177 247.381 13.1317 247.897 16.628 246.558C20.2571 245.175 23.6697 242.695 25.3163 239.051C26.9629 235.407 27.4145 231.465 26.1426 227.598C22.179 215.554 18.9652 203.261 16.5927 190.804C16.8406 192.123 17.0885 193.442 17.3364 194.761C14.2205 178.253 12.5912 161.462 12.8119 144.658C12.879 139.905 13.0915 135.146 13.4684 130.406C13.3685 131.693 13.2623 132.993 13.1623 134.28C14.4799 117.796 17.6977 101.484 23.1597 85.8702C22.7374 87.0744 22.315 88.2786 21.8863 89.4955C23.5725 84.7007 25.4642 79.9854 27.5644 75.3589C29.1951 71.7626 29.6532 67.7124 28.3907 63.9063C27.2321 60.4135 24.3029 56.7599 20.8836 55.218C17.3441 53.6317 13.1709 52.9615 9.43099 54.3917C5.79233 55.7777 2.39874 58.252 0.74268 61.8988L0.768005 61.8799Z" fill="#FED000"/>
</g>
<defs>
<clipPath id="clip0_1415_37">
<rect width="473.79" height="241.63" fill="white" transform="translate(173.342) rotate(71.6491)"/>
</clipPath>
</defs>
</svg>
