<svg width="840" height="1051" viewBox="0 0 840 1051" fill="none" xmlns="http://www.w3.org/2000/svg">
<path d="M1114.98 904.992C1116.02 906.684 1117.03 908.41 1117.99 910.154C1117.06 908.471 1116.12 906.767 1115.19 905.084C1120.82 915.305 1125.06 926.22 1127.92 937.523C1127.45 935.678 1126.99 933.834 1126.53 931.968C1129.29 943.081 1130.68 954.504 1130.56 965.968C1130.58 964.066 1130.6 962.165 1130.62 960.242C1130.47 970.489 1129.14 980.676 1126.46 990.577L1128 984.993C1125.48 994.131 1121.83 1002.91 1117.02 1011.09C1118.03 1009.36 1119.05 1007.64 1120.07 1005.92C1118.4 1008.7 1116.62 1011.4 1114.7 1014.02C1111.24 1018.75 1109.35 1024.59 1110.05 1030.5C1110.7 1035.94 1113.89 1042.17 1118.42 1045.42C1123.12 1048.8 1129 1051.01 1134.89 1050.07C1140.63 1049.14 1146.29 1046.53 1149.81 1041.7C1163.09 1023.52 1171.42 1001.98 1174.07 979.622C1176.74 956.966 1174.02 934.133 1167.06 912.481C1163.2 900.502 1157.55 889.201 1151 878.475C1149.25 875.902 1146.98 873.964 1144.25 872.643C1141.82 870.904 1139.1 869.879 1136.07 869.58C1130.76 868.843 1123.99 870.283 1119.74 873.715C1115.18 877.408 1111.42 882.62 1110.85 888.641C1110.83 890.543 1110.81 892.445 1110.79 894.368C1111.27 898.27 1112.67 901.807 1114.98 904.992Z" fill="#FF8402"/>
<path d="M1012.47 832.013C1013.32 832.242 1014.15 832.461 1014.99 832.69C1013.14 832.178 1011.27 831.668 1009.41 831.156C1028.63 836.452 1047.19 844.077 1064.36 854.212C1062.64 853.196 1060.92 852.18 1059.2 851.164C1073.02 859.382 1085.85 869.205 1097.09 880.722C1095.7 879.285 1094.31 877.847 1092.92 876.41C1100.76 884.51 1107.74 893.382 1113.67 902.972C1115.42 905.545 1117.68 907.484 1120.42 908.804C1122.84 910.543 1125.56 911.568 1128.59 911.867C1133.91 912.605 1140.68 911.165 1144.92 907.733C1149.48 904.039 1153.25 898.828 1153.82 892.806L1153.87 887.08C1153.4 883.178 1152 879.641 1149.69 876.455C1144.67 868.348 1138.91 860.712 1132.49 853.663C1124.95 845.388 1116.93 837.543 1108.13 830.595C1091.83 817.693 1073.3 807.147 1054.1 799.227C1042.57 794.471 1030.7 790.87 1018.65 787.694C1015.74 787.181 1012.91 787.4 1010.17 788.33C1007.27 788.801 1004.66 789.97 1002.32 791.829C997.854 795.119 993.97 801.13 993.427 806.755C992.886 812.401 993.889 818.544 997.557 823.085L1001.73 827.398C1004.9 829.897 1008.49 831.414 1012.48 831.98L1012.47 832.013Z" fill="#FFBB44"/>
<path d="M874.243 824.59C894.825 822.838 915.466 821.683 936.129 821.874C934.227 821.855 932.326 821.837 930.403 821.821C957.9 822.103 985.411 824.824 1012.06 831.764C1014.98 832.278 1017.81 832.059 1020.55 831.129C1023.45 830.658 1026.06 829.488 1028.39 827.63C1032.86 824.34 1036.75 818.329 1037.29 812.704C1037.83 807.058 1036.83 800.915 1033.16 796.373C1031.77 794.936 1030.38 793.498 1028.99 792.061C1025.82 789.561 1022.23 788.045 1018.24 787.479C980.042 777.514 940.111 776.278 900.855 778.06C890.215 778.537 879.586 779.289 868.986 780.196C863.396 780.669 857.491 784.214 854.059 788.569C850.627 792.924 848.522 799.519 849.409 805.039C850.339 810.744 852.929 816.486 857.777 819.964C862.683 823.489 868.151 825.122 874.246 824.611L874.243 824.59Z" fill="#FED000"/>
<path d="M693.588 782.426C698.363 787.973 703.548 793.311 709.251 797.919C714.954 802.528 720.903 806.077 727.11 809.564C737.992 815.691 749.935 819.41 762.03 822.337C785.945 828.127 811.169 828.116 835.616 827.019C848.579 826.436 861.524 825.346 874.445 824.237C880.044 823.753 885.94 820.22 889.372 815.865C892.804 811.51 894.909 804.914 894.022 799.395C893.092 793.69 890.502 787.948 885.654 784.469C880.748 780.944 875.28 779.312 869.186 779.823C849.046 781.544 828.89 783.214 808.662 783.024C810.564 783.043 812.466 783.061 814.388 783.077C797.461 782.889 780.445 781.417 764.062 776.951L769.645 778.485C760.263 775.873 751.187 772.27 742.782 767.335C744.504 768.351 746.227 769.367 747.95 770.383C741.157 766.34 734.917 761.498 729.378 755.862C730.769 757.299 732.16 758.737 733.55 760.174C732.197 758.785 730.902 757.347 729.625 755.886C725.663 751.283 720.874 747.851 714.702 746.991C709.383 746.253 702.613 747.693 698.371 751.126C693.81 754.819 690.045 760.03 689.474 766.052C688.953 771.6 689.84 778.011 693.604 782.382L693.588 782.426Z" fill="#FD8199"/>
<path d="M674.093 570.668C676.296 572.157 678.31 573.839 680.179 575.729C678.788 574.292 677.398 572.854 676.007 571.417C678.753 574.264 681.053 577.461 682.97 580.927L680.173 575.857C682.362 579.917 683.985 584.213 685.139 588.671C684.677 586.827 684.214 584.982 683.749 583.116C685.207 588.971 685.864 594.974 685.815 601.008C685.834 599.106 685.853 597.204 685.869 595.281C685.676 606.553 683.132 617.605 680.168 628.421L681.704 622.837C678.454 634.641 674.714 646.345 672.089 658.319C670.086 667.482 668.726 676.791 668.158 686.155C666.831 708.015 668.751 730.137 676.694 750.705C680.938 761.716 686.98 772.418 694.626 781.423C698.547 786.03 703.41 789.464 709.55 790.317C714.869 791.055 721.638 789.615 725.88 786.183C730.441 782.49 734.207 777.278 734.778 771.257C735.317 765.685 734.384 759.333 730.647 754.926C726.91 750.52 723.565 745.664 720.742 740.554L723.539 745.624C719.553 738.308 716.592 730.509 714.532 722.433L715.922 727.988C713.235 717.217 712.123 706.132 712.19 695.045L712.136 700.771C712.298 684.579 714.972 668.619 719.225 653.013L717.69 658.597C722.142 642.426 727.791 626.325 729.616 609.564C730.524 601.189 730.67 592.48 729.404 584.119C728.661 579.188 727.42 574.262 725.966 569.511C725.015 566.408 723.806 563.368 722.318 560.488C717.284 550.77 710.967 541.788 701.768 535.525C696.816 532.155 691.401 530.165 685.299 530.879C679.857 531.524 673.624 534.716 670.373 539.251C666.992 543.95 664.781 549.837 665.722 555.721C666.663 561.605 669.209 567.331 674.091 570.647L674.093 570.668Z" fill="#FE027B"/>
<path d="M555.661 402.814C550.213 411.293 545.305 420.121 541.73 429.544C538.206 438.855 535.547 448.658 533.975 458.502C532.402 468.346 532.077 478.413 532.512 488.359C532.949 498.325 534.908 507.877 537.378 517.528C540.017 527.806 544.295 537.857 550.479 546.526C556.819 555.431 565.579 562.467 575.525 566.965C589.508 573.297 605.504 573.511 620.511 572.091C634.344 570.789 648.069 567.866 662.014 567.962C660.113 567.944 658.211 567.925 656.288 567.909C661.603 567.979 666.897 568.508 672.039 569.903C670.185 569.391 668.31 568.881 666.456 568.369C670.09 569.392 673.582 570.834 676.834 572.751L671.665 569.703C672.259 570.057 672.844 570.423 673.41 570.812C675.759 572.815 678.403 574.083 681.365 574.633C684.096 575.646 686.939 575.914 689.878 575.459C695.32 574.813 701.553 571.622 704.805 567.087C708.185 562.388 710.396 556.501 709.455 550.617C708.551 545.046 705.991 538.93 701.087 535.691C697.31 533.189 693.317 530.745 689.096 528.974C685.108 527.293 680.832 526.219 676.649 525.219C669.712 523.549 662.569 523.537 655.472 523.561C644.145 523.611 632.931 525.61 621.717 526.983C615.504 527.742 609.249 528.335 602.983 528.293C604.885 528.312 606.786 528.33 608.709 528.346C603.609 528.293 598.517 527.773 593.576 526.459C595.43 526.972 597.305 527.481 599.159 527.994C595.593 527.005 592.18 525.606 588.985 523.714C590.707 524.73 592.43 525.746 594.153 526.762C591.284 525.033 588.693 522.953 586.353 520.578C587.743 522.015 589.134 523.453 590.525 524.89C587.748 521.961 585.417 518.683 583.442 515.171L586.239 520.241C582.814 513.993 580.505 507.221 578.765 500.328L580.156 505.883C577.817 496.354 576.713 486.584 576.782 476.77C576.763 478.672 576.744 480.574 576.728 482.496C576.856 472.102 578.317 461.773 581.056 451.748C580.544 453.603 580.034 455.478 579.521 457.332C582.252 447.51 586.218 438.072 591.384 429.277C590.368 431 589.352 432.723 588.335 434.446C589.113 433.123 589.934 431.815 590.767 430.517C592.771 428.168 594.039 425.523 594.59 422.561C595.604 419.83 595.872 416.986 595.417 414.047C594.773 408.605 591.584 402.372 587.049 399.122C582.351 395.742 576.465 393.532 570.581 394.475C565.052 395.375 558.817 397.919 555.654 402.847L555.661 402.814Z" fill="#FF8402"/>
<path d="M673.669 203.807C674.946 207.603 676.08 211.437 677.06 215.322C676.597 213.477 676.135 211.632 675.67 209.767C678.616 221.653 680.082 233.853 679.984 246.111C680.003 244.21 680.022 242.308 680.038 240.385C679.906 251.989 678.376 263.537 675.31 274.746L676.846 269.163C674.046 279.216 670.022 288.873 664.74 297.862C665.756 296.139 666.773 294.416 667.789 292.693C661.32 303.574 653.104 313.23 644.055 322.04C645.493 320.649 646.931 319.258 648.368 317.867C636.589 329.251 623.559 339.212 610.623 349.248C596.289 360.383 582.311 371.837 569.66 384.906C563.286 391.478 557.46 398.558 552.469 406.239C550.466 408.588 549.198 411.233 548.646 414.195C547.633 416.926 547.365 419.77 547.819 422.709C548.463 428.151 551.653 434.384 556.187 437.635C560.885 441.014 566.771 443.224 572.655 442.281C578.205 441.379 584.387 438.831 587.582 433.909C593.634 424.616 600.91 416.25 608.845 408.517C607.407 409.908 605.969 411.299 604.532 412.69C616.928 400.691 630.732 390.277 644.313 379.687C659.092 368.181 673.573 356.232 686.296 342.423C709.859 316.832 723.637 282.808 724.321 247.993C724.517 237.729 724.26 227.582 722.697 217.431C721.134 207.28 718.601 197.18 715.305 187.447C713.495 182.112 708.26 177.151 703.168 175.017C698.076 172.883 691.315 172.603 686.324 174.819C680.96 177.196 675.99 181.288 673.892 186.96C671.819 192.575 671.761 198.09 673.69 203.804L673.669 203.807Z" fill="#FFBB44"/>
<path d="M514.573 153.354C521.933 141.486 530.34 130.216 540.371 120.472C538.934 121.863 537.496 123.254 536.058 124.645C542.202 118.727 548.949 113.416 556.427 109.271C554.744 110.203 553.04 111.137 551.357 112.069C556.391 109.317 561.696 107.16 567.258 105.736L561.702 107.127C566.507 105.942 571.405 105.36 576.353 105.389C574.452 105.37 572.55 105.352 570.627 105.336C575.911 105.42 581.124 106.245 586.225 107.645C584.37 107.133 582.495 106.623 580.641 106.111C588.427 108.318 595.746 111.79 602.705 115.888C600.982 114.872 599.26 113.856 597.537 112.84C612.801 121.928 626.775 133.471 639.147 146.181C637.757 144.744 636.366 143.306 634.976 141.869C646.534 153.805 656.65 167.091 664.739 181.625C663.807 179.942 662.873 178.238 661.942 176.555C666.552 184.933 670.472 193.658 673.573 202.725C675.394 208.07 680.595 213.003 685.71 215.155C690.669 217.241 697.563 217.569 702.554 215.353C707.918 212.976 712.888 208.884 714.986 203.213C717.061 197.618 717.135 192.059 715.188 186.368C711.44 175.426 706.379 165.212 700.759 155.129C695.991 146.589 690.558 138.436 684.502 130.76C671.28 114.002 655.536 98.9008 638.262 86.3692C629.183 79.7843 619.521 73.6507 609.275 69.0298C603.435 66.4011 597.401 64.6444 591.214 63.0332C586.669 61.8426 582.028 61.1835 577.332 61.0509C571.647 60.8977 565.998 60.8676 560.386 61.873C554.91 62.8519 549.408 64.2476 544.185 66.2045C535.274 69.5435 526.717 74.5279 519.157 80.3172C503.129 92.5661 490.046 108.615 479.46 125.684C477.456 128.033 476.188 130.677 475.637 133.64C474.624 136.371 474.356 139.215 474.81 142.154C475.454 147.596 478.644 153.829 483.178 157.079C487.876 160.459 493.762 162.668 499.646 161.726C505.124 160.843 511.518 158.291 514.573 153.354Z" fill="#A8C51B"/>
<path d="M366.077 437.854C394.437 406.801 415.351 369.5 432.88 331.487C449.9 294.553 463.945 256.337 480.384 219.154C489.609 198.299 499.583 177.769 511.191 158.128C510.174 159.851 509.158 161.574 508.142 163.297C509.496 161.024 510.862 158.761 512.249 156.495C514.253 154.146 515.521 151.501 516.072 148.539C517.086 145.808 517.354 142.964 516.9 140.025C516.255 134.583 513.066 128.35 508.531 125.099C503.833 121.72 497.947 119.51 492.063 120.453C486.597 121.345 480.18 123.879 477.136 128.825C458.791 158.509 443.961 189.919 430.467 222.041C417.724 252.345 405.931 283.055 392.214 312.933C384.528 329.668 376.247 346.124 366.877 361.987C367.893 360.264 368.909 358.54 369.926 356.817C358.676 375.811 345.852 393.867 330.952 410.174C327.25 414.221 325.675 421.349 326.302 426.644C326.929 431.94 330.136 438.319 334.67 441.57C339.368 444.949 345.254 447.159 351.138 446.216C352.983 445.753 354.828 445.291 356.694 444.825C360.444 443.34 363.565 441.017 366.077 437.854Z" fill="#00A652"/>
<path d="M231.536 253.34C217.951 276.357 208.45 301.055 201.723 326.877C195.431 350.992 192.097 376.337 195.179 401.197C196.079 408.434 197.71 415.488 199.595 422.534C200.976 427.74 202.77 432.855 205.035 437.733C210.887 450.315 218.907 461.854 229.934 470.468C240.411 478.648 253.404 484.143 266.627 485.757C279.193 487.291 291.369 485.538 303.392 481.862C314.055 478.612 324.17 473.071 333.42 466.944C343.063 460.557 351.547 452.801 359.718 444.647C361.398 442.972 363.031 441.261 364.639 439.51C368.343 435.483 369.904 428.326 369.289 423.04C368.644 417.598 365.455 411.365 360.921 408.114C356.222 404.734 350.336 402.525 344.452 403.467L338.897 404.859C335.147 406.344 332.026 408.667 329.514 411.83C327.334 414.211 325.081 416.516 322.77 418.775C324.208 417.384 325.645 415.993 327.083 414.602C318.625 422.758 309.289 430.032 299.002 435.741C300.686 434.81 302.39 433.875 304.073 432.943C297.495 436.546 290.55 439.461 283.264 441.291C285.109 440.828 286.954 440.365 288.819 439.9C283.652 441.161 278.385 441.849 273.085 441.809C274.987 441.828 276.888 441.846 278.811 441.862C274.293 441.794 269.817 441.189 265.445 440.021C267.299 440.533 269.174 441.043 271.028 441.555C266.508 440.308 262.187 438.497 258.141 436.143C259.863 437.159 261.586 438.175 263.309 439.192C259.223 436.769 255.51 433.824 252.19 430.429C253.58 431.867 254.971 433.304 256.362 434.741C252.405 430.637 249.09 426.032 246.315 421.055C247.246 422.738 248.18 424.442 249.112 426.125C245.428 419.388 242.769 412.169 240.89 404.73C241.353 406.574 241.815 408.419 242.28 410.285C239.624 399.595 238.532 388.582 238.597 377.569C238.578 379.471 238.559 381.373 238.543 383.295C238.729 365.243 242.185 347.206 246.929 329.822C246.417 331.676 245.906 333.552 245.394 335.406C251.633 312.73 260.853 290.942 272.813 270.686C274.073 267.979 274.588 265.158 274.381 262.243C274.644 259.357 274.196 256.556 273.015 253.841C270.98 248.67 266.182 243.371 260.878 241.411C255.549 239.433 249.377 238.839 244.034 241.213L238.964 244.011C235.679 246.471 233.225 249.585 231.602 253.354L231.536 253.34Z" fill="#FED000"/>
<path d="M210.696 158.901C219.46 160.323 228.213 161.832 236.788 164.168C234.934 163.655 233.059 163.146 231.205 162.633C238.512 164.653 245.658 167.286 252.207 171.157C250.485 170.141 248.762 169.125 247.039 168.109C250.789 170.381 254.255 173.036 257.343 176.172C255.953 174.734 254.562 173.297 253.171 171.86C255.812 174.624 258.053 177.68 259.913 181.025C258.982 179.342 258.048 177.638 257.116 175.955C258.843 179.156 260.164 182.512 261.057 186.025C260.595 184.18 260.132 182.336 259.667 180.47C260.574 184.183 260.969 187.967 260.964 191.778C260.983 189.876 261.001 187.974 261.018 186.051C260.952 191.503 260.039 196.875 258.625 202.137C259.137 200.283 259.648 198.407 260.16 196.553C256.078 211.364 248.408 224.924 240.648 238.07C241.664 236.347 242.681 234.624 243.697 232.901C241.204 237.123 238.665 241.309 236.172 245.531C234.169 247.881 232.901 250.525 232.35 253.488C231.336 256.219 231.068 259.063 231.522 262.001C232.167 267.443 235.356 273.676 239.89 276.927C244.589 280.307 250.475 282.516 256.359 281.574L261.914 280.182C265.665 278.697 268.785 276.374 271.297 273.211C277.727 262.356 284.406 251.641 290.312 240.487C296.105 229.548 300.507 218.328 303.453 206.284C306.589 193.421 305.96 180.135 302.109 167.517C301.382 165.141 300.439 162.823 299.306 160.602C297.153 156.4 294.874 152.118 291.919 148.404C288.68 144.352 284.958 140.527 280.92 137.25C276.94 134.019 272.413 131.457 267.958 128.971C259.585 124.309 250.303 121.738 241.073 119.342C233.114 117.283 225.014 115.909 216.909 114.59C211.435 113.711 205.001 115.472 200.579 118.724C196.108 122.014 192.225 128.025 191.681 133.65C191.14 139.296 192.143 145.439 195.812 149.981C199.642 154.726 204.632 157.88 210.735 158.875L210.696 158.901Z" fill="#F07402"/>
<path d="M2.37816 31.0035C15.6717 62.0697 38.5605 88.1344 66.5079 106.913C80.7823 116.511 96.0406 124.74 111.865 131.479C127.69 138.219 144.988 143.69 162.053 148.351C179.182 153.026 196.591 156.648 214.119 159.492C219.584 160.383 226.027 158.61 230.45 155.358C234.92 152.068 238.803 146.057 239.347 140.432C239.888 134.786 238.885 128.643 235.216 124.101C231.548 119.56 226.396 116.202 220.293 115.207C202.765 112.363 185.368 108.749 168.227 104.065L173.81 105.6C148.033 98.513 122.754 89.0112 99.6577 75.4406C101.38 76.4566 103.103 77.4726 104.826 78.4886C90.5741 70.0661 77.2604 60.0678 65.7067 48.1733C67.0973 49.6108 68.488 51.0482 69.8786 52.4857C61.1196 43.4009 53.524 33.2971 47.3787 22.2679L50.1758 27.3376C47.9046 23.2136 45.8328 18.9811 43.993 14.6467C41.6727 9.21254 37.3726 4.53332 31.8558 2.21647C26.8971 0.130562 20.0028 -0.197516 15.0123 2.01834C9.64815 4.39527 4.67811 8.48708 2.58005 14.1589C0.584579 19.5321 0.0628708 25.6112 2.37816 31.0035Z" fill="#FE027B"/>
</svg>
