<svg width="48" height="48" viewBox="0 0 48 48" fill="none" xmlns="http://www.w3.org/2000/svg">
<path d="M31.432 1H38.703C39.7943 1.35617 40.4947 2.06611 40.6506 3.22696C40.7106 3.66827 40.7022 4.12278 40.6914 4.57009C40.683 4.90587 40.7825 5.11094 41.0991 5.27883C42.2888 5.91082 42.7529 7.15082 42.2768 8.40161C42.1664 8.68943 42.1928 8.84293 42.4459 9.036C43.47 9.8167 43.7518 10.9871 43.1942 12.1504C43.0575 12.4358 43.1078 12.5941 43.3177 12.8076C44.403 13.9108 44.3407 15.4794 43.1726 16.4868C42.9555 16.6739 42.9076 16.813 43.0215 17.0888C43.6631 18.643 42.796 20.2511 41.1339 20.5725C40.7885 20.6397 40.689 20.78 40.6938 21.1026C40.7058 21.9552 40.719 22.8091 40.689 23.6605C40.6722 24.1462 40.7609 24.524 41.1987 24.8094C41.4421 24.9689 41.6316 25.2207 41.8211 25.4498C42.6485 26.4487 42.9987 27.6228 43.0143 28.8988C43.0191 29.3101 43.1678 29.4696 43.5732 29.4396C43.8562 29.4192 44.1416 29.4288 44.4258 29.442C45.9489 29.514 46.9934 30.5933 46.9958 32.1067C47.0006 34.1118 47.003 36.1157 46.9934 38.1208C46.9874 39.4016 46.0664 40.4341 44.8024 40.6284C44.3095 40.7039 43.8178 40.6835 43.3249 40.6811C43.0371 40.6799 42.8692 40.7831 42.7277 41.0457C42.0609 42.2881 40.8737 42.739 39.5401 42.2569C39.2583 42.155 39.1144 42.2209 38.9405 42.4428C38.1274 43.4717 36.9881 43.7463 35.8224 43.1875C35.567 43.0652 35.4099 43.0712 35.1988 43.2775C34.0404 44.4071 32.5461 44.346 31.4584 43.1299C31.2917 42.9441 31.1598 42.9057 30.9211 42.9956C29.2542 43.624 27.7827 42.8457 27.399 41.12C27.3246 40.7831 27.1807 40.6775 26.8593 40.6811C25.9167 40.6919 24.9741 40.6943 24.0315 40.6811C23.7017 40.6763 23.4738 40.7891 23.2664 41.0469C22.5408 41.9523 21.5922 42.5231 20.4781 42.8265C19.9828 42.9609 19.472 42.9692 18.9659 42.9992C18.6421 43.0184 18.5114 43.1611 18.5222 43.4777C18.5329 43.7763 18.5293 44.0761 18.5186 44.3747C18.461 45.9445 17.3793 46.9938 15.8119 46.9962C13.8223 46.9998 11.8328 47.0034 9.84323 46.9938C8.55524 46.9878 7.53948 46.0872 7.33081 44.8101C7.24806 44.3028 7.28044 43.7955 7.27684 43.2882C7.27444 43.0184 7.1773 42.8577 6.93266 42.7234C5.65187 42.0255 5.20575 40.8574 5.70703 39.5095C5.80297 39.2505 5.7586 39.1149 5.54393 38.9482C4.4838 38.1244 4.20438 36.9947 4.77162 35.8015C4.89514 35.5413 4.87356 35.3854 4.67089 35.1791C3.5412 34.0242 3.60716 32.5168 4.83158 31.4399C5.02346 31.2708 5.04865 31.1401 4.9575 30.9051C4.31351 29.2393 5.14339 27.7139 6.88229 27.3793C7.1929 27.3194 7.27684 27.1803 7.27444 26.9008C7.26845 25.9139 7.26725 24.9257 7.27444 23.9388C7.27684 23.6761 7.17731 23.4914 6.97463 23.326C5.761 22.3402 5.10261 21.0678 4.98629 19.504C4.91433 18.5279 4.89754 18.5291 3.89497 18.5267C2.36474 18.5219 1.56604 17.9714 1 16.5312V9.26026C1.60082 7.7948 2.36234 7.28393 3.95254 7.27914C4.20678 7.27914 4.46102 7.27314 4.71526 7.27794C4.94671 7.28154 5.09422 7.1892 5.21534 6.97933C5.99005 5.62541 7.0286 5.22966 8.49288 5.72974C8.71713 5.80649 8.83826 5.76332 8.98457 5.58224C9.8828 4.46936 10.9058 4.21992 12.2009 4.80034C12.43 4.90347 12.5703 4.87589 12.7514 4.7056C13.9698 3.55555 15.4245 3.60831 16.523 4.84351C16.6921 5.03419 16.8228 5.05937 17.0579 4.96703C18.6876 4.32545 20.2335 5.14572 20.5729 6.84622C20.6424 7.19399 20.7923 7.28633 21.1089 7.28274C22.0359 7.27314 22.963 7.26715 23.89 7.28633C24.2557 7.29353 24.4932 7.15562 24.727 6.881C25.702 5.73334 26.942 5.10015 28.4591 4.99941C29.5108 4.92986 29.4449 5.07137 29.4473 3.95489C29.4509 2.36592 29.9737 1.59002 31.4308 1.0036L31.432 1ZM35.3799 19.1826C37.0253 19.1826 38.6718 19.1814 40.3172 19.1838C40.5738 19.1838 40.8269 19.1694 41.0691 19.0843C41.5284 18.9224 41.8486 18.4379 41.7887 18.0098C41.7143 17.4857 41.3198 17.1236 40.7849 17.0948C40.5906 17.084 40.3964 17.0888 40.2021 17.0888C38.5112 17.0876 36.8214 17.0936 35.1305 17.0816C34.5668 17.078 34.2574 16.7818 34.2706 16.3225C34.2826 15.8848 34.5872 15.6329 35.1341 15.6113C35.284 15.6054 35.4327 15.6089 35.5826 15.6089C37.4378 15.6089 39.2931 15.6089 41.1483 15.6089C41.3126 15.6089 41.4781 15.6137 41.6424 15.6018C42.1569 15.5646 42.5526 15.1988 42.6162 14.7071C42.6797 14.2202 42.3823 13.7681 41.8966 13.5955C41.6064 13.4923 41.3066 13.5127 41.008 13.5127C39.0484 13.5115 37.0888 13.5091 35.1281 13.5127C34.7119 13.5127 34.3798 13.3952 34.2826 12.9479C34.1747 12.4502 34.5093 12.0976 35.1005 12.0952C36.8958 12.088 38.691 12.0916 40.4863 12.0928C40.7417 12.0928 40.9948 12.082 41.243 12.0137C41.7455 11.8746 42.0381 11.4572 41.9998 10.938C41.9578 10.3755 41.538 10.0026 40.8917 9.99898C39.082 9.98938 37.2711 9.99538 35.4615 9.99178C35.2672 9.99178 35.0693 9.99298 34.881 9.95581C34.4661 9.87426 34.2454 9.58644 34.2754 9.1943C34.3066 8.78416 34.5656 8.58869 34.9434 8.52993C35.1041 8.50475 35.272 8.51554 35.4363 8.51554C36.9329 8.51314 38.4284 8.52033 39.9239 8.50834C40.5487 8.50355 40.9744 8.09941 41.0044 7.53337C41.0332 6.99492 40.6146 6.51643 40.0282 6.43368C39.8663 6.4109 39.6996 6.42049 39.5353 6.41929C38.8925 6.4169 38.2485 6.42889 37.6057 6.4085C37.1992 6.39531 36.9162 6.1039 36.8946 5.73574C36.8742 5.37357 37.132 5.07137 37.5374 4.99941C37.6837 4.97303 37.8348 4.96224 37.9835 4.95984C39.3842 4.93465 39.2163 5.15891 39.2163 3.66228C39.2163 2.87439 38.805 2.40549 38.0159 2.3947C36.0563 2.36712 34.0955 2.36831 32.1372 2.3947C31.3601 2.40549 30.9391 2.89118 30.9271 3.66228C30.9235 3.91651 30.9415 4.17195 30.9223 4.42498C30.8936 4.81113 31.0543 4.96703 31.4416 4.95984C32.2487 4.94545 33.057 4.95384 33.8653 4.95984C34.0895 4.96104 34.315 4.96823 34.5357 5.00181C34.9494 5.06537 35.194 5.35678 35.1749 5.73334C35.1569 6.1063 34.8798 6.37732 34.4709 6.4121C34.3222 6.42409 34.1723 6.41929 34.0224 6.41929C32.3171 6.41929 30.6117 6.4109 28.9064 6.42289C27.4745 6.43249 26.3256 7.00571 25.5401 8.22293C25.2931 8.60548 24.9813 8.76138 24.534 8.75658C23.3827 8.74219 22.2302 8.76018 21.0777 8.74819C20.7312 8.74459 20.6004 8.87171 20.6016 9.22188C20.6112 11.6755 20.6112 14.1291 20.6016 16.5827C20.6004 16.9389 20.7444 17.0552 21.0837 17.0516C22.0563 17.0396 23.0289 17.0468 24.0015 17.0492C24.7822 17.0504 24.9189 17.1392 25.1971 17.8671C25.9155 19.7547 27.3534 20.9071 29.1151 21.7358C29.3549 21.8485 29.4485 21.7754 29.4485 21.5259C29.4485 21.0774 29.4485 20.6277 29.4509 20.1792C29.4569 19.4201 29.6859 19.1886 30.445 19.1874C32.0904 19.185 33.737 19.1874 35.3823 19.1862L35.3799 19.1826ZM12.5643 28.7776V28.78C10.859 28.78 9.15366 28.7704 7.44833 28.7848C6.68202 28.7908 6.13516 29.2813 6.16394 29.8797C6.19392 30.5057 6.66763 30.8703 7.46392 30.8715C9.18484 30.8739 10.9046 30.8715 12.6255 30.8727C12.8497 30.8727 13.0764 30.8679 13.2851 30.9686C13.5525 31.0981 13.6916 31.3104 13.6928 31.6102C13.694 31.91 13.5585 32.1235 13.2922 32.2566C13.098 32.3537 12.8869 32.3513 12.677 32.3513C11.2403 32.3513 9.80485 32.3513 8.36815 32.3513C7.70977 32.3513 7.05138 32.3429 6.393 32.3573C5.82096 32.3693 5.40362 32.7447 5.34486 33.2699C5.2861 33.7916 5.61469 34.2509 6.16994 34.3864C6.37021 34.4356 6.58368 34.4452 6.79115 34.4452C8.73632 34.45 10.6803 34.4476 12.6255 34.4488C12.7898 34.4488 12.9589 34.4356 13.1172 34.4679C13.4829 34.5447 13.6928 34.7761 13.6916 35.1611C13.6904 35.5448 13.4829 35.7763 13.1124 35.8483C12.9529 35.8794 12.785 35.8674 12.6195 35.8674C10.8986 35.8674 9.17884 35.8698 7.45793 35.8674C7.20249 35.8674 6.94825 35.8782 6.7024 35.9502C6.21911 36.0893 5.93489 36.4934 5.96127 36.9935C5.99245 37.5787 6.41579 37.9589 7.08616 37.9613C8.88143 37.9709 10.6767 37.9649 12.472 37.9673C12.6662 37.9673 12.8629 37.9637 13.0536 37.9973C13.4733 38.0704 13.7012 38.3474 13.6904 38.736C13.6784 39.1149 13.423 39.3824 13.0032 39.4315C12.8401 39.4507 12.6746 39.4435 12.5103 39.4447C11.0149 39.4471 9.51823 39.4399 8.02277 39.4519C7.42075 39.4567 7.00341 39.8489 6.95904 40.3957C6.91707 40.9066 7.26845 41.3671 7.8177 41.4978C7.9748 41.535 8.1439 41.5374 8.30699 41.5386C9.11528 41.5434 9.92237 41.5338 10.7307 41.5458C11.2032 41.553 11.5054 41.8264 11.5234 42.2281C11.5414 42.6287 11.2691 42.9237 10.7918 42.9716C10.4656 43.0052 10.1346 43.0004 9.80605 43.0016C8.6056 43.0052 8.75191 42.9357 8.74831 44.0689C8.74472 45.1734 9.15246 45.5764 10.2678 45.5776C11.9131 45.58 13.5585 45.5776 15.205 45.5776C16.7641 45.5776 17.0435 45.3005 17.0423 43.7583C17.0423 43.004 17.0423 43.0064 16.3012 43.0004C15.524 42.9944 14.7445 43.0076 13.9686 42.9633C13.4362 42.9333 13.1567 42.5471 13.2743 42.083C13.3798 41.6645 13.6952 41.5386 14.0933 41.5398C15.7243 41.5422 17.3541 41.5398 18.9851 41.5398C20.4541 41.5398 21.627 40.9689 22.4329 39.7206C22.6691 39.3548 22.9713 39.1989 23.4031 39.2049C24.54 39.2181 25.6768 39.1953 26.8137 39.2157C27.2179 39.2229 27.369 39.097 27.3654 38.6784C27.3498 36.2704 27.351 33.8611 27.3654 31.4531C27.3678 31.0394 27.2287 30.8991 26.8185 30.9086C25.8315 30.9302 24.8434 30.9182 23.8564 30.9134C23.2208 30.911 23.0145 30.7851 22.8071 30.2095C22.1103 28.274 20.6664 27.0891 18.8759 26.2401C18.6217 26.1189 18.5174 26.1729 18.521 26.4571C18.5269 26.9056 18.5269 27.3553 18.5186 27.8039C18.5066 28.5306 18.2631 28.7752 17.5436 28.7764C15.8826 28.78 14.2229 28.7764 12.5619 28.7764L12.5643 28.7776ZM19.1817 12.6025C19.1817 10.9871 19.1817 9.37178 19.1817 7.75643C19.1817 7.4854 19.1721 7.21678 19.0978 6.95535C18.9611 6.47326 18.4778 6.13148 18.0185 6.18545C17.4908 6.24781 17.1262 6.63276 17.0927 7.17121C17.0831 7.3355 17.0855 7.49979 17.0855 7.66409C17.0855 9.29503 17.0855 10.9248 17.0831 12.5557C17.0831 12.7344 17.0855 12.9179 17.0483 13.0918C16.9679 13.4707 16.7389 13.7034 16.3299 13.6986C15.9198 13.6938 15.7027 13.4467 15.6296 13.0702C15.596 12.8963 15.6056 12.7128 15.6056 12.5341C15.6032 10.5003 15.608 8.46517 15.5984 6.43129C15.596 5.81968 15.1787 5.37717 14.6246 5.34479C14.0969 5.31481 13.6376 5.69976 13.5345 6.27419C13.5057 6.43488 13.5105 6.60158 13.5105 6.76587C13.5093 8.70981 13.5105 10.655 13.5093 12.5989C13.5093 12.7488 13.5177 12.8999 13.4985 13.0474C13.447 13.4384 13.2311 13.6782 12.8245 13.6962C12.4192 13.7142 12.1698 13.5019 12.1014 13.111C12.0582 12.8627 12.0522 12.6049 12.0522 12.3519C12.0486 10.7209 12.051 9.09117 12.0486 7.46022C12.0486 7.25156 12.0474 7.04049 12.0199 6.83303C11.9575 6.36293 11.5857 6.01036 11.1276 5.96719C10.6527 5.92281 10.2318 6.18185 10.0615 6.61956C9.97754 6.83542 9.98953 7.06088 9.98953 7.28393C9.98713 9.01921 9.98953 10.7545 9.98593 12.4898C9.98593 12.6984 9.97994 12.9107 9.93796 13.1134C9.85881 13.5007 9.61177 13.7142 9.20763 13.6962C8.79988 13.6782 8.59001 13.4264 8.52765 13.0462C8.50127 12.8855 8.51206 12.7176 8.51206 12.5533C8.50967 11.0423 8.51806 9.53128 8.50487 8.02146C8.50007 7.43384 8.08993 7.00212 7.55147 6.96134C7.0322 6.92057 6.5465 7.31392 6.44217 7.87275C6.41459 8.01786 6.41938 8.17016 6.41938 8.32006C6.41938 11.9105 6.41219 15.4998 6.42178 19.0903C6.42538 20.5066 7.00581 21.641 8.20506 22.4181C8.60321 22.676 8.76151 22.9986 8.75431 23.4627C8.73752 24.5839 8.76391 25.7064 8.74232 26.8277C8.73392 27.2462 8.88863 27.3685 9.29397 27.3661C11.6877 27.3518 14.0802 27.3601 16.4738 27.3589C17.0219 27.3589 17.0423 27.3362 17.0435 26.7641C17.0459 25.7616 17.0483 24.7602 17.0435 23.7577C17.0411 23.2984 17.2378 22.9926 17.6791 22.8391C19.6362 22.1603 20.8451 20.7164 21.7085 18.9116C21.862 18.5902 21.7517 18.5183 21.4459 18.5255C21.0118 18.5351 20.5789 18.5327 20.1447 18.5255C19.4216 18.5123 19.1841 18.2724 19.1829 17.5421C19.1793 15.8968 19.1829 14.2514 19.1817 12.6061V12.6025ZM28.8309 35.5245C28.8309 36.1828 28.8297 36.8412 28.8309 37.4996C28.8333 38.5921 28.8333 39.6834 28.844 40.7759C28.8488 41.2088 29.0851 41.511 29.4665 41.6861C29.8214 41.8492 30.1692 41.7904 30.4834 41.5626C30.806 41.3275 30.8864 40.9917 30.8852 40.6128C30.8816 38.9219 30.884 37.2322 30.8864 35.5413C30.8864 35.3326 30.8864 35.1203 30.9187 34.9153C30.9919 34.4655 31.2725 34.2353 31.6839 34.2617C32.0604 34.2857 32.3135 34.5507 32.3518 34.9752C32.3662 35.1383 32.3602 35.3038 32.3602 35.4681C32.3602 37.4732 32.3566 39.4771 32.3638 41.4822C32.3662 42.1394 32.8028 42.6083 33.3856 42.6179C33.9636 42.6263 34.4157 42.1598 34.4505 41.511C34.4589 41.3467 34.4541 41.1824 34.4541 41.0169C34.4541 39.0574 34.4517 37.0978 34.4565 35.1383C34.4577 34.5831 34.706 34.2797 35.1425 34.2605C35.6054 34.2401 35.8848 34.5315 35.9136 35.1083C35.9364 35.5712 35.9232 36.0353 35.9244 36.4994C35.9268 37.9805 35.9172 39.4615 35.9364 40.9426C35.946 41.6501 36.5024 42.1034 37.15 41.9823C37.6657 41.8863 37.9751 41.4738 37.9787 40.813C37.9883 39.0478 37.9823 37.2825 37.9871 35.5173C37.9871 35.2798 37.9955 35.0364 38.0458 34.8049C38.125 34.4356 38.3792 34.2473 38.7606 34.2617C39.1455 34.2761 39.365 34.4991 39.4334 34.8637C39.4634 35.0232 39.4526 35.1911 39.4526 35.3554C39.4538 36.8664 39.4466 38.3774 39.4586 39.8884C39.4633 40.5372 39.9239 41.0061 40.5079 41.0001C41.0607 40.9941 41.5117 40.5204 41.544 39.91C41.5488 39.8201 41.5476 39.7301 41.5476 39.6414C41.5476 36.0509 41.5476 32.4616 41.5476 28.8712C41.5476 27.4465 40.9636 26.3228 39.7716 25.5433C39.3746 25.2843 39.2091 24.9641 39.2151 24.5024C39.2283 23.3811 39.2055 22.2586 39.2259 21.1374C39.2331 20.72 39.0808 20.5953 38.6743 20.5977C36.2662 20.6121 33.8569 20.6133 31.4488 20.5977C31.0231 20.5953 30.9091 20.7572 30.9175 21.1554C30.9379 22.1423 30.9271 23.1293 30.9223 24.1174C30.9199 24.7506 30.8 24.9425 30.2088 25.156C28.272 25.8539 27.0991 27.3098 26.2465 29.0954C26.1158 29.37 26.2117 29.442 26.4767 29.4384C26.8653 29.4324 27.255 29.4372 27.6436 29.4384C28.6078 29.442 28.8285 29.6579 28.8321 30.6352C28.8368 32.2662 28.8333 33.8959 28.8333 35.5269L28.8309 35.5245ZM23.6669 18.5423C23.463 18.5542 23.4079 18.7197 23.3347 18.866C23.0997 19.3337 22.8814 19.8098 22.6296 20.2667C21.8189 21.7382 20.736 22.9434 19.2333 23.7469C18.9791 23.8836 18.5317 23.886 18.5593 24.2949C18.5845 24.6751 19.0126 24.6811 19.2789 24.8094C20.9758 25.6273 22.4976 26.6514 23.4954 28.3075C23.6729 28.6013 23.8084 28.9191 23.9835 29.2153C24.1526 29.502 24.4032 29.5032 24.5711 29.2177C24.7067 28.9863 24.8122 28.7369 24.9285 28.4946C25.6217 27.0459 26.5055 25.7484 27.8247 24.789C28.2504 24.4796 28.7145 24.2422 29.1798 24.0011C29.5312 23.8188 29.5228 23.5718 29.1798 23.3751C29.1019 23.3308 29.0191 23.2972 28.9364 23.26C26.8101 22.3006 24.9945 21.0007 24.0075 18.7869C23.9439 18.6442 23.8492 18.5303 23.6693 18.5423H23.6669ZM4.95271 12.9179C4.95271 11.9465 4.9587 10.9751 4.95151 10.0038C4.93952 8.55391 5.129 8.76138 3.68271 8.75418C2.9056 8.75059 2.40911 9.17511 2.39832 9.94501C2.36954 11.9177 2.36834 13.8905 2.39832 15.8632C2.41031 16.6451 2.88521 17.0312 3.68391 17.0444C3.92256 17.048 4.16361 17.03 4.40106 17.0492C4.8076 17.0828 4.9623 16.9149 4.9575 16.506C4.94191 15.3103 4.95151 14.1147 4.95271 12.9191V12.9179ZM43.0239 35.0172C43.0239 36.003 43.0167 36.9887 43.0251 37.9745C43.0371 39.4016 42.8392 39.1989 44.2591 39.2073C45.0626 39.2121 45.5579 38.784 45.5687 37.9949C45.5951 36.0389 45.5951 34.0818 45.5687 32.1259C45.5579 31.3368 45.0914 30.9338 44.3083 30.9182C44.0541 30.9134 43.7998 30.9314 43.5468 30.9134C43.1594 30.8847 43.0143 31.0466 43.0191 31.4339C43.0335 32.6283 43.0239 33.824 43.0239 35.0184V35.0172Z" fill="white" stroke="white" stroke-width="0.5"/>
</svg>
