<svg width="681" height="802" viewBox="0 0 681 802" fill="none" xmlns="http://www.w3.org/2000/svg">
<path d="M916.98 682.416C917.835 683.809 918.667 685.23 919.457 686.664C918.691 685.279 917.922 683.877 917.155 682.492C921.785 690.904 925.277 699.888 927.627 709.19C927.247 707.672 926.866 706.154 926.483 704.618C928.754 713.764 929.902 723.166 929.806 732.602C929.821 731.036 929.837 729.471 929.85 727.889C929.731 736.322 928.637 744.706 926.431 752.855L927.695 748.259C925.625 755.781 922.619 763.002 918.657 769.735C919.493 768.317 920.33 766.899 921.166 765.481C919.796 767.774 918.329 769.992 916.751 772.153C913.902 776.046 912.348 780.851 912.924 785.709C913.454 790.188 916.079 795.318 919.811 797.993C923.678 800.775 928.522 802.593 933.365 801.818C938.087 801.056 942.75 798.905 945.65 794.927C956.578 779.97 963.431 762.239 965.61 743.839C967.812 725.192 965.57 706.4 959.843 688.58C956.667 678.721 952.019 669.42 946.624 660.592C945.186 658.474 943.32 656.879 941.069 655.792C939.074 654.361 936.834 653.517 934.342 653.271C929.964 652.664 924.393 653.849 920.902 656.674C917.148 659.714 914.049 664.003 913.579 668.959C913.563 670.524 913.548 672.089 913.534 673.672C913.923 676.884 915.08 679.795 916.98 682.416Z" fill="#FF8402"/>
<path d="M832.615 622.352C833.309 622.54 833.995 622.721 834.689 622.909C833.164 622.488 831.62 622.068 830.094 621.647C845.913 626.006 861.189 632.281 875.322 640.622C873.904 639.786 872.486 638.95 871.068 638.114C882.446 644.878 893.002 652.962 902.256 662.441C901.112 661.258 899.967 660.075 898.823 658.892C905.28 665.559 911.019 672.861 915.901 680.754C917.34 682.872 919.206 684.467 921.457 685.554C923.452 686.985 925.691 687.829 928.184 688.075C932.561 688.682 938.133 687.497 941.624 684.672C945.378 681.632 948.477 677.343 948.947 672.387L948.992 667.674C948.602 664.462 947.446 661.551 945.545 658.929C941.419 652.257 936.674 645.972 931.393 640.17C925.189 633.36 918.581 626.904 911.345 621.185C897.93 610.567 882.674 601.887 866.871 595.368C857.385 591.454 847.619 588.491 837.702 585.877C835.302 585.454 832.974 585.634 830.715 586.4C828.333 586.787 826.185 587.75 824.261 589.28C820.582 591.987 817.386 596.934 816.938 601.564C816.493 606.211 817.319 611.266 820.338 615.005L823.771 618.554C826.382 620.611 829.333 621.859 832.62 622.325L832.615 622.352Z" fill="#FFBB44"/>
<path d="M718.846 616.243C735.786 614.801 752.774 613.851 769.781 614.007C768.216 613.992 766.65 613.977 765.068 613.964C787.699 614.196 810.341 616.435 832.276 622.148C834.676 622.57 837.004 622.39 839.262 621.624C841.645 621.237 843.793 620.274 845.716 618.745C849.396 616.037 852.592 611.09 853.039 606.46C853.485 601.813 852.659 596.758 849.64 593.02C848.495 591.837 847.351 590.654 846.206 589.47C843.596 587.413 840.644 586.165 837.357 585.699C805.922 577.498 773.058 576.48 740.749 577.947C731.992 578.34 723.244 578.959 714.52 579.706C709.919 580.094 705.059 583.012 702.235 586.596C699.41 590.18 697.677 595.609 698.407 600.152C699.173 604.847 701.305 609.573 705.295 612.436C709.333 615.337 713.833 616.681 718.849 616.26L718.846 616.243Z" fill="#FED000"/>
<path d="M570.162 581.541C574.092 586.106 578.359 590.499 583.053 594.292C587.747 598.085 592.643 601.006 597.752 603.876C606.707 608.919 616.538 611.98 626.491 614.388C646.175 619.154 666.934 619.145 687.056 618.242C697.724 617.762 708.378 616.865 719.013 615.953C723.621 615.554 728.473 612.646 731.298 609.062C734.123 605.478 735.855 600.049 735.125 595.507C734.36 590.811 732.228 586.085 728.238 583.222C724.2 580.321 719.7 578.977 714.684 579.398C698.109 580.814 681.52 582.189 664.871 582.033C666.437 582.048 668.002 582.064 669.584 582.077C655.653 581.922 641.648 580.71 628.164 577.034L632.759 578.297C625.037 576.148 617.568 573.182 610.65 569.121C612.068 569.957 613.486 570.793 614.903 571.629C609.313 568.301 604.177 564.316 599.618 559.678C600.763 560.861 601.907 562.044 603.052 563.227C601.938 562.084 600.872 560.9 599.822 559.697C596.561 555.909 592.619 553.084 587.539 552.377C583.162 551.769 577.59 552.955 574.099 555.78C570.345 558.819 567.246 563.108 566.776 568.064C566.347 572.631 567.077 577.907 570.176 581.505L570.162 581.541Z" fill="#FD8199"/>
<path d="M554.117 407.257C555.93 408.483 557.588 409.867 559.126 411.423C557.981 410.24 556.837 409.057 555.692 407.874C557.952 410.217 559.845 412.849 561.423 415.701L559.121 411.528C560.923 414.869 562.259 418.405 563.208 422.075C562.828 420.556 562.447 419.038 562.064 417.503C563.264 422.321 563.805 427.262 563.764 432.228C563.78 430.663 563.795 429.097 563.809 427.515C563.65 436.792 561.557 445.888 559.117 454.79L560.381 450.194C557.706 459.909 554.628 469.542 552.468 479.397C550.819 486.938 549.7 494.6 549.233 502.307C548.14 520.298 549.72 538.505 556.258 555.433C559.75 564.496 564.724 573.304 571.017 580.715C574.243 584.507 578.246 587.334 583.299 588.035C587.677 588.643 593.248 587.457 596.739 584.632C600.493 581.593 603.592 577.304 604.062 572.348C604.506 567.762 603.739 562.534 600.663 558.907C597.587 555.281 594.834 551.284 592.51 547.079L594.813 551.252C591.532 545.23 589.095 538.811 587.399 532.165L588.543 536.737C586.332 527.872 585.417 518.748 585.472 509.623L585.428 514.336C585.561 501.009 587.761 487.874 591.262 475.03L589.999 479.625C593.663 466.316 598.312 453.065 599.814 439.27C600.561 432.377 600.682 425.21 599.64 418.328C599.028 414.27 598.007 410.216 596.81 406.305C596.027 403.752 595.032 401.249 593.808 398.879C589.664 390.881 584.465 383.489 576.894 378.334C572.819 375.56 568.362 373.922 563.34 374.51C558.861 375.041 553.731 377.668 551.055 381.4C548.273 385.268 546.453 390.113 547.228 394.956C548.002 399.799 550.097 404.511 554.115 407.24L554.117 407.257Z" fill="#FE027B"/>
<path d="M456.644 269.109C452.16 276.087 448.121 283.352 445.179 291.108C442.278 298.772 440.089 306.84 438.795 314.942C437.501 323.043 437.234 331.329 437.592 339.514C437.952 347.717 439.564 355.578 441.596 363.521C443.768 371.98 447.29 380.253 452.379 387.388C457.597 394.717 464.807 400.508 472.992 404.21C484.501 409.421 497.667 409.597 510.018 408.428C521.402 407.357 532.699 404.951 544.176 405.03C542.611 405.015 541.046 405 539.463 404.987C543.837 405.044 548.194 405.479 552.427 406.628C550.901 406.206 549.358 405.787 547.832 405.365C550.822 406.207 553.697 407.394 556.373 408.972L552.119 406.463C552.608 406.755 553.089 407.056 553.555 407.376C555.488 409.025 557.664 410.068 560.102 410.521C562.349 411.355 564.69 411.575 567.109 411.201C571.587 410.669 576.718 408.043 579.394 404.31C582.176 400.443 583.995 395.598 583.221 390.755C582.477 386.17 580.37 381.136 576.334 378.47C573.225 376.411 569.939 374.399 566.465 372.942C563.183 371.559 559.663 370.675 556.22 369.852C550.511 368.477 544.632 368.467 538.792 368.487C529.468 368.528 520.239 370.173 511.01 371.303C505.896 371.928 500.749 372.416 495.591 372.382C497.157 372.397 498.722 372.412 500.304 372.425C496.107 372.382 491.916 371.953 487.849 370.872C489.375 371.294 490.918 371.714 492.444 372.135C489.509 371.322 486.7 370.17 484.07 368.613C485.488 369.449 486.906 370.286 488.324 371.122C485.963 369.699 483.83 367.987 481.904 366.032C483.049 367.215 484.193 368.398 485.338 369.581C483.052 367.171 481.134 364.472 479.508 361.582L481.81 365.754C478.992 360.613 477.091 355.038 475.66 349.365L476.804 353.937C474.879 346.095 473.971 338.054 474.027 329.977C474.012 331.542 473.996 333.107 473.983 334.69C474.088 326.135 475.291 317.634 477.545 309.383C477.123 310.909 476.703 312.452 476.281 313.979C478.529 305.895 481.793 298.127 486.045 290.888C485.209 292.306 484.372 293.725 483.536 295.143C484.176 294.054 484.852 292.978 485.537 291.909C487.186 289.976 488.23 287.799 488.683 285.361C489.518 283.113 489.738 280.773 489.365 278.354C488.834 273.875 486.209 268.745 482.477 266.07C478.611 263.288 473.766 261.47 468.923 262.245C464.373 262.986 459.241 265.08 456.638 269.136L456.644 269.109Z" fill="#FF8402"/>
<path d="M553.768 105.319C554.819 108.444 555.752 111.6 556.559 114.797C556.178 113.279 555.797 111.76 555.415 110.225C557.84 120.008 559.046 130.049 558.966 140.138C558.981 138.572 558.997 137.007 559.01 135.425C558.901 144.975 557.642 154.479 555.119 163.705L556.382 159.109C554.078 167.383 550.766 175.332 546.419 182.73C547.256 181.312 548.092 179.894 548.929 178.476C543.605 187.431 536.842 195.378 529.395 202.629C530.578 201.484 531.762 200.339 532.945 199.195C523.25 208.564 512.526 216.763 501.879 225.022C490.082 234.187 478.578 243.614 468.165 254.369C462.919 259.778 458.124 265.605 454.017 271.927C452.368 273.861 451.324 276.037 450.871 278.476C450.036 280.723 449.816 283.064 450.189 285.483C450.72 289.962 453.345 295.092 457.077 297.767C460.944 300.549 465.788 302.367 470.631 301.591C475.198 300.849 480.286 298.751 482.916 294.701C487.897 287.053 493.885 280.167 500.416 273.802C499.232 274.947 498.049 276.092 496.866 277.237C507.068 267.362 518.429 258.79 529.607 250.075C541.77 240.605 553.689 230.771 564.161 219.405C583.554 198.343 594.893 170.34 595.456 141.686C595.618 133.238 595.406 124.887 594.12 116.533C592.833 108.178 590.749 99.8659 588.036 91.8553C586.546 87.464 582.237 83.3811 578.046 81.6249C573.856 79.8687 568.291 79.638 564.184 81.4618C559.769 83.4181 555.678 86.7858 553.952 91.4539C552.245 96.0759 552.198 100.615 553.785 105.317L553.768 105.319Z" fill="#FFBB44"/>
<path d="M422.827 63.7956C428.885 54.0281 435.804 44.7522 444.06 36.7328C442.877 37.8776 441.694 39.0225 440.51 40.1673C445.567 35.2963 451.119 30.9253 457.275 27.5136C455.889 28.2806 454.487 29.0496 453.102 29.8167C457.244 27.5521 461.611 25.7762 466.188 24.6042L461.616 25.7494C465.571 24.7736 469.602 24.2953 473.674 24.3186C472.109 24.3034 470.544 24.2883 468.962 24.2751C473.311 24.3443 477.601 25.0231 481.799 26.1757C480.273 25.7541 478.73 25.3346 477.204 24.913C483.611 26.7293 489.635 29.5868 495.363 32.96C493.945 32.1238 492.527 31.2875 491.109 30.4513C503.672 37.9307 515.173 47.4315 525.356 57.8922C524.211 56.7092 523.067 55.5261 521.922 54.343C531.435 64.167 539.761 75.1014 546.418 87.0635C545.651 85.6784 544.883 84.276 544.116 82.8909C547.911 89.7861 551.137 96.9672 553.689 104.429C555.188 108.828 559.468 112.888 563.678 114.66C567.759 116.376 573.433 116.646 577.541 114.823C581.956 112.866 586.046 109.499 587.773 104.831C589.481 100.226 589.542 95.6506 587.939 90.9671C584.855 81.9611 580.689 73.5552 576.064 65.2562C572.14 58.2278 567.668 51.5177 562.684 45.2003C551.801 31.4075 538.844 18.9788 524.627 8.66497C517.155 3.24542 509.203 -1.80272 500.77 -5.6059C495.963 -7.76939 490.997 -9.21519 485.905 -10.5413C482.164 -11.5211 478.345 -12.0636 474.48 -12.1727C469.801 -12.2988 465.152 -12.3236 460.533 -11.4961C456.026 -10.6905 451.498 -9.54178 447.199 -7.9312C439.865 -5.18307 432.822 -1.08077 426.6 3.68404C413.409 13.7652 402.641 26.974 393.928 41.0219C392.279 42.9556 391.236 45.132 390.782 47.5703C389.948 49.8179 389.727 52.1587 390.101 54.5774C390.631 59.0563 393.256 64.1863 396.988 66.8616C400.855 69.6432 405.699 71.4615 410.542 70.686C415.05 69.9589 420.313 67.8584 422.827 63.7956Z" fill="#A8C51B"/>
<path d="M300.61 297.947C323.952 272.39 341.164 241.69 355.591 210.404C369.599 180.006 381.159 148.554 394.689 117.95C402.281 100.786 410.49 83.8897 420.043 67.7244C419.207 69.1426 418.37 70.5607 417.534 71.9788C418.649 70.1084 419.773 68.2456 420.915 66.3807C422.564 64.447 423.607 62.2706 424.061 59.8323C424.895 57.5847 425.116 55.2439 424.742 52.8252C424.212 48.3463 421.587 43.2163 417.855 40.541C413.988 37.7594 409.144 35.941 404.301 36.7166C399.802 37.4512 394.521 39.5366 392.016 43.607C376.917 68.0379 364.711 93.8897 353.606 120.327C343.118 145.268 333.412 170.544 322.122 195.134C315.796 208.907 308.981 222.451 301.269 235.506C302.105 234.088 302.942 232.67 303.778 231.252C294.52 246.884 283.965 261.745 271.702 275.166C268.655 278.497 267.358 284.363 267.874 288.721C268.391 293.08 271.03 298.33 274.762 301.006C278.628 303.787 283.473 305.606 288.316 304.83C289.834 304.449 291.352 304.068 292.888 303.685C295.975 302.463 298.543 300.551 300.61 297.947Z" fill="#00A652"/>
<path d="M189.88 146.087C178.699 165.031 170.878 185.358 165.342 206.61C160.164 226.457 157.42 247.317 159.957 267.778C160.697 273.734 162.04 279.54 163.591 285.339C164.727 289.624 166.204 293.833 168.068 297.848C172.884 308.203 179.485 317.7 188.561 324.79C197.184 331.523 207.877 336.045 218.76 337.373C229.102 338.636 239.124 337.193 249.019 334.167C257.795 331.493 266.12 326.933 273.732 321.889C281.669 316.633 288.652 310.249 295.377 303.538C296.76 302.16 298.104 300.751 299.427 299.311C302.476 295.997 303.761 290.106 303.254 285.755C302.724 281.276 300.099 276.146 296.367 273.471C292.5 270.689 287.656 268.871 282.813 269.646L278.241 270.792C275.154 272.014 272.585 273.926 270.518 276.529C268.724 278.489 266.87 280.386 264.968 282.245C266.151 281.1 267.334 279.955 268.517 278.81C261.557 285.523 253.872 291.51 245.406 296.209C246.791 295.442 248.194 294.673 249.579 293.906C244.166 296.871 238.45 299.27 232.453 300.777C233.971 300.396 235.49 300.015 237.025 299.631C232.772 300.669 228.437 301.236 224.075 301.203C225.64 301.218 227.206 301.233 228.788 301.246C225.069 301.19 221.386 300.692 217.787 299.731C219.313 300.152 220.856 300.572 222.382 300.993C218.662 299.967 215.106 298.477 211.776 296.54C213.194 297.376 214.611 298.212 216.029 299.048C212.666 297.054 209.611 294.631 206.878 291.837C208.022 293.02 209.167 294.203 210.311 295.386C207.055 292.008 204.327 288.218 202.043 284.122C202.809 285.507 203.578 286.909 204.345 288.294C201.312 282.75 199.124 276.808 197.578 270.685C197.959 272.203 198.339 273.722 198.722 275.257C196.536 266.459 195.637 257.395 195.691 248.331C195.675 249.896 195.66 251.462 195.646 253.044C195.799 238.186 198.644 223.341 202.548 209.034C202.126 210.56 201.707 212.104 201.285 213.63C206.42 194.967 214.008 177.034 223.851 160.363C224.889 158.135 225.313 155.814 225.142 153.415C225.359 151.039 224.99 148.734 224.018 146.5C222.343 142.244 218.394 137.882 214.028 136.269C209.643 134.641 204.563 134.152 200.165 136.106L195.993 138.409C193.289 140.433 191.269 142.996 189.933 146.098L189.88 146.087Z" fill="#FED000"/>
<path d="M172.727 68.3609C179.94 69.5314 187.144 70.7728 194.202 72.6953C192.676 72.2738 191.133 71.8542 189.607 71.4326C195.621 73.0948 201.502 75.2617 206.893 78.4477C205.475 77.6115 204.057 76.7753 202.639 75.9391C205.725 77.8089 208.578 79.9945 211.12 82.5753C209.975 81.3922 208.83 80.2092 207.686 79.0261C209.859 81.3011 211.703 83.8162 213.235 86.5692C212.468 85.1841 211.699 83.7817 210.932 82.3966C212.354 85.0317 213.441 87.7938 214.176 90.6849C213.795 89.1666 213.415 87.6483 213.032 86.1129C213.778 89.1687 214.103 92.2832 214.099 95.4192C214.115 93.854 214.13 92.2887 214.144 90.7062C214.09 95.1933 213.338 99.6147 212.174 103.945C212.596 102.419 213.016 100.876 213.438 99.3495C210.078 111.54 203.766 122.7 197.379 133.519C198.215 132.101 199.052 130.683 199.888 129.265C197.837 132.74 195.747 136.185 193.695 139.66C192.046 141.594 191.003 143.77 190.549 146.209C189.715 148.456 189.494 150.797 189.868 153.216C190.398 157.695 193.023 162.824 196.755 165.5C200.622 168.281 205.466 170.1 210.309 169.324L214.881 168.179C217.968 166.957 220.537 165.045 222.604 162.441C227.896 153.507 233.393 144.688 238.254 135.508C243.022 126.505 246.645 117.271 249.069 107.358C251.65 96.7719 251.132 85.8368 247.963 75.4522C247.365 73.4968 246.589 71.5888 245.656 69.7605C243.884 66.3023 242.008 62.7779 239.576 59.7213C236.91 56.3866 233.848 53.2389 230.524 50.5414C227.248 47.8818 223.522 45.7735 219.856 43.7279C212.965 39.8903 205.325 37.7747 197.729 35.8025C191.178 34.108 184.511 32.9775 177.841 31.8912C173.336 31.168 168.04 32.6174 164.4 35.294C160.721 38.0015 157.525 42.9488 157.078 47.5786C156.632 52.2257 157.458 57.2809 160.477 61.019C163.63 64.9247 167.736 67.5207 172.759 68.3396L172.727 68.3609Z" fill="#F07402"/>
<path d="M1.27554 -36.9027C12.2165 -11.3343 31.0546 10.1178 54.0563 25.5733C65.8045 33.4725 78.3625 40.245 91.3868 45.7918C104.411 51.3386 118.648 55.8419 132.693 59.678C146.791 63.5252 161.118 66.5067 175.545 68.8476C180.042 69.5804 185.346 68.1214 188.985 65.4448C192.665 62.7373 195.861 57.79 196.308 53.1602C196.753 48.5131 195.928 43.4578 192.908 39.7197C189.889 35.9816 185.649 33.2181 180.626 32.3992C166.2 30.0583 151.882 27.0844 137.774 23.2296L142.369 24.4923C121.153 18.6598 100.349 10.8394 81.3395 -0.329578C82.7574 0.506616 84.1753 1.34281 85.5931 2.17903C73.8634 -4.75292 62.9059 -12.9818 53.3968 -22.7714C54.5414 -21.5883 55.6859 -20.4052 56.8304 -19.2221C49.6215 -26.6993 43.3701 -35.0149 38.3124 -44.0923L40.6144 -39.9198C38.7452 -43.314 37.04 -46.7975 35.5258 -50.3648C33.6162 -54.8373 30.077 -58.6884 25.5366 -60.5952C21.4553 -62.312 15.7812 -62.582 11.6738 -60.7583C7.25894 -58.802 3.16847 -55.4343 1.4417 -50.7662C-0.200638 -46.344 -0.630018 -41.3407 1.27554 -36.9027Z" fill="#FE027B"/>
</svg>
