<svg width="765" height="783" viewBox="0 0 765 783" fill="none" xmlns="http://www.w3.org/2000/svg">
<path d="M68.5033 655.109C67.2345 656.428 65.9837 657.784 64.7756 659.165C65.9463 657.832 67.1233 656.482 68.294 655.15C61.2134 663.246 55.2402 672.241 50.4391 681.858C51.2194 680.288 51.9997 678.718 52.7865 677.129C48.11 686.594 44.6003 696.608 42.4441 706.957C42.8024 705.24 43.1606 703.524 43.5252 701.789C41.6339 711.047 40.8216 720.484 41.2808 729.93C41.1851 728.159 41.0958 726.37 41.0001 724.598C41.4617 733.325 43.0179 741.949 45.7388 750.266C45.1638 748.514 44.5887 746.761 44.0136 745.009C44.9628 747.848 46.0356 750.626 47.2439 753.37C49.4274 758.312 49.9748 763.943 48.1811 769.121C46.5273 773.896 42.4261 778.881 37.7026 780.914C32.8062 783.032 27.0711 783.861 21.9595 781.852C16.9763 779.888 12.3919 776.416 10.1728 771.368C1.80422 752.381 -1.44126 731.334 0.58533 710.676C2.64591 689.742 9.60386 669.714 20.1391 651.585C25.9771 641.556 33.2903 632.491 41.3078 624.122C43.3891 622.15 45.8125 620.851 48.5354 620.201C51.0608 619.112 53.713 618.726 56.4979 619.054C61.4323 619.438 67.243 622.07 70.3845 625.998C73.7621 630.224 76.124 635.661 75.4502 641.197C75.0919 642.913 74.7337 644.63 74.3691 646.365C73.1736 649.787 71.2102 652.695 68.5033 655.109Z" fill="#FED000"/>
<path d="M175.187 609.591C174.382 609.631 173.589 609.664 172.783 609.704C174.554 609.608 176.342 609.519 178.113 609.423C159.764 610.404 141.55 613.611 124.091 619.353C125.842 618.777 127.594 618.202 129.345 617.627C115.278 622.303 101.793 628.621 89.3979 636.777L94.0045 633.716C85.3424 639.464 77.315 646.081 70.0822 653.548C68.0009 655.521 65.5775 656.82 62.8546 657.47C60.3293 658.559 57.6771 658.945 54.8921 658.617C49.9578 658.232 44.1471 655.601 41.0055 651.673C37.6279 647.447 35.266 642.01 35.9399 636.474L37.0209 631.306C38.2164 627.884 40.1798 624.976 42.8867 622.562C49.0001 616.248 55.6964 610.507 62.8641 605.423C71.2831 599.457 80.0588 593.974 89.3452 589.45C106.565 581.044 125.334 575.2 144.183 571.853C155.497 569.843 166.891 568.939 178.365 568.455C181.092 568.567 183.595 569.322 185.882 570.701C188.395 571.696 190.514 573.264 192.252 575.399C195.628 579.244 197.938 585.424 197.318 590.598C196.691 595.79 194.576 601.124 190.377 604.492C188.842 605.512 187.306 606.533 185.771 607.553C182.422 609.179 178.894 609.838 175.187 609.56L175.187 609.591Z" fill="#FEDC7B"/>
<path d="M301.099 630.165C282.916 624.528 264.56 619.417 245.919 615.514C247.635 615.873 249.351 616.231 251.085 616.596C226.274 611.427 200.97 608.453 175.606 609.449C172.88 609.336 170.376 608.581 168.089 607.202C165.576 606.207 163.457 604.639 161.72 602.504C158.344 598.66 156.033 592.48 156.654 587.306C157.281 582.113 159.396 576.779 163.594 573.412L168.201 570.35C171.55 568.724 175.077 568.065 178.784 568.343C215.137 566.9 251.33 573.661 286.32 583.007C295.805 585.535 305.226 588.309 314.591 591.216C319.53 592.744 324.147 597.101 326.377 601.701C328.608 606.3 329.202 612.656 327.314 617.453C325.351 622.408 321.887 627.068 316.836 629.246C311.723 631.453 306.479 631.845 301.093 630.183L301.099 630.165Z" fill="#F9A826"/>
<path d="M472.059 627.814C466.667 631.868 460.946 635.653 454.902 638.679C449.032 641.621 442.802 643.729 436.526 645.646C425.521 649.019 414.034 650.013 402.569 650.264C379.895 650.763 357.189 645.779 335.395 639.97C323.84 636.889 312.401 633.354 300.987 629.807C296.042 628.267 291.431 623.922 289.2 619.323C286.97 614.724 286.375 608.367 288.263 603.571C290.226 598.616 293.691 593.955 298.741 591.778C303.854 589.571 309.098 589.178 314.484 590.84C332.276 596.362 350.093 601.841 368.341 605.66C366.626 605.301 364.91 604.943 363.176 604.578C378.452 607.747 394.062 609.776 409.693 608.984L404.364 609.265C413.326 608.763 422.207 607.307 430.748 604.52C428.997 605.096 427.246 605.671 425.494 606.246C432.408 603.944 438.981 600.813 445.079 596.829C443.543 597.85 442.008 598.87 440.472 599.891C441.964 598.907 443.414 597.867 444.852 596.802C449.327 593.438 454.316 591.291 460.042 591.734C464.976 592.118 470.787 594.75 473.929 598.678C477.306 602.904 479.668 608.341 478.994 613.876C478.369 618.977 476.306 624.576 472.054 627.771L472.059 627.814Z" fill="#FED000"/>
<path d="M531.388 440.928C529.11 441.835 526.965 442.953 524.91 444.286C526.446 443.266 527.981 442.245 529.517 441.225C526.483 443.248 523.782 445.674 521.372 448.418L524.89 444.403C522.118 447.628 519.81 451.177 517.891 454.965C518.671 453.395 519.452 451.825 520.238 450.236C517.771 455.222 515.995 460.499 514.849 465.943C515.207 464.227 515.565 462.51 515.93 460.775C513.88 470.966 513.99 481.422 514.524 491.748L514.244 486.415C514.841 497.689 515.899 508.967 515.9 520.271C515.895 528.918 515.283 537.571 513.947 546.117C510.829 566.068 504.737 585.614 493.527 602.574C487.535 611.655 479.983 620.102 471.323 626.705C466.885 630.082 461.828 632.216 456.133 631.773C451.199 631.389 445.388 628.757 442.246 624.829C438.869 620.603 436.507 615.166 437.181 609.63C437.794 604.506 439.887 598.968 444.121 595.736C448.355 592.504 452.325 588.79 455.874 584.745L452.356 588.76C457.388 582.956 461.592 576.515 465.04 569.648L462.693 574.377C467.237 565.206 470.424 555.44 472.552 545.441C472.193 547.158 471.835 548.874 471.471 550.609C474.519 535.993 475.261 521.091 474.51 506.195L474.791 511.528C473.973 496.085 472.063 480.469 473.727 465.012C474.562 457.29 476.148 449.417 478.938 442.136C480.579 437.841 482.669 433.649 484.915 429.656C486.384 427.049 488.072 424.549 489.979 422.249C496.429 414.489 503.888 407.645 513.406 403.818C518.529 401.758 523.796 401.034 529.149 402.88C533.92 404.535 538.903 408.638 540.935 413.364C543.052 418.263 543.88 424.002 541.872 429.116C539.865 434.231 536.443 438.886 531.394 440.909L531.388 440.928Z" fill="#FEDC7B"/>
<path d="M671.126 313.098C674.358 321.808 677.035 330.728 678.394 339.92C679.73 349.002 680.19 358.356 679.664 367.532C679.149 376.703 677.444 385.84 675.09 394.712C672.73 403.602 669.082 411.82 664.955 420.025C660.551 428.762 654.716 436.972 647.439 443.56C639.975 450.331 630.7 454.941 620.858 457.03C607.02 459.976 592.577 457.014 579.346 452.776C567.149 448.876 555.369 443.536 542.796 440.873C544.511 441.231 546.227 441.589 547.961 441.954C543.163 440.969 538.292 440.401 533.388 440.644C535.158 440.548 536.946 440.459 538.717 440.363C535.244 440.568 531.815 441.178 528.509 442.264L533.764 440.538C533.159 440.74 532.561 440.954 531.974 441.193C529.464 442.534 526.834 443.154 524.058 443.065C521.4 443.44 518.787 443.12 516.231 442.13C511.459 440.476 506.477 436.372 504.445 431.646C502.328 426.747 501.499 421.009 503.507 415.894C505.42 411.055 508.932 406.051 513.986 404.101C517.88 402.593 521.957 401.178 526.106 400.416C530.028 399.688 534.09 399.564 538.053 399.489C544.628 399.352 551.061 400.749 557.445 402.171C567.634 404.45 577.335 408.462 587.159 411.91C592.604 413.818 598.118 415.586 603.767 416.784C602.052 416.426 600.336 416.068 598.602 415.703C603.204 416.661 607.89 417.196 612.598 416.988C610.828 417.083 609.039 417.173 607.269 417.268C610.674 417.082 614.023 416.494 617.273 415.421C615.522 415.996 613.77 416.571 612.019 417.147C614.943 416.155 617.686 414.792 620.262 413.114C618.726 414.135 617.19 415.155 615.655 416.176C618.733 414.086 621.477 411.592 623.949 408.819C622.778 410.151 621.601 411.501 620.431 412.834C624.747 407.882 628.161 402.237 631.087 396.371L628.74 401.101C632.725 392.98 635.646 384.397 637.52 375.544C637.162 377.261 636.804 378.978 636.439 380.713C638.375 371.326 639.097 361.734 638.609 352.164C638.704 353.936 638.794 355.725 638.89 357.497C638.368 348.111 636.66 338.828 633.744 329.888C634.319 331.64 634.894 333.393 635.469 335.145C635.03 333.8 634.549 332.46 634.055 331.127C632.715 328.616 632.095 325.984 632.183 323.207C631.809 320.547 632.129 317.932 633.117 315.375C634.771 310.601 638.872 305.616 643.596 303.582C648.492 301.464 654.227 300.635 659.339 302.644C664.139 304.545 669.251 308.066 671.126 313.128L671.126 313.098Z" fill="#F9A826"/>
<path d="M604.145 110.581C602.246 113.748 600.47 116.978 598.821 120.284C599.601 118.714 600.382 117.143 601.168 115.554C596.171 125.68 592.444 136.379 590.114 147.439C590.472 145.722 590.83 144.006 591.195 142.271C589.025 152.749 588.124 163.451 588.672 174.152L588.392 168.82C588.929 178.427 590.647 187.919 593.628 197.057C593.053 195.305 592.478 193.552 591.903 191.8C595.58 202.876 601.072 213.193 607.481 222.913C606.461 221.377 605.441 219.84 604.421 218.304C612.78 230.88 622.545 242.422 632.212 254.012C642.92 266.868 653.244 279.941 662.056 294.207C666.498 301.383 670.346 308.909 673.324 316.812C674.664 319.323 675.284 321.955 675.196 324.732C675.57 327.391 675.25 330.006 674.261 332.563C672.607 337.338 668.506 342.323 663.783 344.357C658.886 346.474 653.151 347.303 648.04 345.294C643.222 343.387 638.159 339.873 636.253 334.81C632.638 325.246 627.738 316.276 622.12 307.746C623.14 309.282 624.16 310.819 625.18 312.355C616.387 299.104 606.014 287.001 595.875 274.785C584.841 261.507 574.16 247.889 565.43 232.942C549.265 205.245 543.574 171.883 549.826 140.39C551.675 131.107 553.908 122.018 557.318 113.184C560.727 104.349 565 95.7517 569.888 87.6352C572.57 83.1864 578.262 79.7507 583.268 78.8329C588.143 77.932 594.415 78.996 598.471 81.976C602.831 85.1747 606.498 89.8403 607.268 95.3626C608.027 100.83 606.991 105.808 604.127 110.574L604.145 110.581Z" fill="#FED000"/>
<path d="M757.332 96.5123C753.047 84.3717 747.701 72.5626 740.593 61.8082C741.613 63.3446 742.632 64.881 743.652 66.4174C739.289 59.8751 734.263 53.7613 728.347 48.5527C729.679 49.724 731.029 50.9017 732.36 52.073C728.371 48.6021 724.021 45.6125 719.294 43.2331L724.021 45.5818C719.929 43.5664 715.635 42.0771 711.174 41.1268C712.89 41.4852 714.605 41.8436 716.34 42.2084C711.566 41.2421 706.71 40.957 701.842 41.2126C703.612 41.1168 705.401 41.0275 707.171 40.9317C699.727 41.3842 692.452 43.0679 685.378 45.387C687.13 44.8116 688.881 44.2363 690.633 43.6609C675.097 48.8359 660.239 56.4774 646.593 65.4856C648.129 64.4651 649.664 63.4446 651.2 62.4242C638.439 70.8958 626.711 80.8671 616.561 92.363C617.732 91.0309 618.909 89.6804 620.08 88.3483C614.276 94.9849 609.025 102.071 604.445 109.625C601.751 114.08 596.096 117.498 591.066 118.428C586.19 119.329 579.919 118.265 575.863 115.285C571.502 112.086 567.835 107.42 567.065 101.898C566.301 96.4494 567.331 91.4278 570.207 86.6863C575.739 77.5695 582.311 69.3685 589.359 61.3945C595.337 54.6431 601.837 48.3712 608.803 42.6518C624.013 30.165 641.166 19.6681 659.191 11.7876C668.663 7.64689 678.572 4.02767 688.708 1.88626C694.485 0.670308 700.264 0.277985 706.151 0.0467625C710.478 -0.129249 714.786 0.192363 719.04 0.99889C724.188 1.982 729.28 3.06892 734.134 5.0811C738.871 7.04274 743.549 9.38473 747.865 12.1773C755.229 16.9421 761.95 23.119 767.614 29.8243C779.627 44.0174 788.24 61.0528 794.403 78.5139C795.743 81.0252 796.363 83.657 796.274 86.4341C796.648 89.0937 796.329 91.7083 795.34 94.2657C793.686 99.0401 789.585 104.025 784.862 106.059C779.965 108.176 774.23 109.006 769.118 106.997C764.362 105.121 759.109 101.561 757.332 96.5123Z" fill="#F9A826"/>
<path d="M834.894 382.044C815.488 348.482 804.018 310.761 795.737 273.066C787.7 236.443 782.594 199.253 775.131 162.52C770.94 141.917 766.01 121.459 759.435 101.479C760.01 103.231 760.585 104.984 761.16 106.736C760.389 104.422 759.606 102.114 758.804 99.7997C757.464 97.2883 756.844 94.6565 756.932 91.8795C756.558 89.2198 756.878 86.6053 757.867 84.0479C759.52 79.2734 763.622 74.2883 768.345 72.2547C773.242 70.1371 778.977 69.3079 784.088 71.317C788.833 73.1988 794.11 76.7464 795.875 81.8012C806.535 112.155 813.69 143.371 819.501 174.965C824.995 204.772 829.553 234.758 836.008 264.374C839.626 280.963 843.835 297.417 849.142 313.553C848.567 311.801 847.992 310.048 847.417 308.296C853.797 327.622 861.781 346.414 871.978 364.039C874.512 368.415 874.524 375.145 872.915 379.791C871.306 384.437 867.16 389.551 862.437 391.584C857.54 393.702 851.805 394.531 846.693 392.522C845.124 391.741 843.555 390.961 841.967 390.173C838.883 388.096 836.532 385.389 834.894 382.044Z" fill="#FED000"/>
<path d="M992.422 242.385C1000.11 265.795 1003.79 289.914 1004.75 314.498C1005.66 337.459 1003.66 360.945 995.984 382.728C993.746 389.069 990.886 395.102 987.799 401.076C985.529 405.493 982.904 409.746 979.903 413.693C972.153 423.871 962.656 432.683 951.028 438.267C939.982 443.569 927.201 445.956 914.978 444.802C903.362 443.706 892.746 439.726 882.647 434.043C873.688 429.014 865.675 422.029 858.557 414.685C851.135 407.031 845.027 398.372 839.279 389.416C838.097 387.577 836.964 385.713 835.862 383.819C833.322 379.462 833.328 372.708 834.925 368.068C836.579 363.293 840.68 358.308 845.404 356.274C850.3 354.157 856.035 353.328 861.147 355.337L865.873 357.685C868.957 359.763 871.308 362.47 872.946 365.815C874.439 368.39 876.012 370.91 877.647 373.4C876.627 371.864 875.607 370.327 874.587 368.791C880.593 377.805 887.564 386.198 895.698 393.369C894.366 392.197 893.016 391.02 891.685 389.848C896.896 394.391 902.573 398.386 908.772 401.471C907.202 400.69 905.633 399.91 904.045 399.122C908.449 401.277 913.054 402.936 917.834 403.945C916.118 403.587 914.402 403.228 912.668 402.863C916.75 403.693 920.898 404.031 925.065 403.841C923.295 403.936 921.507 404.026 919.736 404.121C924.051 403.89 928.299 403.111 932.406 401.789C930.655 402.364 928.903 402.94 927.152 403.515C931.308 402.138 935.232 400.218 938.891 397.815C937.355 398.836 935.82 399.856 934.284 400.877C938.656 397.96 942.549 394.466 946.029 390.531C944.859 391.863 943.682 393.213 942.511 394.546C947.157 389.204 950.975 383.226 954.134 376.896C953.354 378.467 952.573 380.037 951.786 381.626C956.287 372.521 959.443 362.817 961.557 352.885C961.199 354.602 960.84 356.318 960.476 358.053C963.87 341.757 964.316 324.829 963.475 308.236C963.571 310.008 963.66 311.797 963.756 313.569C962.612 291.914 958.61 270.471 951.839 249.868C951.238 247.181 951.331 244.539 952.093 241.955C952.425 239.304 953.381 236.869 954.98 234.657C957.832 230.4 963.197 226.574 968.36 225.854C973.547 225.123 979.221 225.805 983.563 228.997L987.575 232.518C990.048 235.381 991.643 238.669 992.36 242.384L992.422 242.385Z" fill="#FEDC7B"/>
<path d="M1029.82 161.434C1021.64 160.986 1013.47 160.619 1005.29 161.032C1007.06 160.936 1008.84 160.846 1010.62 160.751C1003.64 161.129 996.686 162.091 990.025 164.286C991.777 163.711 993.528 163.135 995.279 162.56C991.455 163.867 987.811 165.575 984.412 167.79C985.948 166.77 987.483 165.749 989.019 164.729C986.096 166.698 983.476 169.009 981.141 171.654C982.312 170.322 983.489 168.972 984.66 167.64C982.473 170.183 980.622 172.945 979.125 175.933C979.905 174.363 980.685 172.792 981.472 171.204C979.923 174.369 978.821 177.699 978.074 181.132C978.432 179.416 978.79 177.699 979.155 175.964C978.138 180.887 977.901 185.906 978.136 190.924C978.04 189.153 977.951 187.363 977.855 185.592C978.609 199.737 982.838 213.463 987.231 226.834C986.656 225.082 986.081 223.33 985.506 221.577C986.917 225.872 988.378 230.142 989.789 234.437C991.129 236.948 991.749 239.58 991.66 242.357C992.034 245.017 991.714 247.631 990.726 250.189C989.072 254.963 984.971 259.948 980.247 261.982C975.351 264.1 969.616 264.929 964.504 262.92L959.778 260.571C956.694 258.494 954.343 255.786 952.705 252.441C949.058 241.396 945.159 230.428 942.042 219.217C938.985 208.222 937.235 197.248 936.959 185.819C936.674 173.615 939.861 161.772 945.817 151.167C946.94 149.171 948.247 147.269 949.705 145.491C952.472 142.131 955.369 138.724 958.762 135.961C962.478 132.951 966.583 130.24 970.865 128.084C975.086 125.959 979.667 124.544 984.167 123.184C992.626 120.635 1001.49 120.151 1010.27 119.812C1017.84 119.527 1025.41 119.888 1032.96 120.297C1038.07 120.585 1043.51 123.44 1046.85 127.241C1050.23 131.086 1052.54 137.266 1051.92 142.44C1051.29 147.632 1049.17 152.967 1044.98 156.334C1040.59 159.853 1035.48 161.71 1029.79 161.403L1029.82 161.434Z" fill="#F9A826"/>
<path d="M1242.59 87.3172C1224.5 112.677 1198.75 131.64 1169.88 143.042C1155.14 148.872 1139.78 153.275 1124.2 156.224C1108.63 159.174 1091.97 160.691 1075.69 161.524C1059.35 162.356 1042.96 162.186 1026.62 161.291C1021.52 161.016 1016.07 158.148 1012.73 154.347C1009.35 150.502 1007.04 144.322 1007.66 139.148C1008.29 133.956 1010.41 128.622 1014.61 125.254C1018.99 121.735 1024.1 119.878 1029.8 120.186C1046.14 121.08 1062.51 121.257 1078.87 120.418L1073.54 120.699C1098.14 119.4 1122.78 115.826 1146.25 108.158C1144.5 108.733 1142.75 109.309 1140.99 109.884C1155.49 105.108 1169.44 98.7285 1182.19 90.2936C1180.66 91.314 1179.12 92.3345 1177.59 93.355C1187.26 86.8996 1196.1 79.2971 1203.8 70.5749L1200.29 74.5896C1203.14 71.323 1205.84 67.9193 1208.36 64.3782C1211.52 59.9412 1216.31 56.5747 1221.74 55.5758C1226.61 54.6749 1232.88 55.739 1236.94 58.7189C1241.3 61.9176 1244.97 66.5832 1245.74 72.1056C1246.47 77.3387 1245.74 82.917 1242.59 87.3172Z" fill="#FED000"/>
</svg>
