<svg width="289" height="409" viewBox="0 0 289 409" fill="none" xmlns="http://www.w3.org/2000/svg">
<g clip-path="url(#clip0_1401_45)">
<path d="M38.9748 90.6373C38.127 99.9998 38.151 109.499 39.0263 118.864C39.9054 128.286 41.8128 137.498 44.2245 146.637C46.3866 154.837 49.1486 162.871 52.4446 170.691C56.1735 179.535 60.6309 187.997 65.4372 196.298C70.2895 204.672 75.7025 212.714 81.579 220.399C83.4031 222.773 86.3655 224.479 89.3328 224.873C92.175 225.245 95.7456 224.428 97.9767 222.546C100.294 220.598 102.171 217.897 102.45 214.793C102.728 211.688 102.051 208.669 100.124 206.149C94.1187 198.296 88.6022 190.069 83.6634 181.505C84.184 182.413 84.7045 183.32 85.225 184.228C78.7005 172.872 73.1981 160.927 69.0545 148.498C67.8859 144.981 66.8229 141.423 65.8859 137.837C66.1421 138.81 66.3969 139.794 66.6531 140.767C63.3993 128.293 61.5883 115.458 61.6087 102.563C61.6064 103.558 61.604 104.552 61.6002 105.558C61.613 101.596 61.7974 97.6393 62.1582 93.6948C62.4372 90.6291 61.7367 87.5296 59.8318 85.0509C58.0837 82.7761 54.9908 80.8367 52.0781 80.5777C49.0656 80.3167 45.8212 80.8926 43.4342 82.904C41.1103 84.857 39.2457 87.5483 38.961 90.6577L38.9748 90.6373Z" fill="#00A652"/>
<path d="M81.5466 220.689C87.4085 228.317 93.9812 235.399 101.094 241.879C106.548 246.851 112.429 251.357 118.687 255.279C124.879 259.153 131.36 262.648 138.115 265.45C143.984 267.881 150.024 269.689 156.179 271.262C160.913 272.471 165.727 273.363 170.581 273.959C173.568 274.328 176.826 273.476 179.225 271.633C181.623 269.79 183.439 266.792 183.698 263.879C183.959 260.867 183.383 257.622 181.371 255.235C179.379 252.873 176.747 251.149 173.618 250.762C168.452 250.13 163.337 249.155 158.307 247.829C159.269 248.083 160.231 248.337 161.204 248.592C154.165 246.725 147.315 244.183 140.771 241.002C138.618 239.953 136.501 238.836 134.426 237.658C135.3 238.157 136.186 238.656 137.06 239.154C127.539 233.738 118.85 226.985 111.074 219.285C111.817 220.021 112.56 220.758 113.303 221.494C108.565 216.788 104.178 211.744 100.107 206.446C98.278 204.066 95.3265 202.362 92.3531 201.973C89.5108 201.601 85.9403 202.417 83.7092 204.299C81.3915 206.247 79.5146 208.948 79.236 212.053C78.9574 215.158 79.629 218.181 81.5623 220.697L81.5466 220.689Z" fill="#A8C51B"/>
<path d="M165.236 273.338C181.134 275.269 197.437 275.079 213.282 272.745C229.137 270.412 244.856 266.021 259.567 259.652C268.242 255.896 276.589 251.379 284.601 246.362C286.999 244.864 288.721 241.309 289.075 238.608C289.447 235.766 288.63 232.196 286.748 229.965C284.8 227.647 282.099 225.77 278.995 225.491C278 225.489 277.005 225.487 275.999 225.483C273.907 225.754 272.026 226.53 270.346 227.812C268.541 228.943 266.714 230.032 264.868 231.097C265.775 230.577 266.683 230.056 267.591 229.536C257.427 235.36 246.664 240.111 235.517 243.722C232.376 244.74 229.203 245.664 226.013 246.503C226.986 246.247 227.97 245.992 228.943 245.736C217.811 248.637 206.404 250.451 194.918 251.088C191.62 251.273 188.323 251.359 185.022 251.349C186.016 251.351 187.011 251.354 188.017 251.358C181.41 251.332 174.819 250.931 168.268 250.134C165.275 249.77 162.029 250.613 159.624 252.461C157.35 254.209 155.41 257.302 155.151 260.214C154.89 263.227 155.466 266.471 157.478 268.858C159.47 271.221 162.102 272.944 165.231 273.331L165.236 273.338Z" fill="#D2DE8F"/>
<path d="M285.807 245.013C287.898 243.691 289.818 242.146 291.575 240.403C293.332 238.659 294.925 237.111 296.355 235.235C297.784 233.36 298.931 231.27 300.064 229.2C301.923 225.785 303.06 221.814 303.507 217.97C304.135 212.581 303.363 207.61 301.869 202.455C301.291 200.462 300.498 198.534 299.556 196.682C298.283 194.18 296.857 191.647 295.101 189.438C293.44 187.342 291.492 185.408 289.436 183.704C287.455 182.06 285.178 180.812 282.924 179.594C279.331 177.655 275.188 176.563 271.179 175.927C267.177 175.286 263.01 175.302 258.98 175.597C254.629 175.922 250.433 176.924 246.227 178.053C243.439 178.799 240.693 179.73 238.048 180.907C235.22 182.166 232.8 184.428 231.619 187.332C230.561 189.934 230.421 193.552 231.617 196.143C232.903 198.93 235.061 201.509 238.041 202.572C240.861 203.58 244.048 203.825 246.853 202.574C249.586 201.359 252.425 200.396 255.315 199.641C254.342 199.897 253.358 200.152 252.385 200.408C256.596 199.325 260.923 198.674 265.277 198.671C264.282 198.669 263.287 198.666 262.281 198.662C265.26 198.674 268.226 198.99 271.115 199.73C270.153 199.476 269.191 199.222 268.218 198.967C270.405 199.548 272.499 200.367 274.474 201.465C273.599 200.967 272.714 200.467 271.84 199.969C273.676 201.016 275.356 202.281 276.864 203.757C276.121 203.021 275.378 202.284 274.635 201.547C276.267 203.184 277.643 205.027 278.799 207.029C278.278 206.122 277.758 205.214 277.237 204.306C278.599 206.731 279.683 209.319 280.393 212.008C280.137 211.035 279.882 210.051 279.626 209.078C280.144 211.108 280.435 213.176 280.45 215.268C280.452 214.273 280.455 213.278 280.458 212.272C280.453 214.223 280.212 216.149 279.715 218.035C279.969 217.073 280.223 216.111 280.478 215.138C279.95 217.087 279.178 218.949 278.198 220.705C278.696 219.831 279.196 218.945 279.694 218.071C278.444 220.27 276.882 222.267 275.106 224.064C275.843 223.321 276.58 222.578 277.316 221.835C275.57 223.58 273.644 225.129 271.548 226.445C269.149 227.954 267.434 231.494 267.075 234.198C266.702 237.041 267.519 240.611 269.401 242.842C271.349 245.16 274.05 247.037 277.155 247.316C278.15 247.318 279.144 247.32 280.15 247.324C282.243 247.053 284.123 246.277 285.803 244.995L285.807 245.013Z" fill="#A8C51B"/>
<path d="M236.217 181.851C224.221 187.235 212.777 194.26 202.773 202.813C192.825 211.323 183.859 221.241 177.054 232.458C173.02 239.108 169.468 246.026 166.834 253.359C165.812 256.199 165.674 259.333 166.831 262.17C167.925 264.86 170.473 267.601 173.256 268.599C176.049 269.598 179.293 269.878 182.068 268.601C184.859 267.321 187.422 265.155 188.496 262.177C190.456 256.718 192.891 251.455 195.758 246.41C195.26 247.284 194.761 248.17 194.263 249.044C199.116 240.556 205.126 232.781 212.001 225.837C211.264 226.58 210.527 227.323 209.791 228.066C217.646 220.171 226.567 213.394 236.213 207.83C235.305 208.351 234.398 208.871 233.49 209.392C237.235 207.241 241.082 205.288 245.022 203.518C247.851 202.249 250.264 200.002 251.451 197.094C252.509 194.491 252.649 190.874 251.454 188.282C250.167 185.495 248.009 182.916 245.029 181.854C242.213 180.851 239.017 180.594 236.217 181.851Z" fill="#00A652"/>
<path d="M167.249 253.798C162.487 267.202 160.563 281.216 161.257 295.411C161.553 301.515 162.458 307.594 163.968 313.512C165.707 320.317 167.805 326.924 170.945 333.223C174.422 340.205 178.636 346.878 183.82 352.716C185.904 355.057 188.388 356.766 191.574 357.189C194.416 357.561 197.987 356.744 200.218 354.863C202.536 352.914 204.413 350.213 204.691 347.109C204.951 344.146 204.414 340.774 202.365 338.465C198.881 334.545 195.832 330.271 193.214 325.725C193.734 326.633 194.255 327.54 194.775 328.448C191.154 322.097 188.421 315.279 186.556 308.208C186.812 309.181 187.067 310.165 187.323 311.138C185.314 303.431 184.335 295.492 184.349 287.527C184.347 288.521 184.344 289.516 184.341 290.522C184.384 282.633 185.396 274.777 187.385 267.142L186.622 270.039C187.283 267.535 188.047 265.061 188.91 262.628C189.923 259.775 190.075 256.659 188.913 253.816C187.819 251.127 185.271 248.386 182.488 247.387C179.695 246.388 176.451 246.108 173.677 247.385C170.902 248.661 168.305 250.834 167.248 253.809L167.249 253.798Z" fill="#A8C51B"/>
<path d="M183.187 352.748C189.483 359.777 196.654 365.947 204.683 370.907C212.732 375.88 221.242 380.019 230.156 383.187C235.606 385.124 241.168 386.68 246.767 388.12C248.301 388.376 249.79 388.254 251.225 387.741C252.778 387.472 254.169 386.826 255.411 385.793C257.686 384.045 259.625 380.952 259.884 378.04C260.145 375.027 259.569 371.783 257.558 369.396C256.815 368.659 256.072 367.922 255.328 367.186C253.683 365.953 251.836 365.2 249.798 364.927C249.476 364.84 249.158 364.76 248.83 364.678C249.792 364.932 250.754 365.186 251.726 365.441C240.554 362.494 229.643 358.441 219.563 352.757C220.437 353.255 221.322 353.755 222.197 354.253C215.108 350.222 208.49 345.398 202.693 339.646C203.436 340.383 204.179 341.12 204.923 341.856C203.826 340.762 202.767 339.639 201.733 338.487C199.638 336.144 197.176 334.437 193.98 334.013C191.137 333.641 187.567 334.458 185.336 336.34C183.018 338.288 181.141 340.989 180.862 344.093C180.602 347.056 181.132 350.444 183.189 352.737L183.187 352.748Z" fill="#00A652"/>
</g>
<defs>
<clipPath id="clip0_1401_45">
<rect width="369.362" height="188.372" fill="white" transform="translate(150.179 0.853516) rotate(52.4589)"/>
</clipPath>
</defs>
</svg>
