<svg width="421" height="242" viewBox="0 0 421 242" fill="none" xmlns="http://www.w3.org/2000/svg">
<path d="M405.78 145.861C393.71 146.771 381.83 149.241 370.51 153.531C359.16 157.831 348.3 163.251 338.11 169.841C331.88 173.871 325.95 178.311 320.11 182.881C318.65 184.241 317.61 185.851 317.01 187.711C316.07 189.501 315.64 191.421 315.72 193.491C315.72 197.171 317.35 201.561 320.11 204.101C322.97 206.721 326.72 208.671 330.72 208.491C332.05 208.311 333.38 208.131 334.71 207.951C337.25 207.241 339.46 205.951 341.33 204.091C341.67 203.831 342 203.571 342.34 203.301C341.33 204.081 340.32 204.861 339.3 205.651C351.03 196.591 363.68 188.661 377.34 182.851C376.15 183.351 374.95 183.861 373.76 184.361C383.4 180.301 393.48 177.341 403.86 175.941C402.53 176.121 401.2 176.301 399.87 176.481C401.84 176.221 403.81 176.021 405.79 175.871C409.81 175.571 413.47 174.401 416.4 171.481C419 168.881 420.96 164.611 420.79 160.871C420.62 156.991 419.34 152.971 416.4 150.261C413.59 147.681 409.73 145.571 405.79 145.871L405.78 145.861Z" fill="#FFBB44"/>
<path d="M255.71 241.471C267.78 240.561 279.66 238.091 290.98 233.801C302.33 229.501 313.19 224.081 323.38 217.491C329.61 213.461 335.54 209.021 341.38 204.451C342.84 203.091 343.88 201.481 344.48 199.621C345.42 197.831 345.85 195.911 345.77 193.841C345.77 190.161 344.14 185.771 341.38 183.231C338.52 180.611 334.77 178.661 330.77 178.841C329.44 179.021 328.11 179.201 326.78 179.381C324.24 180.091 322.03 181.381 320.16 183.241C319.82 183.501 319.49 183.761 319.15 184.031C320.16 183.251 321.17 182.471 322.19 181.681C310.46 190.741 297.81 198.671 284.15 204.481C285.34 203.981 286.54 203.471 287.73 202.971C278.09 207.031 268.01 209.991 257.63 211.391C258.96 211.211 260.29 211.031 261.62 210.851C259.65 211.111 257.68 211.311 255.7 211.461C251.68 211.761 248.02 212.931 245.09 215.851C242.49 218.451 240.53 222.721 240.7 226.461C240.87 230.341 242.15 234.361 245.09 237.071C247.9 239.651 251.76 241.761 255.7 241.461L255.71 241.471Z" fill="#FF8402"/>
<path d="M142.61 180.341C152.52 195.661 165.27 208.571 180.25 218.961C186.69 223.431 193.58 227.261 200.78 230.351C209.06 233.901 217.42 236.931 226.28 238.661C236.1 240.581 246.18 241.511 256.17 240.801C260.18 240.511 263.86 239.321 266.78 236.411C269.38 233.811 271.34 229.541 271.17 225.801C271 221.921 269.72 217.901 266.78 215.191C263.97 212.611 260.12 210.521 256.17 210.801C249.46 211.281 242.73 211.041 236.06 210.151C237.39 210.331 238.72 210.511 240.05 210.691C230.76 209.411 221.69 206.861 213.04 203.231C214.23 203.731 215.43 204.241 216.62 204.741C207.21 200.761 198.37 195.551 190.28 189.311C191.29 190.091 192.3 190.871 193.32 191.661C185.33 185.451 178.13 178.281 171.92 170.291L174.27 173.331C172.24 170.701 170.32 167.991 168.52 165.211C166.41 161.951 163.36 159.361 159.56 158.321C155.97 157.331 151.19 157.781 148 159.831C144.8 161.891 141.98 164.971 141.11 168.791C140.24 172.611 140.42 176.951 142.62 180.351L142.61 180.341Z" fill="#F07402"/>
<path d="M123.34 53.9607C119.44 70.3707 117.64 87.5007 118.52 104.361C119.4 121.131 122.48 138.001 128.57 153.691C132.18 162.991 136.44 172.011 141.84 180.421C143.93 183.681 147.01 186.271 150.8 187.311C154.39 188.301 159.17 187.851 162.36 185.801C165.56 183.741 168.38 180.661 169.25 176.841C170.13 173.001 169.93 168.701 167.74 165.281C163.72 159.021 160.27 152.431 157.38 145.571C157.88 146.761 158.39 147.961 158.89 149.151C154.05 137.581 150.84 125.391 149.15 112.971C149.33 114.301 149.51 115.631 149.69 116.961C147.8 102.801 147.88 88.4307 149.76 74.2707C149.58 75.6007 149.4 76.9307 149.22 78.2607C149.96 72.7707 150.98 67.3307 152.26 61.9407C153.18 58.0707 152.78 53.8607 150.75 50.3807C148.93 47.2707 145.36 44.3007 141.79 43.4907C137.95 42.6207 133.64 42.8007 130.23 45.0007C127.01 47.0807 124.25 50.1307 123.34 53.9607Z" fill="#FF8402"/>
<path d="M226.34 52.8907C226.63 49.7307 226.56 46.5707 226.16 43.4207C225.76 40.2707 225.43 37.4407 224.64 34.5207C223.85 31.6007 222.62 28.8007 221.4 26.0307C219.38 21.4707 216.23 17.2107 212.67 13.7507C207.68 8.90073 202.02 5.80073 195.61 3.29073C193.13 2.32073 190.55 1.62073 187.93 1.13073C184.39 0.470732 180.7 -0.0592676 177.08 0.000732367C173.65 0.0507324 170.16 0.520732 166.82 1.28073C163.6 2.01073 160.55 3.35073 157.55 4.69073C152.77 6.83073 148.42 10.1907 144.64 13.7707C140.86 17.3407 137.62 21.5907 134.77 25.9207C131.7 30.6007 129.44 35.6507 127.3 40.8107C125.88 44.2307 124.68 47.7507 123.81 51.3607C122.88 55.2207 123.29 59.4507 125.32 62.9207C127.14 66.0307 130.71 69.0007 134.28 69.8107C138.12 70.6807 142.43 70.5007 145.84 68.3007C149.07 66.2207 151.81 63.1707 152.73 59.3407C153.63 55.6107 154.87 51.9707 156.36 48.4407C155.86 49.6307 155.35 50.8307 154.85 52.0207C157.04 46.8907 159.76 41.9807 163.16 37.5507C162.38 38.5607 161.6 39.5707 160.81 40.5907C163.15 37.5707 165.79 34.8007 168.8 32.4407C167.79 33.2207 166.78 34.0007 165.76 34.7907C168.06 33.0207 170.53 31.5307 173.19 30.3807C172 30.8807 170.8 31.3907 169.61 31.8907C172.11 30.8407 174.71 30.1207 177.39 29.7407C176.06 29.9207 174.73 30.1007 173.4 30.2807C176.34 29.9007 179.29 29.9407 182.23 30.3307C180.9 30.1507 179.57 29.9707 178.24 29.7907C181.77 30.3007 185.25 31.2207 188.54 32.6007C187.35 32.1007 186.15 31.5907 184.96 31.0907C187.43 32.1507 189.76 33.4707 191.9 35.0907C190.89 34.3107 189.88 33.5307 188.86 32.7407C190.84 34.2707 192.61 36.0207 194.14 38.0007C193.36 36.9907 192.58 35.9807 191.79 34.9607C193.36 37.0207 194.65 39.2607 195.67 41.6307C195.17 40.4407 194.66 39.2407 194.16 38.0507C195.42 41.0407 196.23 44.1907 196.67 47.4007C196.49 46.0707 196.31 44.7407 196.13 43.4107C196.54 46.5507 196.61 49.7207 196.31 52.8807C195.97 56.5007 198.23 61.0107 200.7 63.4907C203.3 66.0907 207.57 68.0507 211.31 67.8807C215.19 67.7107 219.21 66.4307 221.92 63.4907C222.7 62.4807 223.48 61.4707 224.27 60.4507C225.63 58.1107 226.31 55.5907 226.32 52.8807L226.34 52.8907Z" fill="#F07402"/>
<path d="M160.91 197.661C175.3 183.001 187.85 166.271 197.86 148.331C207.88 130.381 215.7 110.961 220.72 91.0207C223.68 79.2607 225.61 67.2407 226.77 55.1707C227.12 51.5607 224.85 47.0307 222.38 44.5607C219.78 41.9607 215.51 40.0007 211.77 40.1707C207.89 40.3407 203.87 41.6207 201.16 44.5607C200.38 45.5707 199.6 46.5807 198.81 47.6007C197.45 49.9407 196.77 52.4607 196.76 55.1707C196.5 57.8907 196.18 60.6007 195.82 63.3107C196 61.9807 196.18 60.6507 196.36 59.3207C194.34 74.2107 190.76 88.8707 185.72 103.031C184.3 107.021 182.76 110.971 181.12 114.871C181.62 113.681 182.13 112.481 182.63 111.291C176.88 124.881 169.81 137.901 161.48 150.081C159.09 153.581 156.6 157.001 154.01 160.351C154.79 159.341 155.57 158.331 156.36 157.311C151.17 164.011 145.61 170.401 139.68 176.441C136.97 179.201 135.29 183.161 135.29 187.051C135.29 190.731 136.92 195.121 139.68 197.661C142.54 200.281 146.29 202.231 150.29 202.051C154.25 201.871 158.06 200.541 160.9 197.661H160.91Z" fill="#FFBB44"/>
<path d="M41.9498 241.631C54.2898 241.631 66.6298 240.481 78.7798 238.311C88.0998 236.651 97.2798 234.191 106.16 230.891C114.94 227.621 123.56 223.761 131.69 219.081C138.75 215.011 145.31 210.281 151.72 205.251C156.65 201.381 161.32 197.181 165.72 192.711C168.43 189.961 170.11 185.981 170.11 182.101C170.11 178.221 168.48 174.031 165.72 171.491C162.86 168.871 159.11 166.921 155.11 167.101C151.15 167.281 147.34 168.611 144.5 171.491C139.82 176.251 134.83 180.691 129.55 184.771C130.56 183.991 131.57 183.211 132.59 182.421C125.19 188.121 117.25 193.101 108.9 197.271C106.15 198.641 103.36 199.921 100.54 201.111C101.73 200.611 102.93 200.101 104.12 199.601C91.1698 205.051 77.5098 208.611 63.5998 210.501C64.9298 210.321 66.2598 210.141 67.5898 209.961C59.0998 211.101 50.5398 211.621 41.9698 211.621C38.1198 211.621 34.0798 213.291 31.3598 216.011C28.7598 218.611 26.7998 222.881 26.9698 226.621C27.1398 230.501 28.4198 234.521 31.3598 237.231C34.2998 239.941 37.8998 241.621 41.9698 241.621L41.9498 241.631Z" fill="#F07402"/>
<path d="M-123.6 183.281C-114.74 191.461 -105.06 198.861 -94.8502 205.291C-84.5802 211.761 -73.7202 217.021 -62.5402 221.711C-52.5102 225.921 -42.1802 229.391 -31.6502 232.151C-19.7402 235.271 -7.65018 237.351 4.54982 238.951C16.8598 240.561 29.2698 241.341 41.6798 241.371C45.5198 241.371 49.5698 239.691 52.2898 236.981C54.8898 234.381 56.8498 230.111 56.6798 226.371C56.5098 222.491 55.2298 218.471 52.2898 215.761C49.3498 213.051 45.7498 211.381 41.6798 211.371C28.9998 211.341 16.3198 210.521 3.74982 208.851C5.07982 209.031 6.40982 209.211 7.73982 209.391C-8.91018 207.151 -25.3602 203.411 -41.2402 197.911C-45.7302 196.351 -50.1802 194.651 -54.5602 192.801C-53.3702 193.301 -52.1702 193.811 -50.9802 194.311C-66.2102 187.871 -80.6802 179.681 -93.7802 169.581C-92.7702 170.361 -91.7602 171.141 -90.7402 171.931C-94.7602 168.821 -98.6402 165.541 -102.37 162.091C-105.27 159.411 -108.97 157.701 -112.98 157.701C-116.66 157.701 -121.05 159.331 -123.59 162.091C-126.21 164.951 -128.16 168.701 -127.98 172.701C-127.81 176.591 -126.53 180.591 -123.59 183.311L-123.6 183.281Z" fill="#FFBB44"/>
</svg>
