<svg width="518" height="436" viewBox="0 0 518 436" fill="none" xmlns="http://www.w3.org/2000/svg">
<path d="M414.564 33.6575C416.062 33.6567 417.572 33.6875 419.072 33.7577C417.622 33.693 416.157 33.6216 414.707 33.557C423.501 33.9707 432.197 35.5475 440.595 38.1691C439.226 37.739 437.857 37.3088 436.473 36.8719C444.71 39.4808 452.609 43.0894 459.937 47.6874C458.721 46.925 457.506 46.1627 456.275 45.3936C462.81 49.5291 468.837 54.4028 474.149 60.032C473.158 58.9708 472.153 57.903 471.163 56.8418C476.049 62.0645 480.252 67.8744 483.614 74.1982C482.907 72.8648 482.199 71.5314 481.492 70.198C482.628 72.3683 483.658 74.5776 484.59 76.8468C486.267 80.9393 489.277 84.4561 493.35 86.3349C497.105 88.067 502.373 88.4743 506.253 86.8401C510.281 85.1514 514.025 82.237 515.741 78.0805C517.411 74.0251 517.965 69.3502 516.247 65.1771C509.796 49.468 499.224 35.6142 485.888 25.0922C472.37 14.4337 456.607 7.17961 439.934 3.11387C430.705 0.870649 421.207 0.0449396 411.721 0.0300793C409.376 0.139402 407.234 0.832934 405.306 2.07132C403.23 2.94429 401.497 4.29037 400.11 6.12016C397.536 9.25039 395.791 14.1728 396.325 18.255C396.9 22.6454 398.767 27.1233 402.415 29.8658C403.631 30.6281 404.847 31.3905 406.077 32.1595C408.774 33.3948 411.604 33.8858 414.564 33.6575Z" fill="#00A652"/>
<path d="M327.167 70.8018C327.647 70.3491 328.117 69.9002 328.597 69.4475C327.536 70.4379 326.468 71.4429 325.407 72.4334C336.399 62.1606 348.628 53.2294 361.924 46.1826C360.591 46.8899 359.257 47.5972 357.924 48.3045C368.666 42.6545 380.046 38.2796 391.892 35.5908L387.472 36.573C395.779 34.7213 404.237 33.7367 412.747 33.704C415.092 33.5947 417.234 32.9011 419.163 31.6627C421.238 30.7898 422.971 29.4437 424.358 27.6139C426.932 24.4836 428.677 19.5612 428.143 15.479C427.568 11.0886 425.701 6.61072 422.053 3.86822L418.391 1.5745C415.694 0.339224 412.864 -0.151752 409.904 0.0765318C402.71 0.103433 395.523 0.799111 388.457 2.14565C380.159 3.73018 371.944 5.79951 364.005 8.71416C349.273 14.1089 335.175 21.8713 322.503 31.0974C314.895 36.6347 307.896 42.8466 301.098 49.344C299.617 51.0166 298.641 52.9224 298.157 55.0547C297.317 57.1021 297.04 59.2422 297.313 61.4788C297.664 65.6521 299.999 70.521 303.403 73.0896C306.821 75.665 311.168 77.4426 315.538 76.8747C317.011 76.5473 318.484 76.2199 319.958 75.8924C322.817 74.8383 325.208 73.1299 327.148 70.7846L327.167 70.8018Z" fill="#C6DF5F"/>
<path d="M267.841 156.785C274.836 142.855 282.239 129.123 290.516 115.908C289.754 117.124 288.992 118.34 288.223 119.57C299.255 101.995 311.862 85.3732 326.845 70.9685C328.325 69.2959 329.301 67.39 329.785 65.2577C330.625 63.2103 330.903 61.0703 330.63 58.8337C330.278 54.6604 327.944 49.7915 324.539 47.2229C321.121 44.6475 316.774 42.8699 312.405 43.4378L307.984 44.4201C305.125 45.4742 302.734 47.1826 300.794 49.5279C279.311 70.1644 262.757 95.3605 248.412 121.313C244.52 128.345 240.809 135.478 237.21 142.654C235.308 146.436 235.258 151.632 236.705 155.558C238.152 159.483 241.564 163.439 245.464 165.046C249.501 166.698 254.217 167.297 258.368 165.551C262.571 163.786 265.779 160.913 267.856 156.791L267.841 156.785Z" fill="#A8C51B"/>
<path d="M169.426 256.35C174.878 255.467 180.358 254.238 185.573 252.388C190.64 250.592 195.419 248.111 200.112 245.494C208.347 240.912 215.453 234.697 222.108 228.072C235.271 214.974 245.218 198.745 254.16 182.588C258.901 174.02 263.308 165.264 267.694 156.515C269.592 152.723 269.646 147.537 268.199 143.612C266.752 139.687 263.34 135.73 259.44 134.124C255.403 132.472 250.687 131.873 246.536 133.619C242.333 135.384 239.125 138.257 237.048 142.378C230.208 156.011 223.328 169.634 215.223 182.57C215.986 181.354 216.748 180.138 217.517 178.908C210.716 189.722 203.054 200.085 193.715 208.861L196.906 205.876C191.523 210.88 185.624 215.296 179.132 218.756C180.466 218.049 181.799 217.342 183.132 216.634C177.85 219.408 172.273 221.512 166.462 222.851C167.936 222.524 169.409 222.197 170.883 221.869C169.455 222.192 168.019 222.457 166.575 222.702C162.051 223.435 157.953 225.161 154.964 228.792C152.391 231.922 150.645 236.845 151.179 240.927C151.755 245.317 153.621 249.795 157.269 252.538C160.633 255.061 165.106 257.02 169.404 256.323L169.426 256.35Z" fill="#00A652"/>
<path d="M25.5167 185.358C27.3444 184.528 29.221 183.896 31.1743 183.44C29.7009 183.767 28.2274 184.095 26.754 184.422C29.6692 183.779 32.6334 183.561 35.6194 183.695L31.2544 183.494C34.7296 183.687 38.1339 184.338 41.4571 185.354C40.0879 184.924 38.7187 184.494 37.3351 184.057C41.6765 185.429 45.7974 187.374 49.6591 189.786C48.4432 189.024 47.2272 188.262 45.9969 187.493C53.1714 192.063 59.2771 198.059 65.0645 204.232L62.0786 201.041C68.3894 207.788 74.4419 214.811 81.1086 221.223C86.2121 226.125 91.6638 230.672 97.4631 234.731C111.001 244.208 125.988 251.699 142.354 254.704C151.112 256.318 160.38 256.653 169.19 255.287C173.701 254.583 177.83 252.809 180.801 249.197C183.375 246.067 185.12 241.144 184.586 237.062C184.01 232.672 182.144 228.194 178.496 225.451C175.125 222.906 170.67 221.001 166.361 221.666C162.052 222.332 157.608 222.568 153.207 222.368L157.572 222.569C151.293 222.247 145.108 221.075 139.1 219.214L143.222 220.511C135.233 217.991 127.664 214.333 120.558 209.916C121.774 210.679 122.99 211.441 124.22 212.21C113.868 205.718 104.657 197.703 96.2969 188.811L99.2828 192.001C90.6377 182.759 82.5101 172.774 72.4485 164.988C67.4196 161.101 61.8754 157.571 55.9975 155.087C52.5321 153.62 48.8739 152.475 45.2435 151.536C42.8723 150.924 40.4395 150.503 38.0001 150.323C29.7621 149.728 21.4917 150.248 13.8327 153.695C9.71017 155.55 6.29374 158.248 4.34452 162.454C2.61236 166.209 2.20517 171.477 3.83935 175.358C5.52805 179.386 8.4424 183.13 12.5989 184.846C16.7554 186.562 21.4432 187.183 25.5024 185.351L25.5167 185.358Z" fill="#C6DF5F"/>
<path d="M-129.194 195.321C-125.89 202.169 -122.148 208.809 -117.497 214.825C-112.898 220.765 -107.642 226.342 -101.93 231.237C-96.2292 236.135 -89.8711 240.311 -83.3022 243.955C-76.7187 247.605 -69.8012 250.113 -62.6187 252.331C-54.9658 254.688 -46.8116 255.901 -38.7949 255.343C-30.5649 254.779 -22.5814 251.92 -15.7635 247.297C-6.17225 240.8 0.278081 230.596 5.28705 220.383C9.90848 210.972 13.4445 200.991 19.0097 192.059C18.2474 193.275 17.485 194.491 16.716 195.722C18.8582 192.331 21.2874 189.134 24.2145 186.377C23.1533 187.367 22.0854 188.372 21.0242 189.363C23.1161 187.429 25.4224 185.752 27.9387 184.417L23.9385 186.539C24.4005 186.296 24.8665 186.065 25.3402 185.854C27.5556 185.133 29.4144 183.933 30.9375 182.245C32.6668 180.888 33.9611 179.164 34.8283 177.095C36.5604 173.34 36.9677 168.072 35.3335 164.191C33.6448 160.163 30.7304 156.419 26.5739 154.703C22.6341 153.087 17.6891 152.321 13.6705 154.198C10.5705 155.64 7.42219 157.244 4.61771 159.261C1.96267 161.163 -0.415739 163.49 -2.70967 165.786C-6.52182 169.588 -9.34852 174.178 -12.1331 178.753C-16.5716 186.058 -19.711 194.059 -23.253 201.814C-25.2173 206.11 -27.3037 210.367 -29.8033 214.381C-29.041 213.165 -28.2787 211.949 -27.5096 210.718C-29.5563 213.978 -31.9006 217.048 -34.6956 219.708C-33.6343 218.717 -32.5665 217.712 -31.5053 216.722C-33.5482 218.626 -35.7952 220.269 -38.2732 221.578C-36.9397 220.871 -35.6063 220.164 -34.2729 219.456C-36.5171 220.619 -38.878 221.465 -41.3295 222.034C-39.8561 221.706 -38.3826 221.379 -36.9091 221.051C-39.8888 221.682 -42.9174 221.888 -45.9561 221.773C-44.5059 221.838 -43.0413 221.909 -41.5911 221.974C-46.9614 221.713 -52.2291 220.526 -57.3498 218.926L-53.2279 220.223C-60.2798 217.968 -67.0003 214.824 -73.2861 210.909C-72.0702 211.671 -70.8542 212.433 -69.6238 213.202C-76.2596 209.02 -82.3273 204.006 -87.6948 198.289C-86.7043 199.35 -85.6993 200.418 -84.7088 201.479C-89.9491 195.848 -94.4552 189.574 -98.0739 182.782C-97.3667 184.115 -96.6593 185.449 -95.952 186.782C-96.4965 185.76 -97.0133 184.716 -97.5195 183.668C-98.2402 181.453 -99.4409 179.594 -101.129 178.071C-102.486 176.342 -104.209 175.047 -106.279 174.18C-110.034 172.448 -115.302 172.041 -119.182 173.675C-123.211 175.364 -126.955 178.278 -128.67 182.434C-130.273 186.345 -131.098 191.36 -129.176 195.338L-129.194 195.321Z" fill="#A8C51B"/>
<path d="M-210.637 40.9145C-207.691 41.5905 -204.778 42.3741 -201.892 43.2761C-203.261 42.8459 -204.63 42.4158 -206.014 41.9789C-197.205 44.7726 -188.779 48.6422 -180.932 53.5406C-182.148 52.7782 -183.364 52.0159 -184.594 51.2469C-177.182 55.9098 -170.358 61.4487 -164.357 67.8426L-167.343 64.6523C-161.981 70.4187 -157.357 76.8167 -153.659 83.7597C-154.366 82.4263 -155.074 81.0929 -155.781 79.7595C-151.334 88.2126 -148.366 97.3063 -146.269 106.602C-146.597 105.128 -146.924 103.655 -147.252 102.182C-144.577 114.248 -143.311 126.559 -141.961 138.838C-140.455 152.451 -138.603 165.959 -135.189 179.252C-133.478 185.944 -131.222 192.485 -128.251 198.725C-127.53 200.94 -126.329 202.799 -124.641 204.322C-123.285 206.051 -121.561 207.346 -119.491 208.213C-115.736 209.945 -110.468 210.352 -106.588 208.718C-102.56 207.029 -98.8158 204.115 -97.0998 199.958C-95.4904 196.033 -94.6899 191.051 -96.5946 187.055C-100.184 179.496 -102.694 171.516 -104.538 163.362C-104.21 164.835 -103.883 166.309 -103.555 167.782C-106.382 155.076 -107.633 142.089 -109.085 129.176C-110.655 115.132 -112.626 101.104 -116.488 87.4728C-123.651 62.2218 -140.1 39.9385 -162.225 25.7648C-168.75 21.5899 -175.379 17.7527 -182.525 14.7537C-189.672 11.7547 -197.168 9.40012 -204.73 7.6809C-208.876 6.74027 -214.133 8.15091 -217.515 10.5843C-220.814 12.9509 -223.746 17.2559 -224.29 21.34C-224.878 25.7278 -224.207 30.5387 -221.387 34.1256C-218.592 37.6741 -215.068 39.8867 -210.631 40.9001L-210.637 40.9145Z" fill="#00A652"/>
<path d="M-305.876 123.344C-310.606 113.929 -314.538 104.075 -316.847 93.7795C-316.52 95.2529 -316.192 96.7263 -315.865 98.1998C-317.247 91.9133 -318.001 85.479 -317.716 79.0334C-317.781 80.4836 -317.852 81.9483 -317.917 83.3985C-317.701 79.0757 -316.995 74.8122 -315.716 70.673L-317.013 74.7949C-315.88 71.2368 -314.321 67.8573 -312.35 64.6856C-313.112 65.9015 -313.875 67.1175 -314.644 68.3478C-312.504 64.9822 -309.917 61.9547 -307.003 59.2265C-308.064 60.217 -309.132 61.222 -310.193 62.2125C-305.701 58.0755 -300.579 54.737 -295.197 51.8778C-296.53 52.5851 -297.864 53.2924 -299.197 53.9997C-287.327 47.7663 -274.387 43.3316 -261.329 40.3877C-262.802 40.7151 -264.276 41.0425 -265.749 41.3699C-253.51 38.6439 -240.971 37.3779 -228.43 37.9087C-229.88 37.844 -231.345 37.7726 -232.795 37.7079C-225.586 38.047 -218.427 38.9676 -211.371 40.5498C-207.214 41.4865 -201.989 40.0875 -198.586 37.6464C-195.287 35.2797 -192.355 30.9747 -191.811 26.8907C-191.223 22.5028 -191.894 17.692 -194.714 14.1051C-197.494 10.5632 -201.041 8.3228 -205.47 7.33057C-213.988 5.42435 -222.555 4.6512 -231.259 4.28796C-238.634 3.98611 -246.023 4.26468 -253.35 5.13196C-269.348 7.0262 -285.275 11.1954 -300.153 17.3633C-307.972 20.6051 -315.73 24.4 -322.746 29.1679C-326.742 31.8874 -330.253 35.0756 -333.731 38.4192C-336.29 40.873 -338.546 43.5983 -340.484 46.5662C-342.826 50.1624 -345.075 53.7841 -346.643 57.79C-348.174 61.6988 -349.448 65.7879 -350.25 69.9192C-351.619 76.9682 -351.79 84.4386 -351.049 91.5849C-349.495 106.726 -344.335 121.472 -337.533 135.014C-336.812 137.229 -335.611 139.088 -333.923 140.611C-332.566 142.34 -330.843 143.635 -328.773 144.502C-325.018 146.234 -319.75 146.641 -315.87 145.007C-311.842 143.318 -308.098 140.404 -306.382 136.248C-304.788 132.376 -303.907 127.257 -305.876 123.344Z" fill="#A8C51B"/>
<path d="M-181.471 331.084C-190.254 300.593 -205.995 272.428 -223.53 246.158C-240.571 220.641 -259.611 196.532 -277.043 171.291C-286.817 157.131 -296.087 142.617 -304.141 127.403C-303.433 128.736 -302.726 130.07 -302.019 131.403C-302.946 129.635 -303.863 127.864 -304.773 126.078C-305.494 123.862 -306.694 122.004 -308.382 120.48C-309.739 118.751 -311.463 117.457 -313.532 116.59C-317.287 114.857 -322.555 114.45 -326.436 116.084C-330.464 117.773 -334.208 120.687 -335.924 124.844C-337.507 128.712 -338.409 133.839 -336.429 137.747C-324.574 161.257 -310.222 183.186 -294.884 204.537C-280.42 224.687 -265.319 244.387 -251.513 264.995C-243.781 276.54 -236.464 288.358 -229.958 300.643C-230.665 299.309 -231.372 297.976 -232.08 296.642C-224.301 311.37 -217.748 326.742 -213.138 342.758C-211.995 346.736 -208.032 350.56 -204.378 352.246C-200.725 353.932 -195.355 354.385 -191.475 352.751C-187.447 351.062 -183.703 348.148 -181.987 343.992C-181.557 342.622 -181.127 341.253 -180.69 339.87C-180.165 336.871 -180.428 333.948 -181.471 331.084Z" fill="#D2DE8F"/>
<path d="M-353.256 344.836C-343.811 362.654 -331.674 378.508 -317.718 393.02C-304.689 406.58 -289.701 418.722 -272.493 426.546C-267.483 428.823 -262.301 430.556 -257.025 432.123C-253.131 433.289 -249.133 434.152 -245.102 434.62C-234.699 435.819 -224.111 435.212 -214.219 431.517C-204.822 428.005 -196.16 421.816 -189.903 413.948C-183.958 406.47 -180.28 397.947 -177.9 388.763C-175.783 380.623 -175.355 371.931 -175.647 363.565C-175.949 354.843 -177.59 346.326 -179.611 337.854C-180.025 336.113 -180.481 334.387 -180.973 332.663C-182.102 328.692 -186.09 324.864 -189.733 323.175C-193.488 321.442 -198.756 321.035 -202.636 322.669C-206.664 324.358 -210.408 327.273 -212.124 331.429L-213.421 335.551C-213.946 338.549 -213.684 341.473 -212.64 344.336C-211.969 346.678 -211.375 349.036 -210.834 351.414C-211.162 349.94 -211.489 348.467 -211.816 346.993C-209.907 355.651 -208.913 364.525 -209.3 373.394C-209.235 371.943 -209.164 370.479 -209.099 369.029C-209.377 374.681 -210.243 380.298 -211.941 385.706C-211.51 384.337 -211.08 382.968 -210.643 381.584C-211.872 385.405 -213.507 389.064 -215.625 392.458C-214.862 391.242 -214.1 390.026 -213.331 388.795C-215.158 391.674 -217.313 394.315 -219.79 396.666C-218.729 395.676 -217.661 394.671 -216.6 393.68C-219.186 396.096 -222.056 398.161 -225.167 399.835C-223.833 399.128 -222.5 398.42 -221.167 397.713C-224.338 399.385 -227.697 400.612 -231.191 401.408C-229.718 401.081 -228.244 400.754 -226.771 400.426C-230.972 401.352 -235.243 401.667 -239.539 401.489C-238.089 401.554 -236.625 401.625 -235.174 401.69C-240.962 401.402 -246.655 400.265 -252.182 398.539C-250.812 398.969 -249.443 399.399 -248.06 399.836C-255.984 397.328 -263.5 393.685 -270.558 389.3C-269.342 390.062 -268.126 390.824 -266.896 391.593C-278.435 384.352 -288.673 375.014 -297.983 365.106C-296.993 366.167 -295.988 367.235 -294.997 368.296C-307.122 355.338 -317.499 340.812 -325.809 325.13C-327.053 323.251 -328.664 321.807 -330.621 320.79C-332.373 319.483 -334.352 318.666 -336.565 318.355C-340.694 317.624 -345.996 318.62 -349.35 321.258C-352.725 323.905 -355.543 327.641 -356.125 332.014L-356.325 336.379C-356.04 339.462 -355.005 342.269 -353.221 344.8L-353.256 344.836Z" fill="#C6DF5F"/>
<path d="M-422.229 320.988C-417.856 315.912 -413.431 310.877 -408.544 306.282C-409.606 307.273 -410.673 308.278 -411.735 309.268C-407.552 305.365 -403.038 301.808 -397.963 299.122C-399.297 299.829 -400.63 300.536 -401.964 301.244C-399.022 299.728 -395.946 298.546 -392.711 297.797C-394.184 298.124 -395.657 298.451 -397.131 298.779C-394.311 298.171 -391.461 297.935 -388.575 298.058C-390.025 297.993 -391.49 297.922 -392.94 297.857C-390.199 298.009 -387.519 298.484 -384.907 299.295C-386.276 298.865 -387.645 298.434 -389.029 297.998C-386.283 298.879 -383.692 300.118 -381.243 301.624C-382.459 300.862 -383.675 300.099 -384.906 299.33C-381.424 301.523 -378.329 304.229 -375.503 307.215C-376.493 306.154 -377.498 305.086 -378.489 304.025C-370.572 312.493 -364.876 322.775 -359.482 332.952C-360.19 331.619 -360.897 330.285 -361.604 328.952C-359.872 332.221 -358.182 335.505 -356.449 338.774C-355.729 340.99 -354.528 342.848 -352.84 344.371C-351.483 346.101 -349.759 347.395 -347.69 348.262C-343.935 349.994 -338.667 350.402 -334.786 348.767C-330.758 347.079 -327.014 344.164 -325.298 340.008L-324.001 335.886C-323.476 332.888 -323.739 329.964 -324.783 327.101C-329.228 318.683 -333.485 310.16 -338.329 301.961C-343.079 293.92 -348.559 286.663 -355.144 280.017C-362.181 272.926 -370.976 268.09 -380.612 265.589C-382.427 265.119 -384.29 264.811 -386.166 264.664C-389.719 264.391 -393.373 264.168 -396.928 264.604C-400.813 265.089 -404.741 265.974 -408.443 267.279C-412.093 268.564 -415.527 270.465 -418.884 272.35C-425.187 275.896 -430.504 280.853 -435.688 285.844C-440.153 290.151 -444.233 294.819 -448.281 299.512C-451.006 302.686 -452.413 307.519 -452.066 311.647C-451.714 315.82 -449.38 320.689 -445.976 323.257C-442.557 325.833 -438.21 327.61 -433.841 327.042C-429.277 326.451 -425.279 324.485 -422.23 320.952L-422.229 320.988Z" fill="#A8C51B"/>
<path d="M-586.71 404.527C-561.48 408.231 -535.681 403.791 -512.572 393.223C-500.765 387.827 -489.451 381.259 -478.87 373.739C-468.29 366.219 -457.944 357.251 -448.212 348.114C-438.445 338.94 -429.245 329.172 -420.498 319.019C-417.768 315.856 -416.366 311.012 -416.713 306.884C-417.064 302.711 -419.399 297.842 -422.803 295.274C-426.221 292.698 -430.568 290.921 -434.938 291.489C-439.502 292.08 -443.5 294.046 -446.548 297.579C-455.295 307.731 -464.485 317.495 -474.262 326.673L-471.072 323.687C-485.803 337.472 -501.891 349.983 -519.735 359.485C-518.402 358.778 -517.068 358.071 -515.735 357.364C-526.777 363.208 -538.463 367.827 -550.674 370.567C-549.2 370.239 -547.727 369.912 -546.253 369.585C-555.554 371.635 -565.051 372.535 -574.57 372.137L-570.205 372.337C-573.754 372.171 -577.295 371.834 -580.809 371.308C-585.22 370.657 -589.927 371.577 -593.594 374.211C-596.893 376.578 -599.825 380.883 -600.369 384.967C-600.957 389.355 -600.286 394.166 -597.466 397.753C-594.797 401.156 -591.092 403.889 -586.71 404.527Z" fill="#00A652"/>
</svg>
