<svg width="368" height="337" viewBox="0 0 368 337" fill="none" xmlns="http://www.w3.org/2000/svg">
<path d="M517.99 306.179C506.177 299.716 493.598 294.822 480.441 291.963C467.249 289.095 453.838 287.567 440.344 287.535C432.094 287.517 423.876 288.062 415.663 288.782C413.478 289.165 411.534 290.035 409.849 291.405C407.89 292.503 406.327 294.032 405.15 296.009C402.925 299.437 401.791 304.514 402.831 308.552C403.915 312.726 406.235 316.814 410.077 319.068C411.427 319.706 412.777 320.344 414.126 320.982C416.926 321.859 419.768 321.995 422.638 321.395C423.112 321.359 423.578 321.316 424.058 321.271C422.644 321.386 421.23 321.501 419.8 321.619C436.225 320.282 452.824 320.556 469.084 323.416C467.671 323.161 466.243 322.91 464.83 322.655C476.281 324.711 487.476 328.058 498.009 333.04C496.659 332.402 495.309 331.765 493.959 331.127C495.955 332.078 497.914 333.084 499.852 334.144C503.785 336.299 507.908 337.426 512.407 336.48C516.406 335.632 520.817 332.841 522.92 329.254C525.107 325.536 526.344 321.015 525.239 316.71C524.177 312.604 521.851 308.301 517.993 306.194L517.99 306.179Z" fill="#FDEAD9"/>
<path d="M320.14 304.365C331.953 310.827 344.532 315.721 357.689 318.58C370.88 321.448 384.292 322.976 397.785 323.008C406.036 323.026 414.254 322.481 422.467 321.761C424.652 321.378 426.596 320.508 428.28 319.138C430.24 318.04 431.802 316.512 432.979 314.535C435.205 311.106 436.338 306.029 435.299 301.991C434.214 297.818 431.894 293.73 428.053 291.475C426.703 290.837 425.353 290.199 424.003 289.561C421.204 288.684 418.361 288.548 415.492 289.148C415.017 289.184 414.552 289.227 414.072 289.272C415.486 289.157 416.9 289.042 418.329 288.924C401.905 290.261 385.306 289.987 369.046 287.127C370.459 287.382 371.887 287.634 373.3 287.889C361.849 285.833 350.653 282.485 340.121 277.503C341.471 278.141 342.821 278.779 344.17 279.416C342.175 278.466 340.216 277.459 338.277 276.399C334.345 274.244 330.222 273.117 325.722 274.063C321.724 274.911 317.313 277.702 315.21 281.289C313.022 285.007 311.786 289.528 312.89 293.833C313.952 297.939 316.278 302.243 320.136 304.349L320.14 304.365Z" fill="#FD8199"/>
<path d="M251.568 178.912C251.552 199.187 255.642 218.937 263.338 237.69C266.644 245.755 270.757 253.496 275.607 260.736C281.187 269.058 287.155 276.944 294.377 283.922C302.379 291.659 311.223 298.63 320.974 304.019C324.891 306.178 329.045 307.298 333.529 306.355C337.527 305.507 341.939 302.716 344.041 299.129C346.229 295.411 347.466 290.89 346.361 286.585C345.299 282.479 342.97 278.2 339.115 276.069C332.564 272.452 326.429 268.153 320.743 263.284C321.875 264.257 323.007 265.23 324.14 266.203C316.245 259.384 309.323 251.515 303.447 242.894C304.255 244.081 305.066 245.283 305.874 246.469C299.5 237.062 294.402 226.854 290.626 216.141C291.097 217.479 291.568 218.818 292.042 220.171C288.342 209.547 285.959 198.506 284.996 187.301L285.35 191.556C285.046 187.877 284.894 184.189 284.895 180.509C284.897 176.193 283.618 171.933 280.701 168.663C277.949 165.566 273.217 163.09 269 163.068C264.769 163.049 260.275 164.211 257.153 167.243C254.031 170.275 251.575 174.428 251.572 178.928L251.568 178.912Z" fill="#D4145A"/>
<path d="M310.01 49.4972C296.447 62.4238 284.409 77.2931 275.035 93.534C265.715 109.691 258.388 127.274 254.583 145.58C252.327 156.431 250.848 167.415 250.802 178.52C250.78 182.823 252.088 187.102 254.996 190.366C257.747 193.463 262.48 195.939 266.696 195.961C270.928 195.98 275.422 194.818 278.543 191.786C281.687 188.741 284.1 184.614 284.125 180.101C284.159 171.834 284.925 163.605 286.376 155.464C286.123 156.875 285.874 158.302 285.621 159.714C288.101 146.003 292.477 132.702 298.41 120.107C297.774 121.455 297.138 122.803 296.501 124.151C303.3 109.814 312.065 96.4745 322.381 84.4207C321.409 85.5508 320.437 86.6809 319.465 87.811C323.475 83.1444 327.717 78.6939 332.17 74.4474C335.369 71.3991 337.542 67.2345 337.752 62.7628C337.934 58.763 336.399 53.8338 333.557 50.917C330.5 47.7807 326.37 45.338 321.857 45.3224C317.595 45.3101 313.175 46.48 310.01 49.4972Z" fill="#FE027B"/>
<path d="M406.769 110.883C408.951 108.114 410.796 105.128 412.328 101.951C413.859 98.7738 415.263 95.9373 416.291 92.7384C417.32 89.5395 417.865 86.1858 418.402 82.8662C419.274 77.3944 418.911 71.5177 417.681 66.138C415.958 58.5972 412.551 52.281 408.087 46.0603C406.36 43.6545 404.376 41.4398 402.227 39.3964C399.323 36.6375 396.2 33.9089 392.786 31.7723C389.555 29.7415 386.014 28.0656 382.438 26.7508C378.992 25.4807 375.336 24.8819 371.726 24.3134C365.972 23.4121 359.881 23.9079 354.189 24.9539C348.503 25.9906 342.909 27.9879 337.631 30.2959C331.937 32.7967 326.774 36.1329 321.657 39.6442C318.264 41.9704 315.015 44.5231 312.021 47.3595C308.819 50.3925 306.643 54.5818 306.439 59.0441C306.257 63.0439 307.792 67.9731 310.634 70.89C313.691 74.0262 317.821 76.4689 322.334 76.4845C326.605 76.5029 331.007 75.3208 334.181 72.3098C337.276 69.3797 340.635 66.7395 344.16 64.3531C342.973 65.1589 341.772 65.9681 340.586 66.7739C345.732 63.3209 351.239 60.3937 357.09 58.3257C355.752 58.7943 354.413 59.2629 353.059 59.7347C357.069 58.3383 361.207 57.3565 365.443 56.9808C364.029 57.0958 362.615 57.2108 361.185 57.329C364.402 57.073 367.608 57.1807 370.785 57.7204C369.372 57.4655 367.944 57.2138 366.532 56.9589C369.499 57.4948 372.361 58.3987 375.091 59.6678C373.741 59.03 372.392 58.3922 371.042 57.7544C374.015 59.181 376.743 61.0049 379.251 63.1489C378.119 62.1757 376.987 61.2025 375.854 60.2292C378.84 62.8423 381.531 65.8072 383.766 69.0855C382.958 67.8989 382.147 66.697 381.339 65.5104C383.003 67.9939 384.379 70.6349 385.396 73.4403C384.925 72.1019 384.454 70.7635 383.98 69.4097C384.903 72.0343 385.496 74.7368 385.726 77.5081C385.609 76.0948 385.492 74.6813 385.372 73.2526C385.591 76.1227 385.44 78.9909 384.959 81.8167C385.212 80.4052 385.462 78.9783 385.715 77.5668C385.082 81.1156 383.934 84.541 382.403 87.7981C383.039 86.45 383.676 85.1018 384.312 83.7537C382.796 86.9275 380.944 89.9232 378.753 92.6856C376.247 95.8523 375.629 101.423 376.434 105.229C377.288 109.226 380.087 113.639 383.68 115.745C387.403 117.937 391.928 119.179 396.235 118.081C397.573 117.613 398.912 117.144 400.266 116.672C402.95 115.316 405.108 113.38 406.756 110.861L406.769 110.883Z" fill="#D4145A"/>
<path d="M258.171 206.132C280.464 201.189 302.291 193.204 322.48 182.552C342.685 171.897 361.725 158.54 378.467 143.003C388.341 133.84 397.41 123.81 405.792 113.267C408.301 110.116 408.922 104.521 408.111 100.724C407.257 96.7265 404.458 92.3143 400.865 90.2075C397.142 88.0159 392.617 86.7738 388.31 87.8716C386.971 88.3401 385.633 88.8087 384.279 89.2805C381.595 90.6369 379.436 92.5729 377.788 95.0917C375.901 97.4683 373.964 99.7993 371.989 102.106C372.961 100.976 373.933 99.8459 374.906 98.7158C364.017 111.365 351.811 122.855 338.545 132.995C334.808 135.852 330.982 138.6 327.093 141.24C328.279 140.434 329.481 139.625 330.667 138.819C317.084 147.998 302.613 155.846 287.475 162.149C283.128 163.962 278.737 165.64 274.294 167.193C275.633 166.724 276.971 166.256 278.325 165.784C269.431 168.883 260.379 171.468 251.193 173.504C246.995 174.434 243.033 177.106 240.68 180.73C238.455 184.159 237.321 189.236 238.361 193.274C239.445 197.447 241.765 201.535 245.607 203.79C249.411 206.021 253.77 207.089 258.162 206.126L258.171 206.132Z" fill="#FDEAD9"/>
<path d="M120.577 175.049C132.092 182.523 144.302 188.925 156.952 194.262C166.653 198.36 176.706 201.628 186.988 203.932C197.158 206.203 207.536 207.828 217.952 208.391C227.001 208.875 235.983 208.442 245.006 207.638C251.947 207.018 258.844 205.933 265.653 204.434C269.845 203.513 273.819 200.822 276.165 197.208C278.511 193.593 279.524 188.702 278.485 184.664C277.4 180.491 275.08 176.403 271.239 174.148C267.435 171.917 263.075 170.849 258.684 171.812C251.438 173.412 244.097 174.526 236.703 175.13C238.117 175.015 239.531 174.9 240.961 174.781C230.609 175.61 220.188 175.441 209.875 174.269C206.48 173.88 203.103 173.382 199.752 172.783C201.165 173.038 202.593 173.29 204.006 173.545C188.626 170.779 173.727 165.822 159.604 159.159C160.954 159.796 162.304 160.434 163.654 161.072C155.042 156.992 146.74 152.292 138.743 147.102C135.151 144.77 130.371 143.879 126.188 144.766C122.19 145.613 117.779 148.405 115.676 151.992C113.488 155.71 112.251 160.23 113.356 164.536C114.461 168.841 116.804 172.587 120.602 175.052L120.577 175.049Z" fill="#FD8199"/>
<path d="M1.38242 20.4201C4.70343 33.4072 9.2613 46.1643 14.9003 58.3386C20.5711 70.5866 27.5241 82.0646 35.1204 93.2053C41.9338 103.202 49.4747 112.692 57.6316 121.641C66.8585 131.761 76.8822 141.021 87.2988 149.901C97.8121 158.856 108.921 167.099 120.482 174.643C124.066 176.969 128.861 177.857 133.038 176.979C137.036 176.132 141.447 173.34 143.55 169.753C145.738 166.035 146.974 161.515 145.87 157.209C144.765 152.904 142.415 149.168 138.624 146.693C126.81 138.986 115.474 130.542 104.754 121.373C105.886 122.346 107.018 123.319 108.151 124.293C93.9686 112.121 80.8802 98.674 69.388 83.9321C66.1416 79.7593 63.0172 75.4803 60.0488 71.1039C60.8569 72.2905 61.6682 73.4924 62.4763 74.679C52.1591 59.4549 43.6092 43.0608 37.4928 25.7168C37.9636 27.0553 38.4344 28.3936 38.9084 29.7474C37.0379 24.4152 35.4008 19.0094 34.0065 13.5361C32.921 9.2828 30.5025 5.44874 26.7606 3.02007C23.3267 0.791261 18.2446 -0.348958 14.2055 0.684078C10.0312 1.76183 5.94397 4.07456 3.6931 7.91025C1.49943 11.6374 0.275009 16.1393 1.3736 20.4541L1.38242 20.4201Z" fill="#FE027B"/>
</svg>
