<svg width="1366" height="842" viewBox="0 0 1366 842" fill="none" xmlns="http://www.w3.org/2000/svg">
<path d="M1293.69 525.504C1296.52 526.538 1299.34 527.641 1302.13 528.811C1299.44 527.686 1296.72 526.538 1294.03 525.413C1310.34 532.277 1325.67 541.27 1339.71 552.029C1337.42 550.269 1335.14 548.51 1332.82 546.728C1346.57 557.352 1358.99 569.63 1369.64 583.381C1367.87 581.101 1366.11 578.82 1364.32 576.517C1373.79 588.846 1381.8 602.218 1387.93 616.522L1384.5 608.432C1390.12 621.674 1394.03 635.552 1396.01 649.819C1395.59 646.812 1395.18 643.805 1394.77 640.797C1395.41 645.681 1395.83 650.565 1396.02 655.495C1396.35 664.383 1399.6 673.106 1405.99 679.471C1411.88 685.339 1421.55 689.752 1430 689.35C1438.78 688.948 1447.86 686.034 1453.97 679.373C1459.93 672.87 1464.21 664.425 1463.85 655.357C1462.54 621.232 1452.16 587.759 1434.26 558.666C1416.11 529.189 1391.37 504.588 1362.7 485.378C1346.83 474.758 1329.47 466.629 1311.57 460.039C1307.07 458.623 1302.55 458.452 1298.05 459.456C1293.53 459.669 1289.33 461.012 1285.44 463.507C1278.42 467.638 1271.72 475.725 1269.91 483.803C1267.96 492.492 1268.38 502.238 1273.37 509.94C1275.14 512.221 1276.91 514.501 1278.7 516.805C1282.94 521.002 1287.94 523.887 1293.69 525.504Z" fill="#FF8402"/>
<path d="M1103.01 535.188C1104.23 534.666 1105.42 534.143 1106.64 533.62C1103.96 534.757 1101.25 535.916 1098.56 537.052C1126.41 525.257 1155.68 516.852 1185.65 512.743C1182.64 513.156 1179.64 513.569 1176.63 513.982C1200.82 510.744 1225.33 510.355 1249.55 513.472C1246.54 513.071 1243.53 512.67 1240.53 512.269C1257.49 514.518 1274.14 518.51 1290.23 524.335C1294.73 525.75 1299.25 525.922 1303.75 524.918C1308.27 524.705 1312.47 523.362 1316.36 520.866C1323.38 516.736 1330.08 508.648 1331.89 500.571C1333.84 491.882 1333.42 482.135 1328.43 474.434L1323.1 467.569C1318.86 463.371 1313.86 460.487 1308.11 458.87C1294.51 453.945 1280.47 450.287 1266.19 447.942C1249.43 445.194 1232.49 443.419 1215.49 443.431C1183.95 443.428 1151.96 448.333 1121.66 456.989C1103.47 462.183 1085.96 469.071 1068.63 476.638C1064.68 478.772 1061.52 481.696 1059.13 485.387C1056.13 488.672 1054.13 492.521 1053.1 496.933C1050.87 505.057 1051.91 515.865 1056.56 523.07C1061.24 530.298 1068.21 536.662 1076.85 538.611L1085.88 539.814C1092.01 539.802 1097.7 538.23 1102.98 535.143L1103.01 535.188Z" fill="#FFBB44"/>
<path d="M931.549 656.512C954.387 635.048 977.86 614.238 1002.62 595.009C1000.34 596.778 998.065 598.547 995.762 600.338C1028.74 574.782 1064.04 552.117 1102.28 535.28C1106.24 533.146 1109.4 530.222 1111.79 526.531C1114.79 523.246 1116.79 519.397 1117.82 514.984C1120.04 506.861 1119 496.052 1114.35 488.847C1109.68 481.62 1102.7 475.256 1094.06 473.306C1091.05 472.905 1088.05 472.504 1085.04 472.104C1078.91 472.116 1073.22 473.688 1067.93 476.775C1013.1 500.882 964.43 537.009 919.401 576.091C907.19 586.678 895.251 597.581 883.493 608.641C877.287 614.466 873.599 624.244 873.616 632.657C873.634 641.07 877.339 650.901 883.591 656.632C890.07 662.544 898.558 666.937 907.602 666.512C916.758 666.086 924.801 662.881 931.571 656.534L931.549 656.512Z" fill="#FED000"/>
<path d="M676.902 776.444C687.805 778.548 699 780.018 710.125 780.131C721.249 780.244 731.67 778.866 742.339 777.17C761.055 774.215 778.768 767.393 795.913 759.488C829.82 743.859 859.821 720.096 887.877 695.772C902.751 682.873 917.127 669.387 931.457 655.901C937.663 650.054 941.351 640.299 941.334 631.885C941.317 623.472 937.611 613.642 931.359 607.91C924.88 601.998 916.392 597.605 907.349 598.031C898.192 598.456 890.149 601.662 883.379 608.008C861.037 629.019 838.627 649.984 814.382 668.805C816.662 667.037 818.942 665.268 821.245 663.476C800.927 679.191 779.295 693.461 755.597 703.573L763.685 700.141C750.062 705.869 735.871 710.127 721.223 712.17C724.23 711.756 727.236 711.343 730.243 710.93C718.352 712.515 706.369 712.63 694.473 711.139C697.481 711.54 700.489 711.94 703.497 712.341C700.579 711.963 697.684 711.471 694.789 710.934C685.741 709.189 676.81 709.614 668.658 714.403C661.634 718.533 654.935 726.621 653.12 734.699C651.171 743.387 651.598 753.134 656.588 760.836C661.192 767.928 668.283 774.721 676.879 776.377L676.902 776.444Z" fill="#FD8199"/>
<path d="M454.318 542.845C458.343 542.543 462.322 542.648 466.325 543.138C463.317 542.737 460.309 542.336 457.301 541.935C463.25 542.737 468.996 544.376 474.54 546.694L466.439 543.296C472.866 546.064 478.843 549.648 484.413 553.866C482.126 552.106 479.839 550.347 477.529 548.565C484.776 554.159 491.211 560.682 496.833 567.908C495.065 565.627 493.296 563.346 491.505 561.043C501.889 574.637 509.269 590.182 515.926 605.841L512.495 597.751C519.743 614.857 526.313 632.303 534.465 649.022C540.709 661.81 547.856 674.167 555.997 685.843C575.001 713.101 598.114 737.615 626.932 754.609C642.349 763.714 659.616 770.758 677.191 774.273C686.194 776.064 695.215 775.57 703.322 770.804C710.346 766.674 717.045 758.586 718.86 750.509C720.809 741.82 720.382 732.073 715.392 724.372C710.788 717.234 703.697 710.554 695.101 708.83C686.505 707.107 677.953 704.478 669.784 701.057L677.885 704.456C666.253 699.504 655.387 693.012 645.332 685.344L652.216 690.644C638.878 680.359 627.118 668.215 616.758 654.961L622.085 661.825C607.032 642.406 595.185 620.9 585.552 598.326L588.983 606.416C579.054 582.983 570.615 558.507 557.005 536.846C550.199 526.027 542.174 515.527 532.795 506.771C527.267 501.603 521.153 496.911 514.949 492.627C510.896 489.831 506.594 487.352 502.113 485.326C486.973 478.504 471 473.765 454.157 474.975C445.092 475.627 436.776 478.358 430.188 484.952C424.321 490.845 419.909 500.511 420.311 508.968C420.713 517.742 423.625 526.828 430.286 532.944C436.946 539.059 445.366 543.474 454.296 542.823L454.318 542.845Z" fill="#FE027B"/>
<path d="M155.359 454.643C156.859 469.86 159.332 484.985 163.952 499.563C168.526 513.96 174.592 528.128 181.991 541.321C189.389 554.514 198.481 566.798 208.362 578.222C218.267 589.668 229.591 599.189 241.616 608.346C254.434 618.09 268.989 626.021 284.509 630.513C300.437 635.139 317.485 635.263 333.554 631.249C356.153 625.617 375.387 610.81 391.906 594.99C407.138 580.417 420.717 564.015 437.399 550.999C435.119 552.768 432.839 554.537 430.537 556.328C436.926 551.407 443.723 547.051 451.155 543.87C448.467 545.006 445.756 546.165 443.067 547.301C448.354 545.097 453.868 543.525 459.541 542.744L450.522 543.984C451.562 543.846 452.602 543.731 453.642 543.661C458.323 543.832 462.662 542.851 466.705 540.717C470.908 539.351 474.543 536.992 477.611 533.684C483.478 527.791 487.89 518.125 487.489 509.668C487.086 500.894 484.173 491.808 477.513 485.693C471.193 479.916 462.388 475.049 453.503 475.813C446.653 476.393 439.601 477.244 432.911 479.112C426.584 480.866 420.485 483.615 414.566 486.364C404.74 490.907 396.229 497.619 387.809 504.33C374.378 515.055 362.918 527.992 350.868 540.184C344.189 546.938 337.307 553.533 329.812 559.383C332.092 557.615 334.372 555.846 336.675 554.055C330.557 558.794 324.008 562.968 316.892 566.059C319.58 564.922 322.291 563.764 324.98 562.627C319.806 564.809 314.428 566.358 308.845 567.116C311.851 566.702 314.857 566.289 317.864 565.876C312.823 566.519 307.781 566.484 302.76 565.861C305.768 566.262 308.776 566.663 311.784 567.064C305.722 566.195 299.863 564.488 294.205 562.17L302.307 565.568C292.35 561.36 283.225 555.475 274.665 548.912L281.55 554.212C269.796 545.077 259.283 534.491 250.124 522.75C251.892 525.03 253.661 527.311 255.452 529.614C245.817 517.127 237.83 503.461 231.65 488.954C232.786 491.643 233.945 494.354 235.081 497.043C229.082 482.785 224.914 467.822 222.78 452.492C223.193 455.499 223.606 458.506 224.019 461.514C223.698 459.207 223.444 456.878 223.214 454.549C223.385 449.868 222.404 445.527 220.27 441.483C218.905 437.28 216.546 433.643 213.239 430.574C207.348 424.706 197.684 420.293 189.228 420.695C180.456 421.097 171.373 424.011 165.259 430.672C159.528 436.948 154.504 445.847 155.381 454.688L155.359 454.643Z" fill="#FF8402"/>
<path d="M108.387 106.746C113.481 110.06 118.44 113.555 123.263 117.254C120.976 115.495 118.689 113.735 116.379 111.954C131.076 123.322 144.308 136.457 155.734 151.135C153.965 148.854 152.197 146.573 150.406 144.27C161.175 158.202 170.228 173.382 177.134 189.606L173.704 181.516C179.838 196.114 184.143 211.394 186.323 227.062C185.91 224.055 185.497 221.048 185.084 218.041C187.632 237.078 186.948 256.303 184.477 275.306C184.878 272.297 185.279 269.288 185.68 266.28C182.383 290.915 176.26 315.036 170.317 339.157C163.747 365.903 157.9 392.692 155.153 420.154C153.756 433.975 153.491 447.884 154.785 461.723C154.614 466.405 155.595 470.745 157.729 474.789C159.094 478.993 161.453 482.629 164.76 485.698C170.651 491.566 180.315 495.979 188.771 495.577C197.543 495.175 206.627 492.262 212.74 485.6C218.493 479.301 223.45 470.448 222.618 461.584C221.068 444.829 221.848 428.024 224.007 411.351C223.606 414.36 223.206 417.369 222.805 420.377C226.256 394.43 232.875 369.041 239.064 343.653C245.813 316.048 251.793 288.195 253.929 259.785C257.868 207.15 242.225 153.695 210.258 111.626C200.827 99.2291 190.967 87.3985 179.549 76.7922C168.132 66.186 155.609 56.5545 142.522 48.0776C135.345 43.4334 124.445 42.4605 116.377 44.716C108.31 46.9714 100.001 53.0043 96.1497 60.3398C92.0054 68.2186 89.9447 77.7668 92.7889 86.4908C95.6103 95.1243 100.734 101.74 108.409 106.723L108.387 106.746Z" fill="#FFBB44"/>
<path d="M-128.414 196.517C-130.831 175.467 -131.44 154.141 -128.68 133.102C-129.08 136.111 -129.481 139.12 -129.882 142.129C-128.145 129.302 -125.118 116.631 -120.123 104.657C-121.248 107.35 -122.396 110.066 -123.521 112.76C-120.123 104.747 -115.842 97.1845 -110.565 90.2532L-115.865 97.1393C-111.264 91.2045 -105.984 85.9016 -100.07 81.2758C-102.35 83.0445 -104.63 84.8132 -106.932 86.6046C-100.566 81.7292 -93.5874 77.8023 -86.2 74.6662C-88.8884 75.8025 -91.5993 76.9615 -94.2877 78.0978C-82.9466 73.3931 -70.9685 70.6321 -58.8299 68.9563C-61.8363 69.3696 -64.8428 69.7828 -67.8492 70.196C-41.1304 66.636 -13.6345 67.2131 13.0534 70.6867C10.0453 70.2857 7.0373 69.8848 4.02927 69.4838C29.021 72.8026 53.5666 79.0849 76.8755 88.7622C74.1825 87.6369 71.4669 86.4891 68.7739 85.3638C82.1484 90.9905 95.0276 97.6811 107.254 105.549C114.453 110.193 125.286 111.166 133.399 108.911C141.263 106.724 149.774 100.622 153.626 93.287C157.77 85.4082 159.831 75.86 156.987 67.136C154.188 58.525 149.042 51.8412 141.367 46.9039C126.605 37.4127 110.966 30.0266 94.7853 23.3201C81.0715 17.6488 66.9304 13.064 52.4977 9.63324C20.9855 2.14383 -11.9649 -1.00036 -44.3182 0.354829C-61.3202 1.06803 -78.5911 2.86735 -95.1338 7.01726C-104.558 9.38857 -113.391 12.9799 -122.269 16.888C-128.798 19.751 -134.941 23.3369 -140.653 27.6004C-147.561 32.7709 -154.311 38.0542 -160.041 44.5341C-165.635 50.8554 -170.867 57.6962 -175.239 64.9422C-182.698 77.3058 -188.186 91.2938 -191.73 105.3C-199.267 134.965 -199.723 166.38 -196.247 196.656C-196.418 201.338 -195.437 205.678 -193.303 209.722C-191.938 213.926 -189.579 217.562 -186.271 220.631C-180.381 226.499 -170.717 230.912 -162.261 230.51C-153.489 230.108 -144.405 227.195 -138.292 220.533C-132.606 214.325 -127.402 205.268 -128.414 196.517Z" fill="#A8C51B"/>
<path d="M-37.2203 674.841C-32.7151 611.191 -42.953 547.118 -57.8892 485.384C-72.4147 425.413 -91.686 366.718 -107.138 306.998C-115.799 273.499 -123.261 239.681 -127.944 205.382C-127.531 208.389 -127.118 211.396 -126.705 214.403C-127.233 210.424 -127.738 206.444 -128.221 202.442C-128.05 197.76 -129.031 193.42 -131.165 189.376C-132.53 185.172 -134.889 181.536 -138.196 178.467C-144.087 172.599 -153.751 168.186 -162.207 168.588C-170.979 168.99 -180.063 171.903 -186.176 178.565C-191.839 184.773 -197.089 193.831 -196.054 202.581C-189.932 255.173 -178.001 306.51 -163.811 357.435C-150.44 405.489 -135.555 453.133 -123.744 501.598C-117.131 528.747 -111.491 556.123 -107.703 583.82C-108.116 580.813 -108.53 577.806 -108.943 574.799C-104.443 607.99 -102.701 641.549 -105.075 674.98C-105.669 683.281 -100.832 693.245 -95.1 698.955C-89.3678 704.665 -79.5454 709.236 -71.0897 708.835C-62.3175 708.432 -53.234 705.519 -47.12 698.857C-45.3611 696.569 -43.6021 694.282 -41.8205 691.971C-38.7563 686.673 -37.2304 680.97 -37.2203 674.841Z" fill="#00A652"/>
<path d="M-371.033 581.983C-365.524 622.161 -353.575 660.493 -337.265 697.55C-322.045 732.167 -302.147 765.462 -275.073 792.139C-267.188 799.903 -258.605 806.761 -249.728 813.369C-243.183 818.263 -236.233 822.659 -228.945 826.331C-210.136 835.791 -189.728 841.969 -168.497 841.835C-148.328 841.703 -127.696 836.007 -110.443 825.478C-94.0481 815.471 -81.2101 801.92 -70.3664 786.225C-60.7399 772.319 -53.9218 756.203 -48.6862 740.203C-43.2258 723.523 -40.4346 706.307 -38.3899 688.911C-37.9676 685.337 -37.6358 681.763 -37.3718 678.166C-36.7556 669.888 -41.6372 659.901 -47.3469 654.191C-53.2376 648.323 -62.9015 643.91 -71.3572 644.312C-80.1293 644.714 -89.2129 647.627 -95.3269 654.289L-100.626 661.175C-103.691 666.474 -105.216 672.176 -105.227 678.305C-105.578 683.191 -106.089 688.054 -106.712 692.918C-106.311 689.909 -105.91 686.9 -105.509 683.892C-107.892 701.56 -112.153 719.005 -119.015 735.484C-117.89 732.79 -116.743 730.074 -115.618 727.38C-120.051 737.861 -125.57 747.868 -132.516 756.906C-130.757 754.618 -128.998 752.33 -127.216 750.02C-132.178 756.385 -137.796 762.164 -144.139 767.107C-141.859 765.338 -139.579 763.57 -137.277 761.778C-142.717 765.951 -148.612 769.446 -154.914 772.173C-152.226 771.036 -149.515 769.877 -146.827 768.741C-153.378 771.513 -160.225 773.427 -167.255 774.437C-164.249 774.023 -161.242 773.61 -158.236 773.197C-165.379 774.161 -172.569 774.154 -179.716 773.241C-176.708 773.642 -173.7 774.043 -170.692 774.444C-179.264 773.285 -187.544 770.927 -195.533 767.619C-192.84 768.744 -190.124 769.892 -187.431 771.018C-198.158 766.471 -208.119 760.385 -217.359 753.303C-215.072 755.062 -212.784 756.821 -210.474 758.603C-223.7 748.385 -235.369 736.309 -245.661 723.145C-243.893 725.426 -242.125 727.706 -240.334 730.01C-257.11 708.355 -269.981 683.639 -280.705 658.49C-279.568 661.179 -278.41 663.89 -277.274 666.579C-291.201 633.724 -300.746 599.118 -305.589 563.757C-306.638 559.349 -308.681 555.508 -311.672 552.235C-314.077 548.553 -317.248 545.642 -321.209 543.525C-328.499 539.288 -339.197 537.5 -347.354 540.163C-355.556 542.826 -363.46 547.93 -367.582 555.787L-370.979 563.89C-372.572 569.909 -372.56 575.925 -370.942 581.938L-371.033 581.983Z" fill="#FED000"/>
<path d="M-484.751 489.241C-472.984 482.681 -461.149 476.234 -448.747 470.939C-451.435 472.075 -454.146 473.234 -456.835 474.37C-446.239 469.893 -435.258 466.297 -423.82 464.736C-426.826 465.149 -429.833 465.563 -432.839 465.976C-426.238 465.148 -419.614 465.044 -412.987 465.868C-415.995 465.467 -419.003 465.066 -422.011 464.665C-416.266 465.467 -410.724 466.994 -405.36 469.222C-408.053 468.096 -410.769 466.949 -413.462 465.823C-408.393 468.007 -403.661 470.756 -399.291 474.094C-401.578 472.335 -403.865 470.576 -406.175 468.794C-401.6 472.358 -397.567 476.488 -393.985 481.027C-395.754 478.746 -397.522 476.465 -399.313 474.162C-394.257 480.711 -390.286 487.962 -387.014 495.555C-388.15 492.866 -389.309 490.154 -390.445 487.465C-381.357 508.932 -377.714 532.287 -374.569 555.236C-374.983 552.228 -375.396 549.221 -375.809 546.214C-374.799 553.585 -373.879 560.956 -372.87 568.327C-373.041 573.009 -372.06 577.349 -369.926 581.393C-368.561 585.597 -366.202 589.233 -362.894 592.302C-357.004 598.17 -347.34 602.583 -338.884 602.181C-330.112 601.779 -321.028 598.866 -314.914 592.204L-309.615 585.318C-306.551 580.02 -305.025 574.317 -305.015 568.188C-307.586 549.219 -309.728 530.18 -313.203 511.348C-316.61 492.878 -321.936 475.384 -329.772 458.28C-338.153 440.023 -351.411 424.807 -367.872 413.419C-370.974 411.277 -374.279 409.407 -377.719 407.831C-384.237 404.859 -390.982 401.91 -397.994 400.273C-405.663 398.502 -413.692 397.455 -421.583 397.358C-429.362 397.261 -437.16 398.476 -444.8 399.713C-459.153 402.049 -472.617 407.73 -485.855 413.57C-497.264 418.614 -508.195 424.607 -519.081 430.667C-526.421 434.776 -532.419 442.93 -534.618 450.963C-536.84 459.087 -535.801 469.895 -531.151 477.1C-526.478 484.328 -519.501 490.691 -510.86 492.641C-501.834 494.681 -492.927 493.735 -484.729 489.173L-484.751 489.241Z" fill="#F07402"/>
<path d="M-853.037 533.212C-807.969 557.659 -756.193 567.119 -705.259 563.148C-679.238 561.127 -653.336 556.551 -628.161 549.67C-602.987 542.788 -577.253 533.011 -552.561 522.489C-527.779 511.922 -503.655 499.841 -480.121 486.721C-472.781 482.635 -466.783 474.458 -464.584 466.425C-462.362 458.302 -463.401 447.493 -468.051 440.288C-472.724 433.061 -479.701 426.697 -488.342 424.747C-496.984 422.797 -506.275 423.653 -514.473 428.216C-538.007 441.336 -562.108 453.417 -586.913 463.984L-578.826 460.552C-616.169 476.392 -655.192 488.888 -695.451 494.488C-692.444 494.075 -689.438 493.662 -686.432 493.249C-711.319 496.647 -736.574 497.286 -761.521 494.013C-758.513 494.413 -755.505 494.814 -752.496 495.215C-771.472 492.653 -790.023 487.784 -807.72 480.447L-799.618 483.845C-806.203 481.077 -812.654 477.992 -818.924 474.567C-826.801 470.286 -836.324 468.767 -845.069 471.205C-852.933 473.392 -861.445 479.494 -865.296 486.829C-869.441 494.708 -871.501 504.256 -868.657 512.98C-865.972 521.252 -860.869 528.976 -853.037 533.212Z" fill="#FE027B"/>
</svg>
